M48
;DRILL file {Pcbnew (2013-07-07 BZR 4022)-stable} date 12/24/2013 12:38:23 AM
;FORMAT={-:-/ absolute / inch / decimal}
FMAT,2
INCH,TZ
T1C0.024
T2C0.032
%
G90
G05
M72
T1
X5.0598Y-4.189
X5.0598Y-5.1339
X5.0598Y-5.4488
X5.0598Y-5.4883
X5.0598Y-6.3488
X5.0598Y-6.3937
X5.0598Y-6.7087
X5.0598Y-7.6535
X5.1598Y-4.189
X5.1598Y-5.1339
X5.1598Y-5.4488
X5.1598Y-6.3937
X5.1598Y-6.7087
X5.1598Y-6.748
X5.1598Y-7.6535
X5.2598Y-4.1438
X5.2598Y-4.189
X5.2598Y-5.0888
X5.2598Y-5.1339
X5.2598Y-5.4488
X5.2598Y-5.4938
X5.2598Y-6.3488
X5.2598Y-6.3937
X5.2598Y-6.7087
X5.2598Y-6.7538
X5.2598Y-7.6088
X5.2598Y-7.6535
X5.3598Y-4.189
X5.3598Y-5.1339
X5.3598Y-5.4488
X5.3598Y-5.4883
X5.3598Y-6.3488
X5.3598Y-6.3937
X5.3598Y-6.7087
X5.3598Y-7.6535
X5.4598Y-4.189
X5.4598Y-5.1339
X5.4598Y-5.4488
X5.4598Y-6.3937
X5.4598Y-6.7087
X5.4598Y-6.748
X5.4598Y-7.6535
X5.5339Y-5.7714
X5.5339Y-6.0714
X5.5339Y-7.0311
X5.5339Y-7.3311
X5.5598Y-4.1438
X5.5598Y-4.189
X5.5598Y-5.0888
X5.5598Y-5.1339
X5.5598Y-5.4488
X5.5598Y-5.4938
X5.5598Y-6.3488
X5.5598Y-6.3937
X5.5598Y-6.7087
X5.5598Y-6.7538
X5.5598Y-7.6088
X5.5598Y-7.6535
X5.6339Y-5.7714
X5.6339Y-6.0714
X5.6339Y-7.0311
X5.6339Y-7.3311
X5.6598Y-4.189
X5.6598Y-5.1339
X5.6598Y-5.4488
X5.6598Y-5.4883
X5.6598Y-6.3488
X5.6598Y-6.3937
X5.6598Y-6.7087
X5.6598Y-7.6535
X5.6738Y-4.4728
X5.6738Y-4.5788
X5.7339Y-5.7714
X5.7339Y-6.0714
X5.7339Y-7.0311
X5.7339Y-7.3311
X5.7598Y-4.189
X5.7598Y-5.1339
X5.7598Y-5.4488
X5.7598Y-6.3937
X5.7598Y-6.7087
X5.7598Y-6.748
X5.7598Y-7.6535
X5.8339Y-5.7314
X5.8339Y-5.7714
X5.8339Y-6.0714
X5.8339Y-6.1108
X5.8339Y-6.3108
X5.8339Y-6.9911
X5.8339Y-7.0311
X5.8339Y-7.3311
X5.8339Y-7.3705
X5.8339Y-7.5705
X5.8348Y-6.2588
X5.8598Y-4.1438
X5.8598Y-4.189
X5.8598Y-5.0888
X5.8598Y-5.1339
X5.8598Y-5.4488
X5.8598Y-5.4938
X5.8598Y-6.3538
X5.8598Y-6.3937
X5.8598Y-6.7087
X5.8598Y-6.7538
X5.8598Y-7.6535
X5.8898Y-7.6188
X5.9339Y-5.7314
X5.9339Y-5.7714
X5.9339Y-6.0714
X5.9339Y-6.1108
X5.9339Y-6.3108
X5.9339Y-6.9911
X5.9339Y-7.0311
X5.9339Y-7.3311
X5.9339Y-7.3705
X5.9339Y-7.5705
X5.9348Y-6.2588
X5.9598Y-4.189
X5.9598Y-5.1339
X5.9598Y-5.4488
X5.9598Y-5.4883
X5.9598Y-6.3538
X5.9598Y-6.3937
X5.9598Y-6.7087
X5.9598Y-7.6535
X5.9798Y-4.6663
X5.9798Y-4.9663
X6.0339Y-5.7314
X6.0339Y-5.7714
X6.0339Y-6.0714
X6.0339Y-6.1108
X6.0339Y-6.3108
X6.0339Y-6.9911
X6.0339Y-7.0311
X6.0339Y-7.3311
X6.0339Y-7.3705
X6.0339Y-7.5705
X6.0348Y-6.2588
X6.0598Y-4.189
X6.0598Y-5.1339
X6.0598Y-5.4488
X6.0598Y-6.3937
X6.0598Y-6.7087
X6.0598Y-6.748
X6.0598Y-7.6535
X6.0787Y-4.7012
X6.0798Y-4.6663
X6.0798Y-4.9663
X6.1323Y-4.2715
X6.1323Y-4.5715
X6.1339Y-5.7314
X6.1339Y-5.7714
X6.1339Y-6.0714
X6.1339Y-6.1108
X6.1339Y-6.3108
X6.1339Y-6.9911
X6.1339Y-7.0311
X6.1339Y-7.3311
X6.1339Y-7.3705
X6.1339Y-7.5705
X6.1348Y-6.2588
X6.1598Y-4.1438
X6.1598Y-4.189
X6.1598Y-5.1339
X6.1598Y-5.4488
X6.1598Y-5.4938
X6.1598Y-6.3937
X6.1598Y-6.7087
X6.1598Y-6.7538
X6.1598Y-7.6535
X6.1798Y-4.6663
X6.1798Y-4.9663
X6.1898Y-6.3638
X6.1948Y-7.6238
X6.2048Y-5.1338
X6.2323Y-4.2715
X6.2323Y-4.5715
X6.2339Y-5.7714
X6.2339Y-6.0714
X6.2339Y-7.0311
X6.2339Y-7.3311
X6.2398Y-7.4238
X6.2519Y-4.6012
X6.2798Y-4.6663
X6.2798Y-4.9663
X6.3197Y-4.189
X6.3197Y-5.1339
X6.3197Y-5.4488
X6.3197Y-5.4883
X6.3197Y-6.3937
X6.3197Y-6.7087
X6.3197Y-7.6535
X6.3198Y-6.3563
X6.3323Y-4.2715
X6.3323Y-4.5715
X6.3339Y-5.7714
X6.3339Y-6.0714
X6.3339Y-7.0311
X6.3339Y-7.3311
X6.3519Y-4.6012
X6.3798Y-4.6663
X6.3798Y-4.9663
X6.4038Y-6.9148
X6.4197Y-4.189
X6.4197Y-5.1339
X6.4197Y-5.4488
X6.4197Y-6.3937
X6.4197Y-6.7087
X6.4197Y-6.748
X6.4197Y-7.6535
X6.4198Y-4.1438
X6.4198Y-5.1788
X6.4198Y-5.4038
X6.4198Y-5.4938
X6.4198Y-6.4413
X6.4198Y-6.4888
X6.4198Y-6.6638
X6.4198Y-7.6988
X6.4323Y-4.2715
X6.4323Y-4.5715
X6.4339Y-5.7714
X6.4339Y-6.0714
X6.4339Y-7.0311
X6.4339Y-7.3311
X6.4519Y-4.6012
X6.4798Y-4.6663
X6.4798Y-4.9663
X6.5197Y-4.189
X6.5197Y-5.1339
X6.5197Y-5.4488
X6.5197Y-6.3937
X6.5197Y-6.7087
X6.5197Y-7.6535
X6.5198Y-4.1438
X6.5198Y-5.1788
X6.5198Y-5.4938
X6.5198Y-6.3488
X6.5198Y-6.7538
X6.5198Y-7.6088
X6.5298Y-6.5848
X6.5323Y-4.2715
X6.5323Y-4.5715
X6.5378Y-5.7714
X6.5378Y-6.0714
X6.5378Y-7.0311
X6.5378Y-7.3311
X6.5519Y-4.6012
X6.5538Y-6.9148
X6.5798Y-4.6663
X6.5798Y-4.9663
X6.6197Y-4.189
X6.6197Y-5.1339
X6.6197Y-5.4488
X6.6197Y-5.4883
X6.6197Y-6.3937
X6.6197Y-6.7087
X6.6197Y-7.6535
X6.6198Y-4.1438
X6.6198Y-5.1788
X6.6198Y-5.4038
X6.6198Y-5.5338
X6.6198Y-6.4388
X6.6198Y-6.4863
X6.6198Y-6.5848
X6.6198Y-6.6638
X6.6198Y-7.6088
X6.6323Y-4.2715
X6.6323Y-4.5715
X6.6378Y-5.7714
X6.6378Y-6.0714
X6.6378Y-7.0311
X6.6378Y-7.3311
X6.6519Y-4.6012
X6.6798Y-4.6663
X6.6798Y-4.9663
X6.7197Y-4.189
X6.7197Y-5.1339
X6.7197Y-5.4488
X6.7197Y-6.3937
X6.7197Y-6.7087
X6.7197Y-6.748
X6.7197Y-7.6535
X6.7198Y-4.1438
X6.7198Y-5.1788
X6.7198Y-5.4038
X6.7198Y-5.4938
X6.7198Y-6.4388
X6.7198Y-6.4863
X6.7198Y-6.6638
X6.7323Y-4.2715
X6.7323Y-4.5715
X6.7378Y-5.7714
X6.7378Y-6.0714
X6.7378Y-7.0311
X6.7378Y-7.3311
X6.7519Y-4.6012
X6.7548Y-7.6263
X6.7798Y-4.6663
X6.7798Y-4.9663
X6.7948Y-6.3588
X6.8197Y-4.189
X6.8197Y-5.1339
X6.8197Y-5.4488
X6.8197Y-6.3937
X6.8197Y-6.7087
X6.8197Y-7.6535
X6.8198Y-4.1438
X6.8198Y-5.0888
X6.8198Y-5.4938
X6.8198Y-6.7538
X6.8323Y-4.2715
X6.8323Y-4.5715
X6.8378Y-5.7314
X6.8378Y-5.7714
X6.8378Y-6.0714
X6.8378Y-6.1108
X6.8378Y-6.3108
X6.8378Y-6.9911
X6.8378Y-7.0311
X6.8378Y-7.3311
X6.8378Y-7.3705
X6.8378Y-7.5705
X6.8519Y-4.6012
X6.8548Y-7.6288
X6.8748Y-7.5538
X6.8798Y-4.6663
X6.8798Y-4.9663
X6.9023Y-7.6088
X6.9197Y-4.189
X6.9197Y-5.1339
X6.9197Y-5.4488
X6.9197Y-5.4883
X6.9197Y-6.3937
X6.9197Y-6.7087
X6.9197Y-7.6535
X6.9198Y-4.1438
X6.9198Y-5.1788
X6.9198Y-5.4038
X6.9198Y-5.5338
X6.9198Y-6.4388
X6.9198Y-6.4863
X6.9198Y-6.6638
X6.9323Y-4.2715
X6.9323Y-4.5715
X6.9378Y-5.7314
X6.9378Y-5.7714
X6.9378Y-6.0714
X6.9378Y-6.1108
X6.9378Y-6.3108
X6.9378Y-6.9911
X6.9378Y-7.0311
X6.9378Y-7.3311
X6.9378Y-7.3705
X6.9378Y-7.5705
X6.9519Y-4.6012
X6.9823Y-7.5563
X6.9848Y-4.6665
X6.9848Y-4.9665
X7.0197Y-4.189
X7.0197Y-5.1339
X7.0197Y-5.4488
X7.0197Y-6.3937
X7.0197Y-6.7087
X7.0197Y-6.748
X7.0197Y-7.6535
X7.0198Y-4.1438
X7.0198Y-5.1788
X7.0198Y-5.4038
X7.0198Y-5.4938
X7.0198Y-6.4388
X7.0198Y-6.4863
X7.0198Y-6.6638
X7.0378Y-5.7314
X7.0378Y-5.7714
X7.0378Y-6.0714
X7.0378Y-6.1108
X7.0378Y-6.3108
X7.0378Y-6.9911
X7.0378Y-7.0311
X7.0378Y-7.3311
X7.0378Y-7.3705
X7.0378Y-7.5705
X7.0837Y-4.7012
X7.0848Y-4.6665
X7.0848Y-4.9665
X7.1197Y-4.189
X7.1197Y-5.1339
X7.1197Y-5.4488
X7.1197Y-6.3937
X7.1197Y-6.7087
X7.1197Y-7.6535
X7.1198Y-4.1438
X7.1198Y-5.0888
X7.1198Y-5.4938
X7.1198Y-6.7538
X7.1373Y-4.2715
X7.1373Y-4.5715
X7.1378Y-5.7314
X7.1378Y-5.7714
X7.1378Y-6.0714
X7.1378Y-6.1108
X7.1378Y-6.3108
X7.1378Y-6.9911
X7.1378Y-7.0311
X7.1378Y-7.3311
X7.1378Y-7.3705
X7.1378Y-7.5705
X7.1548Y-6.3688
X7.1548Y-7.6238
X7.1773Y-6.3113
X7.1848Y-4.6665
X7.1848Y-4.9665
X7.2197Y-4.189
X7.2197Y-5.1339
X7.2197Y-5.4488
X7.2197Y-5.4883
X7.2197Y-6.3937
X7.2197Y-6.7087
X7.2197Y-7.6535
X7.2198Y-4.1438
X7.2198Y-5.1788
X7.2198Y-5.4038
X7.2198Y-5.5338
X7.2198Y-6.4388
X7.2198Y-6.4863
X7.2198Y-6.6638
X7.2198Y-7.6088
X7.2373Y-4.2715
X7.2373Y-4.5715
X7.2378Y-5.7714
X7.2378Y-6.0714
X7.2378Y-7.0311
X7.2378Y-7.3311
X7.2569Y-4.6012
X7.2848Y-4.6665
X7.2848Y-4.9665
X7.3197Y-4.189
X7.3197Y-5.1339
X7.3197Y-5.4488
X7.3197Y-6.3937
X7.3197Y-6.7087
X7.3197Y-6.748
X7.3197Y-7.6535
X7.3198Y-4.1438
X7.3198Y-5.1788
X7.3198Y-5.4038
X7.3198Y-5.4938
X7.3198Y-6.4388
X7.3198Y-6.4863
X7.3198Y-6.6638
X7.3373Y-4.2715
X7.3373Y-4.5715
X7.3378Y-5.7714
X7.3378Y-6.0714
X7.3378Y-7.0311
X7.3378Y-7.3311
X7.3569Y-4.6012
X7.3848Y-4.6665
X7.3848Y-4.9665
X7.4197Y-4.189
X7.4197Y-5.1339
X7.4197Y-5.4488
X7.4197Y-6.3937
X7.4197Y-6.7087
X7.4197Y-7.6535
X7.4198Y-4.1438
X7.4198Y-5.1788
X7.4198Y-5.4938
X7.4198Y-6.3488
X7.4198Y-6.7538
X7.4198Y-7.6088
X7.4373Y-4.2715
X7.4373Y-4.5715
X7.4378Y-5.7714
X7.4378Y-6.0714
X7.4378Y-7.0311
X7.4378Y-7.3311
X7.4569Y-4.6012
X7.4848Y-4.6665
X7.4848Y-4.9665
X7.5373Y-4.2715
X7.5373Y-4.5715
X7.5569Y-4.6012
X7.5591Y-5.7714
X7.5591Y-6.0714
X7.5591Y-7.0311
X7.5591Y-7.3311
X7.5795Y-4.189
X7.5795Y-5.1339
X7.5795Y-5.4488
X7.5795Y-5.4883
X7.5795Y-6.3937
X7.5795Y-6.7087
X7.5795Y-7.6535
X7.5798Y-4.1438
X7.5798Y-5.1788
X7.5798Y-5.4038
X7.5798Y-5.5338
X7.5798Y-6.4413
X7.5798Y-6.4888
X7.5798Y-6.6638
X7.5798Y-7.6088
X7.5848Y-4.6665
X7.5848Y-4.9665
X7.6373Y-4.2715
X7.6373Y-4.5715
X7.6569Y-4.6012
X7.6591Y-5.7714
X7.6591Y-6.0714
X7.6591Y-7.0311
X7.6591Y-7.3311
X7.6795Y-4.189
X7.6795Y-5.1339
X7.6795Y-5.4488
X7.6795Y-6.3937
X7.6795Y-6.7087
X7.6795Y-6.748
X7.6795Y-7.6535
X7.6798Y-4.1438
X7.6798Y-5.1788
X7.6798Y-5.4038
X7.6798Y-5.4938
X7.6798Y-6.4388
X7.6798Y-6.4863
X7.6798Y-6.6638
X7.6848Y-4.6665
X7.6848Y-4.9665
X7.7373Y-4.2715
X7.7373Y-4.5715
X7.7569Y-4.6012
X7.7591Y-5.7714
X7.7591Y-6.0714
X7.7591Y-7.0311
X7.7591Y-7.3311
X7.7795Y-4.189
X7.7795Y-5.1339
X7.7795Y-5.4488
X7.7795Y-6.3937
X7.7795Y-6.7087
X7.7795Y-7.6535
X7.7798Y-4.1438
X7.7798Y-5.0888
X7.7798Y-5.4938
X7.7798Y-6.3488
X7.7798Y-6.7538
X7.7798Y-7.6088
X7.7848Y-4.6665
X7.7848Y-4.9665
X7.8373Y-4.2715
X7.8373Y-4.5715
X7.8569Y-4.6012
X7.8591Y-5.7314
X7.8591Y-5.7714
X7.8591Y-6.0714
X7.8591Y-6.1108
X7.8591Y-6.3108
X7.8591Y-6.9911
X7.8591Y-7.0311
X7.8591Y-7.3311
X7.8591Y-7.3705
X7.8591Y-7.5705
X7.8795Y-4.189
X7.8795Y-5.1339
X7.8795Y-5.4488
X7.8795Y-5.4883
X7.8795Y-6.3937
X7.8795Y-6.7087
X7.8795Y-7.6535
X7.8798Y-4.1438
X7.8798Y-5.1788
X7.8798Y-5.4038
X7.8798Y-5.5338
X7.8798Y-6.4388
X7.8798Y-6.4863
X7.8798Y-6.6638
X7.8848Y-4.6665
X7.8848Y-4.9665
X7.9098Y-7.6163
X7.9373Y-4.2715
X7.9373Y-4.5715
X7.9569Y-4.6012
X7.9591Y-5.7314
X7.9591Y-5.7714
X7.9591Y-6.0714
X7.9591Y-6.1108
X7.9591Y-6.3108
X7.9591Y-6.9911
X7.9591Y-7.0311
X7.9591Y-7.3311
X7.9591Y-7.3705
X7.9591Y-7.5705
X7.9795Y-4.189
X7.9795Y-5.1339
X7.9795Y-5.4488
X7.9795Y-6.3937
X7.9795Y-6.7087
X7.9795Y-6.748
X7.9795Y-7.6535
X7.9798Y-4.1438
X7.9798Y-5.1788
X7.9798Y-5.2488
X7.9798Y-5.4038
X7.9798Y-5.4938
X7.9798Y-6.4388
X7.9798Y-6.4863
X7.9798Y-6.6638
X7.9898Y-4.6663
X7.9898Y-4.9663
X8.0223Y-7.5488
X8.0591Y-5.7314
X8.0591Y-5.7714
X8.0591Y-6.0714
X8.0591Y-6.1108
X8.0591Y-6.3108
X8.0591Y-6.9911
X8.0591Y-7.0311
X8.0591Y-7.3311
X8.0591Y-7.3705
X8.0591Y-7.5705
X8.0795Y-4.189
X8.0795Y-5.1339
X8.0795Y-5.4488
X8.0795Y-6.3937
X8.0795Y-6.7087
X8.0795Y-7.6535
X8.0798Y-4.1438
X8.0798Y-5.0888
X8.0798Y-5.2488
X8.0798Y-5.4938
X8.0798Y-6.3588
X8.0798Y-6.7538
X8.0891Y-4.7015
X8.0898Y-4.6663
X8.0898Y-4.9663
X8.1098Y-7.6188
X8.1423Y-4.2715
X8.1423Y-4.5715
X8.1591Y-5.7314
X8.1591Y-5.7714
X8.1591Y-6.0714
X8.1591Y-6.1108
X8.1591Y-6.3108
X8.1591Y-6.9911
X8.1591Y-7.0311
X8.1591Y-7.3311
X8.1591Y-7.3705
X8.1591Y-7.5705
X8.1795Y-4.189
X8.1795Y-5.1339
X8.1795Y-5.4488
X8.1795Y-5.4883
X8.1795Y-6.3937
X8.1795Y-6.7087
X8.1795Y-7.6535
X8.1798Y-4.1438
X8.1798Y-5.1788
X8.1798Y-5.2488
X8.1798Y-5.4038
X8.1798Y-5.5338
X8.1798Y-6.4388
X8.1798Y-6.4863
X8.1798Y-6.6638
X8.1898Y-4.6663
X8.1898Y-4.9663
X8.2048Y-7.5688
X8.2173Y-7.6238
X8.2423Y-4.2715
X8.2423Y-4.5715
X8.2591Y-5.7714
X8.2591Y-6.0714
X8.2591Y-7.0311
X8.2591Y-7.3311
X8.2623Y-4.6015
X8.2795Y-4.189
X8.2795Y-5.1339
X8.2795Y-5.4488
X8.2795Y-6.3937
X8.2795Y-6.7087
X8.2795Y-6.748
X8.2795Y-7.6535
X8.2798Y-4.1438
X8.2798Y-5.1788
X8.2798Y-5.4038
X8.2798Y-5.4938
X8.2798Y-6.4388
X8.2798Y-6.4863
X8.2798Y-6.6638
X8.2798Y-7.6088
X8.2898Y-4.6663
X8.2898Y-4.9663
X8.3423Y-4.2715
X8.3423Y-4.5715
X8.3591Y-5.7714
X8.3591Y-6.0714
X8.3591Y-7.0311
X8.3591Y-7.3311
X8.3623Y-4.6015
X8.3795Y-4.189
X8.3795Y-5.1339
X8.3795Y-5.4488
X8.3795Y-6.3937
X8.3795Y-6.7087
X8.3795Y-7.6535
X8.3798Y-4.1438
X8.3798Y-5.0888
X8.3798Y-5.4938
X8.3798Y-6.3488
X8.3798Y-6.7538
X8.3798Y-7.6088
X8.3898Y-4.6663
X8.3898Y-4.9663
X8.4423Y-4.2715
X8.4423Y-4.5715
X8.4591Y-5.7714
X8.4591Y-6.0714
X8.4591Y-7.0311
X8.4591Y-7.3311
X8.4623Y-4.6015
X8.4795Y-4.189
X8.4795Y-5.1339
X8.4795Y-5.4488
X8.4795Y-5.4883
X8.4795Y-6.3937
X8.4795Y-6.7087
X8.4795Y-7.6535
X8.4798Y-4.1438
X8.4798Y-5.1788
X8.4798Y-5.4038
X8.4798Y-5.5338
X8.4798Y-6.4388
X8.4798Y-6.4863
X8.4798Y-6.6638
X8.4798Y-7.6088
X8.4898Y-4.6663
X8.4898Y-4.9663
X8.5423Y-4.2715
X8.5423Y-4.5715
X8.5623Y-4.6015
X8.563Y-5.7714
X8.563Y-6.0714
X8.563Y-7.0311
X8.563Y-7.3311
X8.5795Y-4.189
X8.5795Y-5.1339
X8.5795Y-5.4488
X8.5795Y-6.3937
X8.5795Y-6.7087
X8.5795Y-6.748
X8.5795Y-7.6535
X8.5798Y-4.1438
X8.5798Y-5.1788
X8.5798Y-5.4038
X8.5798Y-5.4938
X8.5798Y-6.4388
X8.5798Y-6.4863
X8.5798Y-6.6638
X8.5798Y-7.6088
X8.5898Y-4.6663
X8.5898Y-4.9663
X8.6423Y-4.2715
X8.6423Y-4.5715
X8.6623Y-4.6015
X8.663Y-5.7714
X8.663Y-6.0714
X8.663Y-7.0311
X8.663Y-7.3311
X8.6795Y-4.189
X8.6795Y-5.1339
X8.6795Y-5.4488
X8.6795Y-6.3937
X8.6795Y-6.7087
X8.6795Y-7.6535
X8.6798Y-4.1438
X8.6798Y-5.0888
X8.6798Y-5.4938
X8.6798Y-6.3488
X8.6798Y-6.7538
X8.6798Y-7.6088
X8.6898Y-4.6663
X8.6898Y-4.9663
X8.7423Y-4.2715
X8.7423Y-4.5715
X8.7623Y-4.6015
X8.763Y-5.7714
X8.763Y-6.0714
X8.763Y-7.0311
X8.763Y-7.3311
X8.7898Y-4.6663
X8.7898Y-4.9663
X8.7978Y-5.0488
X8.8394Y-4.189
X8.8394Y-5.1339
X8.8394Y-5.4488
X8.8394Y-5.4883
X8.8394Y-6.3937
X8.8394Y-6.7087
X8.8394Y-7.6535
X8.8398Y-6.3538
X8.8423Y-4.2715
X8.8423Y-4.5715
X8.8623Y-4.6015
X8.8623Y-6.2588
X8.863Y-5.7314
X8.863Y-5.7714
X8.863Y-6.0714
X8.863Y-6.1108
X8.863Y-6.3108
X8.863Y-7.0311
X8.863Y-7.3311
X8.863Y-7.3705
X8.863Y-7.5705
X8.8641Y-6.9911
X8.8898Y-4.6663
X8.8898Y-4.9663
X8.9394Y-4.189
X8.9394Y-5.1339
X8.9394Y-5.4488
X8.9394Y-6.3937
X8.9394Y-6.7087
X8.9394Y-6.748
X8.9394Y-7.6535
X8.9423Y-4.2715
X8.9423Y-4.5715
X8.9623Y-4.6015
X8.9623Y-6.2588
X8.963Y-5.7314
X8.963Y-5.7714
X8.963Y-6.0714
X8.963Y-6.1108
X8.963Y-6.3108
X8.963Y-7.0311
X8.963Y-7.3311
X8.963Y-7.3705
X8.963Y-7.5705
X8.9641Y-6.9911
X9.0394Y-4.189
X9.0394Y-5.1339
X9.0394Y-5.4488
X9.0394Y-6.3937
X9.0394Y-6.7087
X9.0394Y-7.6535
X9.0398Y-4.1438
X9.0398Y-5.0888
X9.0398Y-5.4938
X9.0398Y-6.3538
X9.0398Y-6.7538
X9.0623Y-6.2563
X9.063Y-5.7314
X9.063Y-5.7714
X9.063Y-6.0714
X9.063Y-6.1108
X9.063Y-6.3108
X9.063Y-7.0311
X9.063Y-7.3311
X9.063Y-7.3705
X9.063Y-7.5705
X9.0641Y-6.9911
X9.0678Y-4.7848
X9.0698Y-7.6238
X9.0898Y-4.3938
X9.1394Y-4.189
X9.1394Y-5.1339
X9.1394Y-5.4488
X9.1394Y-5.4883
X9.1394Y-6.3937
X9.1394Y-6.7087
X9.1394Y-7.6535
X9.1623Y-6.2588
X9.163Y-5.7314
X9.163Y-5.7714
X9.163Y-6.0714
X9.163Y-6.1108
X9.163Y-6.3108
X9.163Y-7.0311
X9.163Y-7.3311
X9.163Y-7.3705
X9.163Y-7.5705
X9.1641Y-6.9911
X9.1898Y-4.3413
X9.1898Y-4.4413
X9.1898Y-4.5413
X9.1898Y-4.6413
X9.1898Y-4.7413
X9.1898Y-4.8413
X9.1898Y-4.9413
X9.2394Y-4.189
X9.2394Y-5.1339
X9.2394Y-5.4488
X9.2394Y-6.3937
X9.2394Y-6.7087
X9.2394Y-6.748
X9.2394Y-7.6535
X9.263Y-5.7714
X9.263Y-6.0714
X9.263Y-7.0311
X9.263Y-7.3311
X9.3394Y-4.189
X9.3394Y-5.1339
X9.3394Y-5.4488
X9.3394Y-6.3937
X9.3394Y-6.7087
X9.3394Y-7.6535
X9.3398Y-4.1438
X9.3398Y-5.0888
X9.3398Y-5.4938
X9.3398Y-6.3488
X9.3398Y-6.7538
X9.3398Y-7.6088
X9.363Y-5.7714
X9.363Y-6.0714
X9.363Y-7.0311
X9.363Y-7.3311
X9.4394Y-4.189
X9.4394Y-5.1339
X9.4394Y-5.4488
X9.4394Y-5.4883
X9.4394Y-6.3937
X9.4394Y-6.7087
X9.4394Y-7.6535
X9.4398Y-6.3488
X9.463Y-5.7714
X9.463Y-6.0714
X9.463Y-7.0311
X9.463Y-7.3311
X9.4898Y-4.3413
X9.4898Y-4.4413
X9.4898Y-4.5413
X9.4898Y-4.6413
X9.4898Y-4.7413
X9.4898Y-4.8413
X9.4898Y-4.9413
X9.5298Y-4.4038
X9.5394Y-4.189
X9.5394Y-5.1339
X9.5394Y-5.4488
X9.5394Y-6.3937
X9.5394Y-6.7087
X9.5394Y-6.748
X9.5394Y-7.6535
X9.6058Y-4.9088
X9.6394Y-4.189
X9.6394Y-5.1339
X9.6394Y-5.4488
X9.6394Y-6.3937
X9.6394Y-6.7087
X9.6394Y-7.6535
X9.6398Y-4.1438
X9.6398Y-5.0888
X9.6398Y-5.4938
X9.6398Y-6.3488
X9.6398Y-6.7538
X9.6398Y-7.6088
X9.7394Y-4.189
X9.7394Y-5.1339
X9.7394Y-5.4488
X9.7394Y-5.4883
X9.7394Y-6.3937
X9.7394Y-6.7087
X9.7394Y-7.6535
X9.7398Y-6.3488
X9.8394Y-4.189
X9.8394Y-5.1339
X9.8394Y-5.4488
X9.8394Y-6.3937
X9.8394Y-6.7087
X9.8394Y-6.748
X9.8394Y-7.6535
X9.9394Y-4.189
X9.9394Y-5.1339
X9.9394Y-5.4488
X9.9394Y-6.3937
X9.9394Y-6.7087
X9.9394Y-7.6535
X9.9398Y-4.1438
X9.9398Y-5.0888
X9.9398Y-5.4938
X9.9398Y-6.3488
X9.9398Y-6.7538
X9.9398Y-7.6088
T2
X9.7648Y-4.4413
X9.7648Y-4.5413
X9.7648Y-4.6413
X9.7648Y-4.7413
X9.7648Y-4.8413
X9.8598Y-7.789
X9.8598Y-7.889
T0
M30
