M48
;DRILL file {Pcbnew (2013-mar-25)-stable} date Thursday, January 23, 2014 'PMt' 10:04:53 PM
;FORMAT={-:-/ absolute / inch / decimal}
FMAT,2
INCH,TZ
T1C0.024
T2C0.032
%
G90
G05
M72
T1
X1.0823Y-0.8065
X1.0823Y-1.7514
X1.0823Y-2.0663
X1.0823Y-2.1058
X1.0823Y-2.9663
X1.0823Y-3.0112
X1.0823Y-3.3262
X1.0823Y-4.271
X1.1823Y-0.8065
X1.1823Y-1.7514
X1.1823Y-2.0663
X1.1823Y-3.0112
X1.1823Y-3.3262
X1.1823Y-3.3655
X1.1823Y-4.271
X1.2823Y-0.7613
X1.2823Y-0.8065
X1.2823Y-1.7063
X1.2823Y-1.7514
X1.2823Y-2.0663
X1.2823Y-2.1113
X1.2823Y-2.9663
X1.2823Y-3.0112
X1.2823Y-3.3262
X1.2823Y-3.3713
X1.2823Y-4.2263
X1.2823Y-4.271
X1.3823Y-0.8065
X1.3823Y-1.7514
X1.3823Y-2.0663
X1.3823Y-2.1058
X1.3823Y-2.9663
X1.3823Y-3.0112
X1.3823Y-3.3262
X1.3823Y-4.271
X1.4823Y-0.8065
X1.4823Y-1.7514
X1.4823Y-2.0663
X1.4823Y-3.0112
X1.4823Y-3.3262
X1.4823Y-3.3655
X1.4823Y-4.271
X1.5564Y-2.3889
X1.5564Y-2.6889
X1.5564Y-3.6486
X1.5564Y-3.9486
X1.5823Y-0.7613
X1.5823Y-0.8065
X1.5823Y-1.7063
X1.5823Y-1.7514
X1.5823Y-2.0663
X1.5823Y-2.1113
X1.5823Y-2.9663
X1.5823Y-3.0112
X1.5823Y-3.3262
X1.5823Y-3.3713
X1.5823Y-4.2263
X1.5823Y-4.271
X1.6564Y-2.3889
X1.6564Y-2.6889
X1.6564Y-3.6486
X1.6564Y-3.9486
X1.6823Y-0.8065
X1.6823Y-1.7514
X1.6823Y-2.0663
X1.6823Y-2.1058
X1.6823Y-2.9663
X1.6823Y-3.0112
X1.6823Y-3.3262
X1.6823Y-4.271
X1.6963Y-1.0903
X1.6963Y-1.1963
X1.7564Y-2.3889
X1.7564Y-2.6889
X1.7564Y-3.6486
X1.7564Y-3.9486
X1.7823Y-0.8065
X1.7823Y-1.7514
X1.7823Y-2.0663
X1.7823Y-3.0112
X1.7823Y-3.3262
X1.7823Y-3.3655
X1.7823Y-4.271
X1.8564Y-2.3489
X1.8564Y-2.3889
X1.8564Y-2.6889
X1.8564Y-2.7283
X1.8564Y-2.9283
X1.8564Y-3.6086
X1.8564Y-3.6486
X1.8564Y-3.9486
X1.8564Y-3.988
X1.8564Y-4.188
X1.8573Y-2.8763
X1.8823Y-0.7613
X1.8823Y-0.8065
X1.8823Y-1.7063
X1.8823Y-1.7514
X1.8823Y-2.0663
X1.8823Y-2.1113
X1.8823Y-2.9713
X1.8823Y-3.0112
X1.8823Y-3.3262
X1.8823Y-3.3713
X1.8823Y-4.271
X1.9123Y-4.2363
X1.9564Y-2.3489
X1.9564Y-2.3889
X1.9564Y-2.6889
X1.9564Y-2.7283
X1.9564Y-2.9283
X1.9564Y-3.6086
X1.9564Y-3.6486
X1.9564Y-3.9486
X1.9564Y-3.988
X1.9564Y-4.188
X1.9573Y-2.8763
X1.9823Y-0.8065
X1.9823Y-1.7514
X1.9823Y-2.0663
X1.9823Y-2.1058
X1.9823Y-2.9713
X1.9823Y-3.0112
X1.9823Y-3.3262
X1.9823Y-4.271
X2.0023Y-1.2838
X2.0023Y-1.5838
X2.0564Y-2.3489
X2.0564Y-2.3889
X2.0564Y-2.6889
X2.0564Y-2.7283
X2.0564Y-2.9283
X2.0564Y-3.6086
X2.0564Y-3.6486
X2.0564Y-3.9486
X2.0564Y-3.988
X2.0564Y-4.188
X2.0573Y-2.8763
X2.0823Y-0.8065
X2.0823Y-1.7514
X2.0823Y-2.0663
X2.0823Y-3.0112
X2.0823Y-3.3262
X2.0823Y-3.3655
X2.0823Y-4.271
X2.1012Y-1.3187
X2.1023Y-1.2838
X2.1023Y-1.5838
X2.1548Y-0.889
X2.1548Y-1.189
X2.1564Y-2.3489
X2.1564Y-2.3889
X2.1564Y-2.6889
X2.1564Y-2.7283
X2.1564Y-2.9283
X2.1564Y-3.6086
X2.1564Y-3.6486
X2.1564Y-3.9486
X2.1564Y-3.988
X2.1564Y-4.188
X2.1573Y-2.8763
X2.1823Y-0.7613
X2.1823Y-0.8065
X2.1823Y-1.7514
X2.1823Y-2.0663
X2.1823Y-2.1113
X2.1823Y-3.0112
X2.1823Y-3.3262
X2.1823Y-3.3713
X2.1823Y-4.271
X2.2023Y-1.2838
X2.2023Y-1.5838
X2.2123Y-2.9813
X2.2173Y-4.2413
X2.2273Y-1.7513
X2.2548Y-0.889
X2.2548Y-1.189
X2.2564Y-2.3889
X2.2564Y-2.6889
X2.2564Y-3.6486
X2.2564Y-3.9486
X2.2623Y-4.0413
X2.2744Y-1.2187
X2.3023Y-1.2838
X2.3023Y-1.5838
X2.3422Y-0.8065
X2.3422Y-1.7514
X2.3422Y-2.0663
X2.3422Y-2.1058
X2.3422Y-3.0112
X2.3422Y-3.3262
X2.3422Y-4.271
X2.3423Y-2.9738
X2.3548Y-0.889
X2.3548Y-1.189
X2.3564Y-2.3889
X2.3564Y-2.6889
X2.3564Y-3.6486
X2.3564Y-3.9486
X2.3744Y-1.2187
X2.4023Y-1.2838
X2.4023Y-1.5838
X2.4263Y-3.5323
X2.4422Y-0.8065
X2.4422Y-1.7514
X2.4422Y-2.0663
X2.4422Y-3.0112
X2.4422Y-3.3262
X2.4422Y-3.3655
X2.4422Y-4.271
X2.4423Y-0.7613
X2.4423Y-1.7963
X2.4423Y-2.0213
X2.4423Y-2.1113
X2.4423Y-3.0588
X2.4423Y-3.1063
X2.4423Y-3.2813
X2.4423Y-4.3163
X2.4548Y-0.889
X2.4548Y-1.189
X2.4564Y-2.3889
X2.4564Y-2.6889
X2.4564Y-3.6486
X2.4564Y-3.9486
X2.4744Y-1.2187
X2.5023Y-1.2838
X2.5023Y-1.5838
X2.5422Y-0.8065
X2.5422Y-1.7514
X2.5422Y-2.0663
X2.5422Y-3.0112
X2.5422Y-3.3262
X2.5422Y-4.271
X2.5423Y-0.7613
X2.5423Y-1.7963
X2.5423Y-2.1113
X2.5423Y-2.9663
X2.5423Y-3.3713
X2.5423Y-4.2263
X2.5523Y-3.2023
X2.5548Y-0.889
X2.5548Y-1.189
X2.5603Y-2.3889
X2.5603Y-2.6889
X2.5603Y-3.6486
X2.5603Y-3.9486
X2.5744Y-1.2187
X2.5763Y-3.5323
X2.6023Y-1.2838
X2.6023Y-1.5838
X2.6422Y-0.8065
X2.6422Y-1.7514
X2.6422Y-2.0663
X2.6422Y-2.1058
X2.6422Y-3.0112
X2.6422Y-3.3262
X2.6422Y-4.271
X2.6423Y-0.7613
X2.6423Y-1.7963
X2.6423Y-2.0213
X2.6423Y-2.1513
X2.6423Y-3.0563
X2.6423Y-3.1038
X2.6423Y-3.2023
X2.6423Y-3.2813
X2.6423Y-4.2263
X2.6548Y-0.889
X2.6548Y-1.189
X2.6603Y-2.3889
X2.6603Y-2.6889
X2.6603Y-3.6486
X2.6603Y-3.9486
X2.6744Y-1.2187
X2.7023Y-1.2838
X2.7023Y-1.5838
X2.7422Y-0.8065
X2.7422Y-1.7514
X2.7422Y-2.0663
X2.7422Y-3.0112
X2.7422Y-3.3262
X2.7422Y-3.3655
X2.7422Y-4.271
X2.7423Y-0.7613
X2.7423Y-1.7963
X2.7423Y-2.0213
X2.7423Y-2.1113
X2.7423Y-3.0563
X2.7423Y-3.1038
X2.7423Y-3.2813
X2.7548Y-0.889
X2.7548Y-1.189
X2.7603Y-2.3889
X2.7603Y-2.6889
X2.7603Y-3.6486
X2.7603Y-3.9486
X2.7744Y-1.2187
X2.7773Y-4.2438
X2.8023Y-1.2838
X2.8023Y-1.5838
X2.8173Y-2.9763
X2.8422Y-0.8065
X2.8422Y-1.7514
X2.8422Y-2.0663
X2.8422Y-3.0112
X2.8422Y-3.3262
X2.8422Y-4.271
X2.8423Y-0.7613
X2.8423Y-1.7063
X2.8423Y-2.1113
X2.8423Y-3.3713
X2.8548Y-0.889
X2.8548Y-1.189
X2.8603Y-3.6086
X2.8603Y-2.3489
X2.8603Y-2.3889
X2.8603Y-2.6889
X2.8603Y-2.7283
X2.8603Y-2.9283
X2.8603Y-3.6486
X2.8603Y-3.9486
X2.8603Y-3.988
X2.8603Y-4.188
X2.8744Y-1.2187
X2.8773Y-4.2463
X2.8973Y-4.1713
X2.9023Y-1.2838
X2.9023Y-1.5838
X2.9248Y-4.2263
X2.9422Y-0.8065
X2.9422Y-1.7514
X2.9422Y-2.0663
X2.9422Y-2.1058
X2.9422Y-3.0112
X2.9422Y-3.3262
X2.9422Y-4.271
X2.9423Y-0.7613
X2.9423Y-1.7963
X2.9423Y-2.0213
X2.9423Y-2.1513
X2.9423Y-3.0563
X2.9423Y-3.1038
X2.9423Y-3.2813
X2.9548Y-0.889
X2.9548Y-1.189
X2.9603Y-2.3489
X2.9603Y-2.3889
X2.9603Y-2.6889
X2.9603Y-2.7283
X2.9603Y-2.9283
X2.9603Y-3.6086
X2.9603Y-3.6486
X2.9603Y-3.9486
X2.9603Y-3.988
X2.9603Y-4.188
X2.9744Y-1.2187
X3.0048Y-4.1738
X3.0073Y-1.284
X3.0073Y-1.584
X3.0422Y-0.8065
X3.0422Y-1.7514
X3.0422Y-2.0663
X3.0422Y-3.0112
X3.0422Y-3.3262
X3.0422Y-3.3655
X3.0422Y-4.271
X3.0423Y-0.7613
X3.0423Y-1.7963
X3.0423Y-2.0213
X3.0423Y-2.1113
X3.0423Y-3.0563
X3.0423Y-3.1038
X3.0423Y-3.2813
X3.0603Y-2.3489
X3.0603Y-2.3889
X3.0603Y-2.6889
X3.0603Y-2.7283
X3.0603Y-2.9283
X3.0603Y-3.6086
X3.0603Y-3.6486
X3.0603Y-3.9486
X3.0603Y-3.988
X3.0603Y-4.188
X3.1062Y-1.3187
X3.1073Y-1.284
X3.1073Y-1.584
X3.1422Y-0.8065
X3.1422Y-1.7514
X3.1422Y-2.0663
X3.1422Y-3.0112
X3.1422Y-3.3262
X3.1422Y-4.271
X3.1423Y-0.7613
X3.1423Y-1.7063
X3.1423Y-2.1113
X3.1423Y-3.3713
X3.1598Y-0.889
X3.1598Y-1.189
X3.1603Y-2.3489
X3.1603Y-2.3889
X3.1603Y-2.6889
X3.1603Y-2.7283
X3.1603Y-2.9283
X3.1603Y-3.6086
X3.1603Y-3.6486
X3.1603Y-3.9486
X3.1603Y-3.988
X3.1603Y-4.188
X3.1773Y-2.9863
X3.1773Y-4.2413
X3.1998Y-2.9288
X3.2073Y-1.284
X3.2073Y-1.584
X3.2422Y-0.8065
X3.2422Y-1.7514
X3.2422Y-2.0663
X3.2422Y-2.1058
X3.2422Y-3.0112
X3.2422Y-3.3262
X3.2422Y-4.271
X3.2423Y-0.7613
X3.2423Y-1.7963
X3.2423Y-2.0213
X3.2423Y-2.1513
X3.2423Y-3.0563
X3.2423Y-3.1038
X3.2423Y-3.2813
X3.2423Y-4.2263
X3.2598Y-0.889
X3.2598Y-1.189
X3.2603Y-2.3889
X3.2603Y-2.6889
X3.2603Y-3.6486
X3.2603Y-3.9486
X3.2794Y-1.2187
X3.3073Y-1.284
X3.3073Y-1.584
X3.3422Y-0.8065
X3.3422Y-1.7514
X3.3422Y-2.0663
X3.3422Y-3.0112
X3.3422Y-3.3262
X3.3422Y-3.3655
X3.3422Y-4.271
X3.3423Y-0.7613
X3.3423Y-1.7963
X3.3423Y-2.0213
X3.3423Y-2.1113
X3.3423Y-3.0563
X3.3423Y-3.1038
X3.3423Y-3.2813
X3.3598Y-0.889
X3.3598Y-1.189
X3.3603Y-2.3889
X3.3603Y-2.6889
X3.3603Y-3.6486
X3.3603Y-3.9486
X3.3794Y-1.2187
X3.4073Y-1.284
X3.4073Y-1.584
X3.4422Y-0.8065
X3.4422Y-1.7514
X3.4422Y-2.0663
X3.4422Y-3.0112
X3.4422Y-3.3262
X3.4422Y-4.271
X3.4423Y-0.7613
X3.4423Y-1.7963
X3.4423Y-2.1113
X3.4423Y-2.9663
X3.4423Y-3.3713
X3.4423Y-4.2263
X3.4598Y-0.889
X3.4598Y-1.189
X3.4603Y-2.3889
X3.4603Y-2.6889
X3.4603Y-3.6486
X3.4603Y-3.9486
X3.4794Y-1.2187
X3.5073Y-1.284
X3.5073Y-1.584
X3.5598Y-0.889
X3.5598Y-1.189
X3.5794Y-1.2187
X3.5816Y-2.3889
X3.5816Y-2.6889
X3.5816Y-3.6486
X3.5816Y-3.9486
X3.602Y-0.8065
X3.602Y-1.7514
X3.602Y-2.0663
X3.602Y-2.1058
X3.602Y-3.0112
X3.602Y-3.3262
X3.602Y-4.271
X3.6023Y-0.7613
X3.6023Y-1.7963
X3.6023Y-2.0213
X3.6023Y-2.1513
X3.6023Y-3.0588
X3.6023Y-3.1063
X3.6023Y-3.2813
X3.6023Y-4.2263
X3.6073Y-1.284
X3.6073Y-1.584
X3.6598Y-0.889
X3.6598Y-1.189
X3.6794Y-1.2187
X3.6816Y-2.3889
X3.6816Y-2.6889
X3.6816Y-3.6486
X3.6816Y-3.9486
X3.702Y-0.8065
X3.702Y-1.7514
X3.702Y-2.0663
X3.702Y-3.0112
X3.702Y-3.3262
X3.702Y-3.3655
X3.702Y-4.271
X3.7023Y-0.7613
X3.7023Y-1.7963
X3.7023Y-2.0213
X3.7023Y-2.1113
X3.7023Y-3.0563
X3.7023Y-3.1038
X3.7023Y-3.2813
X3.7073Y-1.284
X3.7073Y-1.584
X3.7598Y-0.889
X3.7598Y-1.189
X3.7794Y-1.2187
X3.7816Y-2.3889
X3.7816Y-2.6889
X3.7816Y-3.6486
X3.7816Y-3.9486
X3.802Y-0.8065
X3.802Y-1.7514
X3.802Y-2.0663
X3.802Y-3.0112
X3.802Y-3.3262
X3.802Y-4.271
X3.8023Y-0.7613
X3.8023Y-1.7063
X3.8023Y-2.1113
X3.8023Y-2.9663
X3.8023Y-3.3713
X3.8023Y-4.2263
X3.8073Y-1.284
X3.8073Y-1.584
X3.8598Y-0.889
X3.8598Y-1.189
X3.8794Y-1.2187
X3.8816Y-2.3489
X3.8816Y-2.3889
X3.8816Y-2.6889
X3.8816Y-2.7283
X3.8816Y-2.9283
X3.8816Y-3.6486
X3.8816Y-3.9486
X3.8816Y-3.988
X3.8816Y-4.188
X3.8816Y-3.6086
X3.902Y-0.8065
X3.902Y-1.7514
X3.902Y-2.0663
X3.902Y-2.1058
X3.902Y-3.0112
X3.902Y-3.3262
X3.902Y-4.271
X3.9023Y-0.7613
X3.9023Y-1.7963
X3.9023Y-2.0213
X3.9023Y-2.1513
X3.9023Y-3.0563
X3.9023Y-3.1038
X3.9023Y-3.2813
X3.9073Y-1.284
X3.9073Y-1.584
X3.9323Y-4.2338
X3.9598Y-0.889
X3.9598Y-1.189
X3.9794Y-1.2187
X3.9816Y-2.3489
X3.9816Y-2.3889
X3.9816Y-2.6889
X3.9816Y-2.7283
X3.9816Y-2.9283
X3.9816Y-3.6086
X3.9816Y-3.6486
X3.9816Y-3.9486
X3.9816Y-3.988
X3.9816Y-4.188
X4.002Y-0.8065
X4.002Y-1.7514
X4.002Y-2.0663
X4.002Y-3.0112
X4.002Y-3.3262
X4.002Y-3.3655
X4.002Y-4.271
X4.0023Y-0.7613
X4.0023Y-1.7963
X4.0023Y-2.0213
X4.0023Y-2.1113
X4.0023Y-3.0563
X4.0023Y-3.1038
X4.0023Y-3.2813
X4.0123Y-1.2838
X4.0123Y-1.5838
X4.0448Y-4.1663
X4.0816Y-2.3489
X4.0816Y-2.3889
X4.0816Y-2.6889
X4.0816Y-2.7283
X4.0816Y-2.9283
X4.0816Y-3.6086
X4.0816Y-3.6486
X4.0816Y-3.9486
X4.0816Y-3.988
X4.0816Y-4.188
X4.102Y-0.8065
X4.102Y-1.7514
X4.102Y-2.0663
X4.102Y-3.0112
X4.102Y-3.3262
X4.102Y-4.271
X4.1023Y-0.7613
X4.1023Y-1.7063
X4.1023Y-2.1113
X4.1023Y-2.9763
X4.1023Y-3.3713
X4.1116Y-1.319
X4.1123Y-1.2838
X4.1123Y-1.5838
X4.1323Y-4.2363
X4.1648Y-0.889
X4.1648Y-1.189
X4.1816Y-2.3489
X4.1816Y-2.3889
X4.1816Y-2.6889
X4.1816Y-2.7283
X4.1816Y-2.9283
X4.1816Y-3.6086
X4.1816Y-3.6486
X4.1816Y-3.9486
X4.1816Y-3.988
X4.1816Y-4.188
X4.202Y-0.8065
X4.202Y-1.7514
X4.202Y-2.0663
X4.202Y-2.1058
X4.202Y-3.0112
X4.202Y-3.3262
X4.202Y-4.271
X4.2023Y-0.7613
X4.2023Y-1.7963
X4.2023Y-2.0213
X4.2023Y-2.1513
X4.2023Y-3.0563
X4.2023Y-3.1038
X4.2023Y-3.2813
X4.2123Y-1.2838
X4.2123Y-1.5838
X4.2273Y-4.1863
X4.2398Y-4.2413
X4.2648Y-0.889
X4.2648Y-1.189
X4.2816Y-2.3889
X4.2816Y-2.6889
X4.2816Y-3.6486
X4.2816Y-3.9486
X4.2848Y-1.219
X4.302Y-0.8065
X4.302Y-1.7514
X4.302Y-2.0663
X4.302Y-3.0112
X4.302Y-3.3262
X4.302Y-3.3655
X4.302Y-4.271
X4.3023Y-0.7613
X4.3023Y-1.7963
X4.3023Y-2.0213
X4.3023Y-2.1113
X4.3023Y-3.0563
X4.3023Y-3.1038
X4.3023Y-3.2813
X4.3023Y-4.2263
X4.3123Y-1.2838
X4.3123Y-1.5838
X4.3648Y-0.889
X4.3648Y-1.189
X4.3816Y-2.3889
X4.3816Y-2.6889
X4.3816Y-3.6486
X4.3816Y-3.9486
X4.3848Y-1.219
X4.402Y-0.8065
X4.402Y-1.7514
X4.402Y-2.0663
X4.402Y-3.0112
X4.402Y-3.3262
X4.402Y-4.271
X4.4023Y-0.7613
X4.4023Y-1.7063
X4.4023Y-2.1113
X4.4023Y-2.9663
X4.4023Y-3.3713
X4.4023Y-4.2263
X4.4123Y-1.2838
X4.4123Y-1.5838
X4.4648Y-0.889
X4.4648Y-1.189
X4.4816Y-2.3889
X4.4816Y-2.6889
X4.4816Y-3.6486
X4.4816Y-3.9486
X4.4848Y-1.219
X4.502Y-0.8065
X4.502Y-1.7514
X4.502Y-2.0663
X4.502Y-2.1058
X4.502Y-3.0112
X4.502Y-3.3262
X4.502Y-4.271
X4.5023Y-0.7613
X4.5023Y-1.7963
X4.5023Y-2.0213
X4.5023Y-2.1513
X4.5023Y-3.0563
X4.5023Y-3.1038
X4.5023Y-3.2813
X4.5023Y-4.2263
X4.5123Y-1.2838
X4.5123Y-1.5838
X4.5648Y-0.889
X4.5648Y-1.189
X4.5848Y-1.219
X4.5855Y-2.3889
X4.5855Y-2.6889
X4.5855Y-3.6486
X4.5855Y-3.9486
X4.602Y-0.8065
X4.602Y-1.7514
X4.602Y-2.0663
X4.602Y-3.0112
X4.602Y-3.3262
X4.602Y-3.3655
X4.602Y-4.271
X4.6023Y-0.7613
X4.6023Y-1.7963
X4.6023Y-2.0213
X4.6023Y-2.1113
X4.6023Y-3.0563
X4.6023Y-3.1038
X4.6023Y-3.2813
X4.6023Y-4.2263
X4.6123Y-1.2838
X4.6123Y-1.5838
X4.6648Y-0.889
X4.6648Y-1.189
X4.6848Y-1.219
X4.6855Y-2.3889
X4.6855Y-2.6889
X4.6855Y-3.6486
X4.6855Y-3.9486
X4.702Y-0.8065
X4.702Y-1.7514
X4.702Y-2.0663
X4.702Y-3.0112
X4.702Y-3.3262
X4.702Y-4.271
X4.7023Y-0.7613
X4.7023Y-1.7063
X4.7023Y-2.1113
X4.7023Y-2.9663
X4.7023Y-3.3713
X4.7023Y-4.2263
X4.7123Y-1.2838
X4.7123Y-1.5838
X4.7648Y-0.889
X4.7648Y-1.189
X4.7848Y-1.219
X4.7855Y-2.3889
X4.7855Y-2.6889
X4.7855Y-3.6486
X4.7855Y-3.9486
X4.8123Y-1.2838
X4.8123Y-1.5838
X4.8203Y-1.6663
X4.8619Y-0.8065
X4.8619Y-1.7514
X4.8619Y-2.0663
X4.8619Y-2.1058
X4.8619Y-3.0112
X4.8619Y-3.3262
X4.8619Y-4.271
X4.8623Y-2.9713
X4.8648Y-0.889
X4.8648Y-1.189
X4.8848Y-1.219
X4.8848Y-2.8763
X4.8855Y-2.3489
X4.8855Y-2.3889
X4.8855Y-2.6889
X4.8855Y-2.7283
X4.8855Y-2.9283
X4.8855Y-3.6486
X4.8855Y-3.9486
X4.8855Y-3.988
X4.8855Y-4.188
X4.8866Y-3.6086
X4.9123Y-1.2838
X4.9123Y-1.5838
X4.9619Y-0.8065
X4.9619Y-1.7514
X4.9619Y-2.0663
X4.9619Y-3.0112
X4.9619Y-3.3262
X4.9619Y-3.3655
X4.9619Y-4.271
X4.9648Y-0.889
X4.9648Y-1.189
X4.9848Y-1.219
X4.9848Y-2.8763
X4.9855Y-2.3489
X4.9855Y-2.3889
X4.9855Y-2.6889
X4.9855Y-2.7283
X4.9855Y-2.9283
X4.9855Y-3.6486
X4.9855Y-3.9486
X4.9855Y-3.988
X4.9855Y-4.188
X4.9866Y-3.6086
X5.0619Y-0.8065
X5.0619Y-1.7514
X5.0619Y-2.0663
X5.0619Y-3.0112
X5.0619Y-3.3262
X5.0619Y-4.271
X5.0623Y-0.7613
X5.0623Y-1.7063
X5.0623Y-2.1113
X5.0623Y-2.9713
X5.0623Y-3.3713
X5.0848Y-2.8738
X5.0855Y-2.3489
X5.0855Y-2.3889
X5.0855Y-2.6889
X5.0855Y-2.7283
X5.0855Y-2.9283
X5.0855Y-3.6486
X5.0855Y-3.9486
X5.0855Y-3.988
X5.0855Y-4.188
X5.0866Y-3.6086
X5.0903Y-1.4023
X5.0923Y-4.2413
X5.1123Y-1.0113
X5.1619Y-0.8065
X5.1619Y-1.7514
X5.1619Y-2.0663
X5.1619Y-2.1058
X5.1619Y-3.0112
X5.1619Y-3.3262
X5.1619Y-4.271
X5.1848Y-2.8763
X5.1855Y-2.3489
X5.1855Y-2.3889
X5.1855Y-2.6889
X5.1855Y-2.7283
X5.1855Y-2.9283
X5.1855Y-3.6486
X5.1855Y-3.9486
X5.1855Y-3.988
X5.1855Y-4.188
X5.1866Y-3.6086
X5.2123Y-0.9588
X5.2123Y-1.0588
X5.2123Y-1.1588
X5.2123Y-1.2588
X5.2123Y-1.3588
X5.2123Y-1.4588
X5.2123Y-1.5588
X5.2619Y-0.8065
X5.2619Y-1.7514
X5.2619Y-2.0663
X5.2619Y-3.0112
X5.2619Y-3.3262
X5.2619Y-3.3655
X5.2619Y-4.271
X5.2855Y-2.3889
X5.2855Y-2.6889
X5.2855Y-3.6486
X5.2855Y-3.9486
X5.3619Y-0.8065
X5.3619Y-1.7514
X5.3619Y-2.0663
X5.3619Y-3.0112
X5.3619Y-3.3262
X5.3619Y-4.271
X5.3623Y-0.7613
X5.3623Y-1.7063
X5.3623Y-2.1113
X5.3623Y-2.9663
X5.3623Y-3.3713
X5.3623Y-4.2263
X5.3855Y-2.3889
X5.3855Y-2.6889
X5.3855Y-3.6486
X5.3855Y-3.9486
X5.4619Y-0.8065
X5.4619Y-1.7514
X5.4619Y-2.0663
X5.4619Y-2.1058
X5.4619Y-3.0112
X5.4619Y-3.3262
X5.4619Y-4.271
X5.4623Y-2.9663
X5.4855Y-2.3889
X5.4855Y-2.6889
X5.4855Y-3.6486
X5.4855Y-3.9486
X5.5123Y-0.9588
X5.5123Y-1.0588
X5.5123Y-1.1588
X5.5123Y-1.2588
X5.5123Y-1.3588
X5.5123Y-1.4588
X5.5123Y-1.5588
X5.5523Y-1.0213
X5.5619Y-0.8065
X5.5619Y-1.7514
X5.5619Y-2.0663
X5.5619Y-3.0112
X5.5619Y-3.3262
X5.5619Y-3.3655
X5.5619Y-4.271
X5.6283Y-1.5263
X5.6619Y-0.8065
X5.6619Y-1.7514
X5.6619Y-2.0663
X5.6619Y-3.0112
X5.6619Y-3.3262
X5.6619Y-4.271
X5.6623Y-0.7613
X5.6623Y-1.7063
X5.6623Y-2.1113
X5.6623Y-2.9663
X5.6623Y-3.3713
X5.6623Y-4.2263
X5.7619Y-0.8065
X5.7619Y-1.7514
X5.7619Y-2.0663
X5.7619Y-2.1058
X5.7619Y-3.0112
X5.7619Y-3.3262
X5.7619Y-4.271
X5.7623Y-2.9663
X5.8619Y-0.8065
X5.8619Y-1.7514
X5.8619Y-2.0663
X5.8619Y-3.0112
X5.8619Y-3.3262
X5.8619Y-3.3655
X5.8619Y-4.271
X5.9619Y-0.8065
X5.9619Y-1.7514
X5.9619Y-2.0663
X5.9619Y-3.0112
X5.9619Y-3.3262
X5.9619Y-4.271
X5.9623Y-0.7613
X5.9623Y-1.7063
X5.9623Y-2.1113
X5.9623Y-2.9663
X5.9623Y-3.3713
X5.9623Y-4.2263
T2
X5.775Y-1.06
X5.775Y-1.16
X5.775Y-1.26
X5.775Y-1.36
X5.775Y-1.46
X5.8823Y-4.4065
X5.8823Y-4.5065
T0
M30
