G04 (created by PCBNEW (2013-mar-25)-stable) date Thursday, January 23, 2014 'PMt' 10:04:33 PM*
%MOIN*%
G04 Gerber Fmt 3.4, Leading zero omitted, Abs format*
%FSLAX34Y34*%
G01*
G70*
G90*
G04 APERTURE LIST*
%ADD10C,0*%
%ADD11C,0.00590551*%
%ADD12C,0.0393701*%
%ADD13R,0.0787402X0.0787402*%
%ADD14C,0.0787402*%
%ADD15R,0.0393701X0.0393701*%
%ADD16C,0.01*%
G04 APERTURE END LIST*
G54D10*
G54D11*
X60225Y-6175D02*
X60225Y-46175D01*
X10225Y-6175D02*
X60225Y-6175D01*
X10225Y-46175D02*
X10225Y-6175D01*
X60225Y-46175D02*
X10225Y-46175D01*
G54D12*
X10823Y-17513D03*
X11823Y-17513D03*
X12823Y-17513D03*
X13823Y-17513D03*
X14823Y-17513D03*
X15823Y-17513D03*
X16823Y-17513D03*
X17823Y-17513D03*
X18823Y-17513D03*
X19823Y-17513D03*
X20823Y-17513D03*
X21823Y-17513D03*
X21823Y-8064D03*
X20823Y-8064D03*
X19823Y-8064D03*
X18823Y-8064D03*
X17823Y-8064D03*
X16823Y-8064D03*
X15823Y-8064D03*
X14823Y-8064D03*
X13823Y-8064D03*
X12823Y-8064D03*
X11823Y-8064D03*
X10823Y-8064D03*
X52123Y-15588D03*
X52123Y-14588D03*
X52123Y-13588D03*
X52123Y-12588D03*
X52123Y-11588D03*
X52123Y-10588D03*
X52123Y-9588D03*
X55123Y-9588D03*
X55123Y-10588D03*
X55123Y-11588D03*
X55123Y-12588D03*
X55123Y-13588D03*
X55123Y-14588D03*
X55123Y-15588D03*
X18563Y-39879D03*
X18563Y-41879D03*
X19563Y-39879D03*
X19563Y-41879D03*
X20563Y-39879D03*
X20563Y-41879D03*
X21563Y-39879D03*
X21563Y-41879D03*
X17823Y-33655D03*
X20563Y-36086D03*
X20823Y-33655D03*
X21563Y-36086D03*
X14823Y-33655D03*
X19563Y-36086D03*
X11823Y-33655D03*
X18563Y-36086D03*
X28602Y-39879D03*
X28602Y-41879D03*
X29602Y-39879D03*
X29602Y-41879D03*
X31602Y-39879D03*
X31602Y-41879D03*
X30602Y-39879D03*
X30602Y-41879D03*
X24421Y-33655D03*
X28602Y-36086D03*
X27421Y-33655D03*
X29602Y-36086D03*
X30421Y-33655D03*
X30602Y-36086D03*
X33421Y-33655D03*
X31602Y-36086D03*
X38815Y-39879D03*
X38815Y-41879D03*
X39815Y-39879D03*
X39815Y-41879D03*
X40815Y-39879D03*
X40815Y-41879D03*
X41815Y-39879D03*
X41815Y-41879D03*
X37020Y-33655D03*
X38815Y-36086D03*
X40020Y-33655D03*
X39815Y-36086D03*
X43020Y-33655D03*
X40815Y-36086D03*
X46020Y-33655D03*
X41815Y-36086D03*
X48854Y-39879D03*
X48854Y-41879D03*
X49854Y-39879D03*
X49854Y-41879D03*
X50854Y-39879D03*
X50854Y-41879D03*
X51854Y-39879D03*
X51854Y-41879D03*
X49618Y-33655D03*
X48865Y-36086D03*
X52618Y-33655D03*
X49865Y-36086D03*
X55618Y-33655D03*
X50865Y-36086D03*
X58618Y-33655D03*
X51865Y-36086D03*
X10823Y-21058D03*
X18563Y-23489D03*
X13823Y-21058D03*
X19563Y-23489D03*
X16823Y-21058D03*
X20563Y-23489D03*
X19823Y-21058D03*
X21563Y-23489D03*
X28602Y-27282D03*
X28602Y-29282D03*
X30602Y-27282D03*
X30602Y-29282D03*
X29602Y-27282D03*
X29602Y-29282D03*
X31602Y-27282D03*
X31602Y-29282D03*
X23421Y-21058D03*
X28602Y-23489D03*
X26421Y-21058D03*
X29602Y-23489D03*
X29421Y-21058D03*
X30602Y-23489D03*
X32421Y-21058D03*
X31602Y-23489D03*
X41815Y-27282D03*
X41815Y-29282D03*
X39815Y-27282D03*
X39815Y-29282D03*
X40815Y-27282D03*
X40815Y-29282D03*
X38815Y-27282D03*
X38815Y-29282D03*
X36020Y-21058D03*
X38815Y-23489D03*
X39020Y-21058D03*
X39815Y-23489D03*
X42020Y-21058D03*
X40815Y-23489D03*
X45020Y-21058D03*
X41815Y-23489D03*
X51854Y-27282D03*
X51854Y-29282D03*
X49854Y-27282D03*
X49854Y-29282D03*
X50854Y-27282D03*
X50854Y-29282D03*
X48854Y-27282D03*
X48854Y-29282D03*
X48618Y-21058D03*
X48854Y-23489D03*
X51618Y-21058D03*
X49854Y-23489D03*
X54618Y-21058D03*
X50854Y-23489D03*
X57618Y-21058D03*
X51854Y-23489D03*
G54D13*
X57750Y-10600D03*
G54D14*
X57750Y-11600D03*
X57750Y-12600D03*
X57750Y-13600D03*
X57750Y-14600D03*
G54D13*
X58823Y-44064D03*
G54D14*
X58823Y-45064D03*
G54D12*
X23421Y-17513D03*
X24421Y-17513D03*
X25421Y-17513D03*
X26421Y-17513D03*
X27421Y-17513D03*
X28421Y-17513D03*
X29421Y-17513D03*
X30421Y-17513D03*
X31421Y-17513D03*
X32421Y-17513D03*
X33421Y-17513D03*
X34421Y-17513D03*
X34421Y-8064D03*
X33421Y-8064D03*
X32421Y-8064D03*
X31421Y-8064D03*
X30421Y-8064D03*
X29421Y-8064D03*
X28421Y-8064D03*
X27421Y-8064D03*
X26421Y-8064D03*
X25421Y-8064D03*
X24421Y-8064D03*
X23421Y-8064D03*
X36020Y-17513D03*
X37020Y-17513D03*
X38020Y-17513D03*
X39020Y-17513D03*
X40020Y-17513D03*
X41020Y-17513D03*
X42020Y-17513D03*
X43020Y-17513D03*
X44020Y-17513D03*
X45020Y-17513D03*
X46020Y-17513D03*
X47020Y-17513D03*
X47020Y-8064D03*
X46020Y-8064D03*
X45020Y-8064D03*
X44020Y-8064D03*
X43020Y-8064D03*
X42020Y-8064D03*
X41020Y-8064D03*
X40020Y-8064D03*
X39020Y-8064D03*
X38020Y-8064D03*
X37020Y-8064D03*
X36020Y-8064D03*
X48618Y-17513D03*
X49618Y-17513D03*
X50618Y-17513D03*
X51618Y-17513D03*
X52618Y-17513D03*
X53618Y-17513D03*
X54618Y-17513D03*
X55618Y-17513D03*
X56618Y-17513D03*
X57618Y-17513D03*
X58618Y-17513D03*
X59618Y-17513D03*
X59618Y-8064D03*
X58618Y-8064D03*
X57618Y-8064D03*
X56618Y-8064D03*
X55618Y-8064D03*
X54618Y-8064D03*
X53618Y-8064D03*
X52618Y-8064D03*
X51618Y-8064D03*
X50618Y-8064D03*
X49618Y-8064D03*
X48618Y-8064D03*
X23421Y-30112D03*
X24421Y-30112D03*
X25421Y-30112D03*
X26421Y-30112D03*
X27421Y-30112D03*
X28421Y-30112D03*
X29421Y-30112D03*
X30421Y-30112D03*
X31421Y-30112D03*
X32421Y-30112D03*
X33421Y-30112D03*
X34421Y-30112D03*
X34421Y-20663D03*
X33421Y-20663D03*
X32421Y-20663D03*
X31421Y-20663D03*
X30421Y-20663D03*
X29421Y-20663D03*
X28421Y-20663D03*
X27421Y-20663D03*
X26421Y-20663D03*
X25421Y-20663D03*
X24421Y-20663D03*
X23421Y-20663D03*
X36020Y-30112D03*
X37020Y-30112D03*
X38020Y-30112D03*
X39020Y-30112D03*
X40020Y-30112D03*
X41020Y-30112D03*
X42020Y-30112D03*
X43020Y-30112D03*
X44020Y-30112D03*
X45020Y-30112D03*
X46020Y-30112D03*
X47020Y-30112D03*
X47020Y-20663D03*
X46020Y-20663D03*
X45020Y-20663D03*
X44020Y-20663D03*
X43020Y-20663D03*
X42020Y-20663D03*
X41020Y-20663D03*
X40020Y-20663D03*
X39020Y-20663D03*
X38020Y-20663D03*
X37020Y-20663D03*
X36020Y-20663D03*
X48618Y-30112D03*
X49618Y-30112D03*
X50618Y-30112D03*
X51618Y-30112D03*
X52618Y-30112D03*
X53618Y-30112D03*
X54618Y-30112D03*
X55618Y-30112D03*
X56618Y-30112D03*
X57618Y-30112D03*
X58618Y-30112D03*
X59618Y-30112D03*
X59618Y-20663D03*
X58618Y-20663D03*
X57618Y-20663D03*
X56618Y-20663D03*
X55618Y-20663D03*
X54618Y-20663D03*
X53618Y-20663D03*
X52618Y-20663D03*
X51618Y-20663D03*
X50618Y-20663D03*
X49618Y-20663D03*
X48618Y-20663D03*
X10823Y-42710D03*
X11823Y-42710D03*
X12823Y-42710D03*
X13823Y-42710D03*
X14823Y-42710D03*
X15823Y-42710D03*
X16823Y-42710D03*
X17823Y-42710D03*
X18823Y-42710D03*
X19823Y-42710D03*
X20823Y-42710D03*
X21823Y-42710D03*
X21823Y-33261D03*
X20823Y-33261D03*
X19823Y-33261D03*
X18823Y-33261D03*
X17823Y-33261D03*
X16823Y-33261D03*
X15823Y-33261D03*
X14823Y-33261D03*
X13823Y-33261D03*
X12823Y-33261D03*
X11823Y-33261D03*
X10823Y-33261D03*
X23421Y-42710D03*
X24421Y-42710D03*
X25421Y-42710D03*
X26421Y-42710D03*
X27421Y-42710D03*
X28421Y-42710D03*
X29421Y-42710D03*
X30421Y-42710D03*
X31421Y-42710D03*
X32421Y-42710D03*
X33421Y-42710D03*
X34421Y-42710D03*
X34421Y-33261D03*
X33421Y-33261D03*
X32421Y-33261D03*
X31421Y-33261D03*
X30421Y-33261D03*
X29421Y-33261D03*
X28421Y-33261D03*
X27421Y-33261D03*
X26421Y-33261D03*
X25421Y-33261D03*
X24421Y-33261D03*
X23421Y-33261D03*
X36020Y-42710D03*
X37020Y-42710D03*
X38020Y-42710D03*
X39020Y-42710D03*
X40020Y-42710D03*
X41020Y-42710D03*
X42020Y-42710D03*
X43020Y-42710D03*
X44020Y-42710D03*
X45020Y-42710D03*
X46020Y-42710D03*
X47020Y-42710D03*
X47020Y-33261D03*
X46020Y-33261D03*
X45020Y-33261D03*
X44020Y-33261D03*
X43020Y-33261D03*
X42020Y-33261D03*
X41020Y-33261D03*
X40020Y-33261D03*
X39020Y-33261D03*
X38020Y-33261D03*
X37020Y-33261D03*
X36020Y-33261D03*
X48618Y-42710D03*
X49618Y-42710D03*
X50618Y-42710D03*
X51618Y-42710D03*
X52618Y-42710D03*
X53618Y-42710D03*
X54618Y-42710D03*
X55618Y-42710D03*
X56618Y-42710D03*
X57618Y-42710D03*
X58618Y-42710D03*
X59618Y-42710D03*
X59618Y-33261D03*
X58618Y-33261D03*
X57618Y-33261D03*
X56618Y-33261D03*
X55618Y-33261D03*
X54618Y-33261D03*
X53618Y-33261D03*
X52618Y-33261D03*
X51618Y-33261D03*
X50618Y-33261D03*
X49618Y-33261D03*
X48618Y-33261D03*
X10823Y-30112D03*
X11823Y-30112D03*
X12823Y-30112D03*
X13823Y-30112D03*
X14823Y-30112D03*
X15823Y-30112D03*
X16823Y-30112D03*
X17823Y-30112D03*
X18823Y-30112D03*
X19823Y-30112D03*
X20823Y-30112D03*
X21823Y-30112D03*
X21823Y-20663D03*
X20823Y-20663D03*
X19823Y-20663D03*
X18823Y-20663D03*
X17823Y-20663D03*
X16823Y-20663D03*
X15823Y-20663D03*
X14823Y-20663D03*
X13823Y-20663D03*
X12823Y-20663D03*
X11823Y-20663D03*
X10823Y-20663D03*
X29548Y-11889D03*
X28548Y-11889D03*
X27548Y-11889D03*
X26548Y-11889D03*
X25548Y-11889D03*
X24548Y-11889D03*
X23548Y-11889D03*
X22548Y-11889D03*
X21548Y-11889D03*
X21548Y-8889D03*
X22548Y-8889D03*
X23548Y-8889D03*
X24548Y-8889D03*
X25548Y-8889D03*
X26548Y-8889D03*
X27548Y-8889D03*
X28548Y-8889D03*
X29548Y-8889D03*
X39598Y-11889D03*
X38598Y-11889D03*
X37598Y-11889D03*
X36598Y-11889D03*
X35598Y-11889D03*
X34598Y-11889D03*
X33598Y-11889D03*
X32598Y-11889D03*
X31598Y-11889D03*
X31598Y-8889D03*
X32598Y-8889D03*
X33598Y-8889D03*
X34598Y-8889D03*
X35598Y-8889D03*
X36598Y-8889D03*
X37598Y-8889D03*
X38598Y-8889D03*
X39598Y-8889D03*
X49648Y-11889D03*
X48648Y-11889D03*
X47648Y-11889D03*
X46648Y-11889D03*
X45648Y-11889D03*
X44648Y-11889D03*
X43648Y-11889D03*
X42648Y-11889D03*
X41648Y-11889D03*
X41648Y-8889D03*
X42648Y-8889D03*
X43648Y-8889D03*
X44648Y-8889D03*
X45648Y-8889D03*
X46648Y-8889D03*
X47648Y-8889D03*
X48648Y-8889D03*
X49648Y-8889D03*
X21563Y-27282D03*
X21563Y-29282D03*
X20563Y-27282D03*
X20563Y-29282D03*
X19563Y-27282D03*
X19563Y-29282D03*
X18563Y-27282D03*
X18563Y-29282D03*
G54D15*
X40123Y-12838D03*
G54D12*
X41123Y-12838D03*
X42123Y-12838D03*
X43123Y-12838D03*
X44123Y-12838D03*
X45123Y-12838D03*
X46123Y-12838D03*
X47123Y-12838D03*
X48123Y-12838D03*
X49123Y-12838D03*
X40123Y-15838D03*
X41123Y-15838D03*
X42123Y-15838D03*
X43123Y-15838D03*
X44123Y-15838D03*
X45123Y-15838D03*
X46123Y-15838D03*
X47123Y-15838D03*
X48123Y-15838D03*
X49123Y-15838D03*
G54D15*
X30073Y-12839D03*
G54D12*
X31073Y-12839D03*
X32073Y-12839D03*
X33073Y-12839D03*
X34073Y-12839D03*
X35073Y-12839D03*
X36073Y-12839D03*
X37073Y-12839D03*
X38073Y-12839D03*
X39073Y-12839D03*
X30073Y-15839D03*
X31073Y-15839D03*
X32073Y-15839D03*
X33073Y-15839D03*
X34073Y-15839D03*
X35073Y-15839D03*
X36073Y-15839D03*
X37073Y-15839D03*
X38073Y-15839D03*
X39073Y-15839D03*
G54D15*
X45854Y-36486D03*
G54D12*
X46854Y-36486D03*
X47854Y-36486D03*
X48854Y-36486D03*
X49854Y-36486D03*
X50854Y-36486D03*
X51854Y-36486D03*
X52854Y-36486D03*
X53854Y-36486D03*
X54854Y-36486D03*
X45854Y-39486D03*
X46854Y-39486D03*
X47854Y-39486D03*
X48854Y-39486D03*
X49854Y-39486D03*
X50854Y-39486D03*
X51854Y-39486D03*
X52854Y-39486D03*
X53854Y-39486D03*
X54854Y-39486D03*
G54D15*
X45854Y-23889D03*
G54D12*
X46854Y-23889D03*
X47854Y-23889D03*
X48854Y-23889D03*
X49854Y-23889D03*
X50854Y-23889D03*
X51854Y-23889D03*
X52854Y-23889D03*
X53854Y-23889D03*
X54854Y-23889D03*
X45854Y-26889D03*
X46854Y-26889D03*
X47854Y-26889D03*
X48854Y-26889D03*
X49854Y-26889D03*
X50854Y-26889D03*
X51854Y-26889D03*
X52854Y-26889D03*
X53854Y-26889D03*
X54854Y-26889D03*
G54D15*
X35815Y-36486D03*
G54D12*
X36815Y-36486D03*
X37815Y-36486D03*
X38815Y-36486D03*
X39815Y-36486D03*
X40815Y-36486D03*
X41815Y-36486D03*
X42815Y-36486D03*
X43815Y-36486D03*
X44815Y-36486D03*
X35815Y-39486D03*
X36815Y-39486D03*
X37815Y-39486D03*
X38815Y-39486D03*
X39815Y-39486D03*
X40815Y-39486D03*
X41815Y-39486D03*
X42815Y-39486D03*
X43815Y-39486D03*
X44815Y-39486D03*
G54D15*
X35815Y-23889D03*
G54D12*
X36815Y-23889D03*
X37815Y-23889D03*
X38815Y-23889D03*
X39815Y-23889D03*
X40815Y-23889D03*
X41815Y-23889D03*
X42815Y-23889D03*
X43815Y-23889D03*
X44815Y-23889D03*
X35815Y-26889D03*
X36815Y-26889D03*
X37815Y-26889D03*
X38815Y-26889D03*
X39815Y-26889D03*
X40815Y-26889D03*
X41815Y-26889D03*
X42815Y-26889D03*
X43815Y-26889D03*
X44815Y-26889D03*
G54D15*
X25602Y-36486D03*
G54D12*
X26602Y-36486D03*
X27602Y-36486D03*
X28602Y-36486D03*
X29602Y-36486D03*
X30602Y-36486D03*
X31602Y-36486D03*
X32602Y-36486D03*
X33602Y-36486D03*
X34602Y-36486D03*
X25602Y-39486D03*
X26602Y-39486D03*
X27602Y-39486D03*
X28602Y-39486D03*
X29602Y-39486D03*
X30602Y-39486D03*
X31602Y-39486D03*
X32602Y-39486D03*
X33602Y-39486D03*
X34602Y-39486D03*
G54D15*
X25602Y-23889D03*
G54D12*
X26602Y-23889D03*
X27602Y-23889D03*
X28602Y-23889D03*
X29602Y-23889D03*
X30602Y-23889D03*
X31602Y-23889D03*
X32602Y-23889D03*
X33602Y-23889D03*
X34602Y-23889D03*
X25602Y-26889D03*
X26602Y-26889D03*
X27602Y-26889D03*
X28602Y-26889D03*
X29602Y-26889D03*
X30602Y-26889D03*
X31602Y-26889D03*
X32602Y-26889D03*
X33602Y-26889D03*
X34602Y-26889D03*
G54D15*
X20023Y-12838D03*
G54D12*
X21023Y-12838D03*
X22023Y-12838D03*
X23023Y-12838D03*
X24023Y-12838D03*
X25023Y-12838D03*
X26023Y-12838D03*
X27023Y-12838D03*
X28023Y-12838D03*
X29023Y-12838D03*
X20023Y-15838D03*
X21023Y-15838D03*
X22023Y-15838D03*
X23023Y-15838D03*
X24023Y-15838D03*
X25023Y-15838D03*
X26023Y-15838D03*
X27023Y-15838D03*
X28023Y-15838D03*
X29023Y-15838D03*
G54D15*
X15563Y-36486D03*
G54D12*
X16563Y-36486D03*
X17563Y-36486D03*
X18563Y-36486D03*
X19563Y-36486D03*
X20563Y-36486D03*
X21563Y-36486D03*
X22563Y-36486D03*
X23563Y-36486D03*
X24563Y-36486D03*
X15563Y-39486D03*
X16563Y-39486D03*
X17563Y-39486D03*
X18563Y-39486D03*
X19563Y-39486D03*
X20563Y-39486D03*
X21563Y-39486D03*
X22563Y-39486D03*
X23563Y-39486D03*
X24563Y-39486D03*
G54D15*
X15563Y-23889D03*
G54D12*
X16563Y-23889D03*
X17563Y-23889D03*
X18563Y-23889D03*
X19563Y-23889D03*
X20563Y-23889D03*
X21563Y-23889D03*
X22563Y-23889D03*
X23563Y-23889D03*
X24563Y-23889D03*
X15563Y-26889D03*
X16563Y-26889D03*
X17563Y-26889D03*
X18563Y-26889D03*
X19563Y-26889D03*
X20563Y-26889D03*
X21563Y-26889D03*
X22563Y-26889D03*
X23563Y-26889D03*
X24563Y-26889D03*
X29743Y-12186D03*
X28743Y-12186D03*
X27743Y-12186D03*
X26743Y-12186D03*
X25743Y-12186D03*
X24743Y-12186D03*
X23743Y-12186D03*
X22743Y-12186D03*
X21011Y-13186D03*
X39793Y-12186D03*
X38793Y-12186D03*
X37793Y-12186D03*
X36793Y-12186D03*
X35793Y-12186D03*
X34793Y-12186D03*
X33793Y-12186D03*
X32793Y-12186D03*
X31061Y-13186D03*
X42848Y-12189D03*
X41116Y-13189D03*
X43848Y-12189D03*
X44848Y-12189D03*
X49848Y-12189D03*
X48848Y-12189D03*
X47848Y-12189D03*
X46848Y-12189D03*
X45848Y-12189D03*
X50903Y-14023D03*
X48203Y-16663D03*
X56283Y-15263D03*
X25763Y-35323D03*
X24263Y-35323D03*
X51123Y-10113D03*
X55523Y-10213D03*
X50848Y-28738D03*
X42273Y-41863D03*
X37023Y-30563D03*
X37023Y-31038D03*
X37023Y-17963D03*
X42023Y-32813D03*
X42023Y-21513D03*
X42023Y-20213D03*
X42023Y-7613D03*
X19823Y-29713D03*
X18573Y-28763D03*
X13823Y-29663D03*
X20573Y-28763D03*
X16823Y-29663D03*
X19573Y-28763D03*
X10823Y-29663D03*
X21573Y-28763D03*
X24423Y-43163D03*
X24423Y-30588D03*
X24423Y-31063D03*
X24423Y-17963D03*
X26423Y-32813D03*
X26423Y-21513D03*
X26423Y-20213D03*
X26423Y-7613D03*
X29423Y-32813D03*
X29423Y-21513D03*
X29423Y-20213D03*
X29423Y-7613D03*
X32423Y-32813D03*
X32423Y-21513D03*
X32423Y-20213D03*
X32423Y-7613D03*
X39323Y-42338D03*
X39023Y-30563D03*
X39023Y-31038D03*
X39023Y-17963D03*
X40448Y-41663D03*
X40023Y-30563D03*
X40023Y-31038D03*
X40023Y-17963D03*
X43023Y-42263D03*
X43023Y-30563D03*
X43023Y-31038D03*
X43023Y-17963D03*
X45023Y-42263D03*
X45023Y-30563D03*
X45023Y-31038D03*
X45023Y-17963D03*
X37023Y-32813D03*
X37023Y-21113D03*
X37023Y-20213D03*
X37023Y-7613D03*
X36023Y-32813D03*
X36023Y-21513D03*
X36023Y-20213D03*
X36023Y-7613D03*
X29248Y-42263D03*
X29423Y-30563D03*
X29423Y-31038D03*
X29423Y-17963D03*
X27423Y-32813D03*
X27423Y-21113D03*
X27423Y-20213D03*
X27423Y-7613D03*
X30423Y-32813D03*
X30423Y-21113D03*
X30423Y-20213D03*
X30423Y-7613D03*
X33423Y-32813D03*
X33423Y-21113D03*
X33423Y-20213D03*
X33423Y-7613D03*
X28973Y-41713D03*
X33423Y-30563D03*
X33423Y-31038D03*
X33423Y-17963D03*
X48623Y-29713D03*
X51848Y-28763D03*
X30048Y-41738D03*
X30423Y-30563D03*
X30423Y-31038D03*
X30423Y-17963D03*
X26423Y-42263D03*
X26423Y-30563D03*
X26423Y-31038D03*
X26423Y-17963D03*
X27773Y-42438D03*
X27423Y-30563D03*
X27423Y-31038D03*
X27423Y-17963D03*
X32423Y-42263D03*
X32423Y-30563D03*
X32423Y-31038D03*
X32423Y-17963D03*
X59623Y-17063D03*
X47023Y-17063D03*
X34423Y-17963D03*
X22273Y-17513D03*
X24423Y-32813D03*
X24423Y-21113D03*
X24423Y-20213D03*
X24423Y-7613D03*
X31998Y-29288D03*
X23423Y-29738D03*
X56623Y-17063D03*
X44023Y-17063D03*
X31423Y-17063D03*
X18823Y-17063D03*
X50623Y-17063D03*
X38023Y-17063D03*
X25423Y-17963D03*
X12823Y-17063D03*
X53623Y-17063D03*
X41023Y-17063D03*
X28423Y-17063D03*
X15823Y-17063D03*
X28423Y-7613D03*
X53623Y-7613D03*
X41023Y-7613D03*
X15823Y-7613D03*
X50623Y-7613D03*
X38023Y-7613D03*
X25423Y-7613D03*
X12823Y-7613D03*
X18823Y-7613D03*
X56623Y-7613D03*
X44023Y-7613D03*
X31423Y-7613D03*
X21823Y-7613D03*
X59623Y-7613D03*
X47023Y-7613D03*
X34423Y-7613D03*
X59623Y-29663D03*
X47023Y-29663D03*
X34423Y-29663D03*
X22123Y-29813D03*
X31773Y-29863D03*
X56623Y-29663D03*
X44023Y-29663D03*
X18823Y-29713D03*
X53623Y-29663D03*
X41023Y-29763D03*
X28173Y-29763D03*
X15823Y-29663D03*
X54623Y-29663D03*
X49848Y-28763D03*
X59623Y-21113D03*
X47023Y-21113D03*
X34423Y-21113D03*
X21823Y-21113D03*
X56623Y-21113D03*
X44023Y-21113D03*
X31423Y-21113D03*
X18823Y-21113D03*
X53623Y-21113D03*
X41023Y-21113D03*
X28423Y-21113D03*
X15823Y-21113D03*
X50623Y-21113D03*
X38023Y-21113D03*
X25423Y-21113D03*
X12823Y-21113D03*
X57623Y-29663D03*
X48848Y-28763D03*
X50623Y-29713D03*
X38023Y-29663D03*
X25423Y-29663D03*
X12823Y-29663D03*
X53623Y-33713D03*
X41023Y-33713D03*
X28423Y-33713D03*
X15823Y-33713D03*
X59623Y-33713D03*
X47023Y-33713D03*
X34423Y-33713D03*
X21823Y-33713D03*
X50923Y-42413D03*
X38023Y-42263D03*
X25423Y-42263D03*
X12823Y-42263D03*
X56623Y-42263D03*
X44023Y-42263D03*
X31773Y-42413D03*
X19123Y-42363D03*
X50623Y-33713D03*
X38023Y-33713D03*
X25423Y-33713D03*
X12823Y-33713D03*
X56623Y-33713D03*
X44023Y-33713D03*
X31423Y-33713D03*
X18823Y-33713D03*
X59623Y-42263D03*
X47023Y-42263D03*
X34423Y-42263D03*
X22173Y-42413D03*
X53623Y-42263D03*
X41323Y-42363D03*
X28773Y-42463D03*
X15823Y-42263D03*
X39023Y-32813D03*
X39023Y-21513D03*
X39023Y-20213D03*
X39023Y-7613D03*
X45023Y-32813D03*
X45023Y-21513D03*
X45023Y-20213D03*
X45023Y-7613D03*
X40023Y-32813D03*
X40023Y-21113D03*
X40023Y-20213D03*
X40023Y-7613D03*
X46023Y-42263D03*
X46023Y-30563D03*
X46023Y-31038D03*
X46023Y-17963D03*
X46023Y-32813D03*
X46023Y-21113D03*
X46023Y-20213D03*
X46023Y-7613D03*
X43023Y-32813D03*
X43023Y-21113D03*
X43023Y-20213D03*
X43023Y-7613D03*
X36023Y-42263D03*
X36023Y-30588D03*
X36023Y-31063D03*
X36023Y-17963D03*
X42398Y-42413D03*
X42023Y-30563D03*
X42023Y-31038D03*
X42023Y-17963D03*
X26423Y-32023D03*
X16963Y-11963D03*
X25523Y-32023D03*
X16963Y-10903D03*
X22623Y-40413D03*
G54D16*
X50923Y-14043D02*
X50923Y-16491D01*
X50903Y-14023D02*
X50923Y-14043D01*
X48203Y-16663D02*
X48283Y-16583D01*
X48283Y-16583D02*
X50923Y-16491D01*
X50923Y-16491D02*
X55203Y-16343D01*
X55203Y-16343D02*
X56283Y-15263D01*
X24263Y-35323D02*
X25763Y-35323D01*
X55423Y-10113D02*
X51123Y-10113D01*
X55523Y-10213D02*
X55423Y-10113D01*
X23423Y-29738D02*
X23423Y-29763D01*
X22563Y-40353D02*
X22563Y-39486D01*
X22623Y-40413D02*
X22563Y-40353D01*
M02*
