G04 (created by PCBNEW (2013-mar-25)-stable) date Thursday, January 23, 2014 'PMt' 10:04:45 PM*
%MOIN*%
G04 Gerber Fmt 3.4, Leading zero omitted, Abs format*
%FSLAX34Y34*%
G01*
G70*
G90*
G04 APERTURE LIST*
%ADD10C,0.005*%
%ADD11C,0.00590551*%
%ADD12C,0.00787402*%
%ADD13C,0.011811*%
G04 APERTURE END LIST*
G54D10*
G54D11*
X60225Y-6175D02*
X60225Y-46175D01*
X10225Y-6175D02*
X60225Y-6175D01*
X10225Y-46175D02*
X10225Y-6175D01*
X60225Y-46175D02*
X10225Y-46175D01*
G54D12*
X10705Y-7946D02*
X10941Y-8182D01*
X10941Y-7946D02*
X10705Y-8182D01*
X10705Y-17395D02*
X10941Y-17631D01*
X10941Y-17395D02*
X10705Y-17631D01*
X10705Y-20545D02*
X10941Y-20781D01*
X10941Y-20545D02*
X10705Y-20781D01*
X10705Y-20940D02*
X10941Y-21176D01*
X10941Y-20940D02*
X10705Y-21176D01*
X10705Y-29545D02*
X10941Y-29781D01*
X10941Y-29545D02*
X10705Y-29781D01*
X10705Y-29993D02*
X10941Y-30230D01*
X10941Y-29993D02*
X10705Y-30230D01*
X10705Y-33143D02*
X10941Y-33379D01*
X10941Y-33143D02*
X10705Y-33379D01*
X10705Y-42592D02*
X10941Y-42828D01*
X10941Y-42592D02*
X10705Y-42828D01*
X11705Y-7946D02*
X11941Y-8182D01*
X11941Y-7946D02*
X11705Y-8182D01*
X11705Y-17395D02*
X11941Y-17631D01*
X11941Y-17395D02*
X11705Y-17631D01*
X11705Y-20545D02*
X11941Y-20781D01*
X11941Y-20545D02*
X11705Y-20781D01*
X11705Y-29993D02*
X11941Y-30230D01*
X11941Y-29993D02*
X11705Y-30230D01*
X11705Y-33143D02*
X11941Y-33379D01*
X11941Y-33143D02*
X11705Y-33379D01*
X11705Y-33537D02*
X11941Y-33773D01*
X11941Y-33537D02*
X11705Y-33773D01*
X11705Y-42592D02*
X11941Y-42828D01*
X11941Y-42592D02*
X11705Y-42828D01*
X12705Y-7495D02*
X12941Y-7731D01*
X12941Y-7495D02*
X12705Y-7731D01*
X12705Y-7946D02*
X12941Y-8182D01*
X12941Y-7946D02*
X12705Y-8182D01*
X12705Y-16945D02*
X12941Y-17181D01*
X12941Y-16945D02*
X12705Y-17181D01*
X12705Y-17395D02*
X12941Y-17631D01*
X12941Y-17395D02*
X12705Y-17631D01*
X12705Y-20545D02*
X12941Y-20781D01*
X12941Y-20545D02*
X12705Y-20781D01*
X12705Y-20995D02*
X12941Y-21231D01*
X12941Y-20995D02*
X12705Y-21231D01*
X12705Y-29545D02*
X12941Y-29781D01*
X12941Y-29545D02*
X12705Y-29781D01*
X12705Y-29993D02*
X12941Y-30230D01*
X12941Y-29993D02*
X12705Y-30230D01*
X12705Y-33143D02*
X12941Y-33379D01*
X12941Y-33143D02*
X12705Y-33379D01*
X12705Y-33595D02*
X12941Y-33831D01*
X12941Y-33595D02*
X12705Y-33831D01*
X12705Y-42145D02*
X12941Y-42381D01*
X12941Y-42145D02*
X12705Y-42381D01*
X12705Y-42592D02*
X12941Y-42828D01*
X12941Y-42592D02*
X12705Y-42828D01*
X13705Y-7946D02*
X13941Y-8182D01*
X13941Y-7946D02*
X13705Y-8182D01*
X13705Y-17395D02*
X13941Y-17631D01*
X13941Y-17395D02*
X13705Y-17631D01*
X13705Y-20545D02*
X13941Y-20781D01*
X13941Y-20545D02*
X13705Y-20781D01*
X13705Y-20940D02*
X13941Y-21176D01*
X13941Y-20940D02*
X13705Y-21176D01*
X13705Y-29545D02*
X13941Y-29781D01*
X13941Y-29545D02*
X13705Y-29781D01*
X13705Y-29993D02*
X13941Y-30230D01*
X13941Y-29993D02*
X13705Y-30230D01*
X13705Y-33143D02*
X13941Y-33379D01*
X13941Y-33143D02*
X13705Y-33379D01*
X13705Y-42592D02*
X13941Y-42828D01*
X13941Y-42592D02*
X13705Y-42828D01*
X14705Y-7946D02*
X14941Y-8182D01*
X14941Y-7946D02*
X14705Y-8182D01*
X14705Y-17395D02*
X14941Y-17631D01*
X14941Y-17395D02*
X14705Y-17631D01*
X14705Y-20545D02*
X14941Y-20781D01*
X14941Y-20545D02*
X14705Y-20781D01*
X14705Y-29993D02*
X14941Y-30230D01*
X14941Y-29993D02*
X14705Y-30230D01*
X14705Y-33143D02*
X14941Y-33379D01*
X14941Y-33143D02*
X14705Y-33379D01*
X14705Y-33537D02*
X14941Y-33773D01*
X14941Y-33537D02*
X14705Y-33773D01*
X14705Y-42592D02*
X14941Y-42828D01*
X14941Y-42592D02*
X14705Y-42828D01*
X15445Y-23771D02*
X15681Y-24007D01*
X15681Y-23771D02*
X15445Y-24007D01*
X15445Y-26771D02*
X15681Y-27007D01*
X15681Y-26771D02*
X15445Y-27007D01*
X15445Y-36367D02*
X15681Y-36604D01*
X15681Y-36367D02*
X15445Y-36604D01*
X15445Y-39367D02*
X15681Y-39604D01*
X15681Y-39367D02*
X15445Y-39604D01*
X15705Y-7495D02*
X15941Y-7731D01*
X15941Y-7495D02*
X15705Y-7731D01*
X15705Y-7946D02*
X15941Y-8182D01*
X15941Y-7946D02*
X15705Y-8182D01*
X15705Y-16945D02*
X15941Y-17181D01*
X15941Y-16945D02*
X15705Y-17181D01*
X15705Y-17395D02*
X15941Y-17631D01*
X15941Y-17395D02*
X15705Y-17631D01*
X15705Y-20545D02*
X15941Y-20781D01*
X15941Y-20545D02*
X15705Y-20781D01*
X15705Y-20995D02*
X15941Y-21231D01*
X15941Y-20995D02*
X15705Y-21231D01*
X15705Y-29545D02*
X15941Y-29781D01*
X15941Y-29545D02*
X15705Y-29781D01*
X15705Y-29993D02*
X15941Y-30230D01*
X15941Y-29993D02*
X15705Y-30230D01*
X15705Y-33143D02*
X15941Y-33379D01*
X15941Y-33143D02*
X15705Y-33379D01*
X15705Y-33595D02*
X15941Y-33831D01*
X15941Y-33595D02*
X15705Y-33831D01*
X15705Y-42145D02*
X15941Y-42381D01*
X15941Y-42145D02*
X15705Y-42381D01*
X15705Y-42592D02*
X15941Y-42828D01*
X15941Y-42592D02*
X15705Y-42828D01*
X16445Y-23771D02*
X16681Y-24007D01*
X16681Y-23771D02*
X16445Y-24007D01*
X16445Y-26771D02*
X16681Y-27007D01*
X16681Y-26771D02*
X16445Y-27007D01*
X16445Y-36367D02*
X16681Y-36604D01*
X16681Y-36367D02*
X16445Y-36604D01*
X16445Y-39367D02*
X16681Y-39604D01*
X16681Y-39367D02*
X16445Y-39604D01*
X16705Y-7946D02*
X16941Y-8182D01*
X16941Y-7946D02*
X16705Y-8182D01*
X16705Y-17395D02*
X16941Y-17631D01*
X16941Y-17395D02*
X16705Y-17631D01*
X16705Y-20545D02*
X16941Y-20781D01*
X16941Y-20545D02*
X16705Y-20781D01*
X16705Y-20940D02*
X16941Y-21176D01*
X16941Y-20940D02*
X16705Y-21176D01*
X16705Y-29545D02*
X16941Y-29781D01*
X16941Y-29545D02*
X16705Y-29781D01*
X16705Y-29993D02*
X16941Y-30230D01*
X16941Y-29993D02*
X16705Y-30230D01*
X16705Y-33143D02*
X16941Y-33379D01*
X16941Y-33143D02*
X16705Y-33379D01*
X16705Y-42592D02*
X16941Y-42828D01*
X16941Y-42592D02*
X16705Y-42828D01*
X16845Y-10785D02*
X17081Y-11021D01*
X17081Y-10785D02*
X16845Y-11021D01*
X16845Y-11845D02*
X17081Y-12081D01*
X17081Y-11845D02*
X16845Y-12081D01*
X17445Y-23771D02*
X17681Y-24007D01*
X17681Y-23771D02*
X17445Y-24007D01*
X17445Y-26771D02*
X17681Y-27007D01*
X17681Y-26771D02*
X17445Y-27007D01*
X17445Y-36367D02*
X17681Y-36604D01*
X17681Y-36367D02*
X17445Y-36604D01*
X17445Y-39367D02*
X17681Y-39604D01*
X17681Y-39367D02*
X17445Y-39604D01*
X17705Y-7946D02*
X17941Y-8182D01*
X17941Y-7946D02*
X17705Y-8182D01*
X17705Y-17395D02*
X17941Y-17631D01*
X17941Y-17395D02*
X17705Y-17631D01*
X17705Y-20545D02*
X17941Y-20781D01*
X17941Y-20545D02*
X17705Y-20781D01*
X17705Y-29993D02*
X17941Y-30230D01*
X17941Y-29993D02*
X17705Y-30230D01*
X17705Y-33143D02*
X17941Y-33379D01*
X17941Y-33143D02*
X17705Y-33379D01*
X17705Y-33537D02*
X17941Y-33773D01*
X17941Y-33537D02*
X17705Y-33773D01*
X17705Y-42592D02*
X17941Y-42828D01*
X17941Y-42592D02*
X17705Y-42828D01*
X18445Y-23371D02*
X18681Y-23607D01*
X18681Y-23371D02*
X18445Y-23607D01*
X18445Y-23771D02*
X18681Y-24007D01*
X18681Y-23771D02*
X18445Y-24007D01*
X18445Y-26771D02*
X18681Y-27007D01*
X18681Y-26771D02*
X18445Y-27007D01*
X18445Y-27164D02*
X18681Y-27400D01*
X18681Y-27164D02*
X18445Y-27400D01*
X18445Y-29164D02*
X18681Y-29400D01*
X18681Y-29164D02*
X18445Y-29400D01*
X18445Y-35967D02*
X18681Y-36204D01*
X18681Y-35967D02*
X18445Y-36204D01*
X18445Y-36367D02*
X18681Y-36604D01*
X18681Y-36367D02*
X18445Y-36604D01*
X18445Y-39367D02*
X18681Y-39604D01*
X18681Y-39367D02*
X18445Y-39604D01*
X18445Y-39761D02*
X18681Y-39997D01*
X18681Y-39761D02*
X18445Y-39997D01*
X18445Y-41761D02*
X18681Y-41997D01*
X18681Y-41761D02*
X18445Y-41997D01*
X18455Y-28645D02*
X18691Y-28881D01*
X18691Y-28645D02*
X18455Y-28881D01*
X18705Y-7495D02*
X18941Y-7731D01*
X18941Y-7495D02*
X18705Y-7731D01*
X18705Y-7946D02*
X18941Y-8182D01*
X18941Y-7946D02*
X18705Y-8182D01*
X18705Y-16945D02*
X18941Y-17181D01*
X18941Y-16945D02*
X18705Y-17181D01*
X18705Y-17395D02*
X18941Y-17631D01*
X18941Y-17395D02*
X18705Y-17631D01*
X18705Y-20545D02*
X18941Y-20781D01*
X18941Y-20545D02*
X18705Y-20781D01*
X18705Y-20995D02*
X18941Y-21231D01*
X18941Y-20995D02*
X18705Y-21231D01*
X18705Y-29595D02*
X18941Y-29831D01*
X18941Y-29595D02*
X18705Y-29831D01*
X18705Y-29993D02*
X18941Y-30230D01*
X18941Y-29993D02*
X18705Y-30230D01*
X18705Y-33143D02*
X18941Y-33379D01*
X18941Y-33143D02*
X18705Y-33379D01*
X18705Y-33595D02*
X18941Y-33831D01*
X18941Y-33595D02*
X18705Y-33831D01*
X18705Y-42592D02*
X18941Y-42828D01*
X18941Y-42592D02*
X18705Y-42828D01*
X19005Y-42245D02*
X19241Y-42481D01*
X19241Y-42245D02*
X19005Y-42481D01*
X19445Y-23371D02*
X19681Y-23607D01*
X19681Y-23371D02*
X19445Y-23607D01*
X19445Y-23771D02*
X19681Y-24007D01*
X19681Y-23771D02*
X19445Y-24007D01*
X19445Y-26771D02*
X19681Y-27007D01*
X19681Y-26771D02*
X19445Y-27007D01*
X19445Y-27164D02*
X19681Y-27400D01*
X19681Y-27164D02*
X19445Y-27400D01*
X19445Y-29164D02*
X19681Y-29400D01*
X19681Y-29164D02*
X19445Y-29400D01*
X19445Y-35967D02*
X19681Y-36204D01*
X19681Y-35967D02*
X19445Y-36204D01*
X19445Y-36367D02*
X19681Y-36604D01*
X19681Y-36367D02*
X19445Y-36604D01*
X19445Y-39367D02*
X19681Y-39604D01*
X19681Y-39367D02*
X19445Y-39604D01*
X19445Y-39761D02*
X19681Y-39997D01*
X19681Y-39761D02*
X19445Y-39997D01*
X19445Y-41761D02*
X19681Y-41997D01*
X19681Y-41761D02*
X19445Y-41997D01*
X19455Y-28645D02*
X19691Y-28881D01*
X19691Y-28645D02*
X19455Y-28881D01*
X19705Y-7946D02*
X19941Y-8182D01*
X19941Y-7946D02*
X19705Y-8182D01*
X19705Y-17395D02*
X19941Y-17631D01*
X19941Y-17395D02*
X19705Y-17631D01*
X19705Y-20545D02*
X19941Y-20781D01*
X19941Y-20545D02*
X19705Y-20781D01*
X19705Y-20940D02*
X19941Y-21176D01*
X19941Y-20940D02*
X19705Y-21176D01*
X19705Y-29595D02*
X19941Y-29831D01*
X19941Y-29595D02*
X19705Y-29831D01*
X19705Y-29993D02*
X19941Y-30230D01*
X19941Y-29993D02*
X19705Y-30230D01*
X19705Y-33143D02*
X19941Y-33379D01*
X19941Y-33143D02*
X19705Y-33379D01*
X19705Y-42592D02*
X19941Y-42828D01*
X19941Y-42592D02*
X19705Y-42828D01*
X19905Y-12720D02*
X20141Y-12956D01*
X20141Y-12720D02*
X19905Y-12956D01*
X19905Y-15720D02*
X20141Y-15956D01*
X20141Y-15720D02*
X19905Y-15956D01*
X20445Y-23371D02*
X20681Y-23607D01*
X20681Y-23371D02*
X20445Y-23607D01*
X20445Y-23771D02*
X20681Y-24007D01*
X20681Y-23771D02*
X20445Y-24007D01*
X20445Y-26771D02*
X20681Y-27007D01*
X20681Y-26771D02*
X20445Y-27007D01*
X20445Y-27164D02*
X20681Y-27400D01*
X20681Y-27164D02*
X20445Y-27400D01*
X20445Y-29164D02*
X20681Y-29400D01*
X20681Y-29164D02*
X20445Y-29400D01*
X20445Y-35967D02*
X20681Y-36204D01*
X20681Y-35967D02*
X20445Y-36204D01*
X20445Y-36367D02*
X20681Y-36604D01*
X20681Y-36367D02*
X20445Y-36604D01*
X20445Y-39367D02*
X20681Y-39604D01*
X20681Y-39367D02*
X20445Y-39604D01*
X20445Y-39761D02*
X20681Y-39997D01*
X20681Y-39761D02*
X20445Y-39997D01*
X20445Y-41761D02*
X20681Y-41997D01*
X20681Y-41761D02*
X20445Y-41997D01*
X20455Y-28645D02*
X20691Y-28881D01*
X20691Y-28645D02*
X20455Y-28881D01*
X20705Y-7946D02*
X20941Y-8182D01*
X20941Y-7946D02*
X20705Y-8182D01*
X20705Y-17395D02*
X20941Y-17631D01*
X20941Y-17395D02*
X20705Y-17631D01*
X20705Y-20545D02*
X20941Y-20781D01*
X20941Y-20545D02*
X20705Y-20781D01*
X20705Y-29993D02*
X20941Y-30230D01*
X20941Y-29993D02*
X20705Y-30230D01*
X20705Y-33143D02*
X20941Y-33379D01*
X20941Y-33143D02*
X20705Y-33379D01*
X20705Y-33537D02*
X20941Y-33773D01*
X20941Y-33537D02*
X20705Y-33773D01*
X20705Y-42592D02*
X20941Y-42828D01*
X20941Y-42592D02*
X20705Y-42828D01*
X20893Y-13068D02*
X21129Y-13304D01*
X21129Y-13068D02*
X20893Y-13304D01*
X20905Y-12720D02*
X21141Y-12956D01*
X21141Y-12720D02*
X20905Y-12956D01*
X20905Y-15720D02*
X21141Y-15956D01*
X21141Y-15720D02*
X20905Y-15956D01*
X21430Y-8771D02*
X21666Y-9007D01*
X21666Y-8771D02*
X21430Y-9007D01*
X21430Y-11771D02*
X21666Y-12007D01*
X21666Y-11771D02*
X21430Y-12007D01*
X21445Y-23371D02*
X21681Y-23607D01*
X21681Y-23371D02*
X21445Y-23607D01*
X21445Y-23771D02*
X21681Y-24007D01*
X21681Y-23771D02*
X21445Y-24007D01*
X21445Y-26771D02*
X21681Y-27007D01*
X21681Y-26771D02*
X21445Y-27007D01*
X21445Y-27164D02*
X21681Y-27400D01*
X21681Y-27164D02*
X21445Y-27400D01*
X21445Y-29164D02*
X21681Y-29400D01*
X21681Y-29164D02*
X21445Y-29400D01*
X21445Y-35967D02*
X21681Y-36204D01*
X21681Y-35967D02*
X21445Y-36204D01*
X21445Y-36367D02*
X21681Y-36604D01*
X21681Y-36367D02*
X21445Y-36604D01*
X21445Y-39367D02*
X21681Y-39604D01*
X21681Y-39367D02*
X21445Y-39604D01*
X21445Y-39761D02*
X21681Y-39997D01*
X21681Y-39761D02*
X21445Y-39997D01*
X21445Y-41761D02*
X21681Y-41997D01*
X21681Y-41761D02*
X21445Y-41997D01*
X21455Y-28645D02*
X21691Y-28881D01*
X21691Y-28645D02*
X21455Y-28881D01*
X21705Y-7495D02*
X21941Y-7731D01*
X21941Y-7495D02*
X21705Y-7731D01*
X21705Y-7946D02*
X21941Y-8182D01*
X21941Y-7946D02*
X21705Y-8182D01*
X21705Y-17395D02*
X21941Y-17631D01*
X21941Y-17395D02*
X21705Y-17631D01*
X21705Y-20545D02*
X21941Y-20781D01*
X21941Y-20545D02*
X21705Y-20781D01*
X21705Y-20995D02*
X21941Y-21231D01*
X21941Y-20995D02*
X21705Y-21231D01*
X21705Y-29993D02*
X21941Y-30230D01*
X21941Y-29993D02*
X21705Y-30230D01*
X21705Y-33143D02*
X21941Y-33379D01*
X21941Y-33143D02*
X21705Y-33379D01*
X21705Y-33595D02*
X21941Y-33831D01*
X21941Y-33595D02*
X21705Y-33831D01*
X21705Y-42592D02*
X21941Y-42828D01*
X21941Y-42592D02*
X21705Y-42828D01*
X21905Y-12720D02*
X22141Y-12956D01*
X22141Y-12720D02*
X21905Y-12956D01*
X21905Y-15720D02*
X22141Y-15956D01*
X22141Y-15720D02*
X21905Y-15956D01*
X22005Y-29695D02*
X22241Y-29931D01*
X22241Y-29695D02*
X22005Y-29931D01*
X22055Y-42295D02*
X22291Y-42531D01*
X22291Y-42295D02*
X22055Y-42531D01*
X22155Y-17395D02*
X22391Y-17631D01*
X22391Y-17395D02*
X22155Y-17631D01*
X22430Y-8771D02*
X22666Y-9007D01*
X22666Y-8771D02*
X22430Y-9007D01*
X22430Y-11771D02*
X22666Y-12007D01*
X22666Y-11771D02*
X22430Y-12007D01*
X22445Y-23771D02*
X22681Y-24007D01*
X22681Y-23771D02*
X22445Y-24007D01*
X22445Y-26771D02*
X22681Y-27007D01*
X22681Y-26771D02*
X22445Y-27007D01*
X22445Y-36367D02*
X22681Y-36604D01*
X22681Y-36367D02*
X22445Y-36604D01*
X22445Y-39367D02*
X22681Y-39604D01*
X22681Y-39367D02*
X22445Y-39604D01*
X22505Y-40295D02*
X22741Y-40531D01*
X22741Y-40295D02*
X22505Y-40531D01*
X22625Y-12068D02*
X22861Y-12304D01*
X22861Y-12068D02*
X22625Y-12304D01*
X22905Y-12720D02*
X23141Y-12956D01*
X23141Y-12720D02*
X22905Y-12956D01*
X22905Y-15720D02*
X23141Y-15956D01*
X23141Y-15720D02*
X22905Y-15956D01*
X23303Y-7946D02*
X23539Y-8182D01*
X23539Y-7946D02*
X23303Y-8182D01*
X23303Y-17395D02*
X23539Y-17631D01*
X23539Y-17395D02*
X23303Y-17631D01*
X23303Y-20545D02*
X23539Y-20781D01*
X23539Y-20545D02*
X23303Y-20781D01*
X23303Y-20940D02*
X23539Y-21176D01*
X23539Y-20940D02*
X23303Y-21176D01*
X23303Y-29993D02*
X23539Y-30230D01*
X23539Y-29993D02*
X23303Y-30230D01*
X23303Y-33143D02*
X23539Y-33379D01*
X23539Y-33143D02*
X23303Y-33379D01*
X23303Y-42592D02*
X23539Y-42828D01*
X23539Y-42592D02*
X23303Y-42828D01*
X23305Y-29620D02*
X23541Y-29856D01*
X23541Y-29620D02*
X23305Y-29856D01*
X23430Y-8771D02*
X23666Y-9007D01*
X23666Y-8771D02*
X23430Y-9007D01*
X23430Y-11771D02*
X23666Y-12007D01*
X23666Y-11771D02*
X23430Y-12007D01*
X23445Y-23771D02*
X23681Y-24007D01*
X23681Y-23771D02*
X23445Y-24007D01*
X23445Y-26771D02*
X23681Y-27007D01*
X23681Y-26771D02*
X23445Y-27007D01*
X23445Y-36367D02*
X23681Y-36604D01*
X23681Y-36367D02*
X23445Y-36604D01*
X23445Y-39367D02*
X23681Y-39604D01*
X23681Y-39367D02*
X23445Y-39604D01*
X23625Y-12068D02*
X23861Y-12304D01*
X23861Y-12068D02*
X23625Y-12304D01*
X23905Y-12720D02*
X24141Y-12956D01*
X24141Y-12720D02*
X23905Y-12956D01*
X23905Y-15720D02*
X24141Y-15956D01*
X24141Y-15720D02*
X23905Y-15956D01*
X24145Y-35205D02*
X24381Y-35441D01*
X24381Y-35205D02*
X24145Y-35441D01*
X24303Y-7946D02*
X24539Y-8182D01*
X24539Y-7946D02*
X24303Y-8182D01*
X24303Y-17395D02*
X24539Y-17631D01*
X24539Y-17395D02*
X24303Y-17631D01*
X24303Y-20545D02*
X24539Y-20781D01*
X24539Y-20545D02*
X24303Y-20781D01*
X24303Y-29993D02*
X24539Y-30230D01*
X24539Y-29993D02*
X24303Y-30230D01*
X24303Y-33143D02*
X24539Y-33379D01*
X24539Y-33143D02*
X24303Y-33379D01*
X24303Y-33537D02*
X24539Y-33773D01*
X24539Y-33537D02*
X24303Y-33773D01*
X24303Y-42592D02*
X24539Y-42828D01*
X24539Y-42592D02*
X24303Y-42828D01*
X24305Y-7495D02*
X24541Y-7731D01*
X24541Y-7495D02*
X24305Y-7731D01*
X24305Y-17845D02*
X24541Y-18081D01*
X24541Y-17845D02*
X24305Y-18081D01*
X24305Y-20095D02*
X24541Y-20331D01*
X24541Y-20095D02*
X24305Y-20331D01*
X24305Y-20995D02*
X24541Y-21231D01*
X24541Y-20995D02*
X24305Y-21231D01*
X24305Y-30470D02*
X24541Y-30706D01*
X24541Y-30470D02*
X24305Y-30706D01*
X24305Y-30945D02*
X24541Y-31181D01*
X24541Y-30945D02*
X24305Y-31181D01*
X24305Y-32695D02*
X24541Y-32931D01*
X24541Y-32695D02*
X24305Y-32931D01*
X24305Y-43045D02*
X24541Y-43281D01*
X24541Y-43045D02*
X24305Y-43281D01*
X24430Y-8771D02*
X24666Y-9007D01*
X24666Y-8771D02*
X24430Y-9007D01*
X24430Y-11771D02*
X24666Y-12007D01*
X24666Y-11771D02*
X24430Y-12007D01*
X24445Y-23771D02*
X24681Y-24007D01*
X24681Y-23771D02*
X24445Y-24007D01*
X24445Y-26771D02*
X24681Y-27007D01*
X24681Y-26771D02*
X24445Y-27007D01*
X24445Y-36367D02*
X24681Y-36604D01*
X24681Y-36367D02*
X24445Y-36604D01*
X24445Y-39367D02*
X24681Y-39604D01*
X24681Y-39367D02*
X24445Y-39604D01*
X24625Y-12068D02*
X24861Y-12304D01*
X24861Y-12068D02*
X24625Y-12304D01*
X24905Y-12720D02*
X25141Y-12956D01*
X25141Y-12720D02*
X24905Y-12956D01*
X24905Y-15720D02*
X25141Y-15956D01*
X25141Y-15720D02*
X24905Y-15956D01*
X25303Y-7946D02*
X25539Y-8182D01*
X25539Y-7946D02*
X25303Y-8182D01*
X25303Y-17395D02*
X25539Y-17631D01*
X25539Y-17395D02*
X25303Y-17631D01*
X25303Y-20545D02*
X25539Y-20781D01*
X25539Y-20545D02*
X25303Y-20781D01*
X25303Y-29993D02*
X25539Y-30230D01*
X25539Y-29993D02*
X25303Y-30230D01*
X25303Y-33143D02*
X25539Y-33379D01*
X25539Y-33143D02*
X25303Y-33379D01*
X25303Y-42592D02*
X25539Y-42828D01*
X25539Y-42592D02*
X25303Y-42828D01*
X25305Y-7495D02*
X25541Y-7731D01*
X25541Y-7495D02*
X25305Y-7731D01*
X25305Y-17845D02*
X25541Y-18081D01*
X25541Y-17845D02*
X25305Y-18081D01*
X25305Y-20995D02*
X25541Y-21231D01*
X25541Y-20995D02*
X25305Y-21231D01*
X25305Y-29545D02*
X25541Y-29781D01*
X25541Y-29545D02*
X25305Y-29781D01*
X25305Y-33595D02*
X25541Y-33831D01*
X25541Y-33595D02*
X25305Y-33831D01*
X25305Y-42145D02*
X25541Y-42381D01*
X25541Y-42145D02*
X25305Y-42381D01*
X25405Y-31905D02*
X25641Y-32141D01*
X25641Y-31905D02*
X25405Y-32141D01*
X25430Y-8771D02*
X25666Y-9007D01*
X25666Y-8771D02*
X25430Y-9007D01*
X25430Y-11771D02*
X25666Y-12007D01*
X25666Y-11771D02*
X25430Y-12007D01*
X25484Y-23771D02*
X25721Y-24007D01*
X25721Y-23771D02*
X25484Y-24007D01*
X25484Y-26771D02*
X25721Y-27007D01*
X25721Y-26771D02*
X25484Y-27007D01*
X25484Y-36367D02*
X25721Y-36604D01*
X25721Y-36367D02*
X25484Y-36604D01*
X25484Y-39367D02*
X25721Y-39604D01*
X25721Y-39367D02*
X25484Y-39604D01*
X25625Y-12068D02*
X25861Y-12304D01*
X25861Y-12068D02*
X25625Y-12304D01*
X25645Y-35205D02*
X25881Y-35441D01*
X25881Y-35205D02*
X25645Y-35441D01*
X25905Y-12720D02*
X26141Y-12956D01*
X26141Y-12720D02*
X25905Y-12956D01*
X25905Y-15720D02*
X26141Y-15956D01*
X26141Y-15720D02*
X25905Y-15956D01*
X26303Y-7946D02*
X26539Y-8182D01*
X26539Y-7946D02*
X26303Y-8182D01*
X26303Y-17395D02*
X26539Y-17631D01*
X26539Y-17395D02*
X26303Y-17631D01*
X26303Y-20545D02*
X26539Y-20781D01*
X26539Y-20545D02*
X26303Y-20781D01*
X26303Y-20940D02*
X26539Y-21176D01*
X26539Y-20940D02*
X26303Y-21176D01*
X26303Y-29993D02*
X26539Y-30230D01*
X26539Y-29993D02*
X26303Y-30230D01*
X26303Y-33143D02*
X26539Y-33379D01*
X26539Y-33143D02*
X26303Y-33379D01*
X26303Y-42592D02*
X26539Y-42828D01*
X26539Y-42592D02*
X26303Y-42828D01*
X26305Y-7495D02*
X26541Y-7731D01*
X26541Y-7495D02*
X26305Y-7731D01*
X26305Y-17845D02*
X26541Y-18081D01*
X26541Y-17845D02*
X26305Y-18081D01*
X26305Y-20095D02*
X26541Y-20331D01*
X26541Y-20095D02*
X26305Y-20331D01*
X26305Y-21395D02*
X26541Y-21631D01*
X26541Y-21395D02*
X26305Y-21631D01*
X26305Y-30445D02*
X26541Y-30681D01*
X26541Y-30445D02*
X26305Y-30681D01*
X26305Y-30920D02*
X26541Y-31156D01*
X26541Y-30920D02*
X26305Y-31156D01*
X26305Y-31905D02*
X26541Y-32141D01*
X26541Y-31905D02*
X26305Y-32141D01*
X26305Y-32695D02*
X26541Y-32931D01*
X26541Y-32695D02*
X26305Y-32931D01*
X26305Y-42145D02*
X26541Y-42381D01*
X26541Y-42145D02*
X26305Y-42381D01*
X26430Y-8771D02*
X26666Y-9007D01*
X26666Y-8771D02*
X26430Y-9007D01*
X26430Y-11771D02*
X26666Y-12007D01*
X26666Y-11771D02*
X26430Y-12007D01*
X26484Y-23771D02*
X26721Y-24007D01*
X26721Y-23771D02*
X26484Y-24007D01*
X26484Y-26771D02*
X26721Y-27007D01*
X26721Y-26771D02*
X26484Y-27007D01*
X26484Y-36367D02*
X26721Y-36604D01*
X26721Y-36367D02*
X26484Y-36604D01*
X26484Y-39367D02*
X26721Y-39604D01*
X26721Y-39367D02*
X26484Y-39604D01*
X26625Y-12068D02*
X26861Y-12304D01*
X26861Y-12068D02*
X26625Y-12304D01*
X26905Y-12720D02*
X27141Y-12956D01*
X27141Y-12720D02*
X26905Y-12956D01*
X26905Y-15720D02*
X27141Y-15956D01*
X27141Y-15720D02*
X26905Y-15956D01*
X27303Y-7946D02*
X27539Y-8182D01*
X27539Y-7946D02*
X27303Y-8182D01*
X27303Y-17395D02*
X27539Y-17631D01*
X27539Y-17395D02*
X27303Y-17631D01*
X27303Y-20545D02*
X27539Y-20781D01*
X27539Y-20545D02*
X27303Y-20781D01*
X27303Y-29993D02*
X27539Y-30230D01*
X27539Y-29993D02*
X27303Y-30230D01*
X27303Y-33143D02*
X27539Y-33379D01*
X27539Y-33143D02*
X27303Y-33379D01*
X27303Y-33537D02*
X27539Y-33773D01*
X27539Y-33537D02*
X27303Y-33773D01*
X27303Y-42592D02*
X27539Y-42828D01*
X27539Y-42592D02*
X27303Y-42828D01*
X27305Y-7495D02*
X27541Y-7731D01*
X27541Y-7495D02*
X27305Y-7731D01*
X27305Y-17845D02*
X27541Y-18081D01*
X27541Y-17845D02*
X27305Y-18081D01*
X27305Y-20095D02*
X27541Y-20331D01*
X27541Y-20095D02*
X27305Y-20331D01*
X27305Y-20995D02*
X27541Y-21231D01*
X27541Y-20995D02*
X27305Y-21231D01*
X27305Y-30445D02*
X27541Y-30681D01*
X27541Y-30445D02*
X27305Y-30681D01*
X27305Y-30920D02*
X27541Y-31156D01*
X27541Y-30920D02*
X27305Y-31156D01*
X27305Y-32695D02*
X27541Y-32931D01*
X27541Y-32695D02*
X27305Y-32931D01*
X27430Y-8771D02*
X27666Y-9007D01*
X27666Y-8771D02*
X27430Y-9007D01*
X27430Y-11771D02*
X27666Y-12007D01*
X27666Y-11771D02*
X27430Y-12007D01*
X27484Y-23771D02*
X27721Y-24007D01*
X27721Y-23771D02*
X27484Y-24007D01*
X27484Y-26771D02*
X27721Y-27007D01*
X27721Y-26771D02*
X27484Y-27007D01*
X27484Y-36367D02*
X27721Y-36604D01*
X27721Y-36367D02*
X27484Y-36604D01*
X27484Y-39367D02*
X27721Y-39604D01*
X27721Y-39367D02*
X27484Y-39604D01*
X27625Y-12068D02*
X27861Y-12304D01*
X27861Y-12068D02*
X27625Y-12304D01*
X27655Y-42320D02*
X27891Y-42556D01*
X27891Y-42320D02*
X27655Y-42556D01*
X27905Y-12720D02*
X28141Y-12956D01*
X28141Y-12720D02*
X27905Y-12956D01*
X27905Y-15720D02*
X28141Y-15956D01*
X28141Y-15720D02*
X27905Y-15956D01*
X28055Y-29645D02*
X28291Y-29881D01*
X28291Y-29645D02*
X28055Y-29881D01*
X28303Y-7946D02*
X28539Y-8182D01*
X28539Y-7946D02*
X28303Y-8182D01*
X28303Y-17395D02*
X28539Y-17631D01*
X28539Y-17395D02*
X28303Y-17631D01*
X28303Y-20545D02*
X28539Y-20781D01*
X28539Y-20545D02*
X28303Y-20781D01*
X28303Y-29993D02*
X28539Y-30230D01*
X28539Y-29993D02*
X28303Y-30230D01*
X28303Y-33143D02*
X28539Y-33379D01*
X28539Y-33143D02*
X28303Y-33379D01*
X28303Y-42592D02*
X28539Y-42828D01*
X28539Y-42592D02*
X28303Y-42828D01*
X28305Y-7495D02*
X28541Y-7731D01*
X28541Y-7495D02*
X28305Y-7731D01*
X28305Y-16945D02*
X28541Y-17181D01*
X28541Y-16945D02*
X28305Y-17181D01*
X28305Y-20995D02*
X28541Y-21231D01*
X28541Y-20995D02*
X28305Y-21231D01*
X28305Y-33595D02*
X28541Y-33831D01*
X28541Y-33595D02*
X28305Y-33831D01*
X28430Y-8771D02*
X28666Y-9007D01*
X28666Y-8771D02*
X28430Y-9007D01*
X28430Y-11771D02*
X28666Y-12007D01*
X28666Y-11771D02*
X28430Y-12007D01*
X28484Y-35967D02*
X28721Y-36204D01*
X28721Y-35967D02*
X28484Y-36204D01*
X28484Y-23371D02*
X28721Y-23607D01*
X28721Y-23371D02*
X28484Y-23607D01*
X28484Y-23771D02*
X28721Y-24007D01*
X28721Y-23771D02*
X28484Y-24007D01*
X28484Y-26771D02*
X28721Y-27007D01*
X28721Y-26771D02*
X28484Y-27007D01*
X28484Y-27164D02*
X28721Y-27400D01*
X28721Y-27164D02*
X28484Y-27400D01*
X28484Y-29164D02*
X28721Y-29400D01*
X28721Y-29164D02*
X28484Y-29400D01*
X28484Y-36367D02*
X28721Y-36604D01*
X28721Y-36367D02*
X28484Y-36604D01*
X28484Y-39367D02*
X28721Y-39604D01*
X28721Y-39367D02*
X28484Y-39604D01*
X28484Y-39761D02*
X28721Y-39997D01*
X28721Y-39761D02*
X28484Y-39997D01*
X28484Y-41761D02*
X28721Y-41997D01*
X28721Y-41761D02*
X28484Y-41997D01*
X28625Y-12068D02*
X28861Y-12304D01*
X28861Y-12068D02*
X28625Y-12304D01*
X28655Y-42345D02*
X28891Y-42581D01*
X28891Y-42345D02*
X28655Y-42581D01*
X28855Y-41595D02*
X29091Y-41831D01*
X29091Y-41595D02*
X28855Y-41831D01*
X28905Y-12720D02*
X29141Y-12956D01*
X29141Y-12720D02*
X28905Y-12956D01*
X28905Y-15720D02*
X29141Y-15956D01*
X29141Y-15720D02*
X28905Y-15956D01*
X29130Y-42145D02*
X29366Y-42381D01*
X29366Y-42145D02*
X29130Y-42381D01*
X29303Y-7946D02*
X29539Y-8182D01*
X29539Y-7946D02*
X29303Y-8182D01*
X29303Y-17395D02*
X29539Y-17631D01*
X29539Y-17395D02*
X29303Y-17631D01*
X29303Y-20545D02*
X29539Y-20781D01*
X29539Y-20545D02*
X29303Y-20781D01*
X29303Y-20940D02*
X29539Y-21176D01*
X29539Y-20940D02*
X29303Y-21176D01*
X29303Y-29993D02*
X29539Y-30230D01*
X29539Y-29993D02*
X29303Y-30230D01*
X29303Y-33143D02*
X29539Y-33379D01*
X29539Y-33143D02*
X29303Y-33379D01*
X29303Y-42592D02*
X29539Y-42828D01*
X29539Y-42592D02*
X29303Y-42828D01*
X29305Y-7495D02*
X29541Y-7731D01*
X29541Y-7495D02*
X29305Y-7731D01*
X29305Y-17845D02*
X29541Y-18081D01*
X29541Y-17845D02*
X29305Y-18081D01*
X29305Y-20095D02*
X29541Y-20331D01*
X29541Y-20095D02*
X29305Y-20331D01*
X29305Y-21395D02*
X29541Y-21631D01*
X29541Y-21395D02*
X29305Y-21631D01*
X29305Y-30445D02*
X29541Y-30681D01*
X29541Y-30445D02*
X29305Y-30681D01*
X29305Y-30920D02*
X29541Y-31156D01*
X29541Y-30920D02*
X29305Y-31156D01*
X29305Y-32695D02*
X29541Y-32931D01*
X29541Y-32695D02*
X29305Y-32931D01*
X29430Y-8771D02*
X29666Y-9007D01*
X29666Y-8771D02*
X29430Y-9007D01*
X29430Y-11771D02*
X29666Y-12007D01*
X29666Y-11771D02*
X29430Y-12007D01*
X29484Y-23371D02*
X29721Y-23607D01*
X29721Y-23371D02*
X29484Y-23607D01*
X29484Y-23771D02*
X29721Y-24007D01*
X29721Y-23771D02*
X29484Y-24007D01*
X29484Y-26771D02*
X29721Y-27007D01*
X29721Y-26771D02*
X29484Y-27007D01*
X29484Y-27164D02*
X29721Y-27400D01*
X29721Y-27164D02*
X29484Y-27400D01*
X29484Y-29164D02*
X29721Y-29400D01*
X29721Y-29164D02*
X29484Y-29400D01*
X29484Y-35967D02*
X29721Y-36204D01*
X29721Y-35967D02*
X29484Y-36204D01*
X29484Y-36367D02*
X29721Y-36604D01*
X29721Y-36367D02*
X29484Y-36604D01*
X29484Y-39367D02*
X29721Y-39604D01*
X29721Y-39367D02*
X29484Y-39604D01*
X29484Y-39761D02*
X29721Y-39997D01*
X29721Y-39761D02*
X29484Y-39997D01*
X29484Y-41761D02*
X29721Y-41997D01*
X29721Y-41761D02*
X29484Y-41997D01*
X29625Y-12068D02*
X29861Y-12304D01*
X29861Y-12068D02*
X29625Y-12304D01*
X29930Y-41620D02*
X30166Y-41856D01*
X30166Y-41620D02*
X29930Y-41856D01*
X29955Y-12721D02*
X30191Y-12957D01*
X30191Y-12721D02*
X29955Y-12957D01*
X29955Y-15721D02*
X30191Y-15957D01*
X30191Y-15721D02*
X29955Y-15957D01*
X30303Y-7946D02*
X30539Y-8182D01*
X30539Y-7946D02*
X30303Y-8182D01*
X30303Y-17395D02*
X30539Y-17631D01*
X30539Y-17395D02*
X30303Y-17631D01*
X30303Y-20545D02*
X30539Y-20781D01*
X30539Y-20545D02*
X30303Y-20781D01*
X30303Y-29993D02*
X30539Y-30230D01*
X30539Y-29993D02*
X30303Y-30230D01*
X30303Y-33143D02*
X30539Y-33379D01*
X30539Y-33143D02*
X30303Y-33379D01*
X30303Y-33537D02*
X30539Y-33773D01*
X30539Y-33537D02*
X30303Y-33773D01*
X30303Y-42592D02*
X30539Y-42828D01*
X30539Y-42592D02*
X30303Y-42828D01*
X30305Y-7495D02*
X30541Y-7731D01*
X30541Y-7495D02*
X30305Y-7731D01*
X30305Y-17845D02*
X30541Y-18081D01*
X30541Y-17845D02*
X30305Y-18081D01*
X30305Y-20095D02*
X30541Y-20331D01*
X30541Y-20095D02*
X30305Y-20331D01*
X30305Y-20995D02*
X30541Y-21231D01*
X30541Y-20995D02*
X30305Y-21231D01*
X30305Y-30445D02*
X30541Y-30681D01*
X30541Y-30445D02*
X30305Y-30681D01*
X30305Y-30920D02*
X30541Y-31156D01*
X30541Y-30920D02*
X30305Y-31156D01*
X30305Y-32695D02*
X30541Y-32931D01*
X30541Y-32695D02*
X30305Y-32931D01*
X30484Y-23371D02*
X30721Y-23607D01*
X30721Y-23371D02*
X30484Y-23607D01*
X30484Y-23771D02*
X30721Y-24007D01*
X30721Y-23771D02*
X30484Y-24007D01*
X30484Y-26771D02*
X30721Y-27007D01*
X30721Y-26771D02*
X30484Y-27007D01*
X30484Y-27164D02*
X30721Y-27400D01*
X30721Y-27164D02*
X30484Y-27400D01*
X30484Y-29164D02*
X30721Y-29400D01*
X30721Y-29164D02*
X30484Y-29400D01*
X30484Y-35967D02*
X30721Y-36204D01*
X30721Y-35967D02*
X30484Y-36204D01*
X30484Y-36367D02*
X30721Y-36604D01*
X30721Y-36367D02*
X30484Y-36604D01*
X30484Y-39367D02*
X30721Y-39604D01*
X30721Y-39367D02*
X30484Y-39604D01*
X30484Y-39761D02*
X30721Y-39997D01*
X30721Y-39761D02*
X30484Y-39997D01*
X30484Y-41761D02*
X30721Y-41997D01*
X30721Y-41761D02*
X30484Y-41997D01*
X30943Y-13068D02*
X31179Y-13304D01*
X31179Y-13068D02*
X30943Y-13304D01*
X30955Y-12721D02*
X31191Y-12957D01*
X31191Y-12721D02*
X30955Y-12957D01*
X30955Y-15721D02*
X31191Y-15957D01*
X31191Y-15721D02*
X30955Y-15957D01*
X31303Y-7946D02*
X31539Y-8182D01*
X31539Y-7946D02*
X31303Y-8182D01*
X31303Y-17395D02*
X31539Y-17631D01*
X31539Y-17395D02*
X31303Y-17631D01*
X31303Y-20545D02*
X31539Y-20781D01*
X31539Y-20545D02*
X31303Y-20781D01*
X31303Y-29993D02*
X31539Y-30230D01*
X31539Y-29993D02*
X31303Y-30230D01*
X31303Y-33143D02*
X31539Y-33379D01*
X31539Y-33143D02*
X31303Y-33379D01*
X31303Y-42592D02*
X31539Y-42828D01*
X31539Y-42592D02*
X31303Y-42828D01*
X31305Y-7495D02*
X31541Y-7731D01*
X31541Y-7495D02*
X31305Y-7731D01*
X31305Y-16945D02*
X31541Y-17181D01*
X31541Y-16945D02*
X31305Y-17181D01*
X31305Y-20995D02*
X31541Y-21231D01*
X31541Y-20995D02*
X31305Y-21231D01*
X31305Y-33595D02*
X31541Y-33831D01*
X31541Y-33595D02*
X31305Y-33831D01*
X31480Y-8771D02*
X31716Y-9007D01*
X31716Y-8771D02*
X31480Y-9007D01*
X31480Y-11771D02*
X31716Y-12007D01*
X31716Y-11771D02*
X31480Y-12007D01*
X31484Y-23371D02*
X31721Y-23607D01*
X31721Y-23371D02*
X31484Y-23607D01*
X31484Y-23771D02*
X31721Y-24007D01*
X31721Y-23771D02*
X31484Y-24007D01*
X31484Y-26771D02*
X31721Y-27007D01*
X31721Y-26771D02*
X31484Y-27007D01*
X31484Y-27164D02*
X31721Y-27400D01*
X31721Y-27164D02*
X31484Y-27400D01*
X31484Y-29164D02*
X31721Y-29400D01*
X31721Y-29164D02*
X31484Y-29400D01*
X31484Y-35967D02*
X31721Y-36204D01*
X31721Y-35967D02*
X31484Y-36204D01*
X31484Y-36367D02*
X31721Y-36604D01*
X31721Y-36367D02*
X31484Y-36604D01*
X31484Y-39367D02*
X31721Y-39604D01*
X31721Y-39367D02*
X31484Y-39604D01*
X31484Y-39761D02*
X31721Y-39997D01*
X31721Y-39761D02*
X31484Y-39997D01*
X31484Y-41761D02*
X31721Y-41997D01*
X31721Y-41761D02*
X31484Y-41997D01*
X31655Y-29745D02*
X31891Y-29981D01*
X31891Y-29745D02*
X31655Y-29981D01*
X31655Y-42295D02*
X31891Y-42531D01*
X31891Y-42295D02*
X31655Y-42531D01*
X31880Y-29170D02*
X32116Y-29406D01*
X32116Y-29170D02*
X31880Y-29406D01*
X31955Y-12721D02*
X32191Y-12957D01*
X32191Y-12721D02*
X31955Y-12957D01*
X31955Y-15721D02*
X32191Y-15957D01*
X32191Y-15721D02*
X31955Y-15957D01*
X32303Y-7946D02*
X32539Y-8182D01*
X32539Y-7946D02*
X32303Y-8182D01*
X32303Y-17395D02*
X32539Y-17631D01*
X32539Y-17395D02*
X32303Y-17631D01*
X32303Y-20545D02*
X32539Y-20781D01*
X32539Y-20545D02*
X32303Y-20781D01*
X32303Y-20940D02*
X32539Y-21176D01*
X32539Y-20940D02*
X32303Y-21176D01*
X32303Y-29993D02*
X32539Y-30230D01*
X32539Y-29993D02*
X32303Y-30230D01*
X32303Y-33143D02*
X32539Y-33379D01*
X32539Y-33143D02*
X32303Y-33379D01*
X32303Y-42592D02*
X32539Y-42828D01*
X32539Y-42592D02*
X32303Y-42828D01*
X32305Y-7495D02*
X32541Y-7731D01*
X32541Y-7495D02*
X32305Y-7731D01*
X32305Y-17845D02*
X32541Y-18081D01*
X32541Y-17845D02*
X32305Y-18081D01*
X32305Y-20095D02*
X32541Y-20331D01*
X32541Y-20095D02*
X32305Y-20331D01*
X32305Y-21395D02*
X32541Y-21631D01*
X32541Y-21395D02*
X32305Y-21631D01*
X32305Y-30445D02*
X32541Y-30681D01*
X32541Y-30445D02*
X32305Y-30681D01*
X32305Y-30920D02*
X32541Y-31156D01*
X32541Y-30920D02*
X32305Y-31156D01*
X32305Y-32695D02*
X32541Y-32931D01*
X32541Y-32695D02*
X32305Y-32931D01*
X32305Y-42145D02*
X32541Y-42381D01*
X32541Y-42145D02*
X32305Y-42381D01*
X32480Y-8771D02*
X32716Y-9007D01*
X32716Y-8771D02*
X32480Y-9007D01*
X32480Y-11771D02*
X32716Y-12007D01*
X32716Y-11771D02*
X32480Y-12007D01*
X32484Y-23771D02*
X32721Y-24007D01*
X32721Y-23771D02*
X32484Y-24007D01*
X32484Y-26771D02*
X32721Y-27007D01*
X32721Y-26771D02*
X32484Y-27007D01*
X32484Y-36367D02*
X32721Y-36604D01*
X32721Y-36367D02*
X32484Y-36604D01*
X32484Y-39367D02*
X32721Y-39604D01*
X32721Y-39367D02*
X32484Y-39604D01*
X32675Y-12068D02*
X32911Y-12304D01*
X32911Y-12068D02*
X32675Y-12304D01*
X32955Y-12721D02*
X33191Y-12957D01*
X33191Y-12721D02*
X32955Y-12957D01*
X32955Y-15721D02*
X33191Y-15957D01*
X33191Y-15721D02*
X32955Y-15957D01*
X33303Y-7946D02*
X33539Y-8182D01*
X33539Y-7946D02*
X33303Y-8182D01*
X33303Y-17395D02*
X33539Y-17631D01*
X33539Y-17395D02*
X33303Y-17631D01*
X33303Y-20545D02*
X33539Y-20781D01*
X33539Y-20545D02*
X33303Y-20781D01*
X33303Y-29993D02*
X33539Y-30230D01*
X33539Y-29993D02*
X33303Y-30230D01*
X33303Y-33143D02*
X33539Y-33379D01*
X33539Y-33143D02*
X33303Y-33379D01*
X33303Y-33537D02*
X33539Y-33773D01*
X33539Y-33537D02*
X33303Y-33773D01*
X33303Y-42592D02*
X33539Y-42828D01*
X33539Y-42592D02*
X33303Y-42828D01*
X33305Y-7495D02*
X33541Y-7731D01*
X33541Y-7495D02*
X33305Y-7731D01*
X33305Y-17845D02*
X33541Y-18081D01*
X33541Y-17845D02*
X33305Y-18081D01*
X33305Y-20095D02*
X33541Y-20331D01*
X33541Y-20095D02*
X33305Y-20331D01*
X33305Y-20995D02*
X33541Y-21231D01*
X33541Y-20995D02*
X33305Y-21231D01*
X33305Y-30445D02*
X33541Y-30681D01*
X33541Y-30445D02*
X33305Y-30681D01*
X33305Y-30920D02*
X33541Y-31156D01*
X33541Y-30920D02*
X33305Y-31156D01*
X33305Y-32695D02*
X33541Y-32931D01*
X33541Y-32695D02*
X33305Y-32931D01*
X33480Y-8771D02*
X33716Y-9007D01*
X33716Y-8771D02*
X33480Y-9007D01*
X33480Y-11771D02*
X33716Y-12007D01*
X33716Y-11771D02*
X33480Y-12007D01*
X33484Y-23771D02*
X33721Y-24007D01*
X33721Y-23771D02*
X33484Y-24007D01*
X33484Y-26771D02*
X33721Y-27007D01*
X33721Y-26771D02*
X33484Y-27007D01*
X33484Y-36367D02*
X33721Y-36604D01*
X33721Y-36367D02*
X33484Y-36604D01*
X33484Y-39367D02*
X33721Y-39604D01*
X33721Y-39367D02*
X33484Y-39604D01*
X33675Y-12068D02*
X33911Y-12304D01*
X33911Y-12068D02*
X33675Y-12304D01*
X33955Y-12721D02*
X34191Y-12957D01*
X34191Y-12721D02*
X33955Y-12957D01*
X33955Y-15721D02*
X34191Y-15957D01*
X34191Y-15721D02*
X33955Y-15957D01*
X34303Y-7946D02*
X34539Y-8182D01*
X34539Y-7946D02*
X34303Y-8182D01*
X34303Y-17395D02*
X34539Y-17631D01*
X34539Y-17395D02*
X34303Y-17631D01*
X34303Y-20545D02*
X34539Y-20781D01*
X34539Y-20545D02*
X34303Y-20781D01*
X34303Y-29993D02*
X34539Y-30230D01*
X34539Y-29993D02*
X34303Y-30230D01*
X34303Y-33143D02*
X34539Y-33379D01*
X34539Y-33143D02*
X34303Y-33379D01*
X34303Y-42592D02*
X34539Y-42828D01*
X34539Y-42592D02*
X34303Y-42828D01*
X34305Y-7495D02*
X34541Y-7731D01*
X34541Y-7495D02*
X34305Y-7731D01*
X34305Y-17845D02*
X34541Y-18081D01*
X34541Y-17845D02*
X34305Y-18081D01*
X34305Y-20995D02*
X34541Y-21231D01*
X34541Y-20995D02*
X34305Y-21231D01*
X34305Y-29545D02*
X34541Y-29781D01*
X34541Y-29545D02*
X34305Y-29781D01*
X34305Y-33595D02*
X34541Y-33831D01*
X34541Y-33595D02*
X34305Y-33831D01*
X34305Y-42145D02*
X34541Y-42381D01*
X34541Y-42145D02*
X34305Y-42381D01*
X34480Y-8771D02*
X34716Y-9007D01*
X34716Y-8771D02*
X34480Y-9007D01*
X34480Y-11771D02*
X34716Y-12007D01*
X34716Y-11771D02*
X34480Y-12007D01*
X34484Y-23771D02*
X34721Y-24007D01*
X34721Y-23771D02*
X34484Y-24007D01*
X34484Y-26771D02*
X34721Y-27007D01*
X34721Y-26771D02*
X34484Y-27007D01*
X34484Y-36367D02*
X34721Y-36604D01*
X34721Y-36367D02*
X34484Y-36604D01*
X34484Y-39367D02*
X34721Y-39604D01*
X34721Y-39367D02*
X34484Y-39604D01*
X34675Y-12068D02*
X34911Y-12304D01*
X34911Y-12068D02*
X34675Y-12304D01*
X34955Y-12721D02*
X35191Y-12957D01*
X35191Y-12721D02*
X34955Y-12957D01*
X34955Y-15721D02*
X35191Y-15957D01*
X35191Y-15721D02*
X34955Y-15957D01*
X35480Y-8771D02*
X35716Y-9007D01*
X35716Y-8771D02*
X35480Y-9007D01*
X35480Y-11771D02*
X35716Y-12007D01*
X35716Y-11771D02*
X35480Y-12007D01*
X35675Y-12068D02*
X35911Y-12304D01*
X35911Y-12068D02*
X35675Y-12304D01*
X35697Y-23771D02*
X35933Y-24007D01*
X35933Y-23771D02*
X35697Y-24007D01*
X35697Y-26771D02*
X35933Y-27007D01*
X35933Y-26771D02*
X35697Y-27007D01*
X35697Y-36367D02*
X35933Y-36604D01*
X35933Y-36367D02*
X35697Y-36604D01*
X35697Y-39367D02*
X35933Y-39604D01*
X35933Y-39367D02*
X35697Y-39604D01*
X35902Y-7946D02*
X36138Y-8182D01*
X36138Y-7946D02*
X35902Y-8182D01*
X35902Y-17395D02*
X36138Y-17631D01*
X36138Y-17395D02*
X35902Y-17631D01*
X35902Y-20545D02*
X36138Y-20781D01*
X36138Y-20545D02*
X35902Y-20781D01*
X35902Y-20940D02*
X36138Y-21176D01*
X36138Y-20940D02*
X35902Y-21176D01*
X35902Y-29993D02*
X36138Y-30230D01*
X36138Y-29993D02*
X35902Y-30230D01*
X35902Y-33143D02*
X36138Y-33379D01*
X36138Y-33143D02*
X35902Y-33379D01*
X35902Y-42592D02*
X36138Y-42828D01*
X36138Y-42592D02*
X35902Y-42828D01*
X35905Y-7495D02*
X36141Y-7731D01*
X36141Y-7495D02*
X35905Y-7731D01*
X35905Y-17845D02*
X36141Y-18081D01*
X36141Y-17845D02*
X35905Y-18081D01*
X35905Y-20095D02*
X36141Y-20331D01*
X36141Y-20095D02*
X35905Y-20331D01*
X35905Y-21395D02*
X36141Y-21631D01*
X36141Y-21395D02*
X35905Y-21631D01*
X35905Y-30470D02*
X36141Y-30706D01*
X36141Y-30470D02*
X35905Y-30706D01*
X35905Y-30945D02*
X36141Y-31181D01*
X36141Y-30945D02*
X35905Y-31181D01*
X35905Y-32695D02*
X36141Y-32931D01*
X36141Y-32695D02*
X35905Y-32931D01*
X35905Y-42145D02*
X36141Y-42381D01*
X36141Y-42145D02*
X35905Y-42381D01*
X35955Y-12721D02*
X36191Y-12957D01*
X36191Y-12721D02*
X35955Y-12957D01*
X35955Y-15721D02*
X36191Y-15957D01*
X36191Y-15721D02*
X35955Y-15957D01*
X36480Y-8771D02*
X36716Y-9007D01*
X36716Y-8771D02*
X36480Y-9007D01*
X36480Y-11771D02*
X36716Y-12007D01*
X36716Y-11771D02*
X36480Y-12007D01*
X36675Y-12068D02*
X36911Y-12304D01*
X36911Y-12068D02*
X36675Y-12304D01*
X36697Y-23771D02*
X36933Y-24007D01*
X36933Y-23771D02*
X36697Y-24007D01*
X36697Y-26771D02*
X36933Y-27007D01*
X36933Y-26771D02*
X36697Y-27007D01*
X36697Y-36367D02*
X36933Y-36604D01*
X36933Y-36367D02*
X36697Y-36604D01*
X36697Y-39367D02*
X36933Y-39604D01*
X36933Y-39367D02*
X36697Y-39604D01*
X36902Y-7946D02*
X37138Y-8182D01*
X37138Y-7946D02*
X36902Y-8182D01*
X36902Y-17395D02*
X37138Y-17631D01*
X37138Y-17395D02*
X36902Y-17631D01*
X36902Y-20545D02*
X37138Y-20781D01*
X37138Y-20545D02*
X36902Y-20781D01*
X36902Y-29993D02*
X37138Y-30230D01*
X37138Y-29993D02*
X36902Y-30230D01*
X36902Y-33143D02*
X37138Y-33379D01*
X37138Y-33143D02*
X36902Y-33379D01*
X36902Y-33537D02*
X37138Y-33773D01*
X37138Y-33537D02*
X36902Y-33773D01*
X36902Y-42592D02*
X37138Y-42828D01*
X37138Y-42592D02*
X36902Y-42828D01*
X36905Y-7495D02*
X37141Y-7731D01*
X37141Y-7495D02*
X36905Y-7731D01*
X36905Y-17845D02*
X37141Y-18081D01*
X37141Y-17845D02*
X36905Y-18081D01*
X36905Y-20095D02*
X37141Y-20331D01*
X37141Y-20095D02*
X36905Y-20331D01*
X36905Y-20995D02*
X37141Y-21231D01*
X37141Y-20995D02*
X36905Y-21231D01*
X36905Y-30445D02*
X37141Y-30681D01*
X37141Y-30445D02*
X36905Y-30681D01*
X36905Y-30920D02*
X37141Y-31156D01*
X37141Y-30920D02*
X36905Y-31156D01*
X36905Y-32695D02*
X37141Y-32931D01*
X37141Y-32695D02*
X36905Y-32931D01*
X36955Y-12721D02*
X37191Y-12957D01*
X37191Y-12721D02*
X36955Y-12957D01*
X36955Y-15721D02*
X37191Y-15957D01*
X37191Y-15721D02*
X36955Y-15957D01*
X37480Y-8771D02*
X37716Y-9007D01*
X37716Y-8771D02*
X37480Y-9007D01*
X37480Y-11771D02*
X37716Y-12007D01*
X37716Y-11771D02*
X37480Y-12007D01*
X37675Y-12068D02*
X37911Y-12304D01*
X37911Y-12068D02*
X37675Y-12304D01*
X37697Y-23771D02*
X37933Y-24007D01*
X37933Y-23771D02*
X37697Y-24007D01*
X37697Y-26771D02*
X37933Y-27007D01*
X37933Y-26771D02*
X37697Y-27007D01*
X37697Y-36367D02*
X37933Y-36604D01*
X37933Y-36367D02*
X37697Y-36604D01*
X37697Y-39367D02*
X37933Y-39604D01*
X37933Y-39367D02*
X37697Y-39604D01*
X37902Y-7946D02*
X38138Y-8182D01*
X38138Y-7946D02*
X37902Y-8182D01*
X37902Y-17395D02*
X38138Y-17631D01*
X38138Y-17395D02*
X37902Y-17631D01*
X37902Y-20545D02*
X38138Y-20781D01*
X38138Y-20545D02*
X37902Y-20781D01*
X37902Y-29993D02*
X38138Y-30230D01*
X38138Y-29993D02*
X37902Y-30230D01*
X37902Y-33143D02*
X38138Y-33379D01*
X38138Y-33143D02*
X37902Y-33379D01*
X37902Y-42592D02*
X38138Y-42828D01*
X38138Y-42592D02*
X37902Y-42828D01*
X37905Y-7495D02*
X38141Y-7731D01*
X38141Y-7495D02*
X37905Y-7731D01*
X37905Y-16945D02*
X38141Y-17181D01*
X38141Y-16945D02*
X37905Y-17181D01*
X37905Y-20995D02*
X38141Y-21231D01*
X38141Y-20995D02*
X37905Y-21231D01*
X37905Y-29545D02*
X38141Y-29781D01*
X38141Y-29545D02*
X37905Y-29781D01*
X37905Y-33595D02*
X38141Y-33831D01*
X38141Y-33595D02*
X37905Y-33831D01*
X37905Y-42145D02*
X38141Y-42381D01*
X38141Y-42145D02*
X37905Y-42381D01*
X37955Y-12721D02*
X38191Y-12957D01*
X38191Y-12721D02*
X37955Y-12957D01*
X37955Y-15721D02*
X38191Y-15957D01*
X38191Y-15721D02*
X37955Y-15957D01*
X38480Y-8771D02*
X38716Y-9007D01*
X38716Y-8771D02*
X38480Y-9007D01*
X38480Y-11771D02*
X38716Y-12007D01*
X38716Y-11771D02*
X38480Y-12007D01*
X38675Y-12068D02*
X38911Y-12304D01*
X38911Y-12068D02*
X38675Y-12304D01*
X38697Y-23371D02*
X38933Y-23607D01*
X38933Y-23371D02*
X38697Y-23607D01*
X38697Y-23771D02*
X38933Y-24007D01*
X38933Y-23771D02*
X38697Y-24007D01*
X38697Y-26771D02*
X38933Y-27007D01*
X38933Y-26771D02*
X38697Y-27007D01*
X38697Y-27164D02*
X38933Y-27400D01*
X38933Y-27164D02*
X38697Y-27400D01*
X38697Y-29164D02*
X38933Y-29400D01*
X38933Y-29164D02*
X38697Y-29400D01*
X38697Y-36367D02*
X38933Y-36604D01*
X38933Y-36367D02*
X38697Y-36604D01*
X38697Y-39367D02*
X38933Y-39604D01*
X38933Y-39367D02*
X38697Y-39604D01*
X38697Y-39761D02*
X38933Y-39997D01*
X38933Y-39761D02*
X38697Y-39997D01*
X38697Y-41761D02*
X38933Y-41997D01*
X38933Y-41761D02*
X38697Y-41997D01*
X38697Y-35967D02*
X38933Y-36204D01*
X38933Y-35967D02*
X38697Y-36204D01*
X38902Y-7946D02*
X39138Y-8182D01*
X39138Y-7946D02*
X38902Y-8182D01*
X38902Y-17395D02*
X39138Y-17631D01*
X39138Y-17395D02*
X38902Y-17631D01*
X38902Y-20545D02*
X39138Y-20781D01*
X39138Y-20545D02*
X38902Y-20781D01*
X38902Y-20940D02*
X39138Y-21176D01*
X39138Y-20940D02*
X38902Y-21176D01*
X38902Y-29993D02*
X39138Y-30230D01*
X39138Y-29993D02*
X38902Y-30230D01*
X38902Y-33143D02*
X39138Y-33379D01*
X39138Y-33143D02*
X38902Y-33379D01*
X38902Y-42592D02*
X39138Y-42828D01*
X39138Y-42592D02*
X38902Y-42828D01*
X38905Y-7495D02*
X39141Y-7731D01*
X39141Y-7495D02*
X38905Y-7731D01*
X38905Y-17845D02*
X39141Y-18081D01*
X39141Y-17845D02*
X38905Y-18081D01*
X38905Y-20095D02*
X39141Y-20331D01*
X39141Y-20095D02*
X38905Y-20331D01*
X38905Y-21395D02*
X39141Y-21631D01*
X39141Y-21395D02*
X38905Y-21631D01*
X38905Y-30445D02*
X39141Y-30681D01*
X39141Y-30445D02*
X38905Y-30681D01*
X38905Y-30920D02*
X39141Y-31156D01*
X39141Y-30920D02*
X38905Y-31156D01*
X38905Y-32695D02*
X39141Y-32931D01*
X39141Y-32695D02*
X38905Y-32931D01*
X38955Y-12721D02*
X39191Y-12957D01*
X39191Y-12721D02*
X38955Y-12957D01*
X38955Y-15721D02*
X39191Y-15957D01*
X39191Y-15721D02*
X38955Y-15957D01*
X39205Y-42220D02*
X39441Y-42456D01*
X39441Y-42220D02*
X39205Y-42456D01*
X39480Y-8771D02*
X39716Y-9007D01*
X39716Y-8771D02*
X39480Y-9007D01*
X39480Y-11771D02*
X39716Y-12007D01*
X39716Y-11771D02*
X39480Y-12007D01*
X39675Y-12068D02*
X39911Y-12304D01*
X39911Y-12068D02*
X39675Y-12304D01*
X39697Y-23371D02*
X39933Y-23607D01*
X39933Y-23371D02*
X39697Y-23607D01*
X39697Y-23771D02*
X39933Y-24007D01*
X39933Y-23771D02*
X39697Y-24007D01*
X39697Y-26771D02*
X39933Y-27007D01*
X39933Y-26771D02*
X39697Y-27007D01*
X39697Y-27164D02*
X39933Y-27400D01*
X39933Y-27164D02*
X39697Y-27400D01*
X39697Y-29164D02*
X39933Y-29400D01*
X39933Y-29164D02*
X39697Y-29400D01*
X39697Y-35967D02*
X39933Y-36204D01*
X39933Y-35967D02*
X39697Y-36204D01*
X39697Y-36367D02*
X39933Y-36604D01*
X39933Y-36367D02*
X39697Y-36604D01*
X39697Y-39367D02*
X39933Y-39604D01*
X39933Y-39367D02*
X39697Y-39604D01*
X39697Y-39761D02*
X39933Y-39997D01*
X39933Y-39761D02*
X39697Y-39997D01*
X39697Y-41761D02*
X39933Y-41997D01*
X39933Y-41761D02*
X39697Y-41997D01*
X39902Y-7946D02*
X40138Y-8182D01*
X40138Y-7946D02*
X39902Y-8182D01*
X39902Y-17395D02*
X40138Y-17631D01*
X40138Y-17395D02*
X39902Y-17631D01*
X39902Y-20545D02*
X40138Y-20781D01*
X40138Y-20545D02*
X39902Y-20781D01*
X39902Y-29993D02*
X40138Y-30230D01*
X40138Y-29993D02*
X39902Y-30230D01*
X39902Y-33143D02*
X40138Y-33379D01*
X40138Y-33143D02*
X39902Y-33379D01*
X39902Y-33537D02*
X40138Y-33773D01*
X40138Y-33537D02*
X39902Y-33773D01*
X39902Y-42592D02*
X40138Y-42828D01*
X40138Y-42592D02*
X39902Y-42828D01*
X39905Y-7495D02*
X40141Y-7731D01*
X40141Y-7495D02*
X39905Y-7731D01*
X39905Y-17845D02*
X40141Y-18081D01*
X40141Y-17845D02*
X39905Y-18081D01*
X39905Y-20095D02*
X40141Y-20331D01*
X40141Y-20095D02*
X39905Y-20331D01*
X39905Y-20995D02*
X40141Y-21231D01*
X40141Y-20995D02*
X39905Y-21231D01*
X39905Y-30445D02*
X40141Y-30681D01*
X40141Y-30445D02*
X39905Y-30681D01*
X39905Y-30920D02*
X40141Y-31156D01*
X40141Y-30920D02*
X39905Y-31156D01*
X39905Y-32695D02*
X40141Y-32931D01*
X40141Y-32695D02*
X39905Y-32931D01*
X40005Y-12720D02*
X40241Y-12956D01*
X40241Y-12720D02*
X40005Y-12956D01*
X40005Y-15720D02*
X40241Y-15956D01*
X40241Y-15720D02*
X40005Y-15956D01*
X40330Y-41545D02*
X40566Y-41781D01*
X40566Y-41545D02*
X40330Y-41781D01*
X40697Y-23371D02*
X40933Y-23607D01*
X40933Y-23371D02*
X40697Y-23607D01*
X40697Y-23771D02*
X40933Y-24007D01*
X40933Y-23771D02*
X40697Y-24007D01*
X40697Y-26771D02*
X40933Y-27007D01*
X40933Y-26771D02*
X40697Y-27007D01*
X40697Y-27164D02*
X40933Y-27400D01*
X40933Y-27164D02*
X40697Y-27400D01*
X40697Y-29164D02*
X40933Y-29400D01*
X40933Y-29164D02*
X40697Y-29400D01*
X40697Y-35967D02*
X40933Y-36204D01*
X40933Y-35967D02*
X40697Y-36204D01*
X40697Y-36367D02*
X40933Y-36604D01*
X40933Y-36367D02*
X40697Y-36604D01*
X40697Y-39367D02*
X40933Y-39604D01*
X40933Y-39367D02*
X40697Y-39604D01*
X40697Y-39761D02*
X40933Y-39997D01*
X40933Y-39761D02*
X40697Y-39997D01*
X40697Y-41761D02*
X40933Y-41997D01*
X40933Y-41761D02*
X40697Y-41997D01*
X40902Y-7946D02*
X41138Y-8182D01*
X41138Y-7946D02*
X40902Y-8182D01*
X40902Y-17395D02*
X41138Y-17631D01*
X41138Y-17395D02*
X40902Y-17631D01*
X40902Y-20545D02*
X41138Y-20781D01*
X41138Y-20545D02*
X40902Y-20781D01*
X40902Y-29993D02*
X41138Y-30230D01*
X41138Y-29993D02*
X40902Y-30230D01*
X40902Y-33143D02*
X41138Y-33379D01*
X41138Y-33143D02*
X40902Y-33379D01*
X40902Y-42592D02*
X41138Y-42828D01*
X41138Y-42592D02*
X40902Y-42828D01*
X40905Y-7495D02*
X41141Y-7731D01*
X41141Y-7495D02*
X40905Y-7731D01*
X40905Y-16945D02*
X41141Y-17181D01*
X41141Y-16945D02*
X40905Y-17181D01*
X40905Y-20995D02*
X41141Y-21231D01*
X41141Y-20995D02*
X40905Y-21231D01*
X40905Y-29645D02*
X41141Y-29881D01*
X41141Y-29645D02*
X40905Y-29881D01*
X40905Y-33595D02*
X41141Y-33831D01*
X41141Y-33595D02*
X40905Y-33831D01*
X40998Y-13071D02*
X41234Y-13307D01*
X41234Y-13071D02*
X40998Y-13307D01*
X41005Y-12720D02*
X41241Y-12956D01*
X41241Y-12720D02*
X41005Y-12956D01*
X41005Y-15720D02*
X41241Y-15956D01*
X41241Y-15720D02*
X41005Y-15956D01*
X41205Y-42245D02*
X41441Y-42481D01*
X41441Y-42245D02*
X41205Y-42481D01*
X41530Y-8771D02*
X41766Y-9007D01*
X41766Y-8771D02*
X41530Y-9007D01*
X41530Y-11771D02*
X41766Y-12007D01*
X41766Y-11771D02*
X41530Y-12007D01*
X41697Y-23371D02*
X41933Y-23607D01*
X41933Y-23371D02*
X41697Y-23607D01*
X41697Y-23771D02*
X41933Y-24007D01*
X41933Y-23771D02*
X41697Y-24007D01*
X41697Y-26771D02*
X41933Y-27007D01*
X41933Y-26771D02*
X41697Y-27007D01*
X41697Y-27164D02*
X41933Y-27400D01*
X41933Y-27164D02*
X41697Y-27400D01*
X41697Y-29164D02*
X41933Y-29400D01*
X41933Y-29164D02*
X41697Y-29400D01*
X41697Y-35967D02*
X41933Y-36204D01*
X41933Y-35967D02*
X41697Y-36204D01*
X41697Y-36367D02*
X41933Y-36604D01*
X41933Y-36367D02*
X41697Y-36604D01*
X41697Y-39367D02*
X41933Y-39604D01*
X41933Y-39367D02*
X41697Y-39604D01*
X41697Y-39761D02*
X41933Y-39997D01*
X41933Y-39761D02*
X41697Y-39997D01*
X41697Y-41761D02*
X41933Y-41997D01*
X41933Y-41761D02*
X41697Y-41997D01*
X41902Y-7946D02*
X42138Y-8182D01*
X42138Y-7946D02*
X41902Y-8182D01*
X41902Y-17395D02*
X42138Y-17631D01*
X42138Y-17395D02*
X41902Y-17631D01*
X41902Y-20545D02*
X42138Y-20781D01*
X42138Y-20545D02*
X41902Y-20781D01*
X41902Y-20940D02*
X42138Y-21176D01*
X42138Y-20940D02*
X41902Y-21176D01*
X41902Y-29993D02*
X42138Y-30230D01*
X42138Y-29993D02*
X41902Y-30230D01*
X41902Y-33143D02*
X42138Y-33379D01*
X42138Y-33143D02*
X41902Y-33379D01*
X41902Y-42592D02*
X42138Y-42828D01*
X42138Y-42592D02*
X41902Y-42828D01*
X41905Y-7495D02*
X42141Y-7731D01*
X42141Y-7495D02*
X41905Y-7731D01*
X41905Y-17845D02*
X42141Y-18081D01*
X42141Y-17845D02*
X41905Y-18081D01*
X41905Y-20095D02*
X42141Y-20331D01*
X42141Y-20095D02*
X41905Y-20331D01*
X41905Y-21395D02*
X42141Y-21631D01*
X42141Y-21395D02*
X41905Y-21631D01*
X41905Y-30445D02*
X42141Y-30681D01*
X42141Y-30445D02*
X41905Y-30681D01*
X41905Y-30920D02*
X42141Y-31156D01*
X42141Y-30920D02*
X41905Y-31156D01*
X41905Y-32695D02*
X42141Y-32931D01*
X42141Y-32695D02*
X41905Y-32931D01*
X42005Y-12720D02*
X42241Y-12956D01*
X42241Y-12720D02*
X42005Y-12956D01*
X42005Y-15720D02*
X42241Y-15956D01*
X42241Y-15720D02*
X42005Y-15956D01*
X42155Y-41745D02*
X42391Y-41981D01*
X42391Y-41745D02*
X42155Y-41981D01*
X42280Y-42295D02*
X42516Y-42531D01*
X42516Y-42295D02*
X42280Y-42531D01*
X42530Y-8771D02*
X42766Y-9007D01*
X42766Y-8771D02*
X42530Y-9007D01*
X42530Y-11771D02*
X42766Y-12007D01*
X42766Y-11771D02*
X42530Y-12007D01*
X42697Y-23771D02*
X42933Y-24007D01*
X42933Y-23771D02*
X42697Y-24007D01*
X42697Y-26771D02*
X42933Y-27007D01*
X42933Y-26771D02*
X42697Y-27007D01*
X42697Y-36367D02*
X42933Y-36604D01*
X42933Y-36367D02*
X42697Y-36604D01*
X42697Y-39367D02*
X42933Y-39604D01*
X42933Y-39367D02*
X42697Y-39604D01*
X42730Y-12071D02*
X42966Y-12307D01*
X42966Y-12071D02*
X42730Y-12307D01*
X42902Y-7946D02*
X43138Y-8182D01*
X43138Y-7946D02*
X42902Y-8182D01*
X42902Y-17395D02*
X43138Y-17631D01*
X43138Y-17395D02*
X42902Y-17631D01*
X42902Y-20545D02*
X43138Y-20781D01*
X43138Y-20545D02*
X42902Y-20781D01*
X42902Y-29993D02*
X43138Y-30230D01*
X43138Y-29993D02*
X42902Y-30230D01*
X42902Y-33143D02*
X43138Y-33379D01*
X43138Y-33143D02*
X42902Y-33379D01*
X42902Y-33537D02*
X43138Y-33773D01*
X43138Y-33537D02*
X42902Y-33773D01*
X42902Y-42592D02*
X43138Y-42828D01*
X43138Y-42592D02*
X42902Y-42828D01*
X42905Y-7495D02*
X43141Y-7731D01*
X43141Y-7495D02*
X42905Y-7731D01*
X42905Y-17845D02*
X43141Y-18081D01*
X43141Y-17845D02*
X42905Y-18081D01*
X42905Y-20095D02*
X43141Y-20331D01*
X43141Y-20095D02*
X42905Y-20331D01*
X42905Y-20995D02*
X43141Y-21231D01*
X43141Y-20995D02*
X42905Y-21231D01*
X42905Y-30445D02*
X43141Y-30681D01*
X43141Y-30445D02*
X42905Y-30681D01*
X42905Y-30920D02*
X43141Y-31156D01*
X43141Y-30920D02*
X42905Y-31156D01*
X42905Y-32695D02*
X43141Y-32931D01*
X43141Y-32695D02*
X42905Y-32931D01*
X42905Y-42145D02*
X43141Y-42381D01*
X43141Y-42145D02*
X42905Y-42381D01*
X43005Y-12720D02*
X43241Y-12956D01*
X43241Y-12720D02*
X43005Y-12956D01*
X43005Y-15720D02*
X43241Y-15956D01*
X43241Y-15720D02*
X43005Y-15956D01*
X43530Y-8771D02*
X43766Y-9007D01*
X43766Y-8771D02*
X43530Y-9007D01*
X43530Y-11771D02*
X43766Y-12007D01*
X43766Y-11771D02*
X43530Y-12007D01*
X43697Y-23771D02*
X43933Y-24007D01*
X43933Y-23771D02*
X43697Y-24007D01*
X43697Y-26771D02*
X43933Y-27007D01*
X43933Y-26771D02*
X43697Y-27007D01*
X43697Y-36367D02*
X43933Y-36604D01*
X43933Y-36367D02*
X43697Y-36604D01*
X43697Y-39367D02*
X43933Y-39604D01*
X43933Y-39367D02*
X43697Y-39604D01*
X43730Y-12071D02*
X43966Y-12307D01*
X43966Y-12071D02*
X43730Y-12307D01*
X43902Y-7946D02*
X44138Y-8182D01*
X44138Y-7946D02*
X43902Y-8182D01*
X43902Y-17395D02*
X44138Y-17631D01*
X44138Y-17395D02*
X43902Y-17631D01*
X43902Y-20545D02*
X44138Y-20781D01*
X44138Y-20545D02*
X43902Y-20781D01*
X43902Y-29993D02*
X44138Y-30230D01*
X44138Y-29993D02*
X43902Y-30230D01*
X43902Y-33143D02*
X44138Y-33379D01*
X44138Y-33143D02*
X43902Y-33379D01*
X43902Y-42592D02*
X44138Y-42828D01*
X44138Y-42592D02*
X43902Y-42828D01*
X43905Y-7495D02*
X44141Y-7731D01*
X44141Y-7495D02*
X43905Y-7731D01*
X43905Y-16945D02*
X44141Y-17181D01*
X44141Y-16945D02*
X43905Y-17181D01*
X43905Y-20995D02*
X44141Y-21231D01*
X44141Y-20995D02*
X43905Y-21231D01*
X43905Y-29545D02*
X44141Y-29781D01*
X44141Y-29545D02*
X43905Y-29781D01*
X43905Y-33595D02*
X44141Y-33831D01*
X44141Y-33595D02*
X43905Y-33831D01*
X43905Y-42145D02*
X44141Y-42381D01*
X44141Y-42145D02*
X43905Y-42381D01*
X44005Y-12720D02*
X44241Y-12956D01*
X44241Y-12720D02*
X44005Y-12956D01*
X44005Y-15720D02*
X44241Y-15956D01*
X44241Y-15720D02*
X44005Y-15956D01*
X44530Y-8771D02*
X44766Y-9007D01*
X44766Y-8771D02*
X44530Y-9007D01*
X44530Y-11771D02*
X44766Y-12007D01*
X44766Y-11771D02*
X44530Y-12007D01*
X44697Y-23771D02*
X44933Y-24007D01*
X44933Y-23771D02*
X44697Y-24007D01*
X44697Y-26771D02*
X44933Y-27007D01*
X44933Y-26771D02*
X44697Y-27007D01*
X44697Y-36367D02*
X44933Y-36604D01*
X44933Y-36367D02*
X44697Y-36604D01*
X44697Y-39367D02*
X44933Y-39604D01*
X44933Y-39367D02*
X44697Y-39604D01*
X44730Y-12071D02*
X44966Y-12307D01*
X44966Y-12071D02*
X44730Y-12307D01*
X44902Y-7946D02*
X45138Y-8182D01*
X45138Y-7946D02*
X44902Y-8182D01*
X44902Y-17395D02*
X45138Y-17631D01*
X45138Y-17395D02*
X44902Y-17631D01*
X44902Y-20545D02*
X45138Y-20781D01*
X45138Y-20545D02*
X44902Y-20781D01*
X44902Y-20940D02*
X45138Y-21176D01*
X45138Y-20940D02*
X44902Y-21176D01*
X44902Y-29993D02*
X45138Y-30230D01*
X45138Y-29993D02*
X44902Y-30230D01*
X44902Y-33143D02*
X45138Y-33379D01*
X45138Y-33143D02*
X44902Y-33379D01*
X44902Y-42592D02*
X45138Y-42828D01*
X45138Y-42592D02*
X44902Y-42828D01*
X44905Y-7495D02*
X45141Y-7731D01*
X45141Y-7495D02*
X44905Y-7731D01*
X44905Y-17845D02*
X45141Y-18081D01*
X45141Y-17845D02*
X44905Y-18081D01*
X44905Y-20095D02*
X45141Y-20331D01*
X45141Y-20095D02*
X44905Y-20331D01*
X44905Y-21395D02*
X45141Y-21631D01*
X45141Y-21395D02*
X44905Y-21631D01*
X44905Y-30445D02*
X45141Y-30681D01*
X45141Y-30445D02*
X44905Y-30681D01*
X44905Y-30920D02*
X45141Y-31156D01*
X45141Y-30920D02*
X44905Y-31156D01*
X44905Y-32695D02*
X45141Y-32931D01*
X45141Y-32695D02*
X44905Y-32931D01*
X44905Y-42145D02*
X45141Y-42381D01*
X45141Y-42145D02*
X44905Y-42381D01*
X45005Y-12720D02*
X45241Y-12956D01*
X45241Y-12720D02*
X45005Y-12956D01*
X45005Y-15720D02*
X45241Y-15956D01*
X45241Y-15720D02*
X45005Y-15956D01*
X45530Y-8771D02*
X45766Y-9007D01*
X45766Y-8771D02*
X45530Y-9007D01*
X45530Y-11771D02*
X45766Y-12007D01*
X45766Y-11771D02*
X45530Y-12007D01*
X45730Y-12071D02*
X45966Y-12307D01*
X45966Y-12071D02*
X45730Y-12307D01*
X45736Y-23771D02*
X45973Y-24007D01*
X45973Y-23771D02*
X45736Y-24007D01*
X45736Y-26771D02*
X45973Y-27007D01*
X45973Y-26771D02*
X45736Y-27007D01*
X45736Y-36367D02*
X45973Y-36604D01*
X45973Y-36367D02*
X45736Y-36604D01*
X45736Y-39367D02*
X45973Y-39604D01*
X45973Y-39367D02*
X45736Y-39604D01*
X45902Y-7946D02*
X46138Y-8182D01*
X46138Y-7946D02*
X45902Y-8182D01*
X45902Y-17395D02*
X46138Y-17631D01*
X46138Y-17395D02*
X45902Y-17631D01*
X45902Y-20545D02*
X46138Y-20781D01*
X46138Y-20545D02*
X45902Y-20781D01*
X45902Y-29993D02*
X46138Y-30230D01*
X46138Y-29993D02*
X45902Y-30230D01*
X45902Y-33143D02*
X46138Y-33379D01*
X46138Y-33143D02*
X45902Y-33379D01*
X45902Y-33537D02*
X46138Y-33773D01*
X46138Y-33537D02*
X45902Y-33773D01*
X45902Y-42592D02*
X46138Y-42828D01*
X46138Y-42592D02*
X45902Y-42828D01*
X45905Y-7495D02*
X46141Y-7731D01*
X46141Y-7495D02*
X45905Y-7731D01*
X45905Y-17845D02*
X46141Y-18081D01*
X46141Y-17845D02*
X45905Y-18081D01*
X45905Y-20095D02*
X46141Y-20331D01*
X46141Y-20095D02*
X45905Y-20331D01*
X45905Y-20995D02*
X46141Y-21231D01*
X46141Y-20995D02*
X45905Y-21231D01*
X45905Y-30445D02*
X46141Y-30681D01*
X46141Y-30445D02*
X45905Y-30681D01*
X45905Y-30920D02*
X46141Y-31156D01*
X46141Y-30920D02*
X45905Y-31156D01*
X45905Y-32695D02*
X46141Y-32931D01*
X46141Y-32695D02*
X45905Y-32931D01*
X45905Y-42145D02*
X46141Y-42381D01*
X46141Y-42145D02*
X45905Y-42381D01*
X46005Y-12720D02*
X46241Y-12956D01*
X46241Y-12720D02*
X46005Y-12956D01*
X46005Y-15720D02*
X46241Y-15956D01*
X46241Y-15720D02*
X46005Y-15956D01*
X46530Y-8771D02*
X46766Y-9007D01*
X46766Y-8771D02*
X46530Y-9007D01*
X46530Y-11771D02*
X46766Y-12007D01*
X46766Y-11771D02*
X46530Y-12007D01*
X46730Y-12071D02*
X46966Y-12307D01*
X46966Y-12071D02*
X46730Y-12307D01*
X46736Y-23771D02*
X46973Y-24007D01*
X46973Y-23771D02*
X46736Y-24007D01*
X46736Y-26771D02*
X46973Y-27007D01*
X46973Y-26771D02*
X46736Y-27007D01*
X46736Y-36367D02*
X46973Y-36604D01*
X46973Y-36367D02*
X46736Y-36604D01*
X46736Y-39367D02*
X46973Y-39604D01*
X46973Y-39367D02*
X46736Y-39604D01*
X46902Y-7946D02*
X47138Y-8182D01*
X47138Y-7946D02*
X46902Y-8182D01*
X46902Y-17395D02*
X47138Y-17631D01*
X47138Y-17395D02*
X46902Y-17631D01*
X46902Y-20545D02*
X47138Y-20781D01*
X47138Y-20545D02*
X46902Y-20781D01*
X46902Y-29993D02*
X47138Y-30230D01*
X47138Y-29993D02*
X46902Y-30230D01*
X46902Y-33143D02*
X47138Y-33379D01*
X47138Y-33143D02*
X46902Y-33379D01*
X46902Y-42592D02*
X47138Y-42828D01*
X47138Y-42592D02*
X46902Y-42828D01*
X46905Y-7495D02*
X47141Y-7731D01*
X47141Y-7495D02*
X46905Y-7731D01*
X46905Y-16945D02*
X47141Y-17181D01*
X47141Y-16945D02*
X46905Y-17181D01*
X46905Y-20995D02*
X47141Y-21231D01*
X47141Y-20995D02*
X46905Y-21231D01*
X46905Y-29545D02*
X47141Y-29781D01*
X47141Y-29545D02*
X46905Y-29781D01*
X46905Y-33595D02*
X47141Y-33831D01*
X47141Y-33595D02*
X46905Y-33831D01*
X46905Y-42145D02*
X47141Y-42381D01*
X47141Y-42145D02*
X46905Y-42381D01*
X47005Y-12720D02*
X47241Y-12956D01*
X47241Y-12720D02*
X47005Y-12956D01*
X47005Y-15720D02*
X47241Y-15956D01*
X47241Y-15720D02*
X47005Y-15956D01*
X47530Y-8771D02*
X47766Y-9007D01*
X47766Y-8771D02*
X47530Y-9007D01*
X47530Y-11771D02*
X47766Y-12007D01*
X47766Y-11771D02*
X47530Y-12007D01*
X47730Y-12071D02*
X47966Y-12307D01*
X47966Y-12071D02*
X47730Y-12307D01*
X47736Y-23771D02*
X47973Y-24007D01*
X47973Y-23771D02*
X47736Y-24007D01*
X47736Y-26771D02*
X47973Y-27007D01*
X47973Y-26771D02*
X47736Y-27007D01*
X47736Y-36367D02*
X47973Y-36604D01*
X47973Y-36367D02*
X47736Y-36604D01*
X47736Y-39367D02*
X47973Y-39604D01*
X47973Y-39367D02*
X47736Y-39604D01*
X48005Y-12720D02*
X48241Y-12956D01*
X48241Y-12720D02*
X48005Y-12956D01*
X48005Y-15720D02*
X48241Y-15956D01*
X48241Y-15720D02*
X48005Y-15956D01*
X48085Y-16545D02*
X48321Y-16781D01*
X48321Y-16545D02*
X48085Y-16781D01*
X48500Y-7946D02*
X48736Y-8182D01*
X48736Y-7946D02*
X48500Y-8182D01*
X48500Y-17395D02*
X48736Y-17631D01*
X48736Y-17395D02*
X48500Y-17631D01*
X48500Y-20545D02*
X48736Y-20781D01*
X48736Y-20545D02*
X48500Y-20781D01*
X48500Y-20940D02*
X48736Y-21176D01*
X48736Y-20940D02*
X48500Y-21176D01*
X48500Y-29993D02*
X48736Y-30230D01*
X48736Y-29993D02*
X48500Y-30230D01*
X48500Y-33143D02*
X48736Y-33379D01*
X48736Y-33143D02*
X48500Y-33379D01*
X48500Y-42592D02*
X48736Y-42828D01*
X48736Y-42592D02*
X48500Y-42828D01*
X48505Y-29595D02*
X48741Y-29831D01*
X48741Y-29595D02*
X48505Y-29831D01*
X48530Y-8771D02*
X48766Y-9007D01*
X48766Y-8771D02*
X48530Y-9007D01*
X48530Y-11771D02*
X48766Y-12007D01*
X48766Y-11771D02*
X48530Y-12007D01*
X48730Y-12071D02*
X48966Y-12307D01*
X48966Y-12071D02*
X48730Y-12307D01*
X48730Y-28645D02*
X48966Y-28881D01*
X48966Y-28645D02*
X48730Y-28881D01*
X48736Y-23371D02*
X48973Y-23607D01*
X48973Y-23371D02*
X48736Y-23607D01*
X48736Y-23771D02*
X48973Y-24007D01*
X48973Y-23771D02*
X48736Y-24007D01*
X48736Y-26771D02*
X48973Y-27007D01*
X48973Y-26771D02*
X48736Y-27007D01*
X48736Y-27164D02*
X48973Y-27400D01*
X48973Y-27164D02*
X48736Y-27400D01*
X48736Y-29164D02*
X48973Y-29400D01*
X48973Y-29164D02*
X48736Y-29400D01*
X48736Y-36367D02*
X48973Y-36604D01*
X48973Y-36367D02*
X48736Y-36604D01*
X48736Y-39367D02*
X48973Y-39604D01*
X48973Y-39367D02*
X48736Y-39604D01*
X48736Y-39761D02*
X48973Y-39997D01*
X48973Y-39761D02*
X48736Y-39997D01*
X48736Y-41761D02*
X48973Y-41997D01*
X48973Y-41761D02*
X48736Y-41997D01*
X48747Y-35967D02*
X48983Y-36204D01*
X48983Y-35967D02*
X48747Y-36204D01*
X49005Y-12720D02*
X49241Y-12956D01*
X49241Y-12720D02*
X49005Y-12956D01*
X49005Y-15720D02*
X49241Y-15956D01*
X49241Y-15720D02*
X49005Y-15956D01*
X49500Y-7946D02*
X49736Y-8182D01*
X49736Y-7946D02*
X49500Y-8182D01*
X49500Y-17395D02*
X49736Y-17631D01*
X49736Y-17395D02*
X49500Y-17631D01*
X49500Y-20545D02*
X49736Y-20781D01*
X49736Y-20545D02*
X49500Y-20781D01*
X49500Y-29993D02*
X49736Y-30230D01*
X49736Y-29993D02*
X49500Y-30230D01*
X49500Y-33143D02*
X49736Y-33379D01*
X49736Y-33143D02*
X49500Y-33379D01*
X49500Y-33537D02*
X49736Y-33773D01*
X49736Y-33537D02*
X49500Y-33773D01*
X49500Y-42592D02*
X49736Y-42828D01*
X49736Y-42592D02*
X49500Y-42828D01*
X49530Y-8771D02*
X49766Y-9007D01*
X49766Y-8771D02*
X49530Y-9007D01*
X49530Y-11771D02*
X49766Y-12007D01*
X49766Y-11771D02*
X49530Y-12007D01*
X49730Y-12071D02*
X49966Y-12307D01*
X49966Y-12071D02*
X49730Y-12307D01*
X49730Y-28645D02*
X49966Y-28881D01*
X49966Y-28645D02*
X49730Y-28881D01*
X49736Y-23371D02*
X49973Y-23607D01*
X49973Y-23371D02*
X49736Y-23607D01*
X49736Y-23771D02*
X49973Y-24007D01*
X49973Y-23771D02*
X49736Y-24007D01*
X49736Y-26771D02*
X49973Y-27007D01*
X49973Y-26771D02*
X49736Y-27007D01*
X49736Y-27164D02*
X49973Y-27400D01*
X49973Y-27164D02*
X49736Y-27400D01*
X49736Y-29164D02*
X49973Y-29400D01*
X49973Y-29164D02*
X49736Y-29400D01*
X49736Y-36367D02*
X49973Y-36604D01*
X49973Y-36367D02*
X49736Y-36604D01*
X49736Y-39367D02*
X49973Y-39604D01*
X49973Y-39367D02*
X49736Y-39604D01*
X49736Y-39761D02*
X49973Y-39997D01*
X49973Y-39761D02*
X49736Y-39997D01*
X49736Y-41761D02*
X49973Y-41997D01*
X49973Y-41761D02*
X49736Y-41997D01*
X49747Y-35967D02*
X49983Y-36204D01*
X49983Y-35967D02*
X49747Y-36204D01*
X50500Y-7946D02*
X50736Y-8182D01*
X50736Y-7946D02*
X50500Y-8182D01*
X50500Y-17395D02*
X50736Y-17631D01*
X50736Y-17395D02*
X50500Y-17631D01*
X50500Y-20545D02*
X50736Y-20781D01*
X50736Y-20545D02*
X50500Y-20781D01*
X50500Y-29993D02*
X50736Y-30230D01*
X50736Y-29993D02*
X50500Y-30230D01*
X50500Y-33143D02*
X50736Y-33379D01*
X50736Y-33143D02*
X50500Y-33379D01*
X50500Y-42592D02*
X50736Y-42828D01*
X50736Y-42592D02*
X50500Y-42828D01*
X50505Y-7495D02*
X50741Y-7731D01*
X50741Y-7495D02*
X50505Y-7731D01*
X50505Y-16945D02*
X50741Y-17181D01*
X50741Y-16945D02*
X50505Y-17181D01*
X50505Y-20995D02*
X50741Y-21231D01*
X50741Y-20995D02*
X50505Y-21231D01*
X50505Y-29595D02*
X50741Y-29831D01*
X50741Y-29595D02*
X50505Y-29831D01*
X50505Y-33595D02*
X50741Y-33831D01*
X50741Y-33595D02*
X50505Y-33831D01*
X50730Y-28620D02*
X50966Y-28856D01*
X50966Y-28620D02*
X50730Y-28856D01*
X50736Y-23371D02*
X50973Y-23607D01*
X50973Y-23371D02*
X50736Y-23607D01*
X50736Y-23771D02*
X50973Y-24007D01*
X50973Y-23771D02*
X50736Y-24007D01*
X50736Y-26771D02*
X50973Y-27007D01*
X50973Y-26771D02*
X50736Y-27007D01*
X50736Y-27164D02*
X50973Y-27400D01*
X50973Y-27164D02*
X50736Y-27400D01*
X50736Y-29164D02*
X50973Y-29400D01*
X50973Y-29164D02*
X50736Y-29400D01*
X50736Y-36367D02*
X50973Y-36604D01*
X50973Y-36367D02*
X50736Y-36604D01*
X50736Y-39367D02*
X50973Y-39604D01*
X50973Y-39367D02*
X50736Y-39604D01*
X50736Y-39761D02*
X50973Y-39997D01*
X50973Y-39761D02*
X50736Y-39997D01*
X50736Y-41761D02*
X50973Y-41997D01*
X50973Y-41761D02*
X50736Y-41997D01*
X50747Y-35967D02*
X50983Y-36204D01*
X50983Y-35967D02*
X50747Y-36204D01*
X50785Y-13905D02*
X51021Y-14141D01*
X51021Y-13905D02*
X50785Y-14141D01*
X50805Y-42295D02*
X51041Y-42531D01*
X51041Y-42295D02*
X50805Y-42531D01*
X51005Y-9995D02*
X51241Y-10231D01*
X51241Y-9995D02*
X51005Y-10231D01*
X51500Y-7946D02*
X51736Y-8182D01*
X51736Y-7946D02*
X51500Y-8182D01*
X51500Y-17395D02*
X51736Y-17631D01*
X51736Y-17395D02*
X51500Y-17631D01*
X51500Y-20545D02*
X51736Y-20781D01*
X51736Y-20545D02*
X51500Y-20781D01*
X51500Y-20940D02*
X51736Y-21176D01*
X51736Y-20940D02*
X51500Y-21176D01*
X51500Y-29993D02*
X51736Y-30230D01*
X51736Y-29993D02*
X51500Y-30230D01*
X51500Y-33143D02*
X51736Y-33379D01*
X51736Y-33143D02*
X51500Y-33379D01*
X51500Y-42592D02*
X51736Y-42828D01*
X51736Y-42592D02*
X51500Y-42828D01*
X51730Y-28645D02*
X51966Y-28881D01*
X51966Y-28645D02*
X51730Y-28881D01*
X51736Y-23371D02*
X51973Y-23607D01*
X51973Y-23371D02*
X51736Y-23607D01*
X51736Y-23771D02*
X51973Y-24007D01*
X51973Y-23771D02*
X51736Y-24007D01*
X51736Y-26771D02*
X51973Y-27007D01*
X51973Y-26771D02*
X51736Y-27007D01*
X51736Y-27164D02*
X51973Y-27400D01*
X51973Y-27164D02*
X51736Y-27400D01*
X51736Y-29164D02*
X51973Y-29400D01*
X51973Y-29164D02*
X51736Y-29400D01*
X51736Y-36367D02*
X51973Y-36604D01*
X51973Y-36367D02*
X51736Y-36604D01*
X51736Y-39367D02*
X51973Y-39604D01*
X51973Y-39367D02*
X51736Y-39604D01*
X51736Y-39761D02*
X51973Y-39997D01*
X51973Y-39761D02*
X51736Y-39997D01*
X51736Y-41761D02*
X51973Y-41997D01*
X51973Y-41761D02*
X51736Y-41997D01*
X51747Y-35967D02*
X51983Y-36204D01*
X51983Y-35967D02*
X51747Y-36204D01*
X52005Y-9470D02*
X52241Y-9706D01*
X52241Y-9470D02*
X52005Y-9706D01*
X52005Y-10470D02*
X52241Y-10706D01*
X52241Y-10470D02*
X52005Y-10706D01*
X52005Y-11470D02*
X52241Y-11706D01*
X52241Y-11470D02*
X52005Y-11706D01*
X52005Y-12470D02*
X52241Y-12706D01*
X52241Y-12470D02*
X52005Y-12706D01*
X52005Y-13470D02*
X52241Y-13706D01*
X52241Y-13470D02*
X52005Y-13706D01*
X52005Y-14470D02*
X52241Y-14706D01*
X52241Y-14470D02*
X52005Y-14706D01*
X52005Y-15470D02*
X52241Y-15706D01*
X52241Y-15470D02*
X52005Y-15706D01*
X52500Y-7946D02*
X52736Y-8182D01*
X52736Y-7946D02*
X52500Y-8182D01*
X52500Y-17395D02*
X52736Y-17631D01*
X52736Y-17395D02*
X52500Y-17631D01*
X52500Y-20545D02*
X52736Y-20781D01*
X52736Y-20545D02*
X52500Y-20781D01*
X52500Y-29993D02*
X52736Y-30230D01*
X52736Y-29993D02*
X52500Y-30230D01*
X52500Y-33143D02*
X52736Y-33379D01*
X52736Y-33143D02*
X52500Y-33379D01*
X52500Y-33537D02*
X52736Y-33773D01*
X52736Y-33537D02*
X52500Y-33773D01*
X52500Y-42592D02*
X52736Y-42828D01*
X52736Y-42592D02*
X52500Y-42828D01*
X52736Y-23771D02*
X52973Y-24007D01*
X52973Y-23771D02*
X52736Y-24007D01*
X52736Y-26771D02*
X52973Y-27007D01*
X52973Y-26771D02*
X52736Y-27007D01*
X52736Y-36367D02*
X52973Y-36604D01*
X52973Y-36367D02*
X52736Y-36604D01*
X52736Y-39367D02*
X52973Y-39604D01*
X52973Y-39367D02*
X52736Y-39604D01*
X53500Y-7946D02*
X53736Y-8182D01*
X53736Y-7946D02*
X53500Y-8182D01*
X53500Y-17395D02*
X53736Y-17631D01*
X53736Y-17395D02*
X53500Y-17631D01*
X53500Y-20545D02*
X53736Y-20781D01*
X53736Y-20545D02*
X53500Y-20781D01*
X53500Y-29993D02*
X53736Y-30230D01*
X53736Y-29993D02*
X53500Y-30230D01*
X53500Y-33143D02*
X53736Y-33379D01*
X53736Y-33143D02*
X53500Y-33379D01*
X53500Y-42592D02*
X53736Y-42828D01*
X53736Y-42592D02*
X53500Y-42828D01*
X53505Y-7495D02*
X53741Y-7731D01*
X53741Y-7495D02*
X53505Y-7731D01*
X53505Y-16945D02*
X53741Y-17181D01*
X53741Y-16945D02*
X53505Y-17181D01*
X53505Y-20995D02*
X53741Y-21231D01*
X53741Y-20995D02*
X53505Y-21231D01*
X53505Y-29545D02*
X53741Y-29781D01*
X53741Y-29545D02*
X53505Y-29781D01*
X53505Y-33595D02*
X53741Y-33831D01*
X53741Y-33595D02*
X53505Y-33831D01*
X53505Y-42145D02*
X53741Y-42381D01*
X53741Y-42145D02*
X53505Y-42381D01*
X53736Y-23771D02*
X53973Y-24007D01*
X53973Y-23771D02*
X53736Y-24007D01*
X53736Y-26771D02*
X53973Y-27007D01*
X53973Y-26771D02*
X53736Y-27007D01*
X53736Y-36367D02*
X53973Y-36604D01*
X53973Y-36367D02*
X53736Y-36604D01*
X53736Y-39367D02*
X53973Y-39604D01*
X53973Y-39367D02*
X53736Y-39604D01*
X54500Y-7946D02*
X54736Y-8182D01*
X54736Y-7946D02*
X54500Y-8182D01*
X54500Y-17395D02*
X54736Y-17631D01*
X54736Y-17395D02*
X54500Y-17631D01*
X54500Y-20545D02*
X54736Y-20781D01*
X54736Y-20545D02*
X54500Y-20781D01*
X54500Y-20940D02*
X54736Y-21176D01*
X54736Y-20940D02*
X54500Y-21176D01*
X54500Y-29993D02*
X54736Y-30230D01*
X54736Y-29993D02*
X54500Y-30230D01*
X54500Y-33143D02*
X54736Y-33379D01*
X54736Y-33143D02*
X54500Y-33379D01*
X54500Y-42592D02*
X54736Y-42828D01*
X54736Y-42592D02*
X54500Y-42828D01*
X54505Y-29545D02*
X54741Y-29781D01*
X54741Y-29545D02*
X54505Y-29781D01*
X54736Y-23771D02*
X54973Y-24007D01*
X54973Y-23771D02*
X54736Y-24007D01*
X54736Y-26771D02*
X54973Y-27007D01*
X54973Y-26771D02*
X54736Y-27007D01*
X54736Y-36367D02*
X54973Y-36604D01*
X54973Y-36367D02*
X54736Y-36604D01*
X54736Y-39367D02*
X54973Y-39604D01*
X54973Y-39367D02*
X54736Y-39604D01*
X55005Y-9470D02*
X55241Y-9706D01*
X55241Y-9470D02*
X55005Y-9706D01*
X55005Y-10470D02*
X55241Y-10706D01*
X55241Y-10470D02*
X55005Y-10706D01*
X55005Y-11470D02*
X55241Y-11706D01*
X55241Y-11470D02*
X55005Y-11706D01*
X55005Y-12470D02*
X55241Y-12706D01*
X55241Y-12470D02*
X55005Y-12706D01*
X55005Y-13470D02*
X55241Y-13706D01*
X55241Y-13470D02*
X55005Y-13706D01*
X55005Y-14470D02*
X55241Y-14706D01*
X55241Y-14470D02*
X55005Y-14706D01*
X55005Y-15470D02*
X55241Y-15706D01*
X55241Y-15470D02*
X55005Y-15706D01*
X55405Y-10095D02*
X55641Y-10331D01*
X55641Y-10095D02*
X55405Y-10331D01*
X55500Y-7946D02*
X55736Y-8182D01*
X55736Y-7946D02*
X55500Y-8182D01*
X55500Y-17395D02*
X55736Y-17631D01*
X55736Y-17395D02*
X55500Y-17631D01*
X55500Y-20545D02*
X55736Y-20781D01*
X55736Y-20545D02*
X55500Y-20781D01*
X55500Y-29993D02*
X55736Y-30230D01*
X55736Y-29993D02*
X55500Y-30230D01*
X55500Y-33143D02*
X55736Y-33379D01*
X55736Y-33143D02*
X55500Y-33379D01*
X55500Y-33537D02*
X55736Y-33773D01*
X55736Y-33537D02*
X55500Y-33773D01*
X55500Y-42592D02*
X55736Y-42828D01*
X55736Y-42592D02*
X55500Y-42828D01*
X56165Y-15145D02*
X56401Y-15381D01*
X56401Y-15145D02*
X56165Y-15381D01*
X56500Y-7946D02*
X56736Y-8182D01*
X56736Y-7946D02*
X56500Y-8182D01*
X56500Y-17395D02*
X56736Y-17631D01*
X56736Y-17395D02*
X56500Y-17631D01*
X56500Y-20545D02*
X56736Y-20781D01*
X56736Y-20545D02*
X56500Y-20781D01*
X56500Y-29993D02*
X56736Y-30230D01*
X56736Y-29993D02*
X56500Y-30230D01*
X56500Y-33143D02*
X56736Y-33379D01*
X56736Y-33143D02*
X56500Y-33379D01*
X56500Y-42592D02*
X56736Y-42828D01*
X56736Y-42592D02*
X56500Y-42828D01*
X56505Y-7495D02*
X56741Y-7731D01*
X56741Y-7495D02*
X56505Y-7731D01*
X56505Y-16945D02*
X56741Y-17181D01*
X56741Y-16945D02*
X56505Y-17181D01*
X56505Y-20995D02*
X56741Y-21231D01*
X56741Y-20995D02*
X56505Y-21231D01*
X56505Y-29545D02*
X56741Y-29781D01*
X56741Y-29545D02*
X56505Y-29781D01*
X56505Y-33595D02*
X56741Y-33831D01*
X56741Y-33595D02*
X56505Y-33831D01*
X56505Y-42145D02*
X56741Y-42381D01*
X56741Y-42145D02*
X56505Y-42381D01*
X57500Y-7946D02*
X57736Y-8182D01*
X57736Y-7946D02*
X57500Y-8182D01*
X57500Y-17395D02*
X57736Y-17631D01*
X57736Y-17395D02*
X57500Y-17631D01*
X57500Y-20545D02*
X57736Y-20781D01*
X57736Y-20545D02*
X57500Y-20781D01*
X57500Y-20940D02*
X57736Y-21176D01*
X57736Y-20940D02*
X57500Y-21176D01*
X57500Y-29993D02*
X57736Y-30230D01*
X57736Y-29993D02*
X57500Y-30230D01*
X57500Y-33143D02*
X57736Y-33379D01*
X57736Y-33143D02*
X57500Y-33379D01*
X57500Y-42592D02*
X57736Y-42828D01*
X57736Y-42592D02*
X57500Y-42828D01*
X57505Y-29545D02*
X57741Y-29781D01*
X57741Y-29545D02*
X57505Y-29781D01*
X58500Y-7946D02*
X58736Y-8182D01*
X58736Y-7946D02*
X58500Y-8182D01*
X58500Y-17395D02*
X58736Y-17631D01*
X58736Y-17395D02*
X58500Y-17631D01*
X58500Y-20545D02*
X58736Y-20781D01*
X58736Y-20545D02*
X58500Y-20781D01*
X58500Y-29993D02*
X58736Y-30230D01*
X58736Y-29993D02*
X58500Y-30230D01*
X58500Y-33143D02*
X58736Y-33379D01*
X58736Y-33143D02*
X58500Y-33379D01*
X58500Y-33537D02*
X58736Y-33773D01*
X58736Y-33537D02*
X58500Y-33773D01*
X58500Y-42592D02*
X58736Y-42828D01*
X58736Y-42592D02*
X58500Y-42828D01*
X59500Y-7946D02*
X59736Y-8182D01*
X59736Y-7946D02*
X59500Y-8182D01*
X59500Y-17395D02*
X59736Y-17631D01*
X59736Y-17395D02*
X59500Y-17631D01*
X59500Y-20545D02*
X59736Y-20781D01*
X59736Y-20545D02*
X59500Y-20781D01*
X59500Y-29993D02*
X59736Y-30230D01*
X59736Y-29993D02*
X59500Y-30230D01*
X59500Y-33143D02*
X59736Y-33379D01*
X59736Y-33143D02*
X59500Y-33379D01*
X59500Y-42592D02*
X59736Y-42828D01*
X59736Y-42592D02*
X59500Y-42828D01*
X59505Y-7495D02*
X59741Y-7731D01*
X59741Y-7495D02*
X59505Y-7731D01*
X59505Y-16945D02*
X59741Y-17181D01*
X59741Y-16945D02*
X59505Y-17181D01*
X59505Y-20995D02*
X59741Y-21231D01*
X59741Y-20995D02*
X59505Y-21231D01*
X59505Y-29545D02*
X59741Y-29781D01*
X59741Y-29545D02*
X59505Y-29781D01*
X59505Y-33595D02*
X59741Y-33831D01*
X59741Y-33595D02*
X59505Y-33831D01*
X59505Y-42145D02*
X59741Y-42381D01*
X59741Y-42145D02*
X59505Y-42381D01*
X57910Y-10600D02*
G75*
G03X57910Y-10600I-160J0D01*
G74*
G01*
X57910Y-11600D02*
G75*
G03X57910Y-11600I-160J0D01*
G74*
G01*
X57910Y-12600D02*
G75*
G03X57910Y-12600I-160J0D01*
G74*
G01*
X57910Y-13600D02*
G75*
G03X57910Y-13600I-160J0D01*
G74*
G01*
X57910Y-14600D02*
G75*
G03X57910Y-14600I-160J0D01*
G74*
G01*
X58983Y-44064D02*
G75*
G03X58983Y-44064I-160J0D01*
G74*
G01*
X58983Y-45064D02*
G75*
G03X58983Y-45064I-160J0D01*
G74*
G01*
G54D13*
X11264Y-47981D02*
X11264Y-46800D01*
X11545Y-46800D01*
X11714Y-46856D01*
X11826Y-46969D01*
X11882Y-47081D01*
X11939Y-47306D01*
X11939Y-47475D01*
X11882Y-47700D01*
X11826Y-47813D01*
X11714Y-47925D01*
X11545Y-47981D01*
X11264Y-47981D01*
X12445Y-47981D02*
X12445Y-47194D01*
X12445Y-47419D02*
X12501Y-47306D01*
X12557Y-47250D01*
X12670Y-47194D01*
X12782Y-47194D01*
X13176Y-47981D02*
X13176Y-47194D01*
X13176Y-46800D02*
X13120Y-46856D01*
X13176Y-46913D01*
X13232Y-46856D01*
X13176Y-46800D01*
X13176Y-46913D01*
X13907Y-47981D02*
X13795Y-47925D01*
X13738Y-47813D01*
X13738Y-46800D01*
X14526Y-47981D02*
X14413Y-47925D01*
X14357Y-47813D01*
X14357Y-46800D01*
X15876Y-47981D02*
X15876Y-46800D01*
X16269Y-47644D01*
X16663Y-46800D01*
X16663Y-47981D01*
X17732Y-47981D02*
X17732Y-47363D01*
X17675Y-47250D01*
X17563Y-47194D01*
X17338Y-47194D01*
X17225Y-47250D01*
X17732Y-47925D02*
X17619Y-47981D01*
X17338Y-47981D01*
X17225Y-47925D01*
X17169Y-47813D01*
X17169Y-47700D01*
X17225Y-47588D01*
X17338Y-47531D01*
X17619Y-47531D01*
X17732Y-47475D01*
X18294Y-47194D02*
X18294Y-48375D01*
X18294Y-47250D02*
X18406Y-47194D01*
X18631Y-47194D01*
X18744Y-47250D01*
X18800Y-47306D01*
X18856Y-47419D01*
X18856Y-47756D01*
X18800Y-47869D01*
X18744Y-47925D01*
X18631Y-47981D01*
X18406Y-47981D01*
X18294Y-47925D01*
X19363Y-47869D02*
X19419Y-47925D01*
X19363Y-47981D01*
X19306Y-47925D01*
X19363Y-47869D01*
X19363Y-47981D01*
X19363Y-47250D02*
X19419Y-47306D01*
X19363Y-47363D01*
X19306Y-47306D01*
X19363Y-47250D01*
X19363Y-47363D01*
X9959Y-49865D02*
X10195Y-50102D01*
X10195Y-49865D02*
X9959Y-50102D01*
X11489Y-49281D02*
X11601Y-49281D01*
X11714Y-49337D01*
X11770Y-49393D01*
X11826Y-49505D01*
X11882Y-49730D01*
X11882Y-50012D01*
X11826Y-50237D01*
X11770Y-50349D01*
X11714Y-50405D01*
X11601Y-50462D01*
X11489Y-50462D01*
X11376Y-50405D01*
X11320Y-50349D01*
X11264Y-50237D01*
X11207Y-50012D01*
X11207Y-49730D01*
X11264Y-49505D01*
X11320Y-49393D01*
X11376Y-49337D01*
X11489Y-49281D01*
X12388Y-50349D02*
X12445Y-50405D01*
X12388Y-50462D01*
X12332Y-50405D01*
X12388Y-50349D01*
X12388Y-50462D01*
X13457Y-49281D02*
X13232Y-49281D01*
X13120Y-49337D01*
X13063Y-49393D01*
X12951Y-49562D01*
X12895Y-49787D01*
X12895Y-50237D01*
X12951Y-50349D01*
X13007Y-50405D01*
X13120Y-50462D01*
X13345Y-50462D01*
X13457Y-50405D01*
X13513Y-50349D01*
X13570Y-50237D01*
X13570Y-49955D01*
X13513Y-49843D01*
X13457Y-49787D01*
X13345Y-49730D01*
X13120Y-49730D01*
X13007Y-49787D01*
X12951Y-49843D01*
X12895Y-49955D01*
X14301Y-49281D02*
X14413Y-49281D01*
X14526Y-49337D01*
X14582Y-49393D01*
X14638Y-49505D01*
X14694Y-49730D01*
X14694Y-50012D01*
X14638Y-50237D01*
X14582Y-50349D01*
X14526Y-50405D01*
X14413Y-50462D01*
X14301Y-50462D01*
X14188Y-50405D01*
X14132Y-50349D01*
X14076Y-50237D01*
X14019Y-50012D01*
X14019Y-49730D01*
X14076Y-49505D01*
X14132Y-49393D01*
X14188Y-49337D01*
X14301Y-49281D01*
X15201Y-50462D02*
X15201Y-49674D01*
X15201Y-49787D02*
X15257Y-49730D01*
X15369Y-49674D01*
X15538Y-49674D01*
X15651Y-49730D01*
X15707Y-49843D01*
X15707Y-50462D01*
X15707Y-49843D02*
X15763Y-49730D01*
X15876Y-49674D01*
X16044Y-49674D01*
X16157Y-49730D01*
X16213Y-49843D01*
X16213Y-50462D01*
X16775Y-50462D02*
X16775Y-49674D01*
X16775Y-49787D02*
X16832Y-49730D01*
X16944Y-49674D01*
X17113Y-49674D01*
X17225Y-49730D01*
X17282Y-49843D01*
X17282Y-50462D01*
X17282Y-49843D02*
X17338Y-49730D01*
X17450Y-49674D01*
X17619Y-49674D01*
X17732Y-49730D01*
X17788Y-49843D01*
X17788Y-50462D01*
X20094Y-49224D02*
X19081Y-50743D01*
X21612Y-49281D02*
X21725Y-49281D01*
X21837Y-49337D01*
X21894Y-49393D01*
X21950Y-49505D01*
X22006Y-49730D01*
X22006Y-50012D01*
X21950Y-50237D01*
X21894Y-50349D01*
X21837Y-50405D01*
X21725Y-50462D01*
X21612Y-50462D01*
X21500Y-50405D01*
X21444Y-50349D01*
X21387Y-50237D01*
X21331Y-50012D01*
X21331Y-49730D01*
X21387Y-49505D01*
X21444Y-49393D01*
X21500Y-49337D01*
X21612Y-49281D01*
X22512Y-50349D02*
X22568Y-50405D01*
X22512Y-50462D01*
X22456Y-50405D01*
X22512Y-50349D01*
X22512Y-50462D01*
X23300Y-49281D02*
X23412Y-49281D01*
X23525Y-49337D01*
X23581Y-49393D01*
X23637Y-49505D01*
X23693Y-49730D01*
X23693Y-50012D01*
X23637Y-50237D01*
X23581Y-50349D01*
X23525Y-50405D01*
X23412Y-50462D01*
X23300Y-50462D01*
X23187Y-50405D01*
X23131Y-50349D01*
X23075Y-50237D01*
X23018Y-50012D01*
X23018Y-49730D01*
X23075Y-49505D01*
X23131Y-49393D01*
X23187Y-49337D01*
X23300Y-49281D01*
X24143Y-49393D02*
X24199Y-49337D01*
X24312Y-49281D01*
X24593Y-49281D01*
X24706Y-49337D01*
X24762Y-49393D01*
X24818Y-49505D01*
X24818Y-49618D01*
X24762Y-49787D01*
X24087Y-50462D01*
X24818Y-50462D01*
X25831Y-49674D02*
X25831Y-50462D01*
X25549Y-49224D02*
X25268Y-50068D01*
X25999Y-50068D01*
X26393Y-49281D02*
X26393Y-49505D01*
X26843Y-49281D02*
X26843Y-49505D01*
X28586Y-50912D02*
X28530Y-50855D01*
X28418Y-50687D01*
X28361Y-50574D01*
X28305Y-50405D01*
X28249Y-50124D01*
X28249Y-49899D01*
X28305Y-49618D01*
X28361Y-49449D01*
X28418Y-49337D01*
X28530Y-49168D01*
X28586Y-49112D01*
X29093Y-50462D02*
X29318Y-50462D01*
X29430Y-50405D01*
X29486Y-50349D01*
X29599Y-50180D01*
X29655Y-49955D01*
X29655Y-49505D01*
X29599Y-49393D01*
X29543Y-49337D01*
X29430Y-49281D01*
X29205Y-49281D01*
X29093Y-49337D01*
X29036Y-49393D01*
X28980Y-49505D01*
X28980Y-49787D01*
X29036Y-49899D01*
X29093Y-49955D01*
X29205Y-50012D01*
X29430Y-50012D01*
X29543Y-49955D01*
X29599Y-49899D01*
X29655Y-49787D01*
X30049Y-49281D02*
X30836Y-49281D01*
X30330Y-50462D01*
X31792Y-49281D02*
X31567Y-49281D01*
X31455Y-49337D01*
X31399Y-49393D01*
X31286Y-49562D01*
X31230Y-49787D01*
X31230Y-50237D01*
X31286Y-50349D01*
X31342Y-50405D01*
X31455Y-50462D01*
X31680Y-50462D01*
X31792Y-50405D01*
X31849Y-50349D01*
X31905Y-50237D01*
X31905Y-49955D01*
X31849Y-49843D01*
X31792Y-49787D01*
X31680Y-49730D01*
X31455Y-49730D01*
X31342Y-49787D01*
X31286Y-49843D01*
X31230Y-49955D01*
X33311Y-50462D02*
X33311Y-49281D01*
X33817Y-50462D02*
X33817Y-49843D01*
X33761Y-49730D01*
X33648Y-49674D01*
X33480Y-49674D01*
X33367Y-49730D01*
X33311Y-49787D01*
X34548Y-50462D02*
X34436Y-50405D01*
X34379Y-50349D01*
X34323Y-50237D01*
X34323Y-49899D01*
X34379Y-49787D01*
X34436Y-49730D01*
X34548Y-49674D01*
X34717Y-49674D01*
X34829Y-49730D01*
X34886Y-49787D01*
X34942Y-49899D01*
X34942Y-50237D01*
X34886Y-50349D01*
X34829Y-50405D01*
X34717Y-50462D01*
X34548Y-50462D01*
X35617Y-50462D02*
X35504Y-50405D01*
X35448Y-50293D01*
X35448Y-49281D01*
X36517Y-50405D02*
X36404Y-50462D01*
X36179Y-50462D01*
X36067Y-50405D01*
X36010Y-50293D01*
X36010Y-49843D01*
X36067Y-49730D01*
X36179Y-49674D01*
X36404Y-49674D01*
X36517Y-49730D01*
X36573Y-49843D01*
X36573Y-49955D01*
X36010Y-50068D01*
X37023Y-50405D02*
X37135Y-50462D01*
X37360Y-50462D01*
X37473Y-50405D01*
X37529Y-50293D01*
X37529Y-50237D01*
X37473Y-50124D01*
X37360Y-50068D01*
X37192Y-50068D01*
X37079Y-50012D01*
X37023Y-49899D01*
X37023Y-49843D01*
X37079Y-49730D01*
X37192Y-49674D01*
X37360Y-49674D01*
X37473Y-49730D01*
X37923Y-50912D02*
X37979Y-50855D01*
X38091Y-50687D01*
X38148Y-50574D01*
X38204Y-50405D01*
X38260Y-50124D01*
X38260Y-49899D01*
X38204Y-49618D01*
X38148Y-49449D01*
X38091Y-49337D01*
X37979Y-49168D01*
X37923Y-49112D01*
G54D12*
X10195Y-51543D02*
G75*
G03X10195Y-51543I-160J0D01*
G74*
G01*
G54D13*
X11489Y-50840D02*
X11601Y-50840D01*
X11714Y-50896D01*
X11770Y-50952D01*
X11826Y-51065D01*
X11882Y-51290D01*
X11882Y-51571D01*
X11826Y-51796D01*
X11770Y-51908D01*
X11714Y-51964D01*
X11601Y-52021D01*
X11489Y-52021D01*
X11376Y-51964D01*
X11320Y-51908D01*
X11264Y-51796D01*
X11207Y-51571D01*
X11207Y-51290D01*
X11264Y-51065D01*
X11320Y-50952D01*
X11376Y-50896D01*
X11489Y-50840D01*
X12388Y-51908D02*
X12445Y-51964D01*
X12388Y-52021D01*
X12332Y-51964D01*
X12388Y-51908D01*
X12388Y-52021D01*
X13120Y-51346D02*
X13007Y-51290D01*
X12951Y-51233D01*
X12895Y-51121D01*
X12895Y-51065D01*
X12951Y-50952D01*
X13007Y-50896D01*
X13120Y-50840D01*
X13345Y-50840D01*
X13457Y-50896D01*
X13513Y-50952D01*
X13570Y-51065D01*
X13570Y-51121D01*
X13513Y-51233D01*
X13457Y-51290D01*
X13345Y-51346D01*
X13120Y-51346D01*
X13007Y-51402D01*
X12951Y-51458D01*
X12895Y-51571D01*
X12895Y-51796D01*
X12951Y-51908D01*
X13007Y-51964D01*
X13120Y-52021D01*
X13345Y-52021D01*
X13457Y-51964D01*
X13513Y-51908D01*
X13570Y-51796D01*
X13570Y-51571D01*
X13513Y-51458D01*
X13457Y-51402D01*
X13345Y-51346D01*
X14694Y-52021D02*
X14019Y-52021D01*
X14357Y-52021D02*
X14357Y-50840D01*
X14244Y-51008D01*
X14132Y-51121D01*
X14019Y-51177D01*
X15201Y-52021D02*
X15201Y-51233D01*
X15201Y-51346D02*
X15257Y-51290D01*
X15369Y-51233D01*
X15538Y-51233D01*
X15651Y-51290D01*
X15707Y-51402D01*
X15707Y-52021D01*
X15707Y-51402D02*
X15763Y-51290D01*
X15876Y-51233D01*
X16044Y-51233D01*
X16157Y-51290D01*
X16213Y-51402D01*
X16213Y-52021D01*
X16775Y-52021D02*
X16775Y-51233D01*
X16775Y-51346D02*
X16832Y-51290D01*
X16944Y-51233D01*
X17113Y-51233D01*
X17225Y-51290D01*
X17282Y-51402D01*
X17282Y-52021D01*
X17282Y-51402D02*
X17338Y-51290D01*
X17450Y-51233D01*
X17619Y-51233D01*
X17732Y-51290D01*
X17788Y-51402D01*
X17788Y-52021D01*
X20094Y-50783D02*
X19081Y-52302D01*
X21612Y-50840D02*
X21725Y-50840D01*
X21837Y-50896D01*
X21894Y-50952D01*
X21950Y-51065D01*
X22006Y-51290D01*
X22006Y-51571D01*
X21950Y-51796D01*
X21894Y-51908D01*
X21837Y-51964D01*
X21725Y-52021D01*
X21612Y-52021D01*
X21500Y-51964D01*
X21444Y-51908D01*
X21387Y-51796D01*
X21331Y-51571D01*
X21331Y-51290D01*
X21387Y-51065D01*
X21444Y-50952D01*
X21500Y-50896D01*
X21612Y-50840D01*
X22512Y-51908D02*
X22568Y-51964D01*
X22512Y-52021D01*
X22456Y-51964D01*
X22512Y-51908D01*
X22512Y-52021D01*
X23300Y-50840D02*
X23412Y-50840D01*
X23525Y-50896D01*
X23581Y-50952D01*
X23637Y-51065D01*
X23693Y-51290D01*
X23693Y-51571D01*
X23637Y-51796D01*
X23581Y-51908D01*
X23525Y-51964D01*
X23412Y-52021D01*
X23300Y-52021D01*
X23187Y-51964D01*
X23131Y-51908D01*
X23075Y-51796D01*
X23018Y-51571D01*
X23018Y-51290D01*
X23075Y-51065D01*
X23131Y-50952D01*
X23187Y-50896D01*
X23300Y-50840D01*
X24087Y-50840D02*
X24818Y-50840D01*
X24424Y-51290D01*
X24593Y-51290D01*
X24706Y-51346D01*
X24762Y-51402D01*
X24818Y-51514D01*
X24818Y-51796D01*
X24762Y-51908D01*
X24706Y-51964D01*
X24593Y-52021D01*
X24256Y-52021D01*
X24143Y-51964D01*
X24087Y-51908D01*
X25268Y-50952D02*
X25324Y-50896D01*
X25437Y-50840D01*
X25718Y-50840D01*
X25831Y-50896D01*
X25887Y-50952D01*
X25943Y-51065D01*
X25943Y-51177D01*
X25887Y-51346D01*
X25212Y-52021D01*
X25943Y-52021D01*
X26393Y-50840D02*
X26393Y-51065D01*
X26843Y-50840D02*
X26843Y-51065D01*
X28586Y-52471D02*
X28530Y-52414D01*
X28418Y-52246D01*
X28361Y-52133D01*
X28305Y-51964D01*
X28249Y-51683D01*
X28249Y-51458D01*
X28305Y-51177D01*
X28361Y-51008D01*
X28418Y-50896D01*
X28530Y-50727D01*
X28586Y-50671D01*
X28924Y-50840D02*
X29711Y-50840D01*
X29205Y-52021D01*
X31061Y-52021D02*
X31061Y-50840D01*
X31567Y-52021D02*
X31567Y-51402D01*
X31511Y-51290D01*
X31399Y-51233D01*
X31230Y-51233D01*
X31117Y-51290D01*
X31061Y-51346D01*
X32298Y-52021D02*
X32186Y-51964D01*
X32130Y-51908D01*
X32073Y-51796D01*
X32073Y-51458D01*
X32130Y-51346D01*
X32186Y-51290D01*
X32298Y-51233D01*
X32467Y-51233D01*
X32580Y-51290D01*
X32636Y-51346D01*
X32692Y-51458D01*
X32692Y-51796D01*
X32636Y-51908D01*
X32580Y-51964D01*
X32467Y-52021D01*
X32298Y-52021D01*
X33367Y-52021D02*
X33255Y-51964D01*
X33198Y-51852D01*
X33198Y-50840D01*
X34267Y-51964D02*
X34154Y-52021D01*
X33930Y-52021D01*
X33817Y-51964D01*
X33761Y-51852D01*
X33761Y-51402D01*
X33817Y-51290D01*
X33930Y-51233D01*
X34154Y-51233D01*
X34267Y-51290D01*
X34323Y-51402D01*
X34323Y-51514D01*
X33761Y-51627D01*
X34773Y-51964D02*
X34886Y-52021D01*
X35111Y-52021D01*
X35223Y-51964D01*
X35279Y-51852D01*
X35279Y-51796D01*
X35223Y-51683D01*
X35111Y-51627D01*
X34942Y-51627D01*
X34829Y-51571D01*
X34773Y-51458D01*
X34773Y-51402D01*
X34829Y-51290D01*
X34942Y-51233D01*
X35111Y-51233D01*
X35223Y-51290D01*
X35673Y-52471D02*
X35729Y-52414D01*
X35842Y-52246D01*
X35898Y-52133D01*
X35954Y-51964D01*
X36010Y-51683D01*
X36010Y-51458D01*
X35954Y-51177D01*
X35898Y-51008D01*
X35842Y-50896D01*
X35729Y-50727D01*
X35673Y-50671D01*
M02*
