G04 (created by PCBNEW (2013-07-07 BZR 4022)-stable) date 1/25/2014 12:44:16 AM*
%MOIN*%
G04 Gerber Fmt 3.4, Leading zero omitted, Abs format*
%FSLAX34Y34*%
G01*
G70*
G90*
G04 APERTURE LIST*
%ADD10C,0.00590551*%
%ADD11C,0.0393701*%
%ADD12R,0.0393701X0.0393701*%
%ADD13R,0.055X0.055*%
%ADD14C,0.055*%
%ADD15C,0.01*%
G04 APERTURE END LIST*
G54D10*
G54D11*
X94818Y-55783D03*
X95818Y-55783D03*
X96818Y-55783D03*
X97818Y-55783D03*
X98818Y-55783D03*
X99818Y-55783D03*
X100818Y-55783D03*
X101818Y-55783D03*
X102818Y-55783D03*
X102818Y-58783D03*
X101818Y-58783D03*
X100818Y-58783D03*
X99818Y-58783D03*
X98818Y-58783D03*
X97818Y-58783D03*
X96818Y-58783D03*
X95818Y-58783D03*
X94818Y-58783D03*
X116078Y-55783D03*
X117078Y-55783D03*
X118078Y-55783D03*
X119078Y-55783D03*
X120078Y-55783D03*
X121078Y-55783D03*
X122078Y-55783D03*
X123078Y-55783D03*
X124078Y-55783D03*
X124078Y-58783D03*
X123078Y-58783D03*
X122078Y-58783D03*
X121078Y-58783D03*
X120078Y-58783D03*
X119078Y-58783D03*
X118078Y-58783D03*
X117078Y-58783D03*
X116078Y-58783D03*
X106629Y-55783D03*
X107629Y-55783D03*
X108629Y-55783D03*
X109629Y-55783D03*
X110629Y-55783D03*
X111629Y-55783D03*
X112629Y-55783D03*
X113629Y-55783D03*
X114629Y-55783D03*
X114629Y-58783D03*
X113629Y-58783D03*
X112629Y-58783D03*
X111629Y-58783D03*
X110629Y-58783D03*
X109629Y-58783D03*
X108629Y-58783D03*
X107629Y-58783D03*
X106629Y-58783D03*
G54D12*
X93137Y-60114D03*
G54D11*
X94137Y-60114D03*
X95137Y-60114D03*
X96137Y-60114D03*
X97137Y-60114D03*
X98137Y-60114D03*
X99137Y-60114D03*
X100137Y-60114D03*
X101137Y-60114D03*
X102137Y-60114D03*
X93137Y-63114D03*
X94137Y-63114D03*
X95137Y-63114D03*
X96137Y-63114D03*
X97137Y-63114D03*
X98137Y-63114D03*
X99137Y-63114D03*
X100137Y-63114D03*
X101137Y-63114D03*
X102137Y-63114D03*
G54D12*
X52192Y-68185D03*
G54D11*
X53192Y-68185D03*
X54192Y-68185D03*
X55192Y-68185D03*
X56192Y-68185D03*
X57192Y-68185D03*
X58192Y-68185D03*
X59192Y-68185D03*
X60192Y-68185D03*
X61192Y-68185D03*
X52192Y-71185D03*
X53192Y-71185D03*
X54192Y-71185D03*
X55192Y-71185D03*
X56192Y-71185D03*
X57192Y-71185D03*
X58192Y-71185D03*
X59192Y-71185D03*
X60192Y-71185D03*
X61192Y-71185D03*
G54D12*
X52192Y-72122D03*
G54D11*
X53192Y-72122D03*
X54192Y-72122D03*
X55192Y-72122D03*
X56192Y-72122D03*
X57192Y-72122D03*
X58192Y-72122D03*
X59192Y-72122D03*
X60192Y-72122D03*
X61192Y-72122D03*
X52192Y-75122D03*
X53192Y-75122D03*
X54192Y-75122D03*
X55192Y-75122D03*
X56192Y-75122D03*
X57192Y-75122D03*
X58192Y-75122D03*
X59192Y-75122D03*
X60192Y-75122D03*
X61192Y-75122D03*
G54D12*
X64791Y-68185D03*
G54D11*
X65791Y-68185D03*
X66791Y-68185D03*
X67791Y-68185D03*
X68791Y-68185D03*
X69791Y-68185D03*
X70791Y-68185D03*
X71791Y-68185D03*
X72791Y-68185D03*
X73791Y-68185D03*
X64791Y-71185D03*
X65791Y-71185D03*
X66791Y-71185D03*
X67791Y-71185D03*
X68791Y-71185D03*
X69791Y-71185D03*
X70791Y-71185D03*
X71791Y-71185D03*
X72791Y-71185D03*
X73791Y-71185D03*
G54D12*
X64791Y-72122D03*
G54D11*
X65791Y-72122D03*
X66791Y-72122D03*
X67791Y-72122D03*
X68791Y-72122D03*
X69791Y-72122D03*
X70791Y-72122D03*
X71791Y-72122D03*
X72791Y-72122D03*
X73791Y-72122D03*
X64791Y-75122D03*
X65791Y-75122D03*
X66791Y-75122D03*
X67791Y-75122D03*
X68791Y-75122D03*
X69791Y-75122D03*
X70791Y-75122D03*
X71791Y-75122D03*
X72791Y-75122D03*
X73791Y-75122D03*
G54D12*
X39594Y-72122D03*
G54D11*
X40594Y-72122D03*
X41594Y-72122D03*
X42594Y-72122D03*
X43594Y-72122D03*
X44594Y-72122D03*
X45594Y-72122D03*
X46594Y-72122D03*
X47594Y-72122D03*
X48594Y-72122D03*
X39594Y-75122D03*
X40594Y-75122D03*
X41594Y-75122D03*
X42594Y-75122D03*
X43594Y-75122D03*
X44594Y-75122D03*
X45594Y-75122D03*
X46594Y-75122D03*
X47594Y-75122D03*
X48594Y-75122D03*
G54D12*
X103374Y-60114D03*
G54D11*
X104374Y-60114D03*
X105374Y-60114D03*
X106374Y-60114D03*
X107374Y-60114D03*
X108374Y-60114D03*
X109374Y-60114D03*
X110374Y-60114D03*
X111374Y-60114D03*
X112374Y-60114D03*
X103374Y-63114D03*
X104374Y-63114D03*
X105374Y-63114D03*
X106374Y-63114D03*
X107374Y-63114D03*
X108374Y-63114D03*
X109374Y-63114D03*
X110374Y-63114D03*
X111374Y-63114D03*
X112374Y-63114D03*
G54D12*
X113610Y-60114D03*
G54D11*
X114610Y-60114D03*
X115610Y-60114D03*
X116610Y-60114D03*
X117610Y-60114D03*
X118610Y-60114D03*
X119610Y-60114D03*
X120610Y-60114D03*
X121610Y-60114D03*
X122610Y-60114D03*
X113610Y-63114D03*
X114610Y-63114D03*
X115610Y-63114D03*
X116610Y-63114D03*
X117610Y-63114D03*
X118610Y-63114D03*
X119610Y-63114D03*
X120610Y-63114D03*
X121610Y-63114D03*
X122610Y-63114D03*
G54D12*
X39594Y-68578D03*
G54D11*
X40594Y-68578D03*
X41594Y-68578D03*
X42594Y-68578D03*
X43594Y-68578D03*
X44594Y-68578D03*
X45594Y-68578D03*
X46594Y-68578D03*
X47594Y-68578D03*
X48594Y-68578D03*
X39594Y-71578D03*
X40594Y-71578D03*
X41594Y-71578D03*
X42594Y-71578D03*
X43594Y-71578D03*
X44594Y-71578D03*
X45594Y-71578D03*
X46594Y-71578D03*
X47594Y-71578D03*
X48594Y-71578D03*
X72366Y-56055D03*
X72366Y-57055D03*
X72366Y-58055D03*
X72366Y-59055D03*
X72366Y-60055D03*
X72366Y-61055D03*
X72366Y-62055D03*
X69366Y-62055D03*
X69366Y-61055D03*
X69366Y-60055D03*
X69366Y-59055D03*
X69366Y-58055D03*
X69366Y-57055D03*
X69366Y-56055D03*
G54D13*
X41732Y-56948D03*
G54D14*
X41732Y-57948D03*
X41732Y-58948D03*
X41732Y-59948D03*
X41732Y-60948D03*
G54D13*
X74015Y-56948D03*
G54D14*
X74015Y-57948D03*
X74015Y-58948D03*
X74015Y-59948D03*
X74015Y-60948D03*
G54D13*
X34251Y-75090D03*
G54D14*
X34251Y-76090D03*
G54D13*
X82283Y-73515D03*
G54D14*
X82283Y-74515D03*
G54D11*
X25877Y-66525D03*
X26877Y-66525D03*
X27877Y-66525D03*
X63787Y-76377D03*
X64787Y-76377D03*
X65787Y-76377D03*
X66787Y-76377D03*
X67787Y-76377D03*
X68787Y-76377D03*
X69787Y-76377D03*
X70787Y-76377D03*
X71787Y-76377D03*
X72787Y-76377D03*
X73787Y-76377D03*
X74787Y-76377D03*
X74787Y-66929D03*
X73787Y-66929D03*
X72787Y-66929D03*
X71787Y-66929D03*
X70787Y-66929D03*
X69787Y-66929D03*
X68787Y-66929D03*
X67787Y-66929D03*
X66787Y-66929D03*
X65787Y-66929D03*
X64787Y-66929D03*
X63791Y-66929D03*
X51188Y-76377D03*
X52188Y-76377D03*
X53188Y-76377D03*
X54188Y-76377D03*
X55188Y-76377D03*
X56188Y-76377D03*
X57188Y-76377D03*
X58188Y-76377D03*
X59188Y-76377D03*
X60188Y-76377D03*
X61188Y-76377D03*
X62188Y-76377D03*
X62188Y-66929D03*
X61188Y-66929D03*
X60188Y-66929D03*
X59188Y-66929D03*
X58188Y-66929D03*
X57188Y-66929D03*
X56188Y-66929D03*
X55188Y-66929D03*
X54188Y-66929D03*
X53188Y-66929D03*
X52188Y-66929D03*
X51192Y-66929D03*
X51188Y-51181D03*
X52188Y-51181D03*
X53188Y-51181D03*
X54188Y-51181D03*
X55188Y-51181D03*
X56188Y-51181D03*
X57188Y-51181D03*
X58188Y-51181D03*
X59188Y-51181D03*
X60188Y-51181D03*
X61188Y-51181D03*
X62188Y-51181D03*
X62188Y-41732D03*
X61188Y-41732D03*
X60188Y-41732D03*
X59188Y-41732D03*
X58188Y-41732D03*
X57188Y-41732D03*
X56188Y-41732D03*
X55188Y-41732D03*
X54188Y-41732D03*
X53188Y-41732D03*
X52188Y-41732D03*
X51192Y-41732D03*
X38590Y-76377D03*
X39590Y-76377D03*
X40590Y-76377D03*
X41590Y-76377D03*
X42590Y-76377D03*
X43590Y-76377D03*
X44590Y-76377D03*
X45590Y-76377D03*
X46590Y-76377D03*
X47590Y-76377D03*
X48590Y-76377D03*
X49590Y-76377D03*
X49590Y-66929D03*
X48590Y-66929D03*
X47590Y-66929D03*
X46590Y-66929D03*
X45590Y-66929D03*
X44590Y-66929D03*
X43590Y-66929D03*
X42590Y-66929D03*
X41590Y-66929D03*
X40590Y-66929D03*
X39590Y-66929D03*
X38594Y-66929D03*
X63787Y-63779D03*
X64787Y-63779D03*
X65787Y-63779D03*
X66787Y-63779D03*
X67787Y-63779D03*
X68787Y-63779D03*
X69787Y-63779D03*
X70787Y-63779D03*
X71787Y-63779D03*
X72787Y-63779D03*
X73787Y-63779D03*
X74787Y-63779D03*
X74787Y-54330D03*
X73787Y-54330D03*
X72787Y-54330D03*
X71787Y-54330D03*
X70787Y-54330D03*
X69787Y-54330D03*
X68787Y-54330D03*
X67787Y-54330D03*
X66787Y-54330D03*
X65787Y-54330D03*
X64787Y-54330D03*
X63791Y-54330D03*
X51188Y-63779D03*
X52188Y-63779D03*
X53188Y-63779D03*
X54188Y-63779D03*
X55188Y-63779D03*
X56188Y-63779D03*
X57188Y-63779D03*
X58188Y-63779D03*
X59188Y-63779D03*
X60188Y-63779D03*
X61188Y-63779D03*
X62188Y-63779D03*
X62188Y-54330D03*
X61188Y-54330D03*
X60188Y-54330D03*
X59188Y-54330D03*
X58188Y-54330D03*
X57188Y-54330D03*
X56188Y-54330D03*
X55188Y-54330D03*
X54188Y-54330D03*
X53188Y-54330D03*
X52188Y-54330D03*
X51192Y-54330D03*
X63787Y-51181D03*
X64787Y-51181D03*
X65787Y-51181D03*
X66787Y-51181D03*
X67787Y-51181D03*
X68787Y-51181D03*
X69787Y-51181D03*
X70787Y-51181D03*
X71787Y-51181D03*
X72787Y-51181D03*
X73787Y-51181D03*
X74787Y-51181D03*
X74787Y-41732D03*
X73787Y-41732D03*
X72787Y-41732D03*
X71787Y-41732D03*
X70787Y-41732D03*
X69787Y-41732D03*
X68787Y-41732D03*
X67787Y-41732D03*
X66787Y-41732D03*
X65787Y-41732D03*
X64787Y-41732D03*
X63791Y-41732D03*
X38590Y-63779D03*
X39590Y-63779D03*
X40590Y-63779D03*
X41590Y-63779D03*
X42590Y-63779D03*
X43590Y-63779D03*
X44590Y-63779D03*
X45590Y-63779D03*
X46590Y-63779D03*
X47590Y-63779D03*
X48590Y-63779D03*
X49590Y-63779D03*
X49590Y-54330D03*
X48590Y-54330D03*
X47590Y-54330D03*
X46590Y-54330D03*
X45590Y-54330D03*
X44590Y-54330D03*
X43590Y-54330D03*
X42590Y-54330D03*
X41590Y-54330D03*
X40590Y-54330D03*
X39590Y-54330D03*
X38594Y-54330D03*
X38590Y-51181D03*
X39590Y-51181D03*
X40590Y-51181D03*
X41590Y-51181D03*
X42590Y-51181D03*
X43590Y-51181D03*
X44590Y-51181D03*
X45590Y-51181D03*
X46590Y-51181D03*
X47590Y-51181D03*
X48590Y-51181D03*
X49590Y-51181D03*
X49590Y-41732D03*
X48590Y-41732D03*
X47590Y-41732D03*
X46590Y-41732D03*
X45590Y-41732D03*
X44590Y-41732D03*
X43590Y-41732D03*
X42590Y-41732D03*
X41590Y-41732D03*
X40590Y-41732D03*
X39590Y-41732D03*
X38594Y-41732D03*
X51192Y-66421D03*
X51192Y-67405D03*
X45590Y-75901D03*
X45590Y-76885D03*
X36220Y-67322D03*
X36220Y-68307D03*
X35433Y-67322D03*
X35433Y-68307D03*
X34645Y-67322D03*
X34645Y-68307D03*
X33858Y-67322D03*
X33858Y-68307D03*
X61188Y-66421D03*
X61188Y-67405D03*
X58188Y-66421D03*
X58188Y-67405D03*
X55188Y-66421D03*
X55188Y-67405D03*
X52188Y-66421D03*
X52188Y-67405D03*
X42590Y-75901D03*
X42590Y-76885D03*
X26877Y-65525D03*
X27861Y-65525D03*
X26877Y-65525D03*
X27861Y-65525D03*
X26877Y-65525D03*
X27861Y-65525D03*
X26877Y-65525D03*
X27861Y-65525D03*
X26877Y-65525D03*
X27861Y-65525D03*
X26877Y-65525D03*
X27861Y-65525D03*
X26877Y-65525D03*
X27861Y-65525D03*
X26877Y-65525D03*
X27861Y-65525D03*
X39590Y-75901D03*
X39590Y-76885D03*
X42590Y-66421D03*
X42590Y-67405D03*
X39590Y-66421D03*
X39590Y-67405D03*
X45590Y-66421D03*
X45590Y-67405D03*
X48590Y-66421D03*
X48590Y-67405D03*
X26877Y-65525D03*
X27861Y-65525D03*
X26877Y-65525D03*
X27861Y-65525D03*
X26877Y-65525D03*
X27861Y-65525D03*
X26877Y-65525D03*
X27861Y-65525D03*
X26877Y-65525D03*
X27861Y-65525D03*
X26877Y-65525D03*
X27861Y-65525D03*
X26877Y-65525D03*
X27861Y-65525D03*
X26877Y-65525D03*
X27861Y-65525D03*
X48590Y-75901D03*
X48590Y-76885D03*
X33858Y-65354D03*
X33858Y-66338D03*
X34645Y-65354D03*
X34645Y-66338D03*
X35433Y-65354D03*
X35433Y-66338D03*
X36220Y-65354D03*
X36220Y-66338D03*
X60188Y-66421D03*
X60188Y-67405D03*
X57188Y-66421D03*
X57188Y-67405D03*
X54188Y-66421D03*
X54188Y-67405D03*
X26877Y-65525D03*
X27861Y-65525D03*
X26877Y-65525D03*
X27861Y-65525D03*
X26877Y-65525D03*
X27861Y-65525D03*
X26877Y-65525D03*
X27861Y-65525D03*
X41590Y-75901D03*
X41590Y-76885D03*
X44590Y-75901D03*
X44590Y-76885D03*
X47590Y-75901D03*
X47590Y-76885D03*
X44590Y-66421D03*
X44590Y-67405D03*
X47590Y-66421D03*
X47590Y-67405D03*
X26877Y-65525D03*
X27861Y-65525D03*
X26877Y-65525D03*
X27861Y-65525D03*
X26877Y-65525D03*
X27861Y-65525D03*
X26877Y-65525D03*
X27861Y-65525D03*
X26877Y-65525D03*
X27861Y-65525D03*
X26877Y-65525D03*
X27861Y-65525D03*
X26877Y-65525D03*
X27861Y-65525D03*
X26877Y-65525D03*
X27861Y-65525D03*
X26877Y-65525D03*
X27861Y-65525D03*
X26877Y-65525D03*
X27861Y-65525D03*
X26877Y-65525D03*
X27861Y-65525D03*
X26877Y-65525D03*
X27861Y-65525D03*
X26877Y-65525D03*
X27861Y-65525D03*
X26877Y-65525D03*
X27861Y-65525D03*
X26877Y-65525D03*
X27861Y-65525D03*
X26877Y-65525D03*
X27861Y-65525D03*
X38594Y-66421D03*
X38594Y-67405D03*
X38590Y-75901D03*
X38590Y-76885D03*
X41590Y-66421D03*
X41590Y-67405D03*
X26877Y-65525D03*
X27861Y-65525D03*
X26877Y-65525D03*
X27861Y-65525D03*
X26877Y-65525D03*
X27861Y-65525D03*
X26877Y-65525D03*
X27861Y-65525D03*
G54D10*
G36*
X40028Y-51797D02*
X38307Y-52048D01*
X38172Y-51988D01*
X38266Y-50528D01*
X39972Y-50471D01*
X40028Y-51797D01*
X40028Y-51797D01*
G37*
G54D15*
X40028Y-51797D02*
X38307Y-52048D01*
X38172Y-51988D01*
X38266Y-50528D01*
X39972Y-50471D01*
X40028Y-51797D01*
M02*
