G04 (created by PCBNEW (2013-07-07 BZR 4022)-stable) date 2/5/2014 11:08:06 AM*
%MOIN*%
G04 Gerber Fmt 3.4, Leading zero omitted, Abs format*
%FSLAX34Y34*%
G01*
G70*
G90*
G04 APERTURE LIST*
%ADD10C,0.00590551*%
%ADD11C,0.0393701*%
%ADD12R,0.0393701X0.0393701*%
%ADD13R,0.055X0.055*%
%ADD14C,0.055*%
%ADD15C,0.0314961*%
%ADD16C,0.015748*%
%ADD17C,0.0314961*%
%ADD18C,0.008*%
%ADD19C,0.01*%
G04 APERTURE END LIST*
G54D10*
X6299Y-45275D02*
X6299Y-5905D01*
X44094Y-45275D02*
X6299Y-45275D01*
X44094Y-5905D02*
X44094Y-45275D01*
X6299Y-5905D02*
X44094Y-5905D01*
G54D11*
X38291Y-27085D03*
X37291Y-27085D03*
X36291Y-27085D03*
X35291Y-27085D03*
X34291Y-27085D03*
X33291Y-27085D03*
X32295Y-27085D03*
X32295Y-24085D03*
X33291Y-24085D03*
X34291Y-24085D03*
X35291Y-24085D03*
X36291Y-24085D03*
X37291Y-24085D03*
X38291Y-24085D03*
X37503Y-10935D03*
X37503Y-9951D03*
X38503Y-10935D03*
X38503Y-9951D03*
X39503Y-10935D03*
X39503Y-9951D03*
X40503Y-10935D03*
X40503Y-9951D03*
X18094Y-23535D03*
X18094Y-22551D03*
X17094Y-23535D03*
X17094Y-22551D03*
X16094Y-23535D03*
X16094Y-22551D03*
X15094Y-23535D03*
X15094Y-22551D03*
X14094Y-23535D03*
X14094Y-22551D03*
X13094Y-23535D03*
X13094Y-22551D03*
X12094Y-23535D03*
X12094Y-22551D03*
X11094Y-23535D03*
X11094Y-22551D03*
X37503Y-15035D03*
X37503Y-16019D03*
X38503Y-15035D03*
X38503Y-16019D03*
X39503Y-15035D03*
X39503Y-16019D03*
X40503Y-15035D03*
X40503Y-16019D03*
X12917Y-10935D03*
X12917Y-9951D03*
X11917Y-10935D03*
X11917Y-9951D03*
X10917Y-10935D03*
X10917Y-9951D03*
X9917Y-10935D03*
X9917Y-9951D03*
X12917Y-15035D03*
X12917Y-16019D03*
X11917Y-15035D03*
X11917Y-16019D03*
X10917Y-15035D03*
X10917Y-16019D03*
X9917Y-15035D03*
X9917Y-16019D03*
X22661Y-16684D03*
X21954Y-15977D03*
X21247Y-15270D03*
X20540Y-14563D03*
X19833Y-13855D03*
X19125Y-13148D03*
X18418Y-12441D03*
X17711Y-11734D03*
X17004Y-11027D03*
X19125Y-8906D03*
X19833Y-9613D03*
X20540Y-10320D03*
X21247Y-11027D03*
X21954Y-11734D03*
X22661Y-12441D03*
X23368Y-13148D03*
X24075Y-13855D03*
X24782Y-14563D03*
X11094Y-24090D03*
X12094Y-24090D03*
X13094Y-24090D03*
X14094Y-24090D03*
X15094Y-24090D03*
X16094Y-24090D03*
X17094Y-24090D03*
X18094Y-24090D03*
X19094Y-24090D03*
X19094Y-27090D03*
X18094Y-27090D03*
X17094Y-27090D03*
X16094Y-27090D03*
X15094Y-27090D03*
X14094Y-27090D03*
X13094Y-27090D03*
X12094Y-27090D03*
X11094Y-27090D03*
X33706Y-11067D03*
X32999Y-11774D03*
X32292Y-12481D03*
X31585Y-13188D03*
X30877Y-13896D03*
X30170Y-14603D03*
X29463Y-15310D03*
X28756Y-16017D03*
X28049Y-16724D03*
X25928Y-14603D03*
X26635Y-13896D03*
X27342Y-13188D03*
X28049Y-12481D03*
X28756Y-11774D03*
X29463Y-11067D03*
X30170Y-10360D03*
X30877Y-9653D03*
X31585Y-8946D03*
G54D12*
X6917Y-11492D03*
G54D11*
X7917Y-11492D03*
X8917Y-11492D03*
X9917Y-11492D03*
X10917Y-11492D03*
X11917Y-11492D03*
X12917Y-11492D03*
X13917Y-11492D03*
X14917Y-11492D03*
X15917Y-11492D03*
X6917Y-14492D03*
X7917Y-14492D03*
X8917Y-14492D03*
X9917Y-14492D03*
X10917Y-14492D03*
X11917Y-14492D03*
X12917Y-14492D03*
X13917Y-14492D03*
X14917Y-14492D03*
X15917Y-14492D03*
G54D12*
X19515Y-34917D03*
G54D11*
X20515Y-34917D03*
X21515Y-34917D03*
X22515Y-34917D03*
X23515Y-34917D03*
X24515Y-34917D03*
X25515Y-34917D03*
X26515Y-34917D03*
X27515Y-34917D03*
X28515Y-34917D03*
X19515Y-37917D03*
X20515Y-37917D03*
X21515Y-37917D03*
X22515Y-37917D03*
X23515Y-37917D03*
X24515Y-37917D03*
X25515Y-37917D03*
X26515Y-37917D03*
X27515Y-37917D03*
X28515Y-37917D03*
G54D12*
X30877Y-41460D03*
G54D11*
X29877Y-41460D03*
X28877Y-41460D03*
X27877Y-41460D03*
X26877Y-41460D03*
X25877Y-41460D03*
X24877Y-41460D03*
X23877Y-41460D03*
X22877Y-41460D03*
X21877Y-41460D03*
X30877Y-38460D03*
X29877Y-38460D03*
X28877Y-38460D03*
X27877Y-38460D03*
X26877Y-38460D03*
X25877Y-38460D03*
X24877Y-38460D03*
X23877Y-38460D03*
X22877Y-38460D03*
X21877Y-38460D03*
G54D12*
X32114Y-34917D03*
G54D11*
X33114Y-34917D03*
X34114Y-34917D03*
X35114Y-34917D03*
X36114Y-34917D03*
X37114Y-34917D03*
X38114Y-34917D03*
X39114Y-34917D03*
X40114Y-34917D03*
X41114Y-34917D03*
X32114Y-37917D03*
X33114Y-37917D03*
X34114Y-37917D03*
X35114Y-37917D03*
X36114Y-37917D03*
X37114Y-37917D03*
X38114Y-37917D03*
X39114Y-37917D03*
X40114Y-37917D03*
X41114Y-37917D03*
G54D12*
X43476Y-41460D03*
G54D11*
X42476Y-41460D03*
X41476Y-41460D03*
X40476Y-41460D03*
X39476Y-41460D03*
X38476Y-41460D03*
X37476Y-41460D03*
X36476Y-41460D03*
X35476Y-41460D03*
X34476Y-41460D03*
X43476Y-38460D03*
X42476Y-38460D03*
X41476Y-38460D03*
X40476Y-38460D03*
X39476Y-38460D03*
X38476Y-38460D03*
X37476Y-38460D03*
X36476Y-38460D03*
X35476Y-38460D03*
X34476Y-38460D03*
G54D12*
X18279Y-41460D03*
G54D11*
X17279Y-41460D03*
X16279Y-41460D03*
X15279Y-41460D03*
X14279Y-41460D03*
X13279Y-41460D03*
X12279Y-41460D03*
X11279Y-41460D03*
X10279Y-41460D03*
X9279Y-41460D03*
X18279Y-38460D03*
X17279Y-38460D03*
X16279Y-38460D03*
X15279Y-38460D03*
X14279Y-38460D03*
X13279Y-38460D03*
X12279Y-38460D03*
X11279Y-38460D03*
X10279Y-38460D03*
X9279Y-38460D03*
G54D12*
X43503Y-14492D03*
G54D11*
X42503Y-14492D03*
X41503Y-14492D03*
X40503Y-14492D03*
X39503Y-14492D03*
X38503Y-14492D03*
X37503Y-14492D03*
X36503Y-14492D03*
X35503Y-14492D03*
X34503Y-14492D03*
X43503Y-11492D03*
X42503Y-11492D03*
X41503Y-11492D03*
X40503Y-11492D03*
X39503Y-11492D03*
X38503Y-11492D03*
X37503Y-11492D03*
X36503Y-11492D03*
X35503Y-11492D03*
X34503Y-11492D03*
G54D12*
X20692Y-24090D03*
G54D11*
X21692Y-24090D03*
X22692Y-24090D03*
X23692Y-24090D03*
X24692Y-24090D03*
X25692Y-24090D03*
X26692Y-24090D03*
X27692Y-24090D03*
X28692Y-24090D03*
X29692Y-24090D03*
X20692Y-27090D03*
X21692Y-27090D03*
X22692Y-27090D03*
X23692Y-27090D03*
X24692Y-27090D03*
X25692Y-27090D03*
X26692Y-27090D03*
X27692Y-27090D03*
X28692Y-27090D03*
X29692Y-27090D03*
G54D12*
X6917Y-34917D03*
G54D11*
X7917Y-34917D03*
X8917Y-34917D03*
X9917Y-34917D03*
X10917Y-34917D03*
X11917Y-34917D03*
X12917Y-34917D03*
X13917Y-34917D03*
X14917Y-34917D03*
X15917Y-34917D03*
X6917Y-37917D03*
X7917Y-37917D03*
X8917Y-37917D03*
X9917Y-37917D03*
X10917Y-37917D03*
X11917Y-37917D03*
X12917Y-37917D03*
X13917Y-37917D03*
X14917Y-37917D03*
X15917Y-37917D03*
G54D13*
X9842Y-22047D03*
G54D14*
X9842Y-23047D03*
G54D11*
X19696Y-32956D03*
X19696Y-33940D03*
X14094Y-42437D03*
X14094Y-43421D03*
X20692Y-42437D03*
X20692Y-43421D03*
X23692Y-42437D03*
X23692Y-43421D03*
X26692Y-42437D03*
X26692Y-43421D03*
X29692Y-42437D03*
X29692Y-43421D03*
X29692Y-32956D03*
X29692Y-33940D03*
X26692Y-32956D03*
X26692Y-33940D03*
X23692Y-32956D03*
X23692Y-33940D03*
X20692Y-32956D03*
X20692Y-33940D03*
X11094Y-42437D03*
X11094Y-43421D03*
X32291Y-42437D03*
X32291Y-43421D03*
X35291Y-42437D03*
X35291Y-43421D03*
X38291Y-42437D03*
X38291Y-43421D03*
X41291Y-42437D03*
X41291Y-43421D03*
X41291Y-32956D03*
X41291Y-33940D03*
X38291Y-32956D03*
X38291Y-33940D03*
X35291Y-32956D03*
X35291Y-33940D03*
X32295Y-32956D03*
X32295Y-33940D03*
X8094Y-42437D03*
X8094Y-43421D03*
X11094Y-32956D03*
X11094Y-33940D03*
X8094Y-32956D03*
X8094Y-33940D03*
X14094Y-32956D03*
X14094Y-33940D03*
X17094Y-32956D03*
X17094Y-33940D03*
X17094Y-42437D03*
X17094Y-43421D03*
X19692Y-42437D03*
X19692Y-43421D03*
X22692Y-42437D03*
X22692Y-43421D03*
X25692Y-42437D03*
X25692Y-43421D03*
X28692Y-42437D03*
X28692Y-43421D03*
X28692Y-32956D03*
X28692Y-33940D03*
X25692Y-32956D03*
X25692Y-33940D03*
X22692Y-32956D03*
X22692Y-33940D03*
X10094Y-42437D03*
X10094Y-43421D03*
X13094Y-42437D03*
X13094Y-43421D03*
X16094Y-42437D03*
X16094Y-43421D03*
X13094Y-32956D03*
X13094Y-33940D03*
X16094Y-32956D03*
X16094Y-33940D03*
X33291Y-42437D03*
X33291Y-43421D03*
X36291Y-42437D03*
X36291Y-43421D03*
X39291Y-42437D03*
X39291Y-43421D03*
X42291Y-42437D03*
X42291Y-43421D03*
X42291Y-32956D03*
X42291Y-33940D03*
X39291Y-32956D03*
X39291Y-33940D03*
X36291Y-32956D03*
X36291Y-33940D03*
X33291Y-32956D03*
X33291Y-33940D03*
X7098Y-32956D03*
X7098Y-33940D03*
X7094Y-42437D03*
X7094Y-43421D03*
X10094Y-32956D03*
X10094Y-33940D03*
G54D13*
X9842Y-24090D03*
G54D14*
X9842Y-25090D03*
X9842Y-26090D03*
X9842Y-27090D03*
G54D11*
X7098Y-17716D03*
X8094Y-17716D03*
X9094Y-17716D03*
X10094Y-17716D03*
X11094Y-17716D03*
X12094Y-17716D03*
X13094Y-17716D03*
X14094Y-17716D03*
X15094Y-17716D03*
X16094Y-17716D03*
X17094Y-17716D03*
X18094Y-17716D03*
X18094Y-8267D03*
X17094Y-8267D03*
X16094Y-8267D03*
X15094Y-8267D03*
X14094Y-8267D03*
X13094Y-8267D03*
X12094Y-8267D03*
X11094Y-8267D03*
X10094Y-8267D03*
X9094Y-8267D03*
X8094Y-8267D03*
X7098Y-8267D03*
X32295Y-17716D03*
X33291Y-17716D03*
X34291Y-17716D03*
X35291Y-17716D03*
X36291Y-17716D03*
X37291Y-17716D03*
X38291Y-17716D03*
X39291Y-17716D03*
X40291Y-17716D03*
X41291Y-17716D03*
X42291Y-17716D03*
X43291Y-17716D03*
X43291Y-8267D03*
X42291Y-8267D03*
X41291Y-8267D03*
X40291Y-8267D03*
X39291Y-8267D03*
X38291Y-8267D03*
X37291Y-8267D03*
X36291Y-8267D03*
X35291Y-8267D03*
X34291Y-8267D03*
X33291Y-8267D03*
X32295Y-8267D03*
X19696Y-30314D03*
X20692Y-30314D03*
X21692Y-30314D03*
X22692Y-30314D03*
X23692Y-30314D03*
X24692Y-30314D03*
X25692Y-30314D03*
X26692Y-30314D03*
X27692Y-30314D03*
X28692Y-30314D03*
X29692Y-30314D03*
X30692Y-30314D03*
X30692Y-20866D03*
X29692Y-20866D03*
X28692Y-20866D03*
X27692Y-20866D03*
X26692Y-20866D03*
X25692Y-20866D03*
X24692Y-20866D03*
X23692Y-20866D03*
X22692Y-20866D03*
X21692Y-20866D03*
X20692Y-20866D03*
X19696Y-20866D03*
X32295Y-30314D03*
X33291Y-30314D03*
X34291Y-30314D03*
X35291Y-30314D03*
X36291Y-30314D03*
X37291Y-30314D03*
X38291Y-30314D03*
X39291Y-30314D03*
X40291Y-30314D03*
X41291Y-30314D03*
X42291Y-30314D03*
X43291Y-30314D03*
X43291Y-20866D03*
X42291Y-20866D03*
X41291Y-20866D03*
X40291Y-20866D03*
X39291Y-20866D03*
X38291Y-20866D03*
X37291Y-20866D03*
X36291Y-20866D03*
X35291Y-20866D03*
X34291Y-20866D03*
X33291Y-20866D03*
X32295Y-20866D03*
X7098Y-42913D03*
X8094Y-42913D03*
X9094Y-42913D03*
X10094Y-42913D03*
X11094Y-42913D03*
X12094Y-42913D03*
X13094Y-42913D03*
X14094Y-42913D03*
X15094Y-42913D03*
X16094Y-42913D03*
X17094Y-42913D03*
X18094Y-42913D03*
X18094Y-33464D03*
X17094Y-33464D03*
X16094Y-33464D03*
X15094Y-33464D03*
X14094Y-33464D03*
X13094Y-33464D03*
X12094Y-33464D03*
X11094Y-33464D03*
X10094Y-33464D03*
X9094Y-33464D03*
X8094Y-33464D03*
X7098Y-33464D03*
X19696Y-17716D03*
X20692Y-17716D03*
X21692Y-17716D03*
X22692Y-17716D03*
X23692Y-17716D03*
X24692Y-17716D03*
X25692Y-17716D03*
X26692Y-17716D03*
X27692Y-17716D03*
X28692Y-17716D03*
X29692Y-17716D03*
X30692Y-17716D03*
X30692Y-8267D03*
X29692Y-8267D03*
X28692Y-8267D03*
X27692Y-8267D03*
X26692Y-8267D03*
X25692Y-8267D03*
X24692Y-8267D03*
X23692Y-8267D03*
X22692Y-8267D03*
X21692Y-8267D03*
X20692Y-8267D03*
X19696Y-8267D03*
X19696Y-42913D03*
X20692Y-42913D03*
X21692Y-42913D03*
X22692Y-42913D03*
X23692Y-42913D03*
X24692Y-42913D03*
X25692Y-42913D03*
X26692Y-42913D03*
X27692Y-42913D03*
X28692Y-42913D03*
X29692Y-42913D03*
X30692Y-42913D03*
X30692Y-33464D03*
X29692Y-33464D03*
X28692Y-33464D03*
X27692Y-33464D03*
X26692Y-33464D03*
X25692Y-33464D03*
X24692Y-33464D03*
X23692Y-33464D03*
X22692Y-33464D03*
X21692Y-33464D03*
X20692Y-33464D03*
X19696Y-33464D03*
X32295Y-42913D03*
X33291Y-42913D03*
X34291Y-42913D03*
X35291Y-42913D03*
X36291Y-42913D03*
X37291Y-42913D03*
X38291Y-42913D03*
X39291Y-42913D03*
X40291Y-42913D03*
X41291Y-42913D03*
X42291Y-42913D03*
X43291Y-42913D03*
X43291Y-33464D03*
X42291Y-33464D03*
X41291Y-33464D03*
X40291Y-33464D03*
X39291Y-33464D03*
X38291Y-33464D03*
X37291Y-33464D03*
X36291Y-33464D03*
X35291Y-33464D03*
X34291Y-33464D03*
X33291Y-33464D03*
X32295Y-33464D03*
X7098Y-30314D03*
X8094Y-30314D03*
X9094Y-30314D03*
X10094Y-30314D03*
X11094Y-30314D03*
X12094Y-30314D03*
X13094Y-30314D03*
X14094Y-30314D03*
X15094Y-30314D03*
X16094Y-30314D03*
X17094Y-30314D03*
X18094Y-30314D03*
X18094Y-20866D03*
X17094Y-20866D03*
X16094Y-20866D03*
X15094Y-20866D03*
X14094Y-20866D03*
X13094Y-20866D03*
X12094Y-20866D03*
X11094Y-20866D03*
X10094Y-20866D03*
X9094Y-20866D03*
X8094Y-20866D03*
X7098Y-20866D03*
G54D15*
X17622Y-43437D03*
X24476Y-35980D03*
X18917Y-36303D03*
X25173Y-35429D03*
X32153Y-35629D03*
X30299Y-43433D03*
X42763Y-43047D03*
X38291Y-23047D03*
X37791Y-35448D03*
X37078Y-35980D03*
X7460Y-31960D03*
X6956Y-35629D03*
X25181Y-15279D03*
X24401Y-15275D03*
X18240Y-11031D03*
X11881Y-35980D03*
X12594Y-35448D03*
X9137Y-23303D03*
X18578Y-44366D03*
X17255Y-41980D03*
X34110Y-44503D03*
X34637Y-9389D03*
X29704Y-22047D03*
X29688Y-28307D03*
X15460Y-22047D03*
X9102Y-21511D03*
X34291Y-22047D03*
X37291Y-22047D03*
X33925Y-36314D03*
X35161Y-31881D03*
X21326Y-36311D03*
X22586Y-31877D03*
X8728Y-36318D03*
X9889Y-31984D03*
X17283Y-34917D03*
X42476Y-34917D03*
X29874Y-34921D03*
X40988Y-41877D03*
X15791Y-41877D03*
X22192Y-7720D03*
X30456Y-29759D03*
X21188Y-7720D03*
X20192Y-7720D03*
X30696Y-30948D03*
X24547Y-17122D03*
X23413Y-16350D03*
X23291Y-19303D03*
X14877Y-38791D03*
X29090Y-30771D03*
X27476Y-38787D03*
X27358Y-14622D03*
X26960Y-15181D03*
X26291Y-19751D03*
X27972Y-20263D03*
X28094Y-21318D03*
X8625Y-32043D03*
X9110Y-31562D03*
X9043Y-29744D03*
X23570Y-19751D03*
X27291Y-19303D03*
X27716Y-15940D03*
X25330Y-15877D03*
X24547Y-15818D03*
X22094Y-31122D03*
X30141Y-31122D03*
X33129Y-35460D03*
X31472Y-36173D03*
X17937Y-34385D03*
X17633Y-32200D03*
X8413Y-32468D03*
X41732Y-44039D03*
X29188Y-44500D03*
X28704Y-39645D03*
X21515Y-39767D03*
X20586Y-38877D03*
X18023Y-40110D03*
X17153Y-39295D03*
X36633Y-36665D03*
X37669Y-26267D03*
X36311Y-25799D03*
X18035Y-32354D03*
X18062Y-29783D03*
X14866Y-32649D03*
X15496Y-27688D03*
X11763Y-32767D03*
X12484Y-31279D03*
X14692Y-31267D03*
X14598Y-39098D03*
X13137Y-36657D03*
X13326Y-31559D03*
X11685Y-31267D03*
X17940Y-44342D03*
X17295Y-44342D03*
X16574Y-28125D03*
X12960Y-27838D03*
X13413Y-44023D03*
X13968Y-27830D03*
X18405Y-32200D03*
X40074Y-38791D03*
X28389Y-41877D03*
X15496Y-26303D03*
X15019Y-25968D03*
X27633Y-27716D03*
X39913Y-31881D03*
X15090Y-31283D03*
X27291Y-31283D03*
X24389Y-16562D03*
X26374Y-17149D03*
X26677Y-14901D03*
X25271Y-16574D03*
X28062Y-27704D03*
X13704Y-15956D03*
X14696Y-15956D03*
X14692Y-26200D03*
X27011Y-31562D03*
X14413Y-31562D03*
X39515Y-31877D03*
X24354Y-16165D03*
X25972Y-17145D03*
X26444Y-14578D03*
X25106Y-16208D03*
G54D16*
X17622Y-44649D02*
X17665Y-44692D01*
X17622Y-43437D02*
X17622Y-44649D01*
X16633Y-44692D02*
X17665Y-44692D01*
X17665Y-44692D02*
X18814Y-44692D01*
X11633Y-44590D02*
X16531Y-44590D01*
X11562Y-44590D02*
X11633Y-44590D01*
X18814Y-44692D02*
X18917Y-44590D01*
X16531Y-44590D02*
X16633Y-44692D01*
X11279Y-41460D02*
X11562Y-41744D01*
X11562Y-41744D02*
X11562Y-44590D01*
X23877Y-41460D02*
X24133Y-41716D01*
X24133Y-41716D02*
X24133Y-44586D01*
X7618Y-43488D02*
X7531Y-43401D01*
X7275Y-38877D02*
X7275Y-35629D01*
X7452Y-39055D02*
X7275Y-38877D01*
X7531Y-39133D02*
X7452Y-39055D01*
X7531Y-43401D02*
X7531Y-39133D01*
X24663Y-35938D02*
X24517Y-35938D01*
X24517Y-35938D02*
X24476Y-35980D01*
X18917Y-36303D02*
X18917Y-43842D01*
X18917Y-43842D02*
X18917Y-44590D01*
X24657Y-35944D02*
X24663Y-35938D01*
X24663Y-35938D02*
X25173Y-35429D01*
X11456Y-44590D02*
X11562Y-44590D01*
X32700Y-44590D02*
X32937Y-44826D01*
X36444Y-44826D02*
X36681Y-44590D01*
X32937Y-44826D02*
X36444Y-44826D01*
X24133Y-44586D02*
X28681Y-44586D01*
X30051Y-44826D02*
X30299Y-44578D01*
X28921Y-44826D02*
X30051Y-44826D01*
X28681Y-44586D02*
X28921Y-44826D01*
X32472Y-41476D02*
X32472Y-42000D01*
X30299Y-44590D02*
X32700Y-44590D01*
X30299Y-44590D02*
X30299Y-44578D01*
X32472Y-42000D02*
X32700Y-42228D01*
X32700Y-42228D02*
X32700Y-44590D01*
X32153Y-35629D02*
X32472Y-35948D01*
X32472Y-35948D02*
X32472Y-41476D01*
X36681Y-44590D02*
X36681Y-42822D01*
X36681Y-41665D02*
X36681Y-42822D01*
X36681Y-41665D02*
X36476Y-41460D01*
X30299Y-44578D02*
X30299Y-43433D01*
X24133Y-44590D02*
X24133Y-44586D01*
X18917Y-44590D02*
X24133Y-44590D01*
X7909Y-43779D02*
X8720Y-44590D01*
X42763Y-43515D02*
X42763Y-43047D01*
X41688Y-44590D02*
X42763Y-43515D01*
X36681Y-44590D02*
X41688Y-44590D01*
X7909Y-43779D02*
X7618Y-43488D01*
X8720Y-44590D02*
X11456Y-44590D01*
G54D17*
X38291Y-24085D02*
X38291Y-23047D01*
G54D16*
X37259Y-35980D02*
X37791Y-35448D01*
X37078Y-35980D02*
X37259Y-35980D01*
X11917Y-16019D02*
X11685Y-16251D01*
X11685Y-22141D02*
X12094Y-22551D01*
X11685Y-16251D02*
X11685Y-22141D01*
X40503Y-9951D02*
X40968Y-10415D01*
X40968Y-15555D02*
X40503Y-16019D01*
X40968Y-10415D02*
X40968Y-15555D01*
X9917Y-16019D02*
X9433Y-15535D01*
X9433Y-10435D02*
X9917Y-9951D01*
X9433Y-15535D02*
X9433Y-10435D01*
X7275Y-35153D02*
X7275Y-34314D01*
X7275Y-34314D02*
X7456Y-34133D01*
X7456Y-34133D02*
X7456Y-31964D01*
X7456Y-31964D02*
X7460Y-31960D01*
X7275Y-35153D02*
X7275Y-35629D01*
X6956Y-35629D02*
X7275Y-35629D01*
X7618Y-43488D02*
X7616Y-43486D01*
X17004Y-11027D02*
X18236Y-11027D01*
X24405Y-15279D02*
X25181Y-15279D01*
X24401Y-15275D02*
X24405Y-15279D01*
X18236Y-11027D02*
X18240Y-11031D01*
X11881Y-35980D02*
X12062Y-35980D01*
X12062Y-35980D02*
X12594Y-35448D01*
G54D18*
X9137Y-24385D02*
X9842Y-25090D01*
X9137Y-23303D02*
X9137Y-24385D01*
X18578Y-44366D02*
X18578Y-42712D01*
X18578Y-42712D02*
X17846Y-41980D01*
X17846Y-41980D02*
X17255Y-41980D01*
X34035Y-44503D02*
X33814Y-44283D01*
X34110Y-44503D02*
X34035Y-44503D01*
X34114Y-37917D02*
X33814Y-38216D01*
X33814Y-38216D02*
X33814Y-44283D01*
G54D16*
X34503Y-9523D02*
X34503Y-11492D01*
X34637Y-9389D02*
X34503Y-9523D01*
X29692Y-24090D02*
X29704Y-24078D01*
X29704Y-24078D02*
X29704Y-22047D01*
X29688Y-27094D02*
X29692Y-27090D01*
X29688Y-28307D02*
X29688Y-27094D01*
X9279Y-41460D02*
X9279Y-38460D01*
X21877Y-41460D02*
X21877Y-38460D01*
X34476Y-41460D02*
X34476Y-38460D01*
X29692Y-27090D02*
X29692Y-24090D01*
X15917Y-14492D02*
X15598Y-14811D01*
X15511Y-21996D02*
X15460Y-22047D01*
X15511Y-20350D02*
X15511Y-21996D01*
X15598Y-20263D02*
X15511Y-20350D01*
X15598Y-14811D02*
X15598Y-20263D01*
X34503Y-14492D02*
X34503Y-11492D01*
X15917Y-14492D02*
X15917Y-11492D01*
X9484Y-32389D02*
X8633Y-31539D01*
X8633Y-21980D02*
X9102Y-21511D01*
X8633Y-31539D02*
X8633Y-21980D01*
G54D17*
X34291Y-24085D02*
X34291Y-22047D01*
X37291Y-24085D02*
X37291Y-22047D01*
G54D16*
X34681Y-32385D02*
X35086Y-31980D01*
X33925Y-36314D02*
X34681Y-35559D01*
X34681Y-35559D02*
X34681Y-32385D01*
X35086Y-31956D02*
X35086Y-31980D01*
X35161Y-31881D02*
X35086Y-31956D01*
X22488Y-31976D02*
X22586Y-31877D01*
X22082Y-35555D02*
X22082Y-32381D01*
X21326Y-36311D02*
X22082Y-35555D01*
X22082Y-32381D02*
X22488Y-31976D01*
X9484Y-35562D02*
X9484Y-32389D01*
X8728Y-36318D02*
X9484Y-35562D01*
X9484Y-32389D02*
X9889Y-31984D01*
X15917Y-37917D02*
X15917Y-34917D01*
X17279Y-38460D02*
X17279Y-34921D01*
G54D18*
X17279Y-34921D02*
X17283Y-34917D01*
X42476Y-35082D02*
X42476Y-34917D01*
G54D16*
X42476Y-38460D02*
X42476Y-35082D01*
X29877Y-38460D02*
X29877Y-34925D01*
G54D18*
X29877Y-34925D02*
X29874Y-34921D01*
G54D16*
X28515Y-37917D02*
X28515Y-34917D01*
X41114Y-37917D02*
X41114Y-34917D01*
G54D18*
X22692Y-30314D02*
X22374Y-30314D01*
X22374Y-30314D02*
X22374Y-30311D01*
X22374Y-29996D02*
X22374Y-30311D01*
X22374Y-30311D02*
X22374Y-31677D01*
X22338Y-20767D02*
X22338Y-20994D01*
X22338Y-20994D02*
X22214Y-21118D01*
X22214Y-21118D02*
X22214Y-26385D01*
X22214Y-26385D02*
X22374Y-26545D01*
X22374Y-26545D02*
X22374Y-29996D01*
X22692Y-17716D02*
X22851Y-17875D01*
X22851Y-17875D02*
X22851Y-20254D01*
X22851Y-20254D02*
X22338Y-20767D01*
X22196Y-42417D02*
X22692Y-42913D01*
X22196Y-38145D02*
X22196Y-42417D01*
X21043Y-36992D02*
X22196Y-38145D01*
X21043Y-36188D02*
X21043Y-36992D01*
X21834Y-35397D02*
X21043Y-36188D01*
X21834Y-34783D02*
X21834Y-35397D01*
X21374Y-34322D02*
X21834Y-34783D01*
X21374Y-32677D02*
X21374Y-34322D01*
X22374Y-31677D02*
X21374Y-32677D01*
X40988Y-40826D02*
X40988Y-41877D01*
X40523Y-40362D02*
X40988Y-40826D01*
X40476Y-40314D02*
X40523Y-40362D01*
X40476Y-38460D02*
X40476Y-40314D01*
X39476Y-38460D02*
X39153Y-38783D01*
X39153Y-42299D02*
X39291Y-42437D01*
X39153Y-38783D02*
X39153Y-42299D01*
X15279Y-38460D02*
X15279Y-40314D01*
X15326Y-40362D02*
X15791Y-40826D01*
X15791Y-40826D02*
X15791Y-41877D01*
X15279Y-40314D02*
X15326Y-40362D01*
X13775Y-30157D02*
X14253Y-29679D01*
X14253Y-27714D02*
X13775Y-27236D01*
X14253Y-29679D02*
X14253Y-27714D01*
X14094Y-30314D02*
X13775Y-30314D01*
X14094Y-17716D02*
X14253Y-17875D01*
X14253Y-17875D02*
X14253Y-20254D01*
X14253Y-20254D02*
X13775Y-20732D01*
X13775Y-20732D02*
X13775Y-27236D01*
X13598Y-42417D02*
X14094Y-42913D01*
X13598Y-34783D02*
X13598Y-42417D01*
X13775Y-34606D02*
X13598Y-34783D01*
X13775Y-30157D02*
X13775Y-30192D01*
X13775Y-30192D02*
X13775Y-30314D01*
X13775Y-30314D02*
X13775Y-34606D01*
X8094Y-30314D02*
X7775Y-30314D01*
X7775Y-29996D02*
X7775Y-30314D01*
X7775Y-30314D02*
X7775Y-30633D01*
X7775Y-42594D02*
X7775Y-38228D01*
X7775Y-38228D02*
X7598Y-38051D01*
X7598Y-38051D02*
X7598Y-34673D01*
X7598Y-34673D02*
X7775Y-34496D01*
X7775Y-34496D02*
X7775Y-30633D01*
X8094Y-42913D02*
X7775Y-42594D01*
X8095Y-17716D02*
X8253Y-17874D01*
X8253Y-17874D02*
X8253Y-20254D01*
X8253Y-20254D02*
X7775Y-20732D01*
X7775Y-20732D02*
X7775Y-29996D01*
X8095Y-17716D02*
X8094Y-17716D01*
X13081Y-7280D02*
X12094Y-8267D01*
X21753Y-7280D02*
X13081Y-7280D01*
X22192Y-7720D02*
X21753Y-7280D01*
X13094Y-32956D02*
X12935Y-32797D01*
X12935Y-30926D02*
X13413Y-30448D01*
X12935Y-32797D02*
X12935Y-30926D01*
X13094Y-20866D02*
X13413Y-20866D01*
X13413Y-20547D02*
X13413Y-20866D01*
X13413Y-20866D02*
X13413Y-30448D01*
X13413Y-8586D02*
X13413Y-20547D01*
X13094Y-8267D02*
X13413Y-8586D01*
X14094Y-32956D02*
X13935Y-32797D01*
X13935Y-30926D02*
X14413Y-30448D01*
X13935Y-32797D02*
X13935Y-30926D01*
X14094Y-20866D02*
X14413Y-20866D01*
X14413Y-20547D02*
X14413Y-20866D01*
X14413Y-20866D02*
X14413Y-30448D01*
X14413Y-20547D02*
X14413Y-8586D01*
X14094Y-8267D02*
X14413Y-8586D01*
X30877Y-11226D02*
X29116Y-12988D01*
X29116Y-12988D02*
X29116Y-14283D01*
X29116Y-14283D02*
X30331Y-15499D01*
X30331Y-15499D02*
X30331Y-29634D01*
X30331Y-29634D02*
X30456Y-29759D01*
X30877Y-9653D02*
X30877Y-11226D01*
X15921Y-7440D02*
X15094Y-8267D01*
X20909Y-7440D02*
X15921Y-7440D01*
X21188Y-7720D02*
X20909Y-7440D01*
X16413Y-30145D02*
X15935Y-29667D01*
X15935Y-27729D02*
X16413Y-27251D01*
X15935Y-29667D02*
X15935Y-27729D01*
X16094Y-32956D02*
X15935Y-32797D01*
X15935Y-30926D02*
X16413Y-30448D01*
X15935Y-32797D02*
X15935Y-30926D01*
X16094Y-20866D02*
X16413Y-20866D01*
X16413Y-20547D02*
X16413Y-20866D01*
X16413Y-20866D02*
X16413Y-27251D01*
X16413Y-30145D02*
X16413Y-30448D01*
X16413Y-8586D02*
X16413Y-20547D01*
X16094Y-8267D02*
X16413Y-8586D01*
X6942Y-32801D02*
X6942Y-31029D01*
X7417Y-30443D02*
X7417Y-21185D01*
X7417Y-21185D02*
X7413Y-21181D01*
X7413Y-21181D02*
X7413Y-20866D01*
X7417Y-30555D02*
X7417Y-30443D01*
X6942Y-31029D02*
X7417Y-30555D01*
X7098Y-32956D02*
X6942Y-32801D01*
X6942Y-32801D02*
X6939Y-32797D01*
X7405Y-8574D02*
X7417Y-8586D01*
X7417Y-8586D02*
X7417Y-20547D01*
X7417Y-20547D02*
X7413Y-20551D01*
X7413Y-20551D02*
X7413Y-20866D01*
X7098Y-20866D02*
X7413Y-20866D01*
X7098Y-8267D02*
X7405Y-8574D01*
X7405Y-8574D02*
X7413Y-8582D01*
X17094Y-32956D02*
X16935Y-32797D01*
X16935Y-30926D02*
X17413Y-30448D01*
X16935Y-32797D02*
X16935Y-30926D01*
X17094Y-20866D02*
X17413Y-20866D01*
X16573Y-8788D02*
X16573Y-16742D01*
X17094Y-8267D02*
X16573Y-8788D01*
X17413Y-17582D02*
X17413Y-20866D01*
X17413Y-20866D02*
X17413Y-30448D01*
X16573Y-16742D02*
X17413Y-17582D01*
X8094Y-20866D02*
X8413Y-20866D01*
X8413Y-20547D02*
X8413Y-20866D01*
X8413Y-20866D02*
X8413Y-21185D01*
X8413Y-8586D02*
X8413Y-20547D01*
X8094Y-8267D02*
X8413Y-8586D01*
X8413Y-21185D02*
X8413Y-30447D01*
X8413Y-30447D02*
X7935Y-30925D01*
X7935Y-30925D02*
X7935Y-32797D01*
X7935Y-32797D02*
X8094Y-32956D01*
X18641Y-7720D02*
X18094Y-8267D01*
X20192Y-7720D02*
X18641Y-7720D01*
X10094Y-20866D02*
X10413Y-20866D01*
X10413Y-20547D02*
X10413Y-20866D01*
X10413Y-20866D02*
X10413Y-21185D01*
X10413Y-8586D02*
X10413Y-20547D01*
X10094Y-8267D02*
X10413Y-8586D01*
X10413Y-21185D02*
X10413Y-32637D01*
X10413Y-32637D02*
X10094Y-32956D01*
X16775Y-30169D02*
X17253Y-29691D01*
X17253Y-27757D02*
X16775Y-27279D01*
X17253Y-29691D02*
X17253Y-27757D01*
X17094Y-30314D02*
X16775Y-30314D01*
X17094Y-17716D02*
X17253Y-17875D01*
X17253Y-17875D02*
X17253Y-20250D01*
X17253Y-20250D02*
X16775Y-20728D01*
X16775Y-20728D02*
X16775Y-27279D01*
X16775Y-42594D02*
X17094Y-42913D01*
X16775Y-30169D02*
X16775Y-30314D01*
X16775Y-30314D02*
X16775Y-42594D01*
X16094Y-30314D02*
X15775Y-30314D01*
X16094Y-17716D02*
X16253Y-17875D01*
X16413Y-42594D02*
X16094Y-42913D01*
X16413Y-42102D02*
X16413Y-42594D01*
X15951Y-41640D02*
X16413Y-42102D01*
X15951Y-40760D02*
X15951Y-41640D01*
X15598Y-40407D02*
X15951Y-40760D01*
X15598Y-34783D02*
X15598Y-40407D01*
X15775Y-34606D02*
X15598Y-34783D01*
X15775Y-20732D02*
X15775Y-30314D01*
X15775Y-30314D02*
X15775Y-34606D01*
X16253Y-20254D02*
X15775Y-20732D01*
X16253Y-17875D02*
X16253Y-20254D01*
X30170Y-11707D02*
X28956Y-12922D01*
X28956Y-12922D02*
X28956Y-14349D01*
X28956Y-14349D02*
X30171Y-15565D01*
X30171Y-15565D02*
X30171Y-30510D01*
X30171Y-30510D02*
X30610Y-30948D01*
X30610Y-30948D02*
X30696Y-30948D01*
X30170Y-10360D02*
X30170Y-11707D01*
X24075Y-13855D02*
X24075Y-16650D01*
X24075Y-16650D02*
X24547Y-17122D01*
X23368Y-13148D02*
X23368Y-16305D01*
X23368Y-16305D02*
X23413Y-16350D01*
X11094Y-30314D02*
X10775Y-30314D01*
X10775Y-29996D02*
X10775Y-30314D01*
X10775Y-30314D02*
X10775Y-34606D01*
X11094Y-17716D02*
X11253Y-17875D01*
X11253Y-20254D02*
X10775Y-20732D01*
X11253Y-17875D02*
X11253Y-20254D01*
X10775Y-20732D02*
X10775Y-29996D01*
X10598Y-42417D02*
X11094Y-42913D01*
X10598Y-34783D02*
X10598Y-42417D01*
X10775Y-34606D02*
X10598Y-34783D01*
X10094Y-30314D02*
X10169Y-30389D01*
X9598Y-42417D02*
X10094Y-42913D01*
X9598Y-37783D02*
X9598Y-42417D01*
X10236Y-37145D02*
X9598Y-37783D01*
X10236Y-34783D02*
X10236Y-37145D01*
X9775Y-34322D02*
X10236Y-34783D01*
X9775Y-32822D02*
X9775Y-34322D01*
X10169Y-32429D02*
X9775Y-32822D01*
X10169Y-30389D02*
X10169Y-32429D01*
X9775Y-21248D02*
X8858Y-22165D01*
X8858Y-29078D02*
X10094Y-30314D01*
X8858Y-22165D02*
X8858Y-29078D01*
X10094Y-17716D02*
X10253Y-17875D01*
X9775Y-20732D02*
X9775Y-21248D01*
X9775Y-21248D02*
X9775Y-21255D01*
X10253Y-20254D02*
X9775Y-20732D01*
X10253Y-17875D02*
X10253Y-20254D01*
X22661Y-12441D02*
X22661Y-16006D01*
X23171Y-19183D02*
X23291Y-19303D01*
X23171Y-16516D02*
X23171Y-19183D01*
X22661Y-16006D02*
X23171Y-16516D01*
X15228Y-42437D02*
X16094Y-42437D01*
X14893Y-42102D02*
X15228Y-42437D01*
X14893Y-40362D02*
X14893Y-42102D01*
X14877Y-40346D02*
X14893Y-40362D01*
X14877Y-38791D02*
X14877Y-40346D01*
X12775Y-30153D02*
X13253Y-29675D01*
X13253Y-27729D02*
X12775Y-27251D01*
X13253Y-29675D02*
X13253Y-27729D01*
X13094Y-30314D02*
X12775Y-30314D01*
X13094Y-17716D02*
X13253Y-17875D01*
X13253Y-17875D02*
X13253Y-20254D01*
X13253Y-20254D02*
X12775Y-20732D01*
X12775Y-20732D02*
X12775Y-27251D01*
X12598Y-42417D02*
X13094Y-42913D01*
X12598Y-35838D02*
X12598Y-42417D01*
X12874Y-35562D02*
X12598Y-35838D01*
X12874Y-35326D02*
X12874Y-35562D01*
X12598Y-35051D02*
X12874Y-35326D01*
X12598Y-34783D02*
X12598Y-35051D01*
X12775Y-34606D02*
X12598Y-34783D01*
X12775Y-30153D02*
X12775Y-30314D01*
X12775Y-30314D02*
X12775Y-34606D01*
X29214Y-30284D02*
X29214Y-30648D01*
X29214Y-20571D02*
X29214Y-30284D01*
X29234Y-20550D02*
X29214Y-20571D01*
X29234Y-15815D02*
X29234Y-20550D01*
X28636Y-15216D02*
X29234Y-15815D01*
X28636Y-12790D02*
X28636Y-15216D01*
X29463Y-11962D02*
X28636Y-12790D01*
X29463Y-11067D02*
X29463Y-11962D01*
X29214Y-30648D02*
X29090Y-30771D01*
X25692Y-20866D02*
X26011Y-20866D01*
X26011Y-20866D02*
X26011Y-20838D01*
X25692Y-32956D02*
X25534Y-32797D01*
X25534Y-30926D02*
X26011Y-30448D01*
X25534Y-32797D02*
X25534Y-30926D01*
X26011Y-20547D02*
X26011Y-20838D01*
X26011Y-20838D02*
X26011Y-30448D01*
X25692Y-8267D02*
X25692Y-14381D01*
X26011Y-17582D02*
X26011Y-20547D01*
X25610Y-17181D02*
X26011Y-17582D01*
X25610Y-14464D02*
X25610Y-17181D01*
X25692Y-14381D02*
X25610Y-14464D01*
X20011Y-30448D02*
X20015Y-30444D01*
X19537Y-30922D02*
X20011Y-30448D01*
X19537Y-32797D02*
X19537Y-30922D01*
X19696Y-32956D02*
X19537Y-32797D01*
X20011Y-21181D02*
X20011Y-20866D01*
X20015Y-21185D02*
X20011Y-21181D01*
X20015Y-30444D02*
X20015Y-21185D01*
X20153Y-17066D02*
X20015Y-17204D01*
X19696Y-9295D02*
X19515Y-9476D01*
X19515Y-9476D02*
X19515Y-13086D01*
X19515Y-13086D02*
X20153Y-13724D01*
X20153Y-13724D02*
X20153Y-17066D01*
X19696Y-8267D02*
X19696Y-9295D01*
X20015Y-17204D02*
X20015Y-20547D01*
X19696Y-20866D02*
X20011Y-20866D01*
X20011Y-20566D02*
X20011Y-20866D01*
X22692Y-20866D02*
X22374Y-21185D01*
X23011Y-26956D02*
X23011Y-30177D01*
X22374Y-26318D02*
X23011Y-26956D01*
X22374Y-21185D02*
X22374Y-26318D01*
X23011Y-32637D02*
X22692Y-32956D01*
X23011Y-30177D02*
X23011Y-32637D01*
X22342Y-12307D02*
X22342Y-15913D01*
X22692Y-11956D02*
X22342Y-12307D01*
X22692Y-8267D02*
X22692Y-11956D01*
X23011Y-20547D02*
X22692Y-20866D01*
X23011Y-16582D02*
X23011Y-20547D01*
X22342Y-15913D02*
X23011Y-16582D01*
X27826Y-42437D02*
X28692Y-42437D01*
X27492Y-42102D02*
X27826Y-42437D01*
X27492Y-40362D02*
X27492Y-42102D01*
X27476Y-40346D02*
X27492Y-40362D01*
X27476Y-38787D02*
X27476Y-40346D01*
X38291Y-30314D02*
X37972Y-30314D01*
X38291Y-17716D02*
X38662Y-18088D01*
X37795Y-42417D02*
X38291Y-42913D01*
X37795Y-37783D02*
X37795Y-42417D01*
X38070Y-37507D02*
X37795Y-37783D01*
X38070Y-35326D02*
X38070Y-37507D01*
X37795Y-35051D02*
X38070Y-35326D01*
X37795Y-34783D02*
X37795Y-35051D01*
X37972Y-34606D02*
X37795Y-34783D01*
X37972Y-20732D02*
X37972Y-30314D01*
X37972Y-30314D02*
X37972Y-34606D01*
X38662Y-20041D02*
X37972Y-20732D01*
X38662Y-18088D02*
X38662Y-20041D01*
X7094Y-30314D02*
X6779Y-30314D01*
X6779Y-30314D02*
X6779Y-30334D01*
X6779Y-30629D02*
X6779Y-30334D01*
X6779Y-30334D02*
X6779Y-30000D01*
X7253Y-17875D02*
X7094Y-17716D01*
X6779Y-30000D02*
X6779Y-20733D01*
X6779Y-20733D02*
X7253Y-20259D01*
X7253Y-20259D02*
X7253Y-17875D01*
X7094Y-42913D02*
X6775Y-42594D01*
X6779Y-34322D02*
X6779Y-30629D01*
X6598Y-34503D02*
X6779Y-34322D01*
X6598Y-38051D02*
X6598Y-34503D01*
X6775Y-38228D02*
X6598Y-38051D01*
X6775Y-42594D02*
X6775Y-38228D01*
X26635Y-13896D02*
X27358Y-14619D01*
X27358Y-14619D02*
X27358Y-14622D01*
X26960Y-15181D02*
X26653Y-15488D01*
X26653Y-15488D02*
X26653Y-17267D01*
X26653Y-17267D02*
X26171Y-17749D01*
X26171Y-17749D02*
X26171Y-19632D01*
X26171Y-19632D02*
X26291Y-19751D01*
X27570Y-19185D02*
X27570Y-20744D01*
X27996Y-13842D02*
X27996Y-16059D01*
X27996Y-16059D02*
X27331Y-16723D01*
X27331Y-16723D02*
X27331Y-18945D01*
X27331Y-18945D02*
X27570Y-19185D01*
X27342Y-13188D02*
X27996Y-13842D01*
X27570Y-20744D02*
X27692Y-20866D01*
X28692Y-30314D02*
X28374Y-30314D01*
X28374Y-29996D02*
X28374Y-30314D01*
X28374Y-30314D02*
X28374Y-34606D01*
X29015Y-42590D02*
X28692Y-42913D01*
X29015Y-42102D02*
X29015Y-42590D01*
X28549Y-41636D02*
X29015Y-42102D01*
X28549Y-40760D02*
X28549Y-41636D01*
X28196Y-40407D02*
X28549Y-40760D01*
X28196Y-34783D02*
X28196Y-40407D01*
X28374Y-34606D02*
X28196Y-34783D01*
X28692Y-17716D02*
X28914Y-17938D01*
X28374Y-20736D02*
X28374Y-29996D01*
X28914Y-20195D02*
X28374Y-20736D01*
X28914Y-17938D02*
X28914Y-20195D01*
X28011Y-20181D02*
X28011Y-20224D01*
X28156Y-12588D02*
X28156Y-16125D01*
X28156Y-16125D02*
X27728Y-16553D01*
X27728Y-16553D02*
X27728Y-16854D01*
X27728Y-16854D02*
X28011Y-17137D01*
X28011Y-17137D02*
X28011Y-20181D01*
X28049Y-12481D02*
X28156Y-12588D01*
X28011Y-20224D02*
X27972Y-20263D01*
X28756Y-11774D02*
X28756Y-12216D01*
X28214Y-21199D02*
X28094Y-21318D01*
X28214Y-20669D02*
X28214Y-21199D01*
X28370Y-20513D02*
X28214Y-20669D01*
X28370Y-16606D02*
X28370Y-20513D01*
X28316Y-16552D02*
X28370Y-16606D01*
X28316Y-12657D02*
X28316Y-16552D01*
X28756Y-12216D02*
X28316Y-12657D01*
X41291Y-32956D02*
X41132Y-32797D01*
X41132Y-30926D02*
X41610Y-30448D01*
X41132Y-32797D02*
X41132Y-30926D01*
X41291Y-20866D02*
X41610Y-20866D01*
X41822Y-20334D02*
X41610Y-20547D01*
X41822Y-8799D02*
X41822Y-20334D01*
X41291Y-8267D02*
X41822Y-8799D01*
X41610Y-20547D02*
X41610Y-20866D01*
X41610Y-20866D02*
X41610Y-30448D01*
X20692Y-30314D02*
X20374Y-30314D01*
X20374Y-30314D02*
X20374Y-30334D01*
X20374Y-29996D02*
X20374Y-30334D01*
X20374Y-30334D02*
X20374Y-34606D01*
X20694Y-17716D02*
X20851Y-17874D01*
X20851Y-17874D02*
X20851Y-20254D01*
X20851Y-20254D02*
X20374Y-20732D01*
X20374Y-20732D02*
X20374Y-29996D01*
X20692Y-17716D02*
X20694Y-17716D01*
X20196Y-42417D02*
X20692Y-42913D01*
X20196Y-34783D02*
X20196Y-42417D01*
X20374Y-34606D02*
X20196Y-34783D01*
X11094Y-32956D02*
X10935Y-32797D01*
X10935Y-30926D02*
X11413Y-30448D01*
X10935Y-32797D02*
X10935Y-30926D01*
X11094Y-20866D02*
X11413Y-20866D01*
X11413Y-20547D02*
X11413Y-20866D01*
X11413Y-20866D02*
X11413Y-30448D01*
X11413Y-8586D02*
X11413Y-20547D01*
X11094Y-8267D02*
X11413Y-8586D01*
X33291Y-42913D02*
X32964Y-42586D01*
X32972Y-34606D02*
X32972Y-30314D01*
X32972Y-34606D02*
X32795Y-34783D01*
X32791Y-34787D02*
X32795Y-34783D01*
X32791Y-38157D02*
X32791Y-34787D01*
X32964Y-38330D02*
X32791Y-38157D01*
X32964Y-42586D02*
X32964Y-38330D01*
X33291Y-30314D02*
X32972Y-30314D01*
X33291Y-17716D02*
X33450Y-17875D01*
X33450Y-17875D02*
X33450Y-20254D01*
X33450Y-20254D02*
X32972Y-20732D01*
X32972Y-20732D02*
X32972Y-30314D01*
X39291Y-30314D02*
X38972Y-30314D01*
X39291Y-17716D02*
X39662Y-18088D01*
X38795Y-42417D02*
X39291Y-42913D01*
X38795Y-34783D02*
X38795Y-42417D01*
X38972Y-34606D02*
X38795Y-34783D01*
X38972Y-20732D02*
X38972Y-30314D01*
X38972Y-30314D02*
X38972Y-34606D01*
X39662Y-20041D02*
X38972Y-20732D01*
X39662Y-18088D02*
X39662Y-20041D01*
X8661Y-34661D02*
X8917Y-34917D01*
X8661Y-33129D02*
X8661Y-34661D01*
X8744Y-33047D02*
X8661Y-33129D01*
X8744Y-32161D02*
X8744Y-33047D01*
X8625Y-32043D02*
X8744Y-32161D01*
X9578Y-31094D02*
X9110Y-31562D01*
X9578Y-30279D02*
X9578Y-31094D01*
X9043Y-29744D02*
X9578Y-30279D01*
X23214Y-23628D02*
X22751Y-24090D01*
X23214Y-20666D02*
X23214Y-23628D01*
X23570Y-20309D02*
X23214Y-20666D01*
X23570Y-19751D02*
X23570Y-20309D01*
X27171Y-19183D02*
X27291Y-19303D01*
X27171Y-16485D02*
X27171Y-19183D01*
X27716Y-15940D02*
X27171Y-16485D01*
X25196Y-34779D02*
X25196Y-35059D01*
X25374Y-34602D02*
X25196Y-34779D01*
X25692Y-42913D02*
X25196Y-42417D01*
X25374Y-34602D02*
X25374Y-30314D01*
X25196Y-35842D02*
X25196Y-42417D01*
X25468Y-35570D02*
X25196Y-35842D01*
X25468Y-35330D02*
X25468Y-35570D01*
X25196Y-35059D02*
X25468Y-35330D01*
X25692Y-30314D02*
X25374Y-30314D01*
X25374Y-29996D02*
X25374Y-30314D01*
X25851Y-17875D02*
X25851Y-20254D01*
X25851Y-20254D02*
X25374Y-20732D01*
X25374Y-20732D02*
X25374Y-29996D01*
X25692Y-17716D02*
X25851Y-17875D01*
X25271Y-15818D02*
X25330Y-15877D01*
X24547Y-15818D02*
X25271Y-15818D01*
X30141Y-31122D02*
X31492Y-32472D01*
X20883Y-37284D02*
X20883Y-34547D01*
X20883Y-34547D02*
X21214Y-34216D01*
X21214Y-34216D02*
X21214Y-32610D01*
X21214Y-32610D02*
X22094Y-31730D01*
X22094Y-31730D02*
X22094Y-31122D01*
X21515Y-37917D02*
X20883Y-37284D01*
X33570Y-35460D02*
X34114Y-34917D01*
X33129Y-35460D02*
X33570Y-35460D01*
X31492Y-36153D02*
X31472Y-36173D01*
X31492Y-32472D02*
X31492Y-36153D01*
X17633Y-32200D02*
X17633Y-34082D01*
X8413Y-37413D02*
X8917Y-37917D01*
X17771Y-34220D02*
X17937Y-34385D01*
X8413Y-37413D02*
X8413Y-32468D01*
X17633Y-34082D02*
X17771Y-34220D01*
X41795Y-41779D02*
X41795Y-43976D01*
X41795Y-43976D02*
X41732Y-44039D01*
X41476Y-41460D02*
X41795Y-41779D01*
X29204Y-38787D02*
X28877Y-38460D01*
X29204Y-44484D02*
X29204Y-38787D01*
X29188Y-44500D02*
X29204Y-44484D01*
X28877Y-39818D02*
X28877Y-41460D01*
X28704Y-39645D02*
X28877Y-39818D01*
X21476Y-39767D02*
X21515Y-39767D01*
X20586Y-38877D02*
X21476Y-39767D01*
X17968Y-40110D02*
X18023Y-40110D01*
X17153Y-39295D02*
X17968Y-40110D01*
X19692Y-30314D02*
X19377Y-30314D01*
X19377Y-23685D02*
X19539Y-23846D01*
X19377Y-27913D02*
X19377Y-30314D01*
X19377Y-30314D02*
X19377Y-30629D01*
X19539Y-27751D02*
X19377Y-27913D01*
X19539Y-23846D02*
X19539Y-27751D01*
X19196Y-42417D02*
X19692Y-42913D01*
X19377Y-30629D02*
X19377Y-34484D01*
X19377Y-34484D02*
X19196Y-34665D01*
X19196Y-34665D02*
X19196Y-42417D01*
X19692Y-17716D02*
X19851Y-17875D01*
X19377Y-20732D02*
X19377Y-23685D01*
X19377Y-23685D02*
X19377Y-23692D01*
X19851Y-20258D02*
X19377Y-20732D01*
X19851Y-17875D02*
X19851Y-20258D01*
X36291Y-24085D02*
X36311Y-24105D01*
X36594Y-36625D02*
X36633Y-36665D01*
X36594Y-34503D02*
X36594Y-36625D01*
X36874Y-34224D02*
X36594Y-34503D01*
X37275Y-34224D02*
X36874Y-34224D01*
X37669Y-33830D02*
X37275Y-34224D01*
X37669Y-26267D02*
X37669Y-33830D01*
X36311Y-24105D02*
X36311Y-25799D01*
X28692Y-20866D02*
X29011Y-20866D01*
X28692Y-32956D02*
X28534Y-32797D01*
X29011Y-20547D02*
X29074Y-20484D01*
X29011Y-30448D02*
X29011Y-20866D01*
X29011Y-20866D02*
X29011Y-20547D01*
X28534Y-30926D02*
X29011Y-30448D01*
X28534Y-32797D02*
X28534Y-30926D01*
X28476Y-15279D02*
X28476Y-15283D01*
X28476Y-15283D02*
X29074Y-15881D01*
X29074Y-15881D02*
X29074Y-20484D01*
X29074Y-11641D02*
X29074Y-12125D01*
X28692Y-11259D02*
X29074Y-11641D01*
X28692Y-11259D02*
X28692Y-8267D01*
X28476Y-12723D02*
X28476Y-15279D01*
X29074Y-12125D02*
X28476Y-12723D01*
X26692Y-30314D02*
X26374Y-30314D01*
X26374Y-29996D02*
X26374Y-30314D01*
X26374Y-30314D02*
X26374Y-34606D01*
X26851Y-17875D02*
X26851Y-20250D01*
X26851Y-20250D02*
X26374Y-20728D01*
X26374Y-20728D02*
X26374Y-29996D01*
X26692Y-17716D02*
X26851Y-17875D01*
X26196Y-42417D02*
X26692Y-42913D01*
X26196Y-34783D02*
X26196Y-42417D01*
X26374Y-34606D02*
X26196Y-34783D01*
X23692Y-30314D02*
X23374Y-30314D01*
X23374Y-29996D02*
X23374Y-30314D01*
X23374Y-30314D02*
X23374Y-34606D01*
X23851Y-17875D02*
X23851Y-20254D01*
X23851Y-20254D02*
X23374Y-20732D01*
X23374Y-20732D02*
X23374Y-29996D01*
X23692Y-17716D02*
X23851Y-17875D01*
X23196Y-42417D02*
X23692Y-42913D01*
X23196Y-34783D02*
X23196Y-42417D01*
X23374Y-34606D02*
X23196Y-34783D01*
X29692Y-30314D02*
X29374Y-30314D01*
X29374Y-29996D02*
X29374Y-30314D01*
X29374Y-30314D02*
X29374Y-42594D01*
X29374Y-42594D02*
X29692Y-42913D01*
X29692Y-17716D02*
X29851Y-17875D01*
X29374Y-20732D02*
X29374Y-29996D01*
X29847Y-20258D02*
X29374Y-20732D01*
X29851Y-20258D02*
X29847Y-20258D01*
X29851Y-17875D02*
X29851Y-20258D01*
X29692Y-20866D02*
X30011Y-20866D01*
X30011Y-20866D02*
X30011Y-20862D01*
X29692Y-32956D02*
X29534Y-32797D01*
X30011Y-30448D02*
X30011Y-20862D01*
X30011Y-20862D02*
X30011Y-20547D01*
X29534Y-30926D02*
X30011Y-30448D01*
X29534Y-32797D02*
X29534Y-30926D01*
X29783Y-10937D02*
X29783Y-11868D01*
X29783Y-11868D02*
X28796Y-12856D01*
X28796Y-12856D02*
X28796Y-15150D01*
X28796Y-15150D02*
X29394Y-15749D01*
X29394Y-15749D02*
X29394Y-16965D01*
X29394Y-16965D02*
X29783Y-17354D01*
X29692Y-10846D02*
X29692Y-8267D01*
X30011Y-17582D02*
X30011Y-20547D01*
X29783Y-17354D02*
X30011Y-17582D01*
X29692Y-10846D02*
X29783Y-10937D01*
X26692Y-32956D02*
X26534Y-32797D01*
X26534Y-30926D02*
X27011Y-30448D01*
X26534Y-32797D02*
X26534Y-30926D01*
X26692Y-20866D02*
X27011Y-20866D01*
X27011Y-20547D02*
X27011Y-20866D01*
X27011Y-20866D02*
X27011Y-30448D01*
X26956Y-15582D02*
X27240Y-15299D01*
X27240Y-15299D02*
X27240Y-14976D01*
X27240Y-14976D02*
X26956Y-14692D01*
X26956Y-17480D02*
X27011Y-17535D01*
X27011Y-17535D02*
X27011Y-20547D01*
X26692Y-8267D02*
X26314Y-8645D01*
X26314Y-14051D02*
X26314Y-8645D01*
X26956Y-14692D02*
X26314Y-14051D01*
X26956Y-17480D02*
X26956Y-15582D01*
X23692Y-20866D02*
X24011Y-20866D01*
X23692Y-32956D02*
X23534Y-32797D01*
X24011Y-30448D02*
X24011Y-20866D01*
X24011Y-20866D02*
X24011Y-20547D01*
X23534Y-30926D02*
X24011Y-30448D01*
X23534Y-32797D02*
X23534Y-30926D01*
X23692Y-8267D02*
X23692Y-17263D01*
X23692Y-17263D02*
X24011Y-17582D01*
X24011Y-17582D02*
X24011Y-20547D01*
X31585Y-8946D02*
X31585Y-10746D01*
X31011Y-29996D02*
X30692Y-30314D01*
X31011Y-17582D02*
X31011Y-29996D01*
X30491Y-17062D02*
X31011Y-17582D01*
X30491Y-15432D02*
X30491Y-17062D01*
X29276Y-14217D02*
X30491Y-15432D01*
X29276Y-13055D02*
X29276Y-14217D01*
X31585Y-10746D02*
X29276Y-13055D01*
X20692Y-32956D02*
X20534Y-32797D01*
X20534Y-30926D02*
X21011Y-30448D01*
X20534Y-32797D02*
X20534Y-30926D01*
X20692Y-20866D02*
X21011Y-20866D01*
X21011Y-21185D02*
X21011Y-20866D01*
X21011Y-21185D02*
X21011Y-30448D01*
X21011Y-20866D02*
X21011Y-20547D01*
X20692Y-9716D02*
X20220Y-10188D01*
X20220Y-10188D02*
X20220Y-13565D01*
X20220Y-13565D02*
X20858Y-14202D01*
X20858Y-14202D02*
X20858Y-17429D01*
X20858Y-17429D02*
X21011Y-17582D01*
X21011Y-17582D02*
X21011Y-20547D01*
X20692Y-8267D02*
X20692Y-9716D01*
X18062Y-29783D02*
X18830Y-30551D01*
X18830Y-30551D02*
X18830Y-32299D01*
X18830Y-32299D02*
X18602Y-32527D01*
X18602Y-32527D02*
X18208Y-32527D01*
X18208Y-32527D02*
X18035Y-32354D01*
X15496Y-32019D02*
X14866Y-32649D01*
X15496Y-27688D02*
X15496Y-32019D01*
X15094Y-27090D02*
X15094Y-29644D01*
X12484Y-32047D02*
X11763Y-32767D01*
X12484Y-31279D02*
X12484Y-32047D01*
X14573Y-31148D02*
X14692Y-31267D01*
X14573Y-30165D02*
X14573Y-31148D01*
X15094Y-29644D02*
X14573Y-30165D01*
X12094Y-27090D02*
X12437Y-27433D01*
X14717Y-42536D02*
X15094Y-42913D01*
X14717Y-39217D02*
X14717Y-42536D01*
X14598Y-39098D02*
X14717Y-39217D01*
X13251Y-36543D02*
X13137Y-36657D01*
X13251Y-34677D02*
X13251Y-36543D01*
X13433Y-34496D02*
X13251Y-34677D01*
X13433Y-31665D02*
X13433Y-34496D01*
X13326Y-31559D02*
X13433Y-31665D01*
X11860Y-31267D02*
X11685Y-31267D01*
X12437Y-30691D02*
X11860Y-31267D01*
X12437Y-27433D02*
X12437Y-30691D01*
X38291Y-32956D02*
X38132Y-32797D01*
X38132Y-30930D02*
X38610Y-30452D01*
X38132Y-32797D02*
X38132Y-30930D01*
X38291Y-20866D02*
X38610Y-20866D01*
X38822Y-20334D02*
X38610Y-20547D01*
X38822Y-8799D02*
X38822Y-20334D01*
X38291Y-8267D02*
X38822Y-8799D01*
X38610Y-20547D02*
X38610Y-20866D01*
X38610Y-20866D02*
X38610Y-30452D01*
X35291Y-20866D02*
X35610Y-20866D01*
X35822Y-20334D02*
X35610Y-20547D01*
X35291Y-10826D02*
X35822Y-11358D01*
X35822Y-11358D02*
X35822Y-20334D01*
X35291Y-8267D02*
X35291Y-10826D01*
X35610Y-32637D02*
X35291Y-32956D01*
X35610Y-20547D02*
X35610Y-20866D01*
X35610Y-20866D02*
X35610Y-32637D01*
X32610Y-30452D02*
X32614Y-30448D01*
X32136Y-32797D02*
X32136Y-30926D01*
X32136Y-30926D02*
X32610Y-30452D01*
X32295Y-32956D02*
X32136Y-32797D01*
X32614Y-20870D02*
X32610Y-20866D01*
X32614Y-30448D02*
X32614Y-20870D01*
X32610Y-12346D02*
X32614Y-12350D01*
X32295Y-8267D02*
X32295Y-12031D01*
X32295Y-12031D02*
X32610Y-12346D01*
X32610Y-20551D02*
X32610Y-20866D01*
X32614Y-20547D02*
X32610Y-20551D01*
X32614Y-12350D02*
X32614Y-20547D01*
X32295Y-20866D02*
X32610Y-20866D01*
X17295Y-44325D02*
X17295Y-44342D01*
X16615Y-43645D02*
X17295Y-44325D01*
X17940Y-43066D02*
X18094Y-42913D01*
X17940Y-44342D02*
X17940Y-43066D01*
X16615Y-38200D02*
X16615Y-43645D01*
X16615Y-43645D02*
X16615Y-43654D01*
X16574Y-38160D02*
X16615Y-38200D01*
X16574Y-28125D02*
X16574Y-38160D01*
X11960Y-42779D02*
X12094Y-42913D01*
X11960Y-38413D02*
X11960Y-42779D01*
X11437Y-37889D02*
X11960Y-38413D01*
X11437Y-31917D02*
X11437Y-37889D01*
X12615Y-30738D02*
X11437Y-31917D01*
X12615Y-30087D02*
X12615Y-30738D01*
X12960Y-29742D02*
X12615Y-30087D01*
X12960Y-27838D02*
X12960Y-29742D01*
X13413Y-42299D02*
X13413Y-44023D01*
X12960Y-41846D02*
X13413Y-42299D01*
X12960Y-38322D02*
X12960Y-41846D01*
X13438Y-37845D02*
X12960Y-38322D01*
X13438Y-34717D02*
X13438Y-37845D01*
X13615Y-34540D02*
X13438Y-34717D01*
X13615Y-28183D02*
X13615Y-34540D01*
X13968Y-27830D02*
X13615Y-28183D01*
X18094Y-27090D02*
X17771Y-27413D01*
X17771Y-31566D02*
X18405Y-32200D01*
X17771Y-27413D02*
X17771Y-31566D01*
X36291Y-20866D02*
X36610Y-20866D01*
X36291Y-32956D02*
X36132Y-32797D01*
X36132Y-30930D02*
X36610Y-30452D01*
X36132Y-32797D02*
X36132Y-30930D01*
X36822Y-20334D02*
X36610Y-20547D01*
X36610Y-20547D02*
X36610Y-20866D01*
X36610Y-20866D02*
X36610Y-30452D01*
X36291Y-8267D02*
X36291Y-10826D01*
X36822Y-11358D02*
X36822Y-20334D01*
X36291Y-10826D02*
X36822Y-11358D01*
X36291Y-30314D02*
X35972Y-30314D01*
X36291Y-17716D02*
X36662Y-18088D01*
X35795Y-42417D02*
X36291Y-42913D01*
X35795Y-34783D02*
X35795Y-42417D01*
X35972Y-34606D02*
X35795Y-34783D01*
X35972Y-20732D02*
X35972Y-30314D01*
X35972Y-30314D02*
X35972Y-34606D01*
X36662Y-20041D02*
X35972Y-20732D01*
X36662Y-18088D02*
X36662Y-20041D01*
X42291Y-30314D02*
X41972Y-30314D01*
X42291Y-17716D02*
X42662Y-18088D01*
X41972Y-42594D02*
X42291Y-42913D01*
X41972Y-20732D02*
X41972Y-30314D01*
X41972Y-30314D02*
X41972Y-42594D01*
X42662Y-20041D02*
X41972Y-20732D01*
X42662Y-18088D02*
X42662Y-20041D01*
X42291Y-32956D02*
X42132Y-32797D01*
X42132Y-30930D02*
X42610Y-30452D01*
X42132Y-32797D02*
X42132Y-30930D01*
X42291Y-20866D02*
X42610Y-20866D01*
X42822Y-20334D02*
X42610Y-20547D01*
X42822Y-8799D02*
X42822Y-20334D01*
X42291Y-8267D02*
X42822Y-8799D01*
X42610Y-20547D02*
X42610Y-20866D01*
X42610Y-20866D02*
X42610Y-30452D01*
X39291Y-20866D02*
X39610Y-20866D01*
X39822Y-20334D02*
X39610Y-20547D01*
X39822Y-8799D02*
X39822Y-20334D01*
X39291Y-8267D02*
X39822Y-8799D01*
X39236Y-32901D02*
X39291Y-32956D01*
X39236Y-31759D02*
X39236Y-32901D01*
X39610Y-31385D02*
X39236Y-31759D01*
X39610Y-20547D02*
X39610Y-20866D01*
X39610Y-20866D02*
X39610Y-31385D01*
X33291Y-20866D02*
X33610Y-20866D01*
X33291Y-32956D02*
X33132Y-32797D01*
X33132Y-30926D02*
X33610Y-30448D01*
X33132Y-32797D02*
X33132Y-30926D01*
X33610Y-20547D02*
X33610Y-20866D01*
X33610Y-20866D02*
X33610Y-30448D01*
X33291Y-8267D02*
X33291Y-11645D01*
X33610Y-17582D02*
X33610Y-20547D01*
X33318Y-17291D02*
X33610Y-17582D01*
X33318Y-11673D02*
X33318Y-17291D01*
X33291Y-11645D02*
X33318Y-11673D01*
X41291Y-30314D02*
X40972Y-30314D01*
X41291Y-17716D02*
X41662Y-18088D01*
X41610Y-42594D02*
X41291Y-42913D01*
X41610Y-42267D02*
X41610Y-42594D01*
X41271Y-41929D02*
X41610Y-42267D01*
X41271Y-41728D02*
X41271Y-41929D01*
X41148Y-41604D02*
X41271Y-41728D01*
X41148Y-40760D02*
X41148Y-41604D01*
X40795Y-40407D02*
X41148Y-40760D01*
X40795Y-34783D02*
X40795Y-40407D01*
X40972Y-34606D02*
X40795Y-34783D01*
X40972Y-30181D02*
X40972Y-30314D01*
X40972Y-30314D02*
X40972Y-34606D01*
X40972Y-30181D02*
X40972Y-30181D01*
X40972Y-21464D02*
X40972Y-30181D01*
X40972Y-21464D02*
X40972Y-21464D01*
X40972Y-20732D02*
X40972Y-21464D01*
X41662Y-20041D02*
X40972Y-20732D01*
X41662Y-18088D02*
X41662Y-20041D01*
X35291Y-30314D02*
X34972Y-30314D01*
X34972Y-30314D02*
X34972Y-30311D01*
X35291Y-17716D02*
X35662Y-18088D01*
X34795Y-42417D02*
X35291Y-42913D01*
X34795Y-37523D02*
X34795Y-42417D01*
X35433Y-36885D02*
X34795Y-37523D01*
X35433Y-34783D02*
X35433Y-36885D01*
X34972Y-34322D02*
X35433Y-34783D01*
X34972Y-32822D02*
X34972Y-34322D01*
X35450Y-32345D02*
X34972Y-32822D01*
X35450Y-30925D02*
X35450Y-32345D01*
X34972Y-30447D02*
X35450Y-30925D01*
X34972Y-20732D02*
X34972Y-30311D01*
X34972Y-30311D02*
X34972Y-30447D01*
X35662Y-20041D02*
X34972Y-20732D01*
X35662Y-18088D02*
X35662Y-20041D01*
X32295Y-30314D02*
X31976Y-30314D01*
X32295Y-17716D02*
X32450Y-17871D01*
X31795Y-42413D02*
X32295Y-42913D01*
X31795Y-34669D02*
X31795Y-42413D01*
X31976Y-34488D02*
X31795Y-34669D01*
X31976Y-20732D02*
X31976Y-30314D01*
X31976Y-30314D02*
X31976Y-34488D01*
X32450Y-20258D02*
X31976Y-20732D01*
X32450Y-17871D02*
X32450Y-20258D01*
X40090Y-40362D02*
X40090Y-42102D01*
X40090Y-42102D02*
X40425Y-42437D01*
X41291Y-42437D02*
X40425Y-42437D01*
X40074Y-40346D02*
X40090Y-40362D01*
X40074Y-38791D02*
X40074Y-40346D01*
X27877Y-38460D02*
X27877Y-40314D01*
X27877Y-40314D02*
X27925Y-40362D01*
X27925Y-40362D02*
X28389Y-40826D01*
X28389Y-40826D02*
X28389Y-41877D01*
X26692Y-42437D02*
X26559Y-42303D01*
X26559Y-38779D02*
X26877Y-38460D01*
X26559Y-42303D02*
X26559Y-38779D01*
X15161Y-25968D02*
X15019Y-25968D01*
X15496Y-26303D02*
X15161Y-25968D01*
X14917Y-14492D02*
X14917Y-15775D01*
X14917Y-15775D02*
X14976Y-15834D01*
X14976Y-15834D02*
X14976Y-16079D01*
X14976Y-16079D02*
X14733Y-16322D01*
X14733Y-16322D02*
X14733Y-25682D01*
X14733Y-25682D02*
X15019Y-25968D01*
X27331Y-31242D02*
X27291Y-31283D01*
X27331Y-28018D02*
X27331Y-31242D01*
X27633Y-27716D02*
X27331Y-28018D01*
X39913Y-31881D02*
X39675Y-32119D01*
X39675Y-32119D02*
X39675Y-32666D01*
X39675Y-32666D02*
X39770Y-32760D01*
X39770Y-32760D02*
X39770Y-37573D01*
X39770Y-37573D02*
X40114Y-37917D01*
X14573Y-37573D02*
X14573Y-31881D01*
X14573Y-31881D02*
X14573Y-31800D01*
X14573Y-31800D02*
X15090Y-31283D01*
X14917Y-37917D02*
X14573Y-37573D01*
X27171Y-37573D02*
X27515Y-37917D01*
X27171Y-31800D02*
X27171Y-37573D01*
X27291Y-31681D02*
X27171Y-31800D01*
X27291Y-31673D02*
X27291Y-31681D01*
X27291Y-31283D02*
X27291Y-31673D01*
X24401Y-16574D02*
X24389Y-16562D01*
X25930Y-15648D02*
X25930Y-16705D01*
X25930Y-16705D02*
X26374Y-17149D01*
X26677Y-14901D02*
X25930Y-15648D01*
X25271Y-16574D02*
X24673Y-16574D01*
X24673Y-16574D02*
X24401Y-16574D01*
X28062Y-27460D02*
X27692Y-27090D01*
X28062Y-27704D02*
X28062Y-27460D01*
X13917Y-14492D02*
X13641Y-14767D01*
X13641Y-14767D02*
X13641Y-15893D01*
X13641Y-15893D02*
X13704Y-15956D01*
X14696Y-15956D02*
X14573Y-16080D01*
X14573Y-16080D02*
X14573Y-26081D01*
X14573Y-26081D02*
X14692Y-26200D01*
X27692Y-27090D02*
X27171Y-27611D01*
X27011Y-30976D02*
X27011Y-31562D01*
X27171Y-30816D02*
X27011Y-30976D01*
X27171Y-27611D02*
X27171Y-30816D01*
X26515Y-37917D02*
X27011Y-37421D01*
X27011Y-37421D02*
X27011Y-31562D01*
X14413Y-37421D02*
X14413Y-31562D01*
X13917Y-37917D02*
X14413Y-37421D01*
X39515Y-31877D02*
X39515Y-32732D01*
X39515Y-32732D02*
X39610Y-32826D01*
X39610Y-32826D02*
X39610Y-37421D01*
X39610Y-37421D02*
X39114Y-37917D01*
X24547Y-16216D02*
X24405Y-16216D01*
X25098Y-16216D02*
X24547Y-16216D01*
X24405Y-16216D02*
X24354Y-16165D01*
X25770Y-15582D02*
X25770Y-16943D01*
X25770Y-16943D02*
X25972Y-17145D01*
X26396Y-14955D02*
X26001Y-15351D01*
X26396Y-14626D02*
X26396Y-14955D01*
X26444Y-14578D02*
X26396Y-14626D01*
X26001Y-15351D02*
X25770Y-15582D01*
X25106Y-16208D02*
X25098Y-16216D01*
X25106Y-16208D02*
X25098Y-16216D01*
G54D10*
G36*
X8123Y-17269D02*
X8005Y-17269D01*
X7841Y-17337D01*
X7715Y-17463D01*
X7707Y-17483D01*
X7707Y-11888D01*
X7828Y-11938D01*
X8005Y-11939D01*
X8123Y-11890D01*
X8123Y-17269D01*
X8123Y-17269D01*
G37*
G54D19*
X8123Y-17269D02*
X8005Y-17269D01*
X7841Y-17337D01*
X7715Y-17463D01*
X7707Y-17483D01*
X7707Y-11888D01*
X7828Y-11938D01*
X8005Y-11939D01*
X8123Y-11890D01*
X8123Y-17269D01*
G54D10*
G36*
X9288Y-30974D02*
X9107Y-31155D01*
X9029Y-31155D01*
X8879Y-31217D01*
X8764Y-31331D01*
X8702Y-31481D01*
X8702Y-31635D01*
X8545Y-31635D01*
X8395Y-31697D01*
X8280Y-31812D01*
X8225Y-31945D01*
X8225Y-31045D01*
X8618Y-30652D01*
X8618Y-30652D01*
X8618Y-30652D01*
X8681Y-30558D01*
X8691Y-30508D01*
X8715Y-30567D01*
X8841Y-30693D01*
X9005Y-30761D01*
X9182Y-30761D01*
X9288Y-30718D01*
X9288Y-30974D01*
X9288Y-30974D01*
G37*
G54D19*
X9288Y-30974D02*
X9107Y-31155D01*
X9029Y-31155D01*
X8879Y-31217D01*
X8764Y-31331D01*
X8702Y-31481D01*
X8702Y-31635D01*
X8545Y-31635D01*
X8395Y-31697D01*
X8280Y-31812D01*
X8225Y-31945D01*
X8225Y-31045D01*
X8618Y-30652D01*
X8618Y-30652D01*
X8618Y-30652D01*
X8681Y-30558D01*
X8691Y-30508D01*
X8715Y-30567D01*
X8841Y-30693D01*
X9005Y-30761D01*
X9182Y-30761D01*
X9288Y-30718D01*
X9288Y-30974D01*
G54D10*
G36*
X9879Y-32309D02*
X9570Y-32617D01*
X9507Y-32711D01*
X9485Y-32822D01*
X9485Y-33240D01*
X9473Y-33211D01*
X9347Y-33085D01*
X9183Y-33017D01*
X9034Y-33017D01*
X9034Y-32161D01*
X9028Y-32135D01*
X9033Y-32124D01*
X9033Y-31970D01*
X9190Y-31970D01*
X9340Y-31908D01*
X9455Y-31794D01*
X9517Y-31644D01*
X9517Y-31565D01*
X9783Y-31299D01*
X9846Y-31205D01*
X9868Y-31094D01*
X9868Y-30705D01*
X9879Y-30709D01*
X9879Y-32309D01*
X9879Y-32309D01*
G37*
G54D19*
X9879Y-32309D02*
X9570Y-32617D01*
X9507Y-32711D01*
X9485Y-32822D01*
X9485Y-33240D01*
X9473Y-33211D01*
X9347Y-33085D01*
X9183Y-33017D01*
X9034Y-33017D01*
X9034Y-32161D01*
X9028Y-32135D01*
X9033Y-32124D01*
X9033Y-31970D01*
X9190Y-31970D01*
X9340Y-31908D01*
X9455Y-31794D01*
X9517Y-31644D01*
X9517Y-31565D01*
X9783Y-31299D01*
X9846Y-31205D01*
X9868Y-31094D01*
X9868Y-30705D01*
X9879Y-30709D01*
X9879Y-32309D01*
G54D10*
G36*
X9946Y-37025D02*
X9393Y-37578D01*
X9330Y-37672D01*
X9320Y-37722D01*
X9296Y-37664D01*
X9170Y-37538D01*
X9006Y-37470D01*
X8880Y-37470D01*
X8703Y-37293D01*
X8703Y-35312D01*
X8828Y-35364D01*
X9005Y-35364D01*
X9170Y-35296D01*
X9295Y-35170D01*
X9364Y-35006D01*
X9364Y-34828D01*
X9296Y-34664D01*
X9170Y-34538D01*
X9006Y-34470D01*
X8951Y-34470D01*
X8951Y-33889D01*
X9005Y-33911D01*
X9182Y-33911D01*
X9347Y-33843D01*
X9473Y-33718D01*
X9485Y-33687D01*
X9485Y-34322D01*
X9507Y-34433D01*
X9570Y-34527D01*
X9622Y-34580D01*
X9538Y-34663D01*
X9470Y-34828D01*
X9470Y-35005D01*
X9538Y-35170D01*
X9663Y-35295D01*
X9828Y-35364D01*
X9946Y-35364D01*
X9946Y-37025D01*
X9946Y-37025D01*
G37*
G54D19*
X9946Y-37025D02*
X9393Y-37578D01*
X9330Y-37672D01*
X9320Y-37722D01*
X9296Y-37664D01*
X9170Y-37538D01*
X9006Y-37470D01*
X8880Y-37470D01*
X8703Y-37293D01*
X8703Y-35312D01*
X8828Y-35364D01*
X9005Y-35364D01*
X9170Y-35296D01*
X9295Y-35170D01*
X9364Y-35006D01*
X9364Y-34828D01*
X9296Y-34664D01*
X9170Y-34538D01*
X9006Y-34470D01*
X8951Y-34470D01*
X8951Y-33889D01*
X9005Y-33911D01*
X9182Y-33911D01*
X9347Y-33843D01*
X9473Y-33718D01*
X9485Y-33687D01*
X9485Y-34322D01*
X9507Y-34433D01*
X9570Y-34527D01*
X9622Y-34580D01*
X9538Y-34663D01*
X9470Y-34828D01*
X9470Y-35005D01*
X9538Y-35170D01*
X9663Y-35295D01*
X9828Y-35364D01*
X9946Y-35364D01*
X9946Y-37025D01*
G54D10*
G36*
X10123Y-22595D02*
X9947Y-22522D01*
X9738Y-22522D01*
X9545Y-22601D01*
X9397Y-22749D01*
X9319Y-22937D01*
X9219Y-22895D01*
X9148Y-22895D01*
X9148Y-22285D01*
X9956Y-21476D01*
X9980Y-21460D01*
X10043Y-21366D01*
X10054Y-21312D01*
X10123Y-21313D01*
X10123Y-22595D01*
X10123Y-22595D01*
G37*
G54D19*
X10123Y-22595D02*
X9947Y-22522D01*
X9738Y-22522D01*
X9545Y-22601D01*
X9397Y-22749D01*
X9319Y-22937D01*
X9219Y-22895D01*
X9148Y-22895D01*
X9148Y-22285D01*
X9956Y-21476D01*
X9980Y-21460D01*
X10043Y-21366D01*
X10054Y-21312D01*
X10123Y-21313D01*
X10123Y-22595D01*
G54D10*
G36*
X10308Y-42042D02*
X10183Y-41990D01*
X10005Y-41990D01*
X9888Y-42038D01*
X9888Y-38684D01*
X9900Y-38713D01*
X10026Y-38839D01*
X10190Y-38907D01*
X10308Y-38907D01*
X10308Y-42042D01*
X10308Y-42042D01*
G37*
G54D19*
X10308Y-42042D02*
X10183Y-41990D01*
X10005Y-41990D01*
X9888Y-42038D01*
X9888Y-38684D01*
X9900Y-38713D01*
X10026Y-38839D01*
X10190Y-38907D01*
X10308Y-38907D01*
X10308Y-42042D01*
G54D10*
G36*
X11234Y-44261D02*
X8856Y-44261D01*
X8371Y-43776D01*
X8473Y-43674D01*
X8541Y-43510D01*
X8541Y-43332D01*
X8473Y-43168D01*
X8472Y-43167D01*
X8473Y-43166D01*
X8541Y-43002D01*
X8541Y-42824D01*
X8479Y-42675D01*
X8541Y-42526D01*
X8541Y-42348D01*
X8473Y-42184D01*
X8347Y-42058D01*
X8183Y-41990D01*
X8065Y-41990D01*
X8065Y-38228D01*
X8043Y-38117D01*
X7980Y-38023D01*
X7888Y-37931D01*
X7888Y-35364D01*
X8005Y-35364D01*
X8123Y-35315D01*
X8123Y-37413D01*
X8145Y-37524D01*
X8208Y-37618D01*
X8470Y-37880D01*
X8470Y-38005D01*
X8538Y-38170D01*
X8663Y-38295D01*
X8828Y-38364D01*
X9005Y-38364D01*
X9170Y-38296D01*
X9295Y-38170D01*
X9308Y-38140D01*
X9308Y-42417D01*
X9330Y-42527D01*
X9183Y-42466D01*
X9005Y-42466D01*
X8841Y-42534D01*
X8715Y-42659D01*
X8647Y-42824D01*
X8647Y-43001D01*
X8715Y-43166D01*
X8841Y-43291D01*
X9005Y-43360D01*
X9182Y-43360D01*
X9347Y-43292D01*
X9473Y-43166D01*
X9541Y-43002D01*
X9541Y-42824D01*
X9503Y-42732D01*
X9647Y-42876D01*
X9647Y-43001D01*
X9715Y-43166D01*
X9716Y-43167D01*
X9715Y-43167D01*
X9647Y-43331D01*
X9647Y-43509D01*
X9715Y-43674D01*
X9841Y-43799D01*
X10005Y-43868D01*
X10182Y-43868D01*
X10347Y-43800D01*
X10473Y-43674D01*
X10541Y-43510D01*
X10541Y-43332D01*
X10473Y-43168D01*
X10472Y-43167D01*
X10473Y-43166D01*
X10541Y-43002D01*
X10541Y-42824D01*
X10503Y-42732D01*
X10647Y-42876D01*
X10647Y-43001D01*
X10715Y-43166D01*
X10716Y-43167D01*
X10715Y-43167D01*
X10647Y-43331D01*
X10647Y-43509D01*
X10715Y-43674D01*
X10841Y-43799D01*
X11005Y-43868D01*
X11182Y-43868D01*
X11234Y-43847D01*
X11234Y-44261D01*
X11234Y-44261D01*
G37*
G54D19*
X11234Y-44261D02*
X8856Y-44261D01*
X8371Y-43776D01*
X8473Y-43674D01*
X8541Y-43510D01*
X8541Y-43332D01*
X8473Y-43168D01*
X8472Y-43167D01*
X8473Y-43166D01*
X8541Y-43002D01*
X8541Y-42824D01*
X8479Y-42675D01*
X8541Y-42526D01*
X8541Y-42348D01*
X8473Y-42184D01*
X8347Y-42058D01*
X8183Y-41990D01*
X8065Y-41990D01*
X8065Y-38228D01*
X8043Y-38117D01*
X7980Y-38023D01*
X7888Y-37931D01*
X7888Y-35364D01*
X8005Y-35364D01*
X8123Y-35315D01*
X8123Y-37413D01*
X8145Y-37524D01*
X8208Y-37618D01*
X8470Y-37880D01*
X8470Y-38005D01*
X8538Y-38170D01*
X8663Y-38295D01*
X8828Y-38364D01*
X9005Y-38364D01*
X9170Y-38296D01*
X9295Y-38170D01*
X9308Y-38140D01*
X9308Y-42417D01*
X9330Y-42527D01*
X9183Y-42466D01*
X9005Y-42466D01*
X8841Y-42534D01*
X8715Y-42659D01*
X8647Y-42824D01*
X8647Y-43001D01*
X8715Y-43166D01*
X8841Y-43291D01*
X9005Y-43360D01*
X9182Y-43360D01*
X9347Y-43292D01*
X9473Y-43166D01*
X9541Y-43002D01*
X9541Y-42824D01*
X9503Y-42732D01*
X9647Y-42876D01*
X9647Y-43001D01*
X9715Y-43166D01*
X9716Y-43167D01*
X9715Y-43167D01*
X9647Y-43331D01*
X9647Y-43509D01*
X9715Y-43674D01*
X9841Y-43799D01*
X10005Y-43868D01*
X10182Y-43868D01*
X10347Y-43800D01*
X10473Y-43674D01*
X10541Y-43510D01*
X10541Y-43332D01*
X10473Y-43168D01*
X10472Y-43167D01*
X10473Y-43166D01*
X10541Y-43002D01*
X10541Y-42824D01*
X10503Y-42732D01*
X10647Y-42876D01*
X10647Y-43001D01*
X10715Y-43166D01*
X10716Y-43167D01*
X10715Y-43167D01*
X10647Y-43331D01*
X10647Y-43509D01*
X10715Y-43674D01*
X10841Y-43799D01*
X11005Y-43868D01*
X11182Y-43868D01*
X11234Y-43847D01*
X11234Y-44261D01*
G54D10*
G36*
X15485Y-22327D02*
X15473Y-22298D01*
X15347Y-22172D01*
X15183Y-22104D01*
X15023Y-22104D01*
X15023Y-21312D01*
X15182Y-21313D01*
X15347Y-21245D01*
X15473Y-21119D01*
X15485Y-21089D01*
X15485Y-22327D01*
X15485Y-22327D01*
G37*
G54D19*
X15485Y-22327D02*
X15473Y-22298D01*
X15347Y-22172D01*
X15183Y-22104D01*
X15023Y-22104D01*
X15023Y-21312D01*
X15182Y-21313D01*
X15347Y-21245D01*
X15473Y-21119D01*
X15485Y-21089D01*
X15485Y-22327D01*
G54D10*
G36*
X15485Y-34486D02*
X15393Y-34578D01*
X15330Y-34672D01*
X15308Y-34783D01*
X15308Y-37693D01*
X15296Y-37664D01*
X15170Y-37538D01*
X15006Y-37470D01*
X14880Y-37470D01*
X14863Y-37453D01*
X14863Y-33852D01*
X15005Y-33911D01*
X15182Y-33911D01*
X15347Y-33843D01*
X15473Y-33718D01*
X15485Y-33687D01*
X15485Y-34486D01*
X15485Y-34486D01*
G37*
G54D19*
X15485Y-34486D02*
X15393Y-34578D01*
X15330Y-34672D01*
X15308Y-34783D01*
X15308Y-37693D01*
X15296Y-37664D01*
X15170Y-37538D01*
X15006Y-37470D01*
X14880Y-37470D01*
X14863Y-37453D01*
X14863Y-33852D01*
X15005Y-33911D01*
X15182Y-33911D01*
X15347Y-33843D01*
X15473Y-33718D01*
X15485Y-33687D01*
X15485Y-34486D01*
G54D10*
G36*
X16123Y-17269D02*
X16005Y-17269D01*
X15841Y-17337D01*
X15715Y-17463D01*
X15647Y-17627D01*
X15647Y-17805D01*
X15715Y-17969D01*
X15841Y-18095D01*
X15963Y-18145D01*
X15963Y-20134D01*
X15570Y-20527D01*
X15507Y-20621D01*
X15497Y-20671D01*
X15473Y-20613D01*
X15347Y-20487D01*
X15183Y-20419D01*
X15023Y-20419D01*
X15023Y-18163D01*
X15182Y-18163D01*
X15347Y-18095D01*
X15473Y-17969D01*
X15541Y-17805D01*
X15541Y-17628D01*
X15473Y-17463D01*
X15347Y-17337D01*
X15183Y-17269D01*
X15023Y-17269D01*
X15023Y-16442D01*
X15181Y-16284D01*
X15181Y-16284D01*
X15181Y-16284D01*
X15244Y-16190D01*
X15244Y-16190D01*
X15262Y-16098D01*
X15266Y-16079D01*
X15266Y-16079D01*
X15266Y-16079D01*
X15266Y-15834D01*
X15244Y-15723D01*
X15207Y-15668D01*
X15207Y-14834D01*
X15295Y-14745D01*
X15364Y-14581D01*
X15364Y-14403D01*
X15296Y-14239D01*
X15170Y-14113D01*
X15006Y-14045D01*
X14828Y-14045D01*
X14703Y-14097D01*
X14703Y-8586D01*
X14703Y-8586D01*
X14703Y-8586D01*
X14699Y-8568D01*
X14681Y-8475D01*
X14618Y-8381D01*
X14618Y-8381D01*
X14541Y-8304D01*
X14541Y-8179D01*
X14473Y-8014D01*
X14347Y-7889D01*
X14183Y-7820D01*
X14005Y-7820D01*
X13841Y-7888D01*
X13715Y-8014D01*
X13647Y-8178D01*
X13647Y-8356D01*
X13715Y-8520D01*
X13841Y-8646D01*
X14005Y-8714D01*
X14123Y-8714D01*
X14123Y-11093D01*
X14006Y-11045D01*
X13828Y-11045D01*
X13703Y-11097D01*
X13703Y-8586D01*
X13703Y-8586D01*
X13703Y-8586D01*
X13699Y-8568D01*
X13681Y-8475D01*
X13618Y-8381D01*
X13618Y-8381D01*
X13541Y-8304D01*
X13541Y-8179D01*
X13473Y-8014D01*
X13347Y-7889D01*
X13183Y-7820D01*
X13005Y-7820D01*
X12913Y-7859D01*
X13201Y-7570D01*
X15381Y-7570D01*
X15131Y-7820D01*
X15005Y-7820D01*
X14841Y-7888D01*
X14715Y-8014D01*
X14647Y-8178D01*
X14647Y-8356D01*
X14715Y-8520D01*
X14841Y-8646D01*
X15005Y-8714D01*
X15182Y-8714D01*
X15347Y-8646D01*
X15473Y-8521D01*
X15541Y-8356D01*
X15541Y-8230D01*
X15685Y-8086D01*
X15647Y-8178D01*
X15647Y-8356D01*
X15715Y-8520D01*
X15841Y-8646D01*
X16005Y-8714D01*
X16123Y-8714D01*
X16123Y-17269D01*
X16123Y-17269D01*
G37*
G54D19*
X16123Y-17269D02*
X16005Y-17269D01*
X15841Y-17337D01*
X15715Y-17463D01*
X15647Y-17627D01*
X15647Y-17805D01*
X15715Y-17969D01*
X15841Y-18095D01*
X15963Y-18145D01*
X15963Y-20134D01*
X15570Y-20527D01*
X15507Y-20621D01*
X15497Y-20671D01*
X15473Y-20613D01*
X15347Y-20487D01*
X15183Y-20419D01*
X15023Y-20419D01*
X15023Y-18163D01*
X15182Y-18163D01*
X15347Y-18095D01*
X15473Y-17969D01*
X15541Y-17805D01*
X15541Y-17628D01*
X15473Y-17463D01*
X15347Y-17337D01*
X15183Y-17269D01*
X15023Y-17269D01*
X15023Y-16442D01*
X15181Y-16284D01*
X15181Y-16284D01*
X15181Y-16284D01*
X15244Y-16190D01*
X15244Y-16190D01*
X15262Y-16098D01*
X15266Y-16079D01*
X15266Y-16079D01*
X15266Y-16079D01*
X15266Y-15834D01*
X15244Y-15723D01*
X15207Y-15668D01*
X15207Y-14834D01*
X15295Y-14745D01*
X15364Y-14581D01*
X15364Y-14403D01*
X15296Y-14239D01*
X15170Y-14113D01*
X15006Y-14045D01*
X14828Y-14045D01*
X14703Y-14097D01*
X14703Y-8586D01*
X14703Y-8586D01*
X14703Y-8586D01*
X14699Y-8568D01*
X14681Y-8475D01*
X14618Y-8381D01*
X14618Y-8381D01*
X14541Y-8304D01*
X14541Y-8179D01*
X14473Y-8014D01*
X14347Y-7889D01*
X14183Y-7820D01*
X14005Y-7820D01*
X13841Y-7888D01*
X13715Y-8014D01*
X13647Y-8178D01*
X13647Y-8356D01*
X13715Y-8520D01*
X13841Y-8646D01*
X14005Y-8714D01*
X14123Y-8714D01*
X14123Y-11093D01*
X14006Y-11045D01*
X13828Y-11045D01*
X13703Y-11097D01*
X13703Y-8586D01*
X13703Y-8586D01*
X13703Y-8586D01*
X13699Y-8568D01*
X13681Y-8475D01*
X13618Y-8381D01*
X13618Y-8381D01*
X13541Y-8304D01*
X13541Y-8179D01*
X13473Y-8014D01*
X13347Y-7889D01*
X13183Y-7820D01*
X13005Y-7820D01*
X12913Y-7859D01*
X13201Y-7570D01*
X15381Y-7570D01*
X15131Y-7820D01*
X15005Y-7820D01*
X14841Y-7888D01*
X14715Y-8014D01*
X14647Y-8178D01*
X14647Y-8356D01*
X14715Y-8520D01*
X14841Y-8646D01*
X15005Y-8714D01*
X15182Y-8714D01*
X15347Y-8646D01*
X15473Y-8521D01*
X15541Y-8356D01*
X15541Y-8230D01*
X15685Y-8086D01*
X15647Y-8178D01*
X15647Y-8356D01*
X15715Y-8520D01*
X15841Y-8646D01*
X16005Y-8714D01*
X16123Y-8714D01*
X16123Y-17269D01*
G54D10*
G36*
X16284Y-38013D02*
X16191Y-38013D01*
X16026Y-38081D01*
X15900Y-38207D01*
X15888Y-38237D01*
X15888Y-34903D01*
X15980Y-34811D01*
X16043Y-34717D01*
X16065Y-34606D01*
X16065Y-34387D01*
X16182Y-34387D01*
X16284Y-34345D01*
X16284Y-38013D01*
X16284Y-38013D01*
G37*
G54D19*
X16284Y-38013D02*
X16191Y-38013D01*
X16026Y-38081D01*
X15900Y-38207D01*
X15888Y-38237D01*
X15888Y-34903D01*
X15980Y-34811D01*
X16043Y-34717D01*
X16065Y-34606D01*
X16065Y-34387D01*
X16182Y-34387D01*
X16284Y-34345D01*
X16284Y-38013D01*
G54D10*
G36*
X19087Y-34364D02*
X18991Y-34460D01*
X18928Y-34554D01*
X18906Y-34665D01*
X18906Y-35895D01*
X18836Y-35895D01*
X18686Y-35957D01*
X18572Y-36072D01*
X18509Y-36221D01*
X18509Y-36383D01*
X18571Y-36533D01*
X18588Y-36550D01*
X18588Y-38137D01*
X18532Y-38082D01*
X18368Y-38013D01*
X18191Y-38013D01*
X18026Y-38081D01*
X17900Y-38207D01*
X17832Y-38371D01*
X17832Y-38549D01*
X17900Y-38713D01*
X18026Y-38839D01*
X18190Y-38907D01*
X18368Y-38907D01*
X18532Y-38839D01*
X18588Y-38783D01*
X18588Y-41039D01*
X18526Y-41013D01*
X18426Y-41013D01*
X18033Y-41013D01*
X17941Y-41051D01*
X17870Y-41121D01*
X17832Y-41213D01*
X17832Y-41313D01*
X17832Y-41690D01*
X17667Y-41690D01*
X17726Y-41549D01*
X17726Y-41372D01*
X17658Y-41207D01*
X17532Y-41082D01*
X17368Y-41013D01*
X17191Y-41013D01*
X17065Y-41065D01*
X17065Y-39699D01*
X17072Y-39702D01*
X17150Y-39702D01*
X17616Y-40167D01*
X17616Y-40190D01*
X17677Y-40340D01*
X17792Y-40455D01*
X17942Y-40517D01*
X18104Y-40517D01*
X18254Y-40455D01*
X18368Y-40341D01*
X18431Y-40191D01*
X18431Y-40029D01*
X18369Y-39879D01*
X18254Y-39764D01*
X18105Y-39702D01*
X17971Y-39702D01*
X17561Y-39292D01*
X17561Y-39214D01*
X17499Y-39064D01*
X17384Y-38950D01*
X17234Y-38887D01*
X17072Y-38887D01*
X17065Y-38890D01*
X17065Y-34387D01*
X17182Y-34387D01*
X17347Y-34319D01*
X17409Y-34258D01*
X17428Y-34287D01*
X17529Y-34388D01*
X17529Y-34466D01*
X17591Y-34616D01*
X17705Y-34731D01*
X17855Y-34793D01*
X18017Y-34793D01*
X18167Y-34731D01*
X18282Y-34616D01*
X18344Y-34467D01*
X18344Y-34305D01*
X18282Y-34155D01*
X18168Y-34040D01*
X18018Y-33978D01*
X17939Y-33978D01*
X17923Y-33962D01*
X17923Y-33877D01*
X18005Y-33911D01*
X18182Y-33911D01*
X18347Y-33843D01*
X18473Y-33718D01*
X18541Y-33553D01*
X18541Y-33376D01*
X18473Y-33211D01*
X18347Y-33085D01*
X18183Y-33017D01*
X18005Y-33017D01*
X17923Y-33051D01*
X17923Y-32749D01*
X17954Y-32761D01*
X18047Y-32761D01*
X18097Y-32795D01*
X18190Y-32813D01*
X18208Y-32817D01*
X18208Y-32817D01*
X18208Y-32817D01*
X18602Y-32817D01*
X18713Y-32795D01*
X18807Y-32732D01*
X19035Y-32504D01*
X19035Y-32504D01*
X19035Y-32504D01*
X19087Y-32426D01*
X19087Y-34364D01*
X19087Y-34364D01*
G37*
G54D19*
X19087Y-34364D02*
X18991Y-34460D01*
X18928Y-34554D01*
X18906Y-34665D01*
X18906Y-35895D01*
X18836Y-35895D01*
X18686Y-35957D01*
X18572Y-36072D01*
X18509Y-36221D01*
X18509Y-36383D01*
X18571Y-36533D01*
X18588Y-36550D01*
X18588Y-38137D01*
X18532Y-38082D01*
X18368Y-38013D01*
X18191Y-38013D01*
X18026Y-38081D01*
X17900Y-38207D01*
X17832Y-38371D01*
X17832Y-38549D01*
X17900Y-38713D01*
X18026Y-38839D01*
X18190Y-38907D01*
X18368Y-38907D01*
X18532Y-38839D01*
X18588Y-38783D01*
X18588Y-41039D01*
X18526Y-41013D01*
X18426Y-41013D01*
X18033Y-41013D01*
X17941Y-41051D01*
X17870Y-41121D01*
X17832Y-41213D01*
X17832Y-41313D01*
X17832Y-41690D01*
X17667Y-41690D01*
X17726Y-41549D01*
X17726Y-41372D01*
X17658Y-41207D01*
X17532Y-41082D01*
X17368Y-41013D01*
X17191Y-41013D01*
X17065Y-41065D01*
X17065Y-39699D01*
X17072Y-39702D01*
X17150Y-39702D01*
X17616Y-40167D01*
X17616Y-40190D01*
X17677Y-40340D01*
X17792Y-40455D01*
X17942Y-40517D01*
X18104Y-40517D01*
X18254Y-40455D01*
X18368Y-40341D01*
X18431Y-40191D01*
X18431Y-40029D01*
X18369Y-39879D01*
X18254Y-39764D01*
X18105Y-39702D01*
X17971Y-39702D01*
X17561Y-39292D01*
X17561Y-39214D01*
X17499Y-39064D01*
X17384Y-38950D01*
X17234Y-38887D01*
X17072Y-38887D01*
X17065Y-38890D01*
X17065Y-34387D01*
X17182Y-34387D01*
X17347Y-34319D01*
X17409Y-34258D01*
X17428Y-34287D01*
X17529Y-34388D01*
X17529Y-34466D01*
X17591Y-34616D01*
X17705Y-34731D01*
X17855Y-34793D01*
X18017Y-34793D01*
X18167Y-34731D01*
X18282Y-34616D01*
X18344Y-34467D01*
X18344Y-34305D01*
X18282Y-34155D01*
X18168Y-34040D01*
X18018Y-33978D01*
X17939Y-33978D01*
X17923Y-33962D01*
X17923Y-33877D01*
X18005Y-33911D01*
X18182Y-33911D01*
X18347Y-33843D01*
X18473Y-33718D01*
X18541Y-33553D01*
X18541Y-33376D01*
X18473Y-33211D01*
X18347Y-33085D01*
X18183Y-33017D01*
X18005Y-33017D01*
X17923Y-33051D01*
X17923Y-32749D01*
X17954Y-32761D01*
X18047Y-32761D01*
X18097Y-32795D01*
X18190Y-32813D01*
X18208Y-32817D01*
X18208Y-32817D01*
X18208Y-32817D01*
X18602Y-32817D01*
X18713Y-32795D01*
X18807Y-32732D01*
X19035Y-32504D01*
X19035Y-32504D01*
X19035Y-32504D01*
X19087Y-32426D01*
X19087Y-34364D01*
G54D10*
G36*
X19863Y-16946D02*
X19810Y-16999D01*
X19747Y-17093D01*
X19725Y-17204D01*
X19725Y-17269D01*
X19608Y-17269D01*
X19444Y-17337D01*
X19318Y-17463D01*
X19250Y-17627D01*
X19249Y-17805D01*
X19317Y-17969D01*
X19443Y-18095D01*
X19561Y-18144D01*
X19561Y-20138D01*
X19172Y-20527D01*
X19110Y-20621D01*
X19087Y-20732D01*
X19087Y-23643D01*
X19005Y-23643D01*
X18841Y-23711D01*
X18715Y-23837D01*
X18647Y-24001D01*
X18647Y-24179D01*
X18715Y-24343D01*
X18841Y-24469D01*
X19005Y-24537D01*
X19182Y-24537D01*
X19249Y-24510D01*
X19249Y-27631D01*
X19172Y-27708D01*
X19110Y-27802D01*
X19087Y-27913D01*
X19087Y-30314D01*
X19087Y-30424D01*
X19035Y-30346D01*
X18470Y-29780D01*
X18470Y-29702D01*
X18408Y-29552D01*
X18294Y-29438D01*
X18144Y-29376D01*
X18061Y-29375D01*
X18061Y-27537D01*
X18182Y-27537D01*
X18347Y-27469D01*
X18473Y-27344D01*
X18541Y-27179D01*
X18541Y-27002D01*
X18473Y-26837D01*
X18347Y-26711D01*
X18183Y-26643D01*
X18005Y-26643D01*
X17841Y-26711D01*
X17715Y-26837D01*
X17703Y-26867D01*
X17703Y-24314D01*
X17715Y-24343D01*
X17841Y-24469D01*
X18005Y-24537D01*
X18182Y-24537D01*
X18347Y-24469D01*
X18473Y-24344D01*
X18541Y-24179D01*
X18541Y-24002D01*
X18473Y-23837D01*
X18448Y-23813D01*
X18473Y-23788D01*
X18541Y-23624D01*
X18541Y-23446D01*
X18473Y-23282D01*
X18347Y-23156D01*
X18183Y-23088D01*
X18005Y-23088D01*
X17841Y-23156D01*
X17715Y-23281D01*
X17703Y-23312D01*
X17703Y-22774D01*
X17715Y-22803D01*
X17841Y-22929D01*
X18005Y-22997D01*
X18182Y-22998D01*
X18347Y-22930D01*
X18473Y-22804D01*
X18541Y-22640D01*
X18541Y-22462D01*
X18473Y-22298D01*
X18347Y-22172D01*
X18183Y-22104D01*
X18005Y-22104D01*
X17841Y-22172D01*
X17715Y-22297D01*
X17703Y-22327D01*
X17703Y-21089D01*
X17715Y-21118D01*
X17841Y-21244D01*
X18005Y-21312D01*
X18182Y-21313D01*
X18347Y-21245D01*
X18473Y-21119D01*
X18541Y-20955D01*
X18541Y-20777D01*
X18473Y-20613D01*
X18347Y-20487D01*
X18183Y-20419D01*
X18005Y-20419D01*
X17841Y-20487D01*
X17715Y-20612D01*
X17703Y-20642D01*
X17703Y-17940D01*
X17715Y-17969D01*
X17841Y-18095D01*
X18005Y-18163D01*
X18182Y-18163D01*
X18347Y-18095D01*
X18473Y-17969D01*
X18541Y-17805D01*
X18541Y-17628D01*
X18473Y-17463D01*
X18347Y-17337D01*
X18183Y-17269D01*
X18005Y-17269D01*
X17841Y-17337D01*
X17715Y-17463D01*
X17691Y-17522D01*
X17681Y-17471D01*
X17618Y-17377D01*
X16863Y-16622D01*
X16863Y-11452D01*
X16915Y-11474D01*
X17093Y-11474D01*
X17257Y-11406D01*
X17307Y-11356D01*
X17458Y-11356D01*
X17333Y-11481D01*
X17264Y-11645D01*
X17264Y-11823D01*
X17332Y-11987D01*
X17458Y-12113D01*
X17622Y-12181D01*
X17800Y-12181D01*
X17964Y-12113D01*
X18090Y-11988D01*
X18158Y-11823D01*
X18158Y-11646D01*
X18090Y-11481D01*
X17965Y-11356D01*
X17988Y-11356D01*
X18009Y-11376D01*
X18158Y-11438D01*
X18320Y-11439D01*
X18470Y-11377D01*
X18585Y-11262D01*
X18647Y-11112D01*
X18647Y-10950D01*
X18585Y-10800D01*
X18471Y-10686D01*
X18321Y-10624D01*
X18159Y-10623D01*
X18009Y-10685D01*
X17996Y-10698D01*
X17307Y-10698D01*
X17258Y-10648D01*
X17093Y-10580D01*
X16916Y-10580D01*
X16863Y-10602D01*
X16863Y-8908D01*
X17057Y-8714D01*
X17182Y-8714D01*
X17347Y-8646D01*
X17473Y-8521D01*
X17541Y-8356D01*
X17541Y-8179D01*
X17473Y-8014D01*
X17347Y-7889D01*
X17183Y-7820D01*
X17005Y-7820D01*
X16841Y-7888D01*
X16715Y-8014D01*
X16647Y-8178D01*
X16647Y-8304D01*
X16594Y-8357D01*
X16541Y-8304D01*
X16541Y-8179D01*
X16473Y-8014D01*
X16347Y-7889D01*
X16183Y-7820D01*
X16005Y-7820D01*
X15913Y-7859D01*
X16041Y-7730D01*
X18221Y-7730D01*
X18131Y-7820D01*
X18005Y-7820D01*
X17841Y-7888D01*
X17715Y-8014D01*
X17647Y-8178D01*
X17647Y-8356D01*
X17715Y-8520D01*
X17841Y-8646D01*
X18005Y-8714D01*
X18182Y-8714D01*
X18347Y-8646D01*
X18473Y-8521D01*
X18541Y-8356D01*
X18541Y-8230D01*
X18761Y-8010D01*
X19322Y-8010D01*
X19318Y-8014D01*
X19250Y-8178D01*
X19249Y-8356D01*
X19317Y-8520D01*
X19406Y-8609D01*
X19406Y-9175D01*
X19310Y-9271D01*
X19247Y-9365D01*
X19225Y-9476D01*
X19225Y-12706D01*
X19215Y-12702D01*
X19037Y-12701D01*
X18873Y-12769D01*
X18865Y-12777D01*
X18865Y-12353D01*
X18797Y-12188D01*
X18672Y-12063D01*
X18508Y-11994D01*
X18330Y-11994D01*
X18166Y-12062D01*
X18040Y-12188D01*
X17972Y-12352D01*
X17971Y-12530D01*
X18039Y-12694D01*
X18165Y-12820D01*
X18329Y-12888D01*
X18507Y-12888D01*
X18671Y-12820D01*
X18797Y-12695D01*
X18865Y-12530D01*
X18865Y-12353D01*
X18865Y-12777D01*
X18747Y-12895D01*
X18679Y-13059D01*
X18679Y-13237D01*
X18746Y-13401D01*
X18872Y-13527D01*
X19036Y-13595D01*
X19214Y-13595D01*
X19378Y-13527D01*
X19462Y-13443D01*
X19538Y-13519D01*
X19454Y-13602D01*
X19386Y-13766D01*
X19386Y-13944D01*
X19453Y-14108D01*
X19579Y-14234D01*
X19743Y-14302D01*
X19863Y-14302D01*
X19863Y-16946D01*
X19863Y-16946D01*
G37*
G54D19*
X19863Y-16946D02*
X19810Y-16999D01*
X19747Y-17093D01*
X19725Y-17204D01*
X19725Y-17269D01*
X19608Y-17269D01*
X19444Y-17337D01*
X19318Y-17463D01*
X19250Y-17627D01*
X19249Y-17805D01*
X19317Y-17969D01*
X19443Y-18095D01*
X19561Y-18144D01*
X19561Y-20138D01*
X19172Y-20527D01*
X19110Y-20621D01*
X19087Y-20732D01*
X19087Y-23643D01*
X19005Y-23643D01*
X18841Y-23711D01*
X18715Y-23837D01*
X18647Y-24001D01*
X18647Y-24179D01*
X18715Y-24343D01*
X18841Y-24469D01*
X19005Y-24537D01*
X19182Y-24537D01*
X19249Y-24510D01*
X19249Y-27631D01*
X19172Y-27708D01*
X19110Y-27802D01*
X19087Y-27913D01*
X19087Y-30314D01*
X19087Y-30424D01*
X19035Y-30346D01*
X18470Y-29780D01*
X18470Y-29702D01*
X18408Y-29552D01*
X18294Y-29438D01*
X18144Y-29376D01*
X18061Y-29375D01*
X18061Y-27537D01*
X18182Y-27537D01*
X18347Y-27469D01*
X18473Y-27344D01*
X18541Y-27179D01*
X18541Y-27002D01*
X18473Y-26837D01*
X18347Y-26711D01*
X18183Y-26643D01*
X18005Y-26643D01*
X17841Y-26711D01*
X17715Y-26837D01*
X17703Y-26867D01*
X17703Y-24314D01*
X17715Y-24343D01*
X17841Y-24469D01*
X18005Y-24537D01*
X18182Y-24537D01*
X18347Y-24469D01*
X18473Y-24344D01*
X18541Y-24179D01*
X18541Y-24002D01*
X18473Y-23837D01*
X18448Y-23813D01*
X18473Y-23788D01*
X18541Y-23624D01*
X18541Y-23446D01*
X18473Y-23282D01*
X18347Y-23156D01*
X18183Y-23088D01*
X18005Y-23088D01*
X17841Y-23156D01*
X17715Y-23281D01*
X17703Y-23312D01*
X17703Y-22774D01*
X17715Y-22803D01*
X17841Y-22929D01*
X18005Y-22997D01*
X18182Y-22998D01*
X18347Y-22930D01*
X18473Y-22804D01*
X18541Y-22640D01*
X18541Y-22462D01*
X18473Y-22298D01*
X18347Y-22172D01*
X18183Y-22104D01*
X18005Y-22104D01*
X17841Y-22172D01*
X17715Y-22297D01*
X17703Y-22327D01*
X17703Y-21089D01*
X17715Y-21118D01*
X17841Y-21244D01*
X18005Y-21312D01*
X18182Y-21313D01*
X18347Y-21245D01*
X18473Y-21119D01*
X18541Y-20955D01*
X18541Y-20777D01*
X18473Y-20613D01*
X18347Y-20487D01*
X18183Y-20419D01*
X18005Y-20419D01*
X17841Y-20487D01*
X17715Y-20612D01*
X17703Y-20642D01*
X17703Y-17940D01*
X17715Y-17969D01*
X17841Y-18095D01*
X18005Y-18163D01*
X18182Y-18163D01*
X18347Y-18095D01*
X18473Y-17969D01*
X18541Y-17805D01*
X18541Y-17628D01*
X18473Y-17463D01*
X18347Y-17337D01*
X18183Y-17269D01*
X18005Y-17269D01*
X17841Y-17337D01*
X17715Y-17463D01*
X17691Y-17522D01*
X17681Y-17471D01*
X17618Y-17377D01*
X16863Y-16622D01*
X16863Y-11452D01*
X16915Y-11474D01*
X17093Y-11474D01*
X17257Y-11406D01*
X17307Y-11356D01*
X17458Y-11356D01*
X17333Y-11481D01*
X17264Y-11645D01*
X17264Y-11823D01*
X17332Y-11987D01*
X17458Y-12113D01*
X17622Y-12181D01*
X17800Y-12181D01*
X17964Y-12113D01*
X18090Y-11988D01*
X18158Y-11823D01*
X18158Y-11646D01*
X18090Y-11481D01*
X17965Y-11356D01*
X17988Y-11356D01*
X18009Y-11376D01*
X18158Y-11438D01*
X18320Y-11439D01*
X18470Y-11377D01*
X18585Y-11262D01*
X18647Y-11112D01*
X18647Y-10950D01*
X18585Y-10800D01*
X18471Y-10686D01*
X18321Y-10624D01*
X18159Y-10623D01*
X18009Y-10685D01*
X17996Y-10698D01*
X17307Y-10698D01*
X17258Y-10648D01*
X17093Y-10580D01*
X16916Y-10580D01*
X16863Y-10602D01*
X16863Y-8908D01*
X17057Y-8714D01*
X17182Y-8714D01*
X17347Y-8646D01*
X17473Y-8521D01*
X17541Y-8356D01*
X17541Y-8179D01*
X17473Y-8014D01*
X17347Y-7889D01*
X17183Y-7820D01*
X17005Y-7820D01*
X16841Y-7888D01*
X16715Y-8014D01*
X16647Y-8178D01*
X16647Y-8304D01*
X16594Y-8357D01*
X16541Y-8304D01*
X16541Y-8179D01*
X16473Y-8014D01*
X16347Y-7889D01*
X16183Y-7820D01*
X16005Y-7820D01*
X15913Y-7859D01*
X16041Y-7730D01*
X18221Y-7730D01*
X18131Y-7820D01*
X18005Y-7820D01*
X17841Y-7888D01*
X17715Y-8014D01*
X17647Y-8178D01*
X17647Y-8356D01*
X17715Y-8520D01*
X17841Y-8646D01*
X18005Y-8714D01*
X18182Y-8714D01*
X18347Y-8646D01*
X18473Y-8521D01*
X18541Y-8356D01*
X18541Y-8230D01*
X18761Y-8010D01*
X19322Y-8010D01*
X19318Y-8014D01*
X19250Y-8178D01*
X19249Y-8356D01*
X19317Y-8520D01*
X19406Y-8609D01*
X19406Y-9175D01*
X19310Y-9271D01*
X19247Y-9365D01*
X19225Y-9476D01*
X19225Y-12706D01*
X19215Y-12702D01*
X19037Y-12701D01*
X18873Y-12769D01*
X18865Y-12777D01*
X18865Y-12353D01*
X18797Y-12188D01*
X18672Y-12063D01*
X18508Y-11994D01*
X18330Y-11994D01*
X18166Y-12062D01*
X18040Y-12188D01*
X17972Y-12352D01*
X17971Y-12530D01*
X18039Y-12694D01*
X18165Y-12820D01*
X18329Y-12888D01*
X18507Y-12888D01*
X18671Y-12820D01*
X18797Y-12695D01*
X18865Y-12530D01*
X18865Y-12353D01*
X18865Y-12777D01*
X18747Y-12895D01*
X18679Y-13059D01*
X18679Y-13237D01*
X18746Y-13401D01*
X18872Y-13527D01*
X19036Y-13595D01*
X19214Y-13595D01*
X19378Y-13527D01*
X19462Y-13443D01*
X19538Y-13519D01*
X19454Y-13602D01*
X19386Y-13766D01*
X19386Y-13944D01*
X19453Y-14108D01*
X19579Y-14234D01*
X19743Y-14302D01*
X19863Y-14302D01*
X19863Y-16946D01*
G54D10*
G36*
X21906Y-39647D02*
X21861Y-39537D01*
X21746Y-39422D01*
X21597Y-39360D01*
X21478Y-39360D01*
X20994Y-38875D01*
X20994Y-38797D01*
X20932Y-38647D01*
X20817Y-38532D01*
X20668Y-38470D01*
X20505Y-38470D01*
X20486Y-38478D01*
X20486Y-35364D01*
X20593Y-35364D01*
X20593Y-37284D01*
X20615Y-37395D01*
X20678Y-37489D01*
X21068Y-37880D01*
X21068Y-38005D01*
X21136Y-38170D01*
X21262Y-38295D01*
X21426Y-38364D01*
X21604Y-38364D01*
X21768Y-38296D01*
X21853Y-38211D01*
X21906Y-38265D01*
X21906Y-39647D01*
X21906Y-39647D01*
G37*
G54D19*
X21906Y-39647D02*
X21861Y-39537D01*
X21746Y-39422D01*
X21597Y-39360D01*
X21478Y-39360D01*
X20994Y-38875D01*
X20994Y-38797D01*
X20932Y-38647D01*
X20817Y-38532D01*
X20668Y-38470D01*
X20505Y-38470D01*
X20486Y-38478D01*
X20486Y-35364D01*
X20593Y-35364D01*
X20593Y-37284D01*
X20615Y-37395D01*
X20678Y-37489D01*
X21068Y-37880D01*
X21068Y-38005D01*
X21136Y-38170D01*
X21262Y-38295D01*
X21426Y-38364D01*
X21604Y-38364D01*
X21768Y-38296D01*
X21853Y-38211D01*
X21906Y-38265D01*
X21906Y-39647D01*
G54D10*
G36*
X22084Y-30091D02*
X22071Y-30062D01*
X21946Y-29936D01*
X21782Y-29868D01*
X21604Y-29868D01*
X21440Y-29935D01*
X21314Y-30061D01*
X21301Y-30091D01*
X21301Y-24314D01*
X21313Y-24343D01*
X21439Y-24469D01*
X21603Y-24537D01*
X21781Y-24537D01*
X21924Y-24478D01*
X21924Y-26385D01*
X21946Y-26496D01*
X22008Y-26590D01*
X22084Y-26665D01*
X22084Y-29996D01*
X22084Y-30091D01*
X22084Y-30091D01*
G37*
G54D19*
X22084Y-30091D02*
X22071Y-30062D01*
X21946Y-29936D01*
X21782Y-29868D01*
X21604Y-29868D01*
X21440Y-29935D01*
X21314Y-30061D01*
X21301Y-30091D01*
X21301Y-24314D01*
X21313Y-24343D01*
X21439Y-24469D01*
X21603Y-24537D01*
X21781Y-24537D01*
X21924Y-24478D01*
X21924Y-26385D01*
X21946Y-26496D01*
X22008Y-26590D01*
X22084Y-26665D01*
X22084Y-29996D01*
X22084Y-30091D01*
G54D10*
G36*
X22906Y-37693D02*
X22894Y-37664D01*
X22769Y-37538D01*
X22605Y-37470D01*
X22427Y-37470D01*
X22262Y-37538D01*
X22137Y-37663D01*
X22133Y-37672D01*
X21333Y-36872D01*
X21333Y-36309D01*
X22039Y-35602D01*
X22102Y-35508D01*
X22124Y-35397D01*
X22124Y-35140D01*
X22136Y-35170D01*
X22262Y-35295D01*
X22426Y-35364D01*
X22604Y-35364D01*
X22768Y-35296D01*
X22894Y-35170D01*
X22906Y-35140D01*
X22906Y-37693D01*
X22906Y-37693D01*
G37*
G54D19*
X22906Y-37693D02*
X22894Y-37664D01*
X22769Y-37538D01*
X22605Y-37470D01*
X22427Y-37470D01*
X22262Y-37538D01*
X22137Y-37663D01*
X22133Y-37672D01*
X21333Y-36872D01*
X21333Y-36309D01*
X22039Y-35602D01*
X22102Y-35508D01*
X22124Y-35397D01*
X22124Y-35140D01*
X22136Y-35170D01*
X22262Y-35295D01*
X22426Y-35364D01*
X22604Y-35364D01*
X22768Y-35296D01*
X22894Y-35170D01*
X22906Y-35140D01*
X22906Y-37693D01*
G54D10*
G36*
X22906Y-42042D02*
X22782Y-41990D01*
X22604Y-41990D01*
X22486Y-42038D01*
X22486Y-38684D01*
X22498Y-38713D01*
X22624Y-38839D01*
X22788Y-38907D01*
X22906Y-38907D01*
X22906Y-42042D01*
X22906Y-42042D01*
G37*
G54D19*
X22906Y-42042D02*
X22782Y-41990D01*
X22604Y-41990D01*
X22486Y-42038D01*
X22486Y-38684D01*
X22498Y-38713D01*
X22624Y-38839D01*
X22788Y-38907D01*
X22906Y-38907D01*
X22906Y-42042D01*
G54D10*
G36*
X23084Y-34486D02*
X22991Y-34578D01*
X22928Y-34672D01*
X22918Y-34722D01*
X22894Y-34664D01*
X22769Y-34538D01*
X22605Y-34470D01*
X22427Y-34470D01*
X22262Y-34538D01*
X22137Y-34663D01*
X22112Y-34722D01*
X22102Y-34672D01*
X22039Y-34578D01*
X22039Y-34578D01*
X21664Y-34202D01*
X21664Y-33911D01*
X21781Y-33911D01*
X21945Y-33843D01*
X22071Y-33718D01*
X22139Y-33553D01*
X22139Y-33376D01*
X22071Y-33211D01*
X21946Y-33085D01*
X21782Y-33017D01*
X21664Y-33017D01*
X21664Y-32797D01*
X22579Y-31882D01*
X22641Y-31788D01*
X22664Y-31677D01*
X22664Y-30761D01*
X22721Y-30761D01*
X22721Y-32509D01*
X22604Y-32509D01*
X22440Y-32577D01*
X22314Y-32703D01*
X22246Y-32867D01*
X22245Y-33045D01*
X22313Y-33209D01*
X22314Y-33210D01*
X22314Y-33211D01*
X22246Y-33375D01*
X22245Y-33553D01*
X22307Y-33702D01*
X22246Y-33851D01*
X22245Y-34029D01*
X22313Y-34193D01*
X22439Y-34319D01*
X22603Y-34387D01*
X22781Y-34387D01*
X22945Y-34319D01*
X23071Y-34194D01*
X23084Y-34164D01*
X23084Y-34486D01*
X23084Y-34486D01*
G37*
G54D19*
X23084Y-34486D02*
X22991Y-34578D01*
X22928Y-34672D01*
X22918Y-34722D01*
X22894Y-34664D01*
X22769Y-34538D01*
X22605Y-34470D01*
X22427Y-34470D01*
X22262Y-34538D01*
X22137Y-34663D01*
X22112Y-34722D01*
X22102Y-34672D01*
X22039Y-34578D01*
X22039Y-34578D01*
X21664Y-34202D01*
X21664Y-33911D01*
X21781Y-33911D01*
X21945Y-33843D01*
X22071Y-33718D01*
X22139Y-33553D01*
X22139Y-33376D01*
X22071Y-33211D01*
X21946Y-33085D01*
X21782Y-33017D01*
X21664Y-33017D01*
X21664Y-32797D01*
X22579Y-31882D01*
X22641Y-31788D01*
X22664Y-31677D01*
X22664Y-30761D01*
X22721Y-30761D01*
X22721Y-32509D01*
X22604Y-32509D01*
X22440Y-32577D01*
X22314Y-32703D01*
X22246Y-32867D01*
X22245Y-33045D01*
X22313Y-33209D01*
X22314Y-33210D01*
X22314Y-33211D01*
X22246Y-33375D01*
X22245Y-33553D01*
X22307Y-33702D01*
X22246Y-33851D01*
X22245Y-34029D01*
X22313Y-34193D01*
X22439Y-34319D01*
X22603Y-34387D01*
X22781Y-34387D01*
X22945Y-34319D01*
X23071Y-34194D01*
X23084Y-34164D01*
X23084Y-34486D01*
G54D10*
G36*
X23805Y-44261D02*
X19246Y-44261D01*
X19246Y-43842D01*
X19246Y-43509D01*
X19313Y-43674D01*
X19439Y-43799D01*
X19603Y-43868D01*
X19781Y-43868D01*
X19945Y-43800D01*
X20071Y-43674D01*
X20139Y-43510D01*
X20139Y-43332D01*
X20072Y-43169D01*
X20075Y-43166D01*
X20143Y-43002D01*
X20143Y-42824D01*
X20108Y-42738D01*
X20246Y-42876D01*
X20245Y-43001D01*
X20313Y-43166D01*
X20314Y-43167D01*
X20314Y-43167D01*
X20246Y-43331D01*
X20245Y-43509D01*
X20313Y-43674D01*
X20439Y-43799D01*
X20603Y-43868D01*
X20781Y-43868D01*
X20945Y-43800D01*
X21071Y-43674D01*
X21139Y-43510D01*
X21139Y-43332D01*
X21071Y-43168D01*
X21070Y-43167D01*
X21071Y-43166D01*
X21139Y-43002D01*
X21139Y-42824D01*
X21077Y-42675D01*
X21139Y-42526D01*
X21139Y-42348D01*
X21071Y-42184D01*
X20946Y-42058D01*
X20782Y-41990D01*
X20604Y-41990D01*
X20486Y-42038D01*
X20486Y-39277D01*
X20505Y-39285D01*
X20583Y-39285D01*
X21108Y-39809D01*
X21108Y-39848D01*
X21170Y-39998D01*
X21284Y-40112D01*
X21434Y-40175D01*
X21596Y-40175D01*
X21746Y-40113D01*
X21860Y-39998D01*
X21906Y-39888D01*
X21906Y-42417D01*
X21928Y-42527D01*
X21782Y-42466D01*
X21604Y-42466D01*
X21440Y-42534D01*
X21314Y-42659D01*
X21246Y-42824D01*
X21245Y-43001D01*
X21313Y-43166D01*
X21439Y-43291D01*
X21603Y-43360D01*
X21781Y-43360D01*
X21945Y-43292D01*
X22071Y-43166D01*
X22139Y-43002D01*
X22139Y-42824D01*
X22101Y-42732D01*
X22246Y-42876D01*
X22245Y-43001D01*
X22313Y-43166D01*
X22314Y-43167D01*
X22314Y-43167D01*
X22246Y-43331D01*
X22245Y-43509D01*
X22313Y-43674D01*
X22439Y-43799D01*
X22603Y-43868D01*
X22781Y-43868D01*
X22945Y-43800D01*
X23071Y-43674D01*
X23139Y-43510D01*
X23139Y-43332D01*
X23071Y-43168D01*
X23070Y-43167D01*
X23071Y-43166D01*
X23139Y-43002D01*
X23139Y-42824D01*
X23101Y-42732D01*
X23246Y-42876D01*
X23245Y-43001D01*
X23313Y-43166D01*
X23314Y-43167D01*
X23314Y-43167D01*
X23246Y-43331D01*
X23245Y-43509D01*
X23313Y-43674D01*
X23439Y-43799D01*
X23603Y-43868D01*
X23781Y-43868D01*
X23805Y-43858D01*
X23805Y-44261D01*
X23805Y-44261D01*
G37*
G54D19*
X23805Y-44261D02*
X19246Y-44261D01*
X19246Y-43842D01*
X19246Y-43509D01*
X19313Y-43674D01*
X19439Y-43799D01*
X19603Y-43868D01*
X19781Y-43868D01*
X19945Y-43800D01*
X20071Y-43674D01*
X20139Y-43510D01*
X20139Y-43332D01*
X20072Y-43169D01*
X20075Y-43166D01*
X20143Y-43002D01*
X20143Y-42824D01*
X20108Y-42738D01*
X20246Y-42876D01*
X20245Y-43001D01*
X20313Y-43166D01*
X20314Y-43167D01*
X20314Y-43167D01*
X20246Y-43331D01*
X20245Y-43509D01*
X20313Y-43674D01*
X20439Y-43799D01*
X20603Y-43868D01*
X20781Y-43868D01*
X20945Y-43800D01*
X21071Y-43674D01*
X21139Y-43510D01*
X21139Y-43332D01*
X21071Y-43168D01*
X21070Y-43167D01*
X21071Y-43166D01*
X21139Y-43002D01*
X21139Y-42824D01*
X21077Y-42675D01*
X21139Y-42526D01*
X21139Y-42348D01*
X21071Y-42184D01*
X20946Y-42058D01*
X20782Y-41990D01*
X20604Y-41990D01*
X20486Y-42038D01*
X20486Y-39277D01*
X20505Y-39285D01*
X20583Y-39285D01*
X21108Y-39809D01*
X21108Y-39848D01*
X21170Y-39998D01*
X21284Y-40112D01*
X21434Y-40175D01*
X21596Y-40175D01*
X21746Y-40113D01*
X21860Y-39998D01*
X21906Y-39888D01*
X21906Y-42417D01*
X21928Y-42527D01*
X21782Y-42466D01*
X21604Y-42466D01*
X21440Y-42534D01*
X21314Y-42659D01*
X21246Y-42824D01*
X21245Y-43001D01*
X21313Y-43166D01*
X21439Y-43291D01*
X21603Y-43360D01*
X21781Y-43360D01*
X21945Y-43292D01*
X22071Y-43166D01*
X22139Y-43002D01*
X22139Y-42824D01*
X22101Y-42732D01*
X22246Y-42876D01*
X22245Y-43001D01*
X22313Y-43166D01*
X22314Y-43167D01*
X22314Y-43167D01*
X22246Y-43331D01*
X22245Y-43509D01*
X22313Y-43674D01*
X22439Y-43799D01*
X22603Y-43868D01*
X22781Y-43868D01*
X22945Y-43800D01*
X23071Y-43674D01*
X23139Y-43510D01*
X23139Y-43332D01*
X23071Y-43168D01*
X23070Y-43167D01*
X23071Y-43166D01*
X23139Y-43002D01*
X23139Y-42824D01*
X23101Y-42732D01*
X23246Y-42876D01*
X23245Y-43001D01*
X23313Y-43166D01*
X23314Y-43167D01*
X23314Y-43167D01*
X23246Y-43331D01*
X23245Y-43509D01*
X23313Y-43674D01*
X23439Y-43799D01*
X23603Y-43868D01*
X23781Y-43868D01*
X23805Y-43858D01*
X23805Y-44261D01*
G54D10*
G36*
X26150Y-14296D02*
X26099Y-14347D01*
X26037Y-14497D01*
X26037Y-14659D01*
X26099Y-14809D01*
X26106Y-14816D01*
X26106Y-14835D01*
X25900Y-15042D01*
X25900Y-14583D01*
X25900Y-14583D01*
X25960Y-14492D01*
X25982Y-14381D01*
X25982Y-14381D01*
X25982Y-14381D01*
X25982Y-8609D01*
X26044Y-8548D01*
X26024Y-8645D01*
X26024Y-14051D01*
X26047Y-14162D01*
X26109Y-14256D01*
X26150Y-14296D01*
X26150Y-14296D01*
G37*
G54D19*
X26150Y-14296D02*
X26099Y-14347D01*
X26037Y-14497D01*
X26037Y-14659D01*
X26099Y-14809D01*
X26106Y-14816D01*
X26106Y-14835D01*
X25900Y-15042D01*
X25900Y-14583D01*
X25900Y-14583D01*
X25960Y-14492D01*
X25982Y-14381D01*
X25982Y-14381D01*
X25982Y-14381D01*
X25982Y-8609D01*
X26044Y-8548D01*
X26024Y-8645D01*
X26024Y-14051D01*
X26047Y-14162D01*
X26109Y-14256D01*
X26150Y-14296D01*
G54D10*
G36*
X28084Y-34486D02*
X27991Y-34578D01*
X27928Y-34672D01*
X27906Y-34783D01*
X27906Y-37693D01*
X27894Y-37664D01*
X27769Y-37538D01*
X27605Y-37470D01*
X27478Y-37470D01*
X27461Y-37453D01*
X27461Y-33852D01*
X27603Y-33911D01*
X27781Y-33911D01*
X27945Y-33843D01*
X28071Y-33718D01*
X28084Y-33687D01*
X28084Y-34486D01*
X28084Y-34486D01*
G37*
G54D19*
X28084Y-34486D02*
X27991Y-34578D01*
X27928Y-34672D01*
X27906Y-34783D01*
X27906Y-37693D01*
X27894Y-37664D01*
X27769Y-37538D01*
X27605Y-37470D01*
X27478Y-37470D01*
X27461Y-37453D01*
X27461Y-33852D01*
X27603Y-33911D01*
X27781Y-33911D01*
X27945Y-33843D01*
X28071Y-33718D01*
X28084Y-33687D01*
X28084Y-34486D01*
G54D10*
G36*
X28721Y-26643D02*
X28664Y-26643D01*
X28664Y-21312D01*
X28721Y-21313D01*
X28721Y-26643D01*
X28721Y-26643D01*
G37*
G54D19*
X28721Y-26643D02*
X28664Y-26643D01*
X28664Y-21312D01*
X28721Y-21313D01*
X28721Y-26643D01*
G54D10*
G36*
X29084Y-38062D02*
X28967Y-38013D01*
X28789Y-38013D01*
X28625Y-38081D01*
X28499Y-38207D01*
X28486Y-38237D01*
X28486Y-34903D01*
X28579Y-34811D01*
X28641Y-34717D01*
X28664Y-34606D01*
X28664Y-34387D01*
X28781Y-34387D01*
X28945Y-34319D01*
X29071Y-34194D01*
X29084Y-34164D01*
X29084Y-38062D01*
X29084Y-38062D01*
G37*
G54D19*
X29084Y-38062D02*
X28967Y-38013D01*
X28789Y-38013D01*
X28625Y-38081D01*
X28499Y-38207D01*
X28486Y-38237D01*
X28486Y-34903D01*
X28579Y-34811D01*
X28641Y-34717D01*
X28664Y-34606D01*
X28664Y-34387D01*
X28781Y-34387D01*
X28945Y-34319D01*
X29071Y-34194D01*
X29084Y-34164D01*
X29084Y-38062D01*
G54D10*
G36*
X29721Y-29868D02*
X29664Y-29868D01*
X29664Y-21312D01*
X29721Y-21313D01*
X29721Y-29868D01*
X29721Y-29868D01*
G37*
G54D19*
X29721Y-29868D02*
X29664Y-29868D01*
X29664Y-21312D01*
X29721Y-21313D01*
X29721Y-29868D01*
G54D10*
G36*
X32324Y-29868D02*
X32266Y-29868D01*
X32266Y-24532D01*
X32324Y-24532D01*
X32324Y-29868D01*
X32324Y-29868D01*
G37*
G54D19*
X32324Y-29868D02*
X32266Y-29868D01*
X32266Y-24532D01*
X32324Y-24532D01*
X32324Y-29868D01*
G54D10*
G36*
X32372Y-44261D02*
X31324Y-44261D01*
X31324Y-38372D01*
X31256Y-38207D01*
X31131Y-38082D01*
X30967Y-38013D01*
X30789Y-38013D01*
X30625Y-38081D01*
X30499Y-38207D01*
X30431Y-38371D01*
X30431Y-38549D01*
X30498Y-38713D01*
X30624Y-38839D01*
X30788Y-38907D01*
X30966Y-38907D01*
X31130Y-38839D01*
X31256Y-38714D01*
X31324Y-38549D01*
X31324Y-38372D01*
X31324Y-44261D01*
X31324Y-44261D01*
X31324Y-41607D01*
X31324Y-41214D01*
X31286Y-41122D01*
X31216Y-41051D01*
X31124Y-41013D01*
X31025Y-41013D01*
X30631Y-41013D01*
X30539Y-41051D01*
X30469Y-41121D01*
X30431Y-41213D01*
X30431Y-41313D01*
X30431Y-41706D01*
X30469Y-41798D01*
X30539Y-41869D01*
X30631Y-41907D01*
X30730Y-41907D01*
X31124Y-41907D01*
X31216Y-41869D01*
X31286Y-41799D01*
X31324Y-41707D01*
X31324Y-41607D01*
X31324Y-44261D01*
X30627Y-44261D01*
X30627Y-43680D01*
X30644Y-43664D01*
X30706Y-43514D01*
X30706Y-43360D01*
X30781Y-43360D01*
X30945Y-43292D01*
X31071Y-43166D01*
X31139Y-43002D01*
X31139Y-42824D01*
X31071Y-42660D01*
X30946Y-42534D01*
X30782Y-42466D01*
X30604Y-42466D01*
X30440Y-42534D01*
X30314Y-42659D01*
X30246Y-42824D01*
X30245Y-43001D01*
X30255Y-43025D01*
X30218Y-43025D01*
X30111Y-43069D01*
X30139Y-43002D01*
X30139Y-42824D01*
X30077Y-42675D01*
X30139Y-42526D01*
X30139Y-42348D01*
X30071Y-42184D01*
X29946Y-42058D01*
X29782Y-41990D01*
X29664Y-41990D01*
X29664Y-41855D01*
X29788Y-41907D01*
X29966Y-41907D01*
X30130Y-41839D01*
X30256Y-41714D01*
X30324Y-41549D01*
X30324Y-41372D01*
X30256Y-41207D01*
X30131Y-41082D01*
X29967Y-41013D01*
X29789Y-41013D01*
X29664Y-41065D01*
X29664Y-34387D01*
X29781Y-34387D01*
X29945Y-34319D01*
X30071Y-34194D01*
X30139Y-34030D01*
X30139Y-33852D01*
X30077Y-33702D01*
X30139Y-33553D01*
X30139Y-33376D01*
X30071Y-33211D01*
X30070Y-33210D01*
X30071Y-33210D01*
X30139Y-33045D01*
X30139Y-32868D01*
X30071Y-32703D01*
X29946Y-32578D01*
X29824Y-32527D01*
X29824Y-31380D01*
X29910Y-31467D01*
X30060Y-31529D01*
X30139Y-31529D01*
X31202Y-32592D01*
X31202Y-35867D01*
X31139Y-35929D01*
X31139Y-33376D01*
X31071Y-33211D01*
X30946Y-33085D01*
X30782Y-33017D01*
X30604Y-33017D01*
X30440Y-33085D01*
X30314Y-33211D01*
X30246Y-33375D01*
X30245Y-33553D01*
X30313Y-33717D01*
X30439Y-33843D01*
X30603Y-33911D01*
X30781Y-33911D01*
X30945Y-33843D01*
X31071Y-33718D01*
X31139Y-33553D01*
X31139Y-33376D01*
X31139Y-35929D01*
X31127Y-35942D01*
X31065Y-36091D01*
X31064Y-36253D01*
X31126Y-36403D01*
X31241Y-36518D01*
X31391Y-36580D01*
X31505Y-36580D01*
X31505Y-42413D01*
X31527Y-42524D01*
X31590Y-42618D01*
X31848Y-42876D01*
X31848Y-43001D01*
X31915Y-43164D01*
X31912Y-43167D01*
X31844Y-43331D01*
X31844Y-43509D01*
X31912Y-43674D01*
X32037Y-43799D01*
X32202Y-43868D01*
X32372Y-43868D01*
X32372Y-44261D01*
X32372Y-44261D01*
G37*
G54D19*
X32372Y-44261D02*
X31324Y-44261D01*
X31324Y-38372D01*
X31256Y-38207D01*
X31131Y-38082D01*
X30967Y-38013D01*
X30789Y-38013D01*
X30625Y-38081D01*
X30499Y-38207D01*
X30431Y-38371D01*
X30431Y-38549D01*
X30498Y-38713D01*
X30624Y-38839D01*
X30788Y-38907D01*
X30966Y-38907D01*
X31130Y-38839D01*
X31256Y-38714D01*
X31324Y-38549D01*
X31324Y-38372D01*
X31324Y-44261D01*
X31324Y-44261D01*
X31324Y-41607D01*
X31324Y-41214D01*
X31286Y-41122D01*
X31216Y-41051D01*
X31124Y-41013D01*
X31025Y-41013D01*
X30631Y-41013D01*
X30539Y-41051D01*
X30469Y-41121D01*
X30431Y-41213D01*
X30431Y-41313D01*
X30431Y-41706D01*
X30469Y-41798D01*
X30539Y-41869D01*
X30631Y-41907D01*
X30730Y-41907D01*
X31124Y-41907D01*
X31216Y-41869D01*
X31286Y-41799D01*
X31324Y-41707D01*
X31324Y-41607D01*
X31324Y-44261D01*
X30627Y-44261D01*
X30627Y-43680D01*
X30644Y-43664D01*
X30706Y-43514D01*
X30706Y-43360D01*
X30781Y-43360D01*
X30945Y-43292D01*
X31071Y-43166D01*
X31139Y-43002D01*
X31139Y-42824D01*
X31071Y-42660D01*
X30946Y-42534D01*
X30782Y-42466D01*
X30604Y-42466D01*
X30440Y-42534D01*
X30314Y-42659D01*
X30246Y-42824D01*
X30245Y-43001D01*
X30255Y-43025D01*
X30218Y-43025D01*
X30111Y-43069D01*
X30139Y-43002D01*
X30139Y-42824D01*
X30077Y-42675D01*
X30139Y-42526D01*
X30139Y-42348D01*
X30071Y-42184D01*
X29946Y-42058D01*
X29782Y-41990D01*
X29664Y-41990D01*
X29664Y-41855D01*
X29788Y-41907D01*
X29966Y-41907D01*
X30130Y-41839D01*
X30256Y-41714D01*
X30324Y-41549D01*
X30324Y-41372D01*
X30256Y-41207D01*
X30131Y-41082D01*
X29967Y-41013D01*
X29789Y-41013D01*
X29664Y-41065D01*
X29664Y-34387D01*
X29781Y-34387D01*
X29945Y-34319D01*
X30071Y-34194D01*
X30139Y-34030D01*
X30139Y-33852D01*
X30077Y-33702D01*
X30139Y-33553D01*
X30139Y-33376D01*
X30071Y-33211D01*
X30070Y-33210D01*
X30071Y-33210D01*
X30139Y-33045D01*
X30139Y-32868D01*
X30071Y-32703D01*
X29946Y-32578D01*
X29824Y-32527D01*
X29824Y-31380D01*
X29910Y-31467D01*
X30060Y-31529D01*
X30139Y-31529D01*
X31202Y-32592D01*
X31202Y-35867D01*
X31139Y-35929D01*
X31139Y-33376D01*
X31071Y-33211D01*
X30946Y-33085D01*
X30782Y-33017D01*
X30604Y-33017D01*
X30440Y-33085D01*
X30314Y-33211D01*
X30246Y-33375D01*
X30245Y-33553D01*
X30313Y-33717D01*
X30439Y-33843D01*
X30603Y-33911D01*
X30781Y-33911D01*
X30945Y-33843D01*
X31071Y-33718D01*
X31139Y-33553D01*
X31139Y-33376D01*
X31139Y-35929D01*
X31127Y-35942D01*
X31065Y-36091D01*
X31064Y-36253D01*
X31126Y-36403D01*
X31241Y-36518D01*
X31391Y-36580D01*
X31505Y-36580D01*
X31505Y-42413D01*
X31527Y-42524D01*
X31590Y-42618D01*
X31848Y-42876D01*
X31848Y-43001D01*
X31915Y-43164D01*
X31912Y-43167D01*
X31844Y-43331D01*
X31844Y-43509D01*
X31912Y-43674D01*
X32037Y-43799D01*
X32202Y-43868D01*
X32372Y-43868D01*
X32372Y-44261D01*
G54D10*
G36*
X34527Y-42527D02*
X34380Y-42466D01*
X34202Y-42466D01*
X34104Y-42506D01*
X34104Y-38364D01*
X34202Y-38364D01*
X34366Y-38296D01*
X34492Y-38170D01*
X34505Y-38140D01*
X34505Y-42417D01*
X34527Y-42527D01*
X34527Y-42527D01*
G37*
G54D19*
X34527Y-42527D02*
X34380Y-42466D01*
X34202Y-42466D01*
X34104Y-42506D01*
X34104Y-38364D01*
X34202Y-38364D01*
X34366Y-38296D01*
X34492Y-38170D01*
X34505Y-38140D01*
X34505Y-42417D01*
X34527Y-42527D01*
G54D10*
G36*
X34682Y-26861D02*
X34670Y-26832D01*
X34544Y-26706D01*
X34380Y-26638D01*
X34202Y-26638D01*
X34038Y-26706D01*
X33912Y-26831D01*
X33900Y-26862D01*
X33900Y-21089D01*
X33912Y-21118D01*
X34037Y-21244D01*
X34202Y-21312D01*
X34379Y-21313D01*
X34544Y-21245D01*
X34669Y-21119D01*
X34682Y-21089D01*
X34682Y-26861D01*
X34682Y-26861D01*
G37*
G54D19*
X34682Y-26861D02*
X34670Y-26832D01*
X34544Y-26706D01*
X34380Y-26638D01*
X34202Y-26638D01*
X34038Y-26706D01*
X33912Y-26831D01*
X33900Y-26862D01*
X33900Y-21089D01*
X33912Y-21118D01*
X34037Y-21244D01*
X34202Y-21312D01*
X34379Y-21313D01*
X34544Y-21245D01*
X34669Y-21119D01*
X34682Y-21089D01*
X34682Y-26861D01*
G54D10*
G36*
X35160Y-32224D02*
X34767Y-32617D01*
X34704Y-32711D01*
X34682Y-32822D01*
X34682Y-33240D01*
X34670Y-33211D01*
X34544Y-33085D01*
X34380Y-33017D01*
X34202Y-33017D01*
X34038Y-33085D01*
X33912Y-33211D01*
X33844Y-33375D01*
X33844Y-33553D01*
X33912Y-33717D01*
X34037Y-33843D01*
X34202Y-33911D01*
X34379Y-33911D01*
X34544Y-33843D01*
X34669Y-33718D01*
X34682Y-33687D01*
X34682Y-34322D01*
X34704Y-34433D01*
X34767Y-34527D01*
X34819Y-34580D01*
X34735Y-34663D01*
X34667Y-34828D01*
X34667Y-35005D01*
X34735Y-35170D01*
X34860Y-35295D01*
X35024Y-35364D01*
X35143Y-35364D01*
X35143Y-36765D01*
X34590Y-37318D01*
X34527Y-37412D01*
X34505Y-37523D01*
X34505Y-37693D01*
X34493Y-37664D01*
X34367Y-37538D01*
X34203Y-37470D01*
X34025Y-37470D01*
X33861Y-37538D01*
X33735Y-37663D01*
X33667Y-37828D01*
X33667Y-37954D01*
X33609Y-38011D01*
X33547Y-38105D01*
X33524Y-38216D01*
X33524Y-42050D01*
X33380Y-41990D01*
X33254Y-41990D01*
X33254Y-38330D01*
X33254Y-38330D01*
X33254Y-38330D01*
X33250Y-38312D01*
X33232Y-38219D01*
X33169Y-38125D01*
X33169Y-38125D01*
X33081Y-38037D01*
X33081Y-35868D01*
X33210Y-35868D01*
X33360Y-35806D01*
X33416Y-35750D01*
X33570Y-35750D01*
X33681Y-35728D01*
X33775Y-35665D01*
X34077Y-35364D01*
X34202Y-35364D01*
X34366Y-35296D01*
X34492Y-35170D01*
X34560Y-35006D01*
X34561Y-34828D01*
X34493Y-34664D01*
X34367Y-34538D01*
X34203Y-34470D01*
X34025Y-34470D01*
X33861Y-34538D01*
X33735Y-34663D01*
X33667Y-34828D01*
X33667Y-34954D01*
X33522Y-35098D01*
X33560Y-35006D01*
X33561Y-34828D01*
X33493Y-34664D01*
X33367Y-34538D01*
X33262Y-34495D01*
X33262Y-34387D01*
X33379Y-34387D01*
X33544Y-34319D01*
X33669Y-34194D01*
X33738Y-34030D01*
X33738Y-33852D01*
X33676Y-33702D01*
X33738Y-33553D01*
X33738Y-33376D01*
X33670Y-33211D01*
X33669Y-33210D01*
X33669Y-33210D01*
X33738Y-33045D01*
X33738Y-32868D01*
X33670Y-32703D01*
X33544Y-32578D01*
X33422Y-32527D01*
X33422Y-31046D01*
X33815Y-30653D01*
X33815Y-30653D01*
X33815Y-30653D01*
X33878Y-30559D01*
X33888Y-30509D01*
X33912Y-30567D01*
X34037Y-30693D01*
X34202Y-30761D01*
X34379Y-30761D01*
X34544Y-30694D01*
X34669Y-30568D01*
X34694Y-30508D01*
X34704Y-30558D01*
X34767Y-30652D01*
X35160Y-31045D01*
X35160Y-32224D01*
X35160Y-32224D01*
G37*
G54D19*
X35160Y-32224D02*
X34767Y-32617D01*
X34704Y-32711D01*
X34682Y-32822D01*
X34682Y-33240D01*
X34670Y-33211D01*
X34544Y-33085D01*
X34380Y-33017D01*
X34202Y-33017D01*
X34038Y-33085D01*
X33912Y-33211D01*
X33844Y-33375D01*
X33844Y-33553D01*
X33912Y-33717D01*
X34037Y-33843D01*
X34202Y-33911D01*
X34379Y-33911D01*
X34544Y-33843D01*
X34669Y-33718D01*
X34682Y-33687D01*
X34682Y-34322D01*
X34704Y-34433D01*
X34767Y-34527D01*
X34819Y-34580D01*
X34735Y-34663D01*
X34667Y-34828D01*
X34667Y-35005D01*
X34735Y-35170D01*
X34860Y-35295D01*
X35024Y-35364D01*
X35143Y-35364D01*
X35143Y-36765D01*
X34590Y-37318D01*
X34527Y-37412D01*
X34505Y-37523D01*
X34505Y-37693D01*
X34493Y-37664D01*
X34367Y-37538D01*
X34203Y-37470D01*
X34025Y-37470D01*
X33861Y-37538D01*
X33735Y-37663D01*
X33667Y-37828D01*
X33667Y-37954D01*
X33609Y-38011D01*
X33547Y-38105D01*
X33524Y-38216D01*
X33524Y-42050D01*
X33380Y-41990D01*
X33254Y-41990D01*
X33254Y-38330D01*
X33254Y-38330D01*
X33254Y-38330D01*
X33250Y-38312D01*
X33232Y-38219D01*
X33169Y-38125D01*
X33169Y-38125D01*
X33081Y-38037D01*
X33081Y-35868D01*
X33210Y-35868D01*
X33360Y-35806D01*
X33416Y-35750D01*
X33570Y-35750D01*
X33681Y-35728D01*
X33775Y-35665D01*
X34077Y-35364D01*
X34202Y-35364D01*
X34366Y-35296D01*
X34492Y-35170D01*
X34560Y-35006D01*
X34561Y-34828D01*
X34493Y-34664D01*
X34367Y-34538D01*
X34203Y-34470D01*
X34025Y-34470D01*
X33861Y-34538D01*
X33735Y-34663D01*
X33667Y-34828D01*
X33667Y-34954D01*
X33522Y-35098D01*
X33560Y-35006D01*
X33561Y-34828D01*
X33493Y-34664D01*
X33367Y-34538D01*
X33262Y-34495D01*
X33262Y-34387D01*
X33379Y-34387D01*
X33544Y-34319D01*
X33669Y-34194D01*
X33738Y-34030D01*
X33738Y-33852D01*
X33676Y-33702D01*
X33738Y-33553D01*
X33738Y-33376D01*
X33670Y-33211D01*
X33669Y-33210D01*
X33669Y-33210D01*
X33738Y-33045D01*
X33738Y-32868D01*
X33670Y-32703D01*
X33544Y-32578D01*
X33422Y-32527D01*
X33422Y-31046D01*
X33815Y-30653D01*
X33815Y-30653D01*
X33815Y-30653D01*
X33878Y-30559D01*
X33888Y-30509D01*
X33912Y-30567D01*
X34037Y-30693D01*
X34202Y-30761D01*
X34379Y-30761D01*
X34544Y-30694D01*
X34669Y-30568D01*
X34694Y-30508D01*
X34704Y-30558D01*
X34767Y-30652D01*
X35160Y-31045D01*
X35160Y-32224D01*
G54D10*
G36*
X35320Y-29868D02*
X35262Y-29868D01*
X35262Y-24532D01*
X35320Y-24532D01*
X35320Y-29868D01*
X35320Y-29868D01*
G37*
G54D19*
X35320Y-29868D02*
X35262Y-29868D01*
X35262Y-24532D01*
X35320Y-24532D01*
X35320Y-29868D01*
G54D10*
G36*
X35505Y-42042D02*
X35380Y-41990D01*
X35202Y-41990D01*
X35085Y-42038D01*
X35085Y-38684D01*
X35097Y-38713D01*
X35222Y-38839D01*
X35387Y-38907D01*
X35505Y-38907D01*
X35505Y-42042D01*
X35505Y-42042D01*
G37*
G54D19*
X35505Y-42042D02*
X35380Y-41990D01*
X35202Y-41990D01*
X35085Y-42038D01*
X35085Y-38684D01*
X35097Y-38713D01*
X35222Y-38839D01*
X35387Y-38907D01*
X35505Y-38907D01*
X35505Y-42042D01*
G54D10*
G36*
X37682Y-25860D02*
X37588Y-25860D01*
X37438Y-25922D01*
X37324Y-26036D01*
X37261Y-26186D01*
X37261Y-26348D01*
X37323Y-26498D01*
X37379Y-26553D01*
X37379Y-26638D01*
X37202Y-26638D01*
X37038Y-26706D01*
X36912Y-26831D01*
X36900Y-26862D01*
X36900Y-21089D01*
X36912Y-21118D01*
X37037Y-21244D01*
X37202Y-21312D01*
X37379Y-21313D01*
X37544Y-21245D01*
X37669Y-21119D01*
X37682Y-21089D01*
X37682Y-25860D01*
X37682Y-25860D01*
G37*
G54D19*
X37682Y-25860D02*
X37588Y-25860D01*
X37438Y-25922D01*
X37324Y-26036D01*
X37261Y-26186D01*
X37261Y-26348D01*
X37323Y-26498D01*
X37379Y-26553D01*
X37379Y-26638D01*
X37202Y-26638D01*
X37038Y-26706D01*
X36912Y-26831D01*
X36900Y-26862D01*
X36900Y-21089D01*
X36912Y-21118D01*
X37037Y-21244D01*
X37202Y-21312D01*
X37379Y-21313D01*
X37544Y-21245D01*
X37669Y-21119D01*
X37682Y-21089D01*
X37682Y-25860D01*
G54D10*
G36*
X38320Y-29868D02*
X38262Y-29868D01*
X38262Y-24532D01*
X38320Y-24532D01*
X38320Y-29868D01*
X38320Y-29868D01*
G37*
G54D19*
X38320Y-29868D02*
X38262Y-29868D01*
X38262Y-24532D01*
X38320Y-24532D01*
X38320Y-29868D01*
G54D10*
G36*
X40682Y-34486D02*
X40590Y-34578D01*
X40527Y-34672D01*
X40505Y-34783D01*
X40505Y-37693D01*
X40493Y-37664D01*
X40367Y-37538D01*
X40203Y-37470D01*
X40077Y-37470D01*
X40060Y-37453D01*
X40060Y-33852D01*
X40202Y-33911D01*
X40379Y-33911D01*
X40544Y-33843D01*
X40669Y-33718D01*
X40682Y-33687D01*
X40682Y-34486D01*
X40682Y-34486D01*
G37*
G54D19*
X40682Y-34486D02*
X40590Y-34578D01*
X40527Y-34672D01*
X40505Y-34783D01*
X40505Y-37693D01*
X40493Y-37664D01*
X40367Y-37538D01*
X40203Y-37470D01*
X40077Y-37470D01*
X40060Y-37453D01*
X40060Y-33852D01*
X40202Y-33911D01*
X40379Y-33911D01*
X40544Y-33843D01*
X40669Y-33718D01*
X40682Y-33687D01*
X40682Y-34486D01*
G54D10*
G36*
X41682Y-38062D02*
X41565Y-38013D01*
X41387Y-38013D01*
X41223Y-38081D01*
X41097Y-38207D01*
X41085Y-38237D01*
X41085Y-34903D01*
X41177Y-34811D01*
X41240Y-34717D01*
X41262Y-34606D01*
X41262Y-34387D01*
X41379Y-34387D01*
X41544Y-34319D01*
X41669Y-34194D01*
X41682Y-34164D01*
X41682Y-38062D01*
X41682Y-38062D01*
G37*
G54D19*
X41682Y-38062D02*
X41565Y-38013D01*
X41387Y-38013D01*
X41223Y-38081D01*
X41097Y-38207D01*
X41085Y-38237D01*
X41085Y-34903D01*
X41177Y-34811D01*
X41240Y-34717D01*
X41262Y-34606D01*
X41262Y-34387D01*
X41379Y-34387D01*
X41544Y-34319D01*
X41669Y-34194D01*
X41682Y-34164D01*
X41682Y-38062D01*
G54D10*
G36*
X42532Y-14045D02*
X42415Y-14045D01*
X42251Y-14113D01*
X42125Y-14238D01*
X42112Y-14268D01*
X42112Y-8799D01*
X42090Y-8688D01*
X42072Y-8660D01*
X42202Y-8714D01*
X42328Y-8714D01*
X42532Y-8919D01*
X42532Y-14045D01*
X42532Y-14045D01*
G37*
G54D19*
X42532Y-14045D02*
X42415Y-14045D01*
X42251Y-14113D01*
X42125Y-14238D01*
X42112Y-14268D01*
X42112Y-8799D01*
X42090Y-8688D01*
X42072Y-8660D01*
X42202Y-8714D01*
X42328Y-8714D01*
X42532Y-8919D01*
X42532Y-14045D01*
G54D10*
G36*
X43814Y-11171D02*
X43757Y-11113D01*
X43593Y-11045D01*
X43415Y-11045D01*
X43251Y-11113D01*
X43125Y-11238D01*
X43112Y-11268D01*
X43112Y-8799D01*
X43090Y-8688D01*
X43072Y-8660D01*
X43202Y-8714D01*
X43379Y-8714D01*
X43544Y-8646D01*
X43669Y-8521D01*
X43738Y-8356D01*
X43738Y-8179D01*
X43670Y-8014D01*
X43544Y-7889D01*
X43380Y-7820D01*
X43202Y-7820D01*
X43038Y-7888D01*
X42912Y-8014D01*
X42844Y-8178D01*
X42844Y-8356D01*
X42882Y-8449D01*
X42738Y-8304D01*
X42738Y-8179D01*
X42670Y-8014D01*
X42544Y-7889D01*
X42380Y-7820D01*
X42202Y-7820D01*
X42038Y-7888D01*
X41912Y-8014D01*
X41844Y-8178D01*
X41844Y-8356D01*
X41882Y-8449D01*
X41738Y-8304D01*
X41738Y-8179D01*
X41670Y-8014D01*
X41544Y-7889D01*
X41380Y-7820D01*
X41202Y-7820D01*
X41038Y-7888D01*
X40912Y-8014D01*
X40844Y-8178D01*
X40844Y-8356D01*
X40912Y-8520D01*
X41037Y-8646D01*
X41202Y-8714D01*
X41328Y-8714D01*
X41532Y-8919D01*
X41532Y-11045D01*
X41415Y-11045D01*
X41297Y-11094D01*
X41297Y-10415D01*
X41272Y-10289D01*
X41272Y-10289D01*
X41200Y-10183D01*
X40950Y-9933D01*
X40950Y-9862D01*
X40882Y-9698D01*
X40757Y-9572D01*
X40593Y-9504D01*
X40415Y-9504D01*
X40251Y-9572D01*
X40125Y-9697D01*
X40112Y-9727D01*
X40112Y-8799D01*
X40090Y-8688D01*
X40072Y-8660D01*
X40202Y-8714D01*
X40379Y-8714D01*
X40544Y-8646D01*
X40669Y-8521D01*
X40738Y-8356D01*
X40738Y-8179D01*
X40670Y-8014D01*
X40544Y-7889D01*
X40380Y-7820D01*
X40202Y-7820D01*
X40038Y-7888D01*
X39912Y-8014D01*
X39844Y-8178D01*
X39844Y-8356D01*
X39882Y-8449D01*
X39738Y-8304D01*
X39738Y-8179D01*
X39670Y-8014D01*
X39544Y-7889D01*
X39380Y-7820D01*
X39202Y-7820D01*
X39038Y-7888D01*
X38912Y-8014D01*
X38844Y-8178D01*
X38844Y-8356D01*
X38882Y-8449D01*
X38738Y-8304D01*
X38738Y-8179D01*
X38670Y-8014D01*
X38544Y-7889D01*
X38380Y-7820D01*
X38202Y-7820D01*
X38038Y-7888D01*
X37912Y-8014D01*
X37844Y-8178D01*
X37844Y-8356D01*
X37912Y-8520D01*
X38037Y-8646D01*
X38202Y-8714D01*
X38328Y-8714D01*
X38532Y-8919D01*
X38532Y-9504D01*
X38415Y-9504D01*
X38251Y-9572D01*
X38125Y-9697D01*
X38057Y-9861D01*
X38057Y-10039D01*
X38124Y-10203D01*
X38250Y-10329D01*
X38414Y-10397D01*
X38532Y-10398D01*
X38532Y-10488D01*
X38415Y-10488D01*
X38251Y-10556D01*
X38125Y-10681D01*
X38057Y-10846D01*
X38057Y-11023D01*
X38124Y-11188D01*
X38150Y-11213D01*
X38125Y-11238D01*
X38057Y-11402D01*
X38057Y-11580D01*
X38124Y-11744D01*
X38250Y-11870D01*
X38414Y-11938D01*
X38532Y-11939D01*
X38532Y-14045D01*
X38415Y-14045D01*
X38251Y-14113D01*
X38125Y-14238D01*
X38057Y-14402D01*
X38057Y-14580D01*
X38124Y-14744D01*
X38143Y-14763D01*
X38125Y-14781D01*
X38057Y-14946D01*
X38057Y-15123D01*
X38124Y-15288D01*
X38250Y-15414D01*
X38414Y-15482D01*
X38532Y-15482D01*
X38532Y-15572D01*
X38415Y-15572D01*
X38251Y-15640D01*
X38125Y-15766D01*
X38057Y-15930D01*
X38057Y-16108D01*
X38124Y-16272D01*
X38250Y-16398D01*
X38414Y-16466D01*
X38532Y-16466D01*
X38532Y-17332D01*
X38380Y-17269D01*
X38202Y-17269D01*
X38038Y-17337D01*
X37912Y-17463D01*
X37844Y-17627D01*
X37844Y-17805D01*
X37912Y-17969D01*
X38037Y-18095D01*
X38202Y-18163D01*
X38328Y-18163D01*
X38372Y-18208D01*
X38372Y-19921D01*
X37767Y-20527D01*
X37704Y-20621D01*
X37694Y-20671D01*
X37670Y-20613D01*
X37544Y-20487D01*
X37380Y-20419D01*
X37202Y-20419D01*
X37072Y-20473D01*
X37090Y-20445D01*
X37112Y-20334D01*
X37112Y-18126D01*
X37202Y-18163D01*
X37379Y-18163D01*
X37544Y-18095D01*
X37669Y-17969D01*
X37738Y-17805D01*
X37738Y-17628D01*
X37670Y-17463D01*
X37544Y-17337D01*
X37380Y-17269D01*
X37202Y-17269D01*
X37112Y-17306D01*
X37112Y-16243D01*
X37124Y-16272D01*
X37250Y-16398D01*
X37414Y-16466D01*
X37592Y-16466D01*
X37756Y-16398D01*
X37882Y-16273D01*
X37950Y-16108D01*
X37950Y-15931D01*
X37882Y-15766D01*
X37757Y-15641D01*
X37593Y-15572D01*
X37415Y-15572D01*
X37251Y-15640D01*
X37125Y-15766D01*
X37112Y-15796D01*
X37112Y-15259D01*
X37124Y-15288D01*
X37250Y-15414D01*
X37414Y-15482D01*
X37592Y-15482D01*
X37756Y-15414D01*
X37882Y-15288D01*
X37950Y-15124D01*
X37950Y-14946D01*
X37882Y-14782D01*
X37864Y-14763D01*
X37882Y-14745D01*
X37950Y-14581D01*
X37950Y-14403D01*
X37882Y-14239D01*
X37757Y-14113D01*
X37593Y-14045D01*
X37415Y-14045D01*
X37251Y-14113D01*
X37125Y-14238D01*
X37112Y-14268D01*
X37112Y-11715D01*
X37124Y-11744D01*
X37250Y-11870D01*
X37414Y-11938D01*
X37592Y-11939D01*
X37756Y-11871D01*
X37882Y-11745D01*
X37950Y-11581D01*
X37950Y-11403D01*
X37882Y-11239D01*
X37857Y-11213D01*
X37882Y-11188D01*
X37950Y-11024D01*
X37950Y-10846D01*
X37950Y-9862D01*
X37882Y-9698D01*
X37757Y-9572D01*
X37738Y-9564D01*
X37738Y-8179D01*
X37670Y-8014D01*
X37544Y-7889D01*
X37380Y-7820D01*
X37202Y-7820D01*
X37038Y-7888D01*
X36912Y-8014D01*
X36844Y-8178D01*
X36844Y-8356D01*
X36912Y-8520D01*
X37037Y-8646D01*
X37202Y-8714D01*
X37379Y-8714D01*
X37544Y-8646D01*
X37669Y-8521D01*
X37738Y-8356D01*
X37738Y-8179D01*
X37738Y-9564D01*
X37593Y-9504D01*
X37415Y-9504D01*
X37251Y-9572D01*
X37125Y-9697D01*
X37057Y-9861D01*
X37057Y-10039D01*
X37124Y-10203D01*
X37250Y-10329D01*
X37414Y-10397D01*
X37592Y-10398D01*
X37756Y-10330D01*
X37882Y-10204D01*
X37950Y-10040D01*
X37950Y-9862D01*
X37950Y-10846D01*
X37882Y-10682D01*
X37757Y-10556D01*
X37593Y-10488D01*
X37415Y-10488D01*
X37251Y-10556D01*
X37125Y-10681D01*
X37057Y-10846D01*
X37057Y-11023D01*
X37124Y-11188D01*
X37150Y-11213D01*
X37125Y-11238D01*
X37100Y-11297D01*
X37090Y-11247D01*
X37027Y-11153D01*
X36581Y-10706D01*
X36581Y-8609D01*
X36669Y-8521D01*
X36738Y-8356D01*
X36738Y-8179D01*
X36670Y-8014D01*
X36544Y-7889D01*
X36380Y-7820D01*
X36202Y-7820D01*
X36038Y-7888D01*
X35912Y-8014D01*
X35844Y-8178D01*
X35844Y-8356D01*
X35912Y-8520D01*
X36001Y-8609D01*
X36001Y-10826D01*
X36023Y-10937D01*
X36086Y-11031D01*
X36209Y-11154D01*
X36125Y-11238D01*
X36100Y-11297D01*
X36090Y-11247D01*
X36027Y-11153D01*
X35581Y-10706D01*
X35581Y-8609D01*
X35669Y-8521D01*
X35738Y-8356D01*
X35738Y-8179D01*
X35670Y-8014D01*
X35544Y-7889D01*
X35380Y-7820D01*
X35202Y-7820D01*
X35038Y-7888D01*
X34912Y-8014D01*
X34844Y-8178D01*
X34844Y-8356D01*
X34912Y-8520D01*
X35001Y-8609D01*
X35001Y-10826D01*
X35023Y-10937D01*
X35086Y-11031D01*
X35209Y-11154D01*
X35125Y-11238D01*
X35057Y-11402D01*
X35057Y-11580D01*
X35124Y-11744D01*
X35250Y-11870D01*
X35414Y-11938D01*
X35532Y-11939D01*
X35532Y-17332D01*
X35380Y-17269D01*
X35202Y-17269D01*
X35038Y-17337D01*
X34912Y-17463D01*
X34844Y-17627D01*
X34844Y-17805D01*
X34912Y-17969D01*
X35037Y-18095D01*
X35202Y-18163D01*
X35328Y-18163D01*
X35372Y-18208D01*
X35372Y-19921D01*
X34767Y-20527D01*
X34704Y-20621D01*
X34694Y-20671D01*
X34670Y-20613D01*
X34544Y-20487D01*
X34380Y-20419D01*
X34202Y-20419D01*
X34038Y-20487D01*
X33912Y-20612D01*
X33900Y-20642D01*
X33900Y-20547D01*
X33900Y-17940D01*
X33912Y-17969D01*
X34037Y-18095D01*
X34202Y-18163D01*
X34379Y-18163D01*
X34544Y-18095D01*
X34669Y-17969D01*
X34738Y-17805D01*
X34738Y-17628D01*
X34738Y-8179D01*
X34670Y-8014D01*
X34544Y-7889D01*
X34380Y-7820D01*
X34202Y-7820D01*
X34038Y-7888D01*
X33912Y-8014D01*
X33844Y-8178D01*
X33844Y-8356D01*
X33912Y-8520D01*
X34037Y-8646D01*
X34202Y-8714D01*
X34379Y-8714D01*
X34544Y-8646D01*
X34669Y-8521D01*
X34738Y-8356D01*
X34738Y-8179D01*
X34738Y-17628D01*
X34670Y-17463D01*
X34544Y-17337D01*
X34380Y-17269D01*
X34202Y-17269D01*
X34038Y-17337D01*
X33912Y-17463D01*
X33888Y-17522D01*
X33878Y-17471D01*
X33815Y-17377D01*
X33608Y-17171D01*
X33608Y-11673D01*
X33608Y-11673D01*
X33608Y-11673D01*
X33586Y-11562D01*
X33581Y-11554D01*
X33581Y-11499D01*
X33617Y-11514D01*
X33794Y-11514D01*
X33959Y-11446D01*
X34085Y-11321D01*
X34153Y-11156D01*
X34153Y-10979D01*
X34085Y-10814D01*
X33959Y-10689D01*
X33795Y-10620D01*
X33617Y-10620D01*
X33581Y-10635D01*
X33581Y-8609D01*
X33669Y-8521D01*
X33738Y-8356D01*
X33738Y-8179D01*
X33670Y-8014D01*
X33544Y-7889D01*
X33380Y-7820D01*
X33202Y-7820D01*
X33038Y-7888D01*
X32912Y-8014D01*
X32844Y-8178D01*
X32844Y-8356D01*
X32912Y-8520D01*
X33001Y-8609D01*
X33001Y-11327D01*
X32910Y-11327D01*
X32746Y-11395D01*
X32620Y-11521D01*
X32585Y-11606D01*
X32585Y-8609D01*
X32673Y-8521D01*
X32742Y-8356D01*
X32742Y-8179D01*
X32674Y-8014D01*
X32548Y-7889D01*
X32384Y-7820D01*
X32206Y-7820D01*
X32042Y-7888D01*
X31916Y-8014D01*
X31848Y-8178D01*
X31848Y-8356D01*
X31916Y-8520D01*
X32005Y-8609D01*
X32005Y-8793D01*
X31964Y-8693D01*
X31838Y-8567D01*
X31674Y-8499D01*
X31496Y-8499D01*
X31332Y-8567D01*
X31206Y-8692D01*
X31139Y-8853D01*
X31139Y-8179D01*
X31071Y-8014D01*
X30946Y-7889D01*
X30782Y-7820D01*
X30604Y-7820D01*
X30440Y-7888D01*
X30314Y-8014D01*
X30246Y-8178D01*
X30245Y-8356D01*
X30313Y-8520D01*
X30439Y-8646D01*
X30603Y-8714D01*
X30781Y-8714D01*
X30945Y-8646D01*
X31071Y-8521D01*
X31139Y-8356D01*
X31139Y-8179D01*
X31139Y-8853D01*
X31138Y-8857D01*
X31138Y-9034D01*
X31206Y-9199D01*
X31295Y-9288D01*
X31295Y-9492D01*
X31257Y-9400D01*
X31131Y-9274D01*
X30967Y-9206D01*
X30789Y-9206D01*
X30625Y-9274D01*
X30499Y-9400D01*
X30431Y-9564D01*
X30431Y-9741D01*
X30498Y-9906D01*
X30587Y-9995D01*
X30587Y-10199D01*
X30549Y-10107D01*
X30424Y-9981D01*
X30260Y-9913D01*
X30082Y-9913D01*
X29982Y-9954D01*
X29982Y-8609D01*
X30071Y-8521D01*
X30139Y-8356D01*
X30139Y-8179D01*
X30071Y-8014D01*
X29946Y-7889D01*
X29782Y-7820D01*
X29604Y-7820D01*
X29440Y-7888D01*
X29314Y-8014D01*
X29246Y-8178D01*
X29245Y-8356D01*
X29313Y-8520D01*
X29402Y-8609D01*
X29402Y-10620D01*
X29375Y-10620D01*
X29210Y-10688D01*
X29085Y-10814D01*
X29016Y-10978D01*
X29016Y-11156D01*
X29029Y-11185D01*
X28982Y-11139D01*
X28982Y-8609D01*
X29071Y-8521D01*
X29139Y-8356D01*
X29139Y-8179D01*
X29071Y-8014D01*
X28946Y-7889D01*
X28782Y-7820D01*
X28604Y-7820D01*
X28440Y-7888D01*
X28314Y-8014D01*
X28246Y-8178D01*
X28245Y-8356D01*
X28313Y-8520D01*
X28402Y-8609D01*
X28402Y-11259D01*
X28424Y-11370D01*
X28466Y-11433D01*
X28378Y-11521D01*
X28309Y-11685D01*
X28309Y-11863D01*
X28377Y-12027D01*
X28456Y-12106D01*
X28381Y-12181D01*
X28303Y-12103D01*
X28139Y-12035D01*
X28139Y-8179D01*
X28071Y-8014D01*
X27946Y-7889D01*
X27782Y-7820D01*
X27604Y-7820D01*
X27440Y-7888D01*
X27314Y-8014D01*
X27246Y-8178D01*
X27245Y-8356D01*
X27313Y-8520D01*
X27439Y-8646D01*
X27603Y-8714D01*
X27781Y-8714D01*
X27945Y-8646D01*
X28071Y-8521D01*
X28139Y-8356D01*
X28139Y-8179D01*
X28139Y-12035D01*
X28138Y-12035D01*
X27961Y-12034D01*
X27796Y-12102D01*
X27670Y-12228D01*
X27602Y-12392D01*
X27602Y-12570D01*
X27670Y-12734D01*
X27796Y-12860D01*
X27866Y-12889D01*
X27866Y-13302D01*
X27789Y-13225D01*
X27789Y-13100D01*
X27721Y-12936D01*
X27595Y-12810D01*
X27431Y-12742D01*
X27253Y-12742D01*
X27089Y-12809D01*
X26963Y-12935D01*
X26895Y-13099D01*
X26895Y-13277D01*
X26963Y-13441D01*
X27088Y-13567D01*
X27253Y-13635D01*
X27379Y-13635D01*
X27706Y-13962D01*
X27706Y-14396D01*
X27703Y-14391D01*
X27589Y-14276D01*
X27439Y-14214D01*
X27363Y-14214D01*
X27082Y-13932D01*
X27082Y-13807D01*
X27014Y-13643D01*
X26888Y-13517D01*
X26724Y-13449D01*
X26604Y-13449D01*
X26604Y-8765D01*
X26656Y-8714D01*
X26781Y-8714D01*
X26945Y-8646D01*
X27071Y-8521D01*
X27139Y-8356D01*
X27139Y-8179D01*
X27071Y-8014D01*
X26946Y-7889D01*
X26782Y-7820D01*
X26604Y-7820D01*
X26440Y-7888D01*
X26314Y-8014D01*
X26246Y-8178D01*
X26246Y-8304D01*
X26109Y-8440D01*
X26096Y-8460D01*
X26139Y-8356D01*
X26139Y-8179D01*
X26071Y-8014D01*
X25946Y-7889D01*
X25782Y-7820D01*
X25604Y-7820D01*
X25440Y-7888D01*
X25314Y-8014D01*
X25246Y-8178D01*
X25245Y-8356D01*
X25313Y-8520D01*
X25402Y-8609D01*
X25402Y-14262D01*
X25342Y-14353D01*
X25320Y-14464D01*
X25320Y-14896D01*
X25262Y-14872D01*
X25105Y-14871D01*
X25161Y-14816D01*
X25229Y-14652D01*
X25229Y-14474D01*
X25161Y-14310D01*
X25139Y-14288D01*
X25139Y-8179D01*
X25071Y-8014D01*
X24946Y-7889D01*
X24782Y-7820D01*
X24604Y-7820D01*
X24440Y-7888D01*
X24314Y-8014D01*
X24246Y-8178D01*
X24245Y-8356D01*
X24313Y-8520D01*
X24439Y-8646D01*
X24603Y-8714D01*
X24781Y-8714D01*
X24945Y-8646D01*
X25071Y-8521D01*
X25139Y-8356D01*
X25139Y-8179D01*
X25139Y-14288D01*
X25036Y-14184D01*
X24872Y-14116D01*
X24694Y-14116D01*
X24529Y-14184D01*
X24404Y-14309D01*
X24365Y-14402D01*
X24365Y-14197D01*
X24454Y-14109D01*
X24522Y-13945D01*
X24522Y-13767D01*
X24454Y-13603D01*
X24329Y-13477D01*
X24164Y-13409D01*
X23987Y-13409D01*
X23982Y-13410D01*
X23982Y-8609D01*
X24071Y-8521D01*
X24139Y-8356D01*
X24139Y-8179D01*
X24071Y-8014D01*
X23946Y-7889D01*
X23782Y-7820D01*
X23604Y-7820D01*
X23440Y-7888D01*
X23314Y-8014D01*
X23246Y-8178D01*
X23245Y-8356D01*
X23313Y-8520D01*
X23402Y-8609D01*
X23402Y-12702D01*
X23280Y-12701D01*
X23115Y-12769D01*
X22989Y-12895D01*
X22951Y-12988D01*
X22951Y-12783D01*
X23040Y-12695D01*
X23108Y-12530D01*
X23108Y-12353D01*
X23040Y-12188D01*
X22944Y-12092D01*
X22960Y-12067D01*
X22982Y-11956D01*
X22982Y-8609D01*
X23071Y-8521D01*
X23139Y-8356D01*
X23139Y-8179D01*
X23071Y-8014D01*
X22946Y-7889D01*
X22782Y-7820D01*
X22604Y-7820D01*
X22589Y-7826D01*
X22600Y-7801D01*
X22600Y-7639D01*
X22538Y-7489D01*
X22424Y-7375D01*
X22274Y-7313D01*
X22195Y-7312D01*
X21958Y-7075D01*
X21864Y-7013D01*
X21753Y-6990D01*
X13081Y-6990D01*
X12970Y-7013D01*
X12876Y-7075D01*
X12876Y-7075D01*
X12131Y-7820D01*
X12005Y-7820D01*
X11841Y-7888D01*
X11715Y-8014D01*
X11647Y-8178D01*
X11647Y-8356D01*
X11715Y-8520D01*
X11841Y-8646D01*
X12005Y-8714D01*
X12182Y-8714D01*
X12347Y-8646D01*
X12473Y-8521D01*
X12541Y-8356D01*
X12541Y-8230D01*
X12685Y-8086D01*
X12647Y-8178D01*
X12647Y-8356D01*
X12715Y-8520D01*
X12841Y-8646D01*
X13005Y-8714D01*
X13123Y-8714D01*
X13123Y-9552D01*
X13006Y-9504D01*
X12828Y-9504D01*
X12664Y-9572D01*
X12538Y-9697D01*
X12470Y-9861D01*
X12470Y-10039D01*
X12538Y-10203D01*
X12663Y-10329D01*
X12828Y-10397D01*
X13005Y-10398D01*
X13123Y-10349D01*
X13123Y-10537D01*
X13006Y-10488D01*
X12828Y-10488D01*
X12664Y-10556D01*
X12538Y-10681D01*
X12470Y-10846D01*
X12470Y-11023D01*
X12538Y-11188D01*
X12563Y-11213D01*
X12538Y-11238D01*
X12470Y-11402D01*
X12470Y-11580D01*
X12538Y-11744D01*
X12663Y-11870D01*
X12828Y-11938D01*
X13005Y-11939D01*
X13123Y-11890D01*
X13123Y-14093D01*
X13006Y-14045D01*
X12828Y-14045D01*
X12664Y-14113D01*
X12538Y-14238D01*
X12470Y-14402D01*
X12470Y-14580D01*
X12538Y-14744D01*
X12557Y-14763D01*
X12538Y-14781D01*
X12470Y-14946D01*
X12470Y-15123D01*
X12538Y-15288D01*
X12663Y-15414D01*
X12828Y-15482D01*
X13005Y-15482D01*
X13123Y-15433D01*
X13123Y-15621D01*
X13006Y-15572D01*
X12828Y-15572D01*
X12664Y-15640D01*
X12538Y-15766D01*
X12470Y-15930D01*
X12470Y-16108D01*
X12538Y-16272D01*
X12663Y-16398D01*
X12828Y-16466D01*
X13005Y-16466D01*
X13123Y-16418D01*
X13123Y-17269D01*
X13005Y-17269D01*
X12841Y-17337D01*
X12715Y-17463D01*
X12647Y-17627D01*
X12647Y-17805D01*
X12715Y-17969D01*
X12841Y-18095D01*
X12963Y-18145D01*
X12963Y-20134D01*
X12570Y-20527D01*
X12507Y-20621D01*
X12497Y-20671D01*
X12473Y-20613D01*
X12347Y-20487D01*
X12183Y-20419D01*
X12013Y-20419D01*
X12013Y-18163D01*
X12182Y-18163D01*
X12347Y-18095D01*
X12473Y-17969D01*
X12541Y-17805D01*
X12541Y-17628D01*
X12473Y-17463D01*
X12347Y-17337D01*
X12183Y-17269D01*
X12013Y-17269D01*
X12013Y-16463D01*
X12170Y-16398D01*
X12295Y-16273D01*
X12364Y-16108D01*
X12364Y-15931D01*
X12296Y-15766D01*
X12170Y-15641D01*
X12006Y-15572D01*
X11828Y-15572D01*
X11703Y-15624D01*
X11703Y-15430D01*
X11828Y-15482D01*
X12005Y-15482D01*
X12170Y-15414D01*
X12295Y-15288D01*
X12364Y-15124D01*
X12364Y-14946D01*
X12296Y-14782D01*
X12277Y-14763D01*
X12295Y-14745D01*
X12364Y-14581D01*
X12364Y-14403D01*
X12296Y-14239D01*
X12170Y-14113D01*
X12006Y-14045D01*
X11828Y-14045D01*
X11703Y-14097D01*
X11703Y-11887D01*
X11828Y-11938D01*
X12005Y-11939D01*
X12170Y-11871D01*
X12295Y-11745D01*
X12364Y-11581D01*
X12364Y-11403D01*
X12296Y-11239D01*
X12270Y-11213D01*
X12295Y-11188D01*
X12364Y-11024D01*
X12364Y-10846D01*
X12296Y-10682D01*
X12170Y-10556D01*
X12006Y-10488D01*
X11828Y-10488D01*
X11703Y-10540D01*
X11703Y-10346D01*
X11828Y-10397D01*
X12005Y-10398D01*
X12170Y-10330D01*
X12295Y-10204D01*
X12364Y-10040D01*
X12364Y-9862D01*
X12296Y-9698D01*
X12170Y-9572D01*
X12006Y-9504D01*
X11828Y-9504D01*
X11703Y-9556D01*
X11703Y-8586D01*
X11703Y-8586D01*
X11703Y-8586D01*
X11699Y-8568D01*
X11681Y-8475D01*
X11618Y-8381D01*
X11618Y-8381D01*
X11541Y-8304D01*
X11541Y-8179D01*
X11473Y-8014D01*
X11347Y-7889D01*
X11183Y-7820D01*
X11005Y-7820D01*
X10841Y-7888D01*
X10715Y-8014D01*
X10647Y-8178D01*
X10647Y-8356D01*
X10715Y-8520D01*
X10841Y-8646D01*
X11005Y-8714D01*
X11123Y-8714D01*
X11123Y-9552D01*
X11006Y-9504D01*
X10828Y-9504D01*
X10703Y-9556D01*
X10703Y-8586D01*
X10703Y-8586D01*
X10703Y-8586D01*
X10699Y-8568D01*
X10681Y-8475D01*
X10618Y-8381D01*
X10618Y-8381D01*
X10541Y-8304D01*
X10541Y-8179D01*
X10473Y-8014D01*
X10347Y-7889D01*
X10183Y-7820D01*
X10005Y-7820D01*
X9841Y-7888D01*
X9715Y-8014D01*
X9647Y-8178D01*
X9647Y-8356D01*
X9715Y-8520D01*
X9841Y-8646D01*
X10005Y-8714D01*
X10123Y-8714D01*
X10123Y-9552D01*
X10006Y-9504D01*
X9828Y-9504D01*
X9664Y-9572D01*
X9541Y-9695D01*
X9541Y-8179D01*
X9473Y-8014D01*
X9347Y-7889D01*
X9183Y-7820D01*
X9005Y-7820D01*
X8841Y-7888D01*
X8715Y-8014D01*
X8647Y-8178D01*
X8647Y-8356D01*
X8715Y-8520D01*
X8841Y-8646D01*
X9005Y-8714D01*
X9182Y-8714D01*
X9347Y-8646D01*
X9473Y-8521D01*
X9541Y-8356D01*
X9541Y-8179D01*
X9541Y-9695D01*
X9538Y-9697D01*
X9470Y-9861D01*
X9470Y-9933D01*
X9200Y-10202D01*
X9129Y-10309D01*
X9104Y-10435D01*
X9104Y-11085D01*
X9006Y-11045D01*
X8828Y-11045D01*
X8703Y-11097D01*
X8703Y-8586D01*
X8703Y-8586D01*
X8703Y-8586D01*
X8699Y-8568D01*
X8681Y-8475D01*
X8618Y-8381D01*
X8618Y-8381D01*
X8541Y-8304D01*
X8541Y-8179D01*
X8473Y-8014D01*
X8347Y-7889D01*
X8183Y-7820D01*
X8005Y-7820D01*
X7841Y-7888D01*
X7715Y-8014D01*
X7647Y-8178D01*
X7647Y-8356D01*
X7715Y-8520D01*
X7841Y-8646D01*
X8005Y-8714D01*
X8123Y-8714D01*
X8123Y-11093D01*
X8006Y-11045D01*
X7828Y-11045D01*
X7707Y-11095D01*
X7707Y-8586D01*
X7685Y-8475D01*
X7622Y-8381D01*
X7618Y-8377D01*
X7610Y-8369D01*
X7610Y-8369D01*
X7545Y-8304D01*
X7545Y-8179D01*
X7477Y-8014D01*
X7351Y-7889D01*
X7187Y-7820D01*
X7009Y-7820D01*
X6845Y-7888D01*
X6719Y-8014D01*
X6651Y-8178D01*
X6651Y-8356D01*
X6719Y-8520D01*
X6844Y-8646D01*
X7009Y-8714D01*
X7127Y-8714D01*
X7127Y-11045D01*
X7064Y-11045D01*
X6670Y-11045D01*
X6579Y-11083D01*
X6578Y-11083D01*
X6578Y-6185D01*
X43814Y-6185D01*
X43814Y-11171D01*
X43814Y-11171D01*
G37*
G54D19*
X43814Y-11171D02*
X43757Y-11113D01*
X43593Y-11045D01*
X43415Y-11045D01*
X43251Y-11113D01*
X43125Y-11238D01*
X43112Y-11268D01*
X43112Y-8799D01*
X43090Y-8688D01*
X43072Y-8660D01*
X43202Y-8714D01*
X43379Y-8714D01*
X43544Y-8646D01*
X43669Y-8521D01*
X43738Y-8356D01*
X43738Y-8179D01*
X43670Y-8014D01*
X43544Y-7889D01*
X43380Y-7820D01*
X43202Y-7820D01*
X43038Y-7888D01*
X42912Y-8014D01*
X42844Y-8178D01*
X42844Y-8356D01*
X42882Y-8449D01*
X42738Y-8304D01*
X42738Y-8179D01*
X42670Y-8014D01*
X42544Y-7889D01*
X42380Y-7820D01*
X42202Y-7820D01*
X42038Y-7888D01*
X41912Y-8014D01*
X41844Y-8178D01*
X41844Y-8356D01*
X41882Y-8449D01*
X41738Y-8304D01*
X41738Y-8179D01*
X41670Y-8014D01*
X41544Y-7889D01*
X41380Y-7820D01*
X41202Y-7820D01*
X41038Y-7888D01*
X40912Y-8014D01*
X40844Y-8178D01*
X40844Y-8356D01*
X40912Y-8520D01*
X41037Y-8646D01*
X41202Y-8714D01*
X41328Y-8714D01*
X41532Y-8919D01*
X41532Y-11045D01*
X41415Y-11045D01*
X41297Y-11094D01*
X41297Y-10415D01*
X41272Y-10289D01*
X41272Y-10289D01*
X41200Y-10183D01*
X40950Y-9933D01*
X40950Y-9862D01*
X40882Y-9698D01*
X40757Y-9572D01*
X40593Y-9504D01*
X40415Y-9504D01*
X40251Y-9572D01*
X40125Y-9697D01*
X40112Y-9727D01*
X40112Y-8799D01*
X40090Y-8688D01*
X40072Y-8660D01*
X40202Y-8714D01*
X40379Y-8714D01*
X40544Y-8646D01*
X40669Y-8521D01*
X40738Y-8356D01*
X40738Y-8179D01*
X40670Y-8014D01*
X40544Y-7889D01*
X40380Y-7820D01*
X40202Y-7820D01*
X40038Y-7888D01*
X39912Y-8014D01*
X39844Y-8178D01*
X39844Y-8356D01*
X39882Y-8449D01*
X39738Y-8304D01*
X39738Y-8179D01*
X39670Y-8014D01*
X39544Y-7889D01*
X39380Y-7820D01*
X39202Y-7820D01*
X39038Y-7888D01*
X38912Y-8014D01*
X38844Y-8178D01*
X38844Y-8356D01*
X38882Y-8449D01*
X38738Y-8304D01*
X38738Y-8179D01*
X38670Y-8014D01*
X38544Y-7889D01*
X38380Y-7820D01*
X38202Y-7820D01*
X38038Y-7888D01*
X37912Y-8014D01*
X37844Y-8178D01*
X37844Y-8356D01*
X37912Y-8520D01*
X38037Y-8646D01*
X38202Y-8714D01*
X38328Y-8714D01*
X38532Y-8919D01*
X38532Y-9504D01*
X38415Y-9504D01*
X38251Y-9572D01*
X38125Y-9697D01*
X38057Y-9861D01*
X38057Y-10039D01*
X38124Y-10203D01*
X38250Y-10329D01*
X38414Y-10397D01*
X38532Y-10398D01*
X38532Y-10488D01*
X38415Y-10488D01*
X38251Y-10556D01*
X38125Y-10681D01*
X38057Y-10846D01*
X38057Y-11023D01*
X38124Y-11188D01*
X38150Y-11213D01*
X38125Y-11238D01*
X38057Y-11402D01*
X38057Y-11580D01*
X38124Y-11744D01*
X38250Y-11870D01*
X38414Y-11938D01*
X38532Y-11939D01*
X38532Y-14045D01*
X38415Y-14045D01*
X38251Y-14113D01*
X38125Y-14238D01*
X38057Y-14402D01*
X38057Y-14580D01*
X38124Y-14744D01*
X38143Y-14763D01*
X38125Y-14781D01*
X38057Y-14946D01*
X38057Y-15123D01*
X38124Y-15288D01*
X38250Y-15414D01*
X38414Y-15482D01*
X38532Y-15482D01*
X38532Y-15572D01*
X38415Y-15572D01*
X38251Y-15640D01*
X38125Y-15766D01*
X38057Y-15930D01*
X38057Y-16108D01*
X38124Y-16272D01*
X38250Y-16398D01*
X38414Y-16466D01*
X38532Y-16466D01*
X38532Y-17332D01*
X38380Y-17269D01*
X38202Y-17269D01*
X38038Y-17337D01*
X37912Y-17463D01*
X37844Y-17627D01*
X37844Y-17805D01*
X37912Y-17969D01*
X38037Y-18095D01*
X38202Y-18163D01*
X38328Y-18163D01*
X38372Y-18208D01*
X38372Y-19921D01*
X37767Y-20527D01*
X37704Y-20621D01*
X37694Y-20671D01*
X37670Y-20613D01*
X37544Y-20487D01*
X37380Y-20419D01*
X37202Y-20419D01*
X37072Y-20473D01*
X37090Y-20445D01*
X37112Y-20334D01*
X37112Y-18126D01*
X37202Y-18163D01*
X37379Y-18163D01*
X37544Y-18095D01*
X37669Y-17969D01*
X37738Y-17805D01*
X37738Y-17628D01*
X37670Y-17463D01*
X37544Y-17337D01*
X37380Y-17269D01*
X37202Y-17269D01*
X37112Y-17306D01*
X37112Y-16243D01*
X37124Y-16272D01*
X37250Y-16398D01*
X37414Y-16466D01*
X37592Y-16466D01*
X37756Y-16398D01*
X37882Y-16273D01*
X37950Y-16108D01*
X37950Y-15931D01*
X37882Y-15766D01*
X37757Y-15641D01*
X37593Y-15572D01*
X37415Y-15572D01*
X37251Y-15640D01*
X37125Y-15766D01*
X37112Y-15796D01*
X37112Y-15259D01*
X37124Y-15288D01*
X37250Y-15414D01*
X37414Y-15482D01*
X37592Y-15482D01*
X37756Y-15414D01*
X37882Y-15288D01*
X37950Y-15124D01*
X37950Y-14946D01*
X37882Y-14782D01*
X37864Y-14763D01*
X37882Y-14745D01*
X37950Y-14581D01*
X37950Y-14403D01*
X37882Y-14239D01*
X37757Y-14113D01*
X37593Y-14045D01*
X37415Y-14045D01*
X37251Y-14113D01*
X37125Y-14238D01*
X37112Y-14268D01*
X37112Y-11715D01*
X37124Y-11744D01*
X37250Y-11870D01*
X37414Y-11938D01*
X37592Y-11939D01*
X37756Y-11871D01*
X37882Y-11745D01*
X37950Y-11581D01*
X37950Y-11403D01*
X37882Y-11239D01*
X37857Y-11213D01*
X37882Y-11188D01*
X37950Y-11024D01*
X37950Y-10846D01*
X37950Y-9862D01*
X37882Y-9698D01*
X37757Y-9572D01*
X37738Y-9564D01*
X37738Y-8179D01*
X37670Y-8014D01*
X37544Y-7889D01*
X37380Y-7820D01*
X37202Y-7820D01*
X37038Y-7888D01*
X36912Y-8014D01*
X36844Y-8178D01*
X36844Y-8356D01*
X36912Y-8520D01*
X37037Y-8646D01*
X37202Y-8714D01*
X37379Y-8714D01*
X37544Y-8646D01*
X37669Y-8521D01*
X37738Y-8356D01*
X37738Y-8179D01*
X37738Y-9564D01*
X37593Y-9504D01*
X37415Y-9504D01*
X37251Y-9572D01*
X37125Y-9697D01*
X37057Y-9861D01*
X37057Y-10039D01*
X37124Y-10203D01*
X37250Y-10329D01*
X37414Y-10397D01*
X37592Y-10398D01*
X37756Y-10330D01*
X37882Y-10204D01*
X37950Y-10040D01*
X37950Y-9862D01*
X37950Y-10846D01*
X37882Y-10682D01*
X37757Y-10556D01*
X37593Y-10488D01*
X37415Y-10488D01*
X37251Y-10556D01*
X37125Y-10681D01*
X37057Y-10846D01*
X37057Y-11023D01*
X37124Y-11188D01*
X37150Y-11213D01*
X37125Y-11238D01*
X37100Y-11297D01*
X37090Y-11247D01*
X37027Y-11153D01*
X36581Y-10706D01*
X36581Y-8609D01*
X36669Y-8521D01*
X36738Y-8356D01*
X36738Y-8179D01*
X36670Y-8014D01*
X36544Y-7889D01*
X36380Y-7820D01*
X36202Y-7820D01*
X36038Y-7888D01*
X35912Y-8014D01*
X35844Y-8178D01*
X35844Y-8356D01*
X35912Y-8520D01*
X36001Y-8609D01*
X36001Y-10826D01*
X36023Y-10937D01*
X36086Y-11031D01*
X36209Y-11154D01*
X36125Y-11238D01*
X36100Y-11297D01*
X36090Y-11247D01*
X36027Y-11153D01*
X35581Y-10706D01*
X35581Y-8609D01*
X35669Y-8521D01*
X35738Y-8356D01*
X35738Y-8179D01*
X35670Y-8014D01*
X35544Y-7889D01*
X35380Y-7820D01*
X35202Y-7820D01*
X35038Y-7888D01*
X34912Y-8014D01*
X34844Y-8178D01*
X34844Y-8356D01*
X34912Y-8520D01*
X35001Y-8609D01*
X35001Y-10826D01*
X35023Y-10937D01*
X35086Y-11031D01*
X35209Y-11154D01*
X35125Y-11238D01*
X35057Y-11402D01*
X35057Y-11580D01*
X35124Y-11744D01*
X35250Y-11870D01*
X35414Y-11938D01*
X35532Y-11939D01*
X35532Y-17332D01*
X35380Y-17269D01*
X35202Y-17269D01*
X35038Y-17337D01*
X34912Y-17463D01*
X34844Y-17627D01*
X34844Y-17805D01*
X34912Y-17969D01*
X35037Y-18095D01*
X35202Y-18163D01*
X35328Y-18163D01*
X35372Y-18208D01*
X35372Y-19921D01*
X34767Y-20527D01*
X34704Y-20621D01*
X34694Y-20671D01*
X34670Y-20613D01*
X34544Y-20487D01*
X34380Y-20419D01*
X34202Y-20419D01*
X34038Y-20487D01*
X33912Y-20612D01*
X33900Y-20642D01*
X33900Y-20547D01*
X33900Y-17940D01*
X33912Y-17969D01*
X34037Y-18095D01*
X34202Y-18163D01*
X34379Y-18163D01*
X34544Y-18095D01*
X34669Y-17969D01*
X34738Y-17805D01*
X34738Y-17628D01*
X34738Y-8179D01*
X34670Y-8014D01*
X34544Y-7889D01*
X34380Y-7820D01*
X34202Y-7820D01*
X34038Y-7888D01*
X33912Y-8014D01*
X33844Y-8178D01*
X33844Y-8356D01*
X33912Y-8520D01*
X34037Y-8646D01*
X34202Y-8714D01*
X34379Y-8714D01*
X34544Y-8646D01*
X34669Y-8521D01*
X34738Y-8356D01*
X34738Y-8179D01*
X34738Y-17628D01*
X34670Y-17463D01*
X34544Y-17337D01*
X34380Y-17269D01*
X34202Y-17269D01*
X34038Y-17337D01*
X33912Y-17463D01*
X33888Y-17522D01*
X33878Y-17471D01*
X33815Y-17377D01*
X33608Y-17171D01*
X33608Y-11673D01*
X33608Y-11673D01*
X33608Y-11673D01*
X33586Y-11562D01*
X33581Y-11554D01*
X33581Y-11499D01*
X33617Y-11514D01*
X33794Y-11514D01*
X33959Y-11446D01*
X34085Y-11321D01*
X34153Y-11156D01*
X34153Y-10979D01*
X34085Y-10814D01*
X33959Y-10689D01*
X33795Y-10620D01*
X33617Y-10620D01*
X33581Y-10635D01*
X33581Y-8609D01*
X33669Y-8521D01*
X33738Y-8356D01*
X33738Y-8179D01*
X33670Y-8014D01*
X33544Y-7889D01*
X33380Y-7820D01*
X33202Y-7820D01*
X33038Y-7888D01*
X32912Y-8014D01*
X32844Y-8178D01*
X32844Y-8356D01*
X32912Y-8520D01*
X33001Y-8609D01*
X33001Y-11327D01*
X32910Y-11327D01*
X32746Y-11395D01*
X32620Y-11521D01*
X32585Y-11606D01*
X32585Y-8609D01*
X32673Y-8521D01*
X32742Y-8356D01*
X32742Y-8179D01*
X32674Y-8014D01*
X32548Y-7889D01*
X32384Y-7820D01*
X32206Y-7820D01*
X32042Y-7888D01*
X31916Y-8014D01*
X31848Y-8178D01*
X31848Y-8356D01*
X31916Y-8520D01*
X32005Y-8609D01*
X32005Y-8793D01*
X31964Y-8693D01*
X31838Y-8567D01*
X31674Y-8499D01*
X31496Y-8499D01*
X31332Y-8567D01*
X31206Y-8692D01*
X31139Y-8853D01*
X31139Y-8179D01*
X31071Y-8014D01*
X30946Y-7889D01*
X30782Y-7820D01*
X30604Y-7820D01*
X30440Y-7888D01*
X30314Y-8014D01*
X30246Y-8178D01*
X30245Y-8356D01*
X30313Y-8520D01*
X30439Y-8646D01*
X30603Y-8714D01*
X30781Y-8714D01*
X30945Y-8646D01*
X31071Y-8521D01*
X31139Y-8356D01*
X31139Y-8179D01*
X31139Y-8853D01*
X31138Y-8857D01*
X31138Y-9034D01*
X31206Y-9199D01*
X31295Y-9288D01*
X31295Y-9492D01*
X31257Y-9400D01*
X31131Y-9274D01*
X30967Y-9206D01*
X30789Y-9206D01*
X30625Y-9274D01*
X30499Y-9400D01*
X30431Y-9564D01*
X30431Y-9741D01*
X30498Y-9906D01*
X30587Y-9995D01*
X30587Y-10199D01*
X30549Y-10107D01*
X30424Y-9981D01*
X30260Y-9913D01*
X30082Y-9913D01*
X29982Y-9954D01*
X29982Y-8609D01*
X30071Y-8521D01*
X30139Y-8356D01*
X30139Y-8179D01*
X30071Y-8014D01*
X29946Y-7889D01*
X29782Y-7820D01*
X29604Y-7820D01*
X29440Y-7888D01*
X29314Y-8014D01*
X29246Y-8178D01*
X29245Y-8356D01*
X29313Y-8520D01*
X29402Y-8609D01*
X29402Y-10620D01*
X29375Y-10620D01*
X29210Y-10688D01*
X29085Y-10814D01*
X29016Y-10978D01*
X29016Y-11156D01*
X29029Y-11185D01*
X28982Y-11139D01*
X28982Y-8609D01*
X29071Y-8521D01*
X29139Y-8356D01*
X29139Y-8179D01*
X29071Y-8014D01*
X28946Y-7889D01*
X28782Y-7820D01*
X28604Y-7820D01*
X28440Y-7888D01*
X28314Y-8014D01*
X28246Y-8178D01*
X28245Y-8356D01*
X28313Y-8520D01*
X28402Y-8609D01*
X28402Y-11259D01*
X28424Y-11370D01*
X28466Y-11433D01*
X28378Y-11521D01*
X28309Y-11685D01*
X28309Y-11863D01*
X28377Y-12027D01*
X28456Y-12106D01*
X28381Y-12181D01*
X28303Y-12103D01*
X28139Y-12035D01*
X28139Y-8179D01*
X28071Y-8014D01*
X27946Y-7889D01*
X27782Y-7820D01*
X27604Y-7820D01*
X27440Y-7888D01*
X27314Y-8014D01*
X27246Y-8178D01*
X27245Y-8356D01*
X27313Y-8520D01*
X27439Y-8646D01*
X27603Y-8714D01*
X27781Y-8714D01*
X27945Y-8646D01*
X28071Y-8521D01*
X28139Y-8356D01*
X28139Y-8179D01*
X28139Y-12035D01*
X28138Y-12035D01*
X27961Y-12034D01*
X27796Y-12102D01*
X27670Y-12228D01*
X27602Y-12392D01*
X27602Y-12570D01*
X27670Y-12734D01*
X27796Y-12860D01*
X27866Y-12889D01*
X27866Y-13302D01*
X27789Y-13225D01*
X27789Y-13100D01*
X27721Y-12936D01*
X27595Y-12810D01*
X27431Y-12742D01*
X27253Y-12742D01*
X27089Y-12809D01*
X26963Y-12935D01*
X26895Y-13099D01*
X26895Y-13277D01*
X26963Y-13441D01*
X27088Y-13567D01*
X27253Y-13635D01*
X27379Y-13635D01*
X27706Y-13962D01*
X27706Y-14396D01*
X27703Y-14391D01*
X27589Y-14276D01*
X27439Y-14214D01*
X27363Y-14214D01*
X27082Y-13932D01*
X27082Y-13807D01*
X27014Y-13643D01*
X26888Y-13517D01*
X26724Y-13449D01*
X26604Y-13449D01*
X26604Y-8765D01*
X26656Y-8714D01*
X26781Y-8714D01*
X26945Y-8646D01*
X27071Y-8521D01*
X27139Y-8356D01*
X27139Y-8179D01*
X27071Y-8014D01*
X26946Y-7889D01*
X26782Y-7820D01*
X26604Y-7820D01*
X26440Y-7888D01*
X26314Y-8014D01*
X26246Y-8178D01*
X26246Y-8304D01*
X26109Y-8440D01*
X26096Y-8460D01*
X26139Y-8356D01*
X26139Y-8179D01*
X26071Y-8014D01*
X25946Y-7889D01*
X25782Y-7820D01*
X25604Y-7820D01*
X25440Y-7888D01*
X25314Y-8014D01*
X25246Y-8178D01*
X25245Y-8356D01*
X25313Y-8520D01*
X25402Y-8609D01*
X25402Y-14262D01*
X25342Y-14353D01*
X25320Y-14464D01*
X25320Y-14896D01*
X25262Y-14872D01*
X25105Y-14871D01*
X25161Y-14816D01*
X25229Y-14652D01*
X25229Y-14474D01*
X25161Y-14310D01*
X25139Y-14288D01*
X25139Y-8179D01*
X25071Y-8014D01*
X24946Y-7889D01*
X24782Y-7820D01*
X24604Y-7820D01*
X24440Y-7888D01*
X24314Y-8014D01*
X24246Y-8178D01*
X24245Y-8356D01*
X24313Y-8520D01*
X24439Y-8646D01*
X24603Y-8714D01*
X24781Y-8714D01*
X24945Y-8646D01*
X25071Y-8521D01*
X25139Y-8356D01*
X25139Y-8179D01*
X25139Y-14288D01*
X25036Y-14184D01*
X24872Y-14116D01*
X24694Y-14116D01*
X24529Y-14184D01*
X24404Y-14309D01*
X24365Y-14402D01*
X24365Y-14197D01*
X24454Y-14109D01*
X24522Y-13945D01*
X24522Y-13767D01*
X24454Y-13603D01*
X24329Y-13477D01*
X24164Y-13409D01*
X23987Y-13409D01*
X23982Y-13410D01*
X23982Y-8609D01*
X24071Y-8521D01*
X24139Y-8356D01*
X24139Y-8179D01*
X24071Y-8014D01*
X23946Y-7889D01*
X23782Y-7820D01*
X23604Y-7820D01*
X23440Y-7888D01*
X23314Y-8014D01*
X23246Y-8178D01*
X23245Y-8356D01*
X23313Y-8520D01*
X23402Y-8609D01*
X23402Y-12702D01*
X23280Y-12701D01*
X23115Y-12769D01*
X22989Y-12895D01*
X22951Y-12988D01*
X22951Y-12783D01*
X23040Y-12695D01*
X23108Y-12530D01*
X23108Y-12353D01*
X23040Y-12188D01*
X22944Y-12092D01*
X22960Y-12067D01*
X22982Y-11956D01*
X22982Y-8609D01*
X23071Y-8521D01*
X23139Y-8356D01*
X23139Y-8179D01*
X23071Y-8014D01*
X22946Y-7889D01*
X22782Y-7820D01*
X22604Y-7820D01*
X22589Y-7826D01*
X22600Y-7801D01*
X22600Y-7639D01*
X22538Y-7489D01*
X22424Y-7375D01*
X22274Y-7313D01*
X22195Y-7312D01*
X21958Y-7075D01*
X21864Y-7013D01*
X21753Y-6990D01*
X13081Y-6990D01*
X12970Y-7013D01*
X12876Y-7075D01*
X12876Y-7075D01*
X12131Y-7820D01*
X12005Y-7820D01*
X11841Y-7888D01*
X11715Y-8014D01*
X11647Y-8178D01*
X11647Y-8356D01*
X11715Y-8520D01*
X11841Y-8646D01*
X12005Y-8714D01*
X12182Y-8714D01*
X12347Y-8646D01*
X12473Y-8521D01*
X12541Y-8356D01*
X12541Y-8230D01*
X12685Y-8086D01*
X12647Y-8178D01*
X12647Y-8356D01*
X12715Y-8520D01*
X12841Y-8646D01*
X13005Y-8714D01*
X13123Y-8714D01*
X13123Y-9552D01*
X13006Y-9504D01*
X12828Y-9504D01*
X12664Y-9572D01*
X12538Y-9697D01*
X12470Y-9861D01*
X12470Y-10039D01*
X12538Y-10203D01*
X12663Y-10329D01*
X12828Y-10397D01*
X13005Y-10398D01*
X13123Y-10349D01*
X13123Y-10537D01*
X13006Y-10488D01*
X12828Y-10488D01*
X12664Y-10556D01*
X12538Y-10681D01*
X12470Y-10846D01*
X12470Y-11023D01*
X12538Y-11188D01*
X12563Y-11213D01*
X12538Y-11238D01*
X12470Y-11402D01*
X12470Y-11580D01*
X12538Y-11744D01*
X12663Y-11870D01*
X12828Y-11938D01*
X13005Y-11939D01*
X13123Y-11890D01*
X13123Y-14093D01*
X13006Y-14045D01*
X12828Y-14045D01*
X12664Y-14113D01*
X12538Y-14238D01*
X12470Y-14402D01*
X12470Y-14580D01*
X12538Y-14744D01*
X12557Y-14763D01*
X12538Y-14781D01*
X12470Y-14946D01*
X12470Y-15123D01*
X12538Y-15288D01*
X12663Y-15414D01*
X12828Y-15482D01*
X13005Y-15482D01*
X13123Y-15433D01*
X13123Y-15621D01*
X13006Y-15572D01*
X12828Y-15572D01*
X12664Y-15640D01*
X12538Y-15766D01*
X12470Y-15930D01*
X12470Y-16108D01*
X12538Y-16272D01*
X12663Y-16398D01*
X12828Y-16466D01*
X13005Y-16466D01*
X13123Y-16418D01*
X13123Y-17269D01*
X13005Y-17269D01*
X12841Y-17337D01*
X12715Y-17463D01*
X12647Y-17627D01*
X12647Y-17805D01*
X12715Y-17969D01*
X12841Y-18095D01*
X12963Y-18145D01*
X12963Y-20134D01*
X12570Y-20527D01*
X12507Y-20621D01*
X12497Y-20671D01*
X12473Y-20613D01*
X12347Y-20487D01*
X12183Y-20419D01*
X12013Y-20419D01*
X12013Y-18163D01*
X12182Y-18163D01*
X12347Y-18095D01*
X12473Y-17969D01*
X12541Y-17805D01*
X12541Y-17628D01*
X12473Y-17463D01*
X12347Y-17337D01*
X12183Y-17269D01*
X12013Y-17269D01*
X12013Y-16463D01*
X12170Y-16398D01*
X12295Y-16273D01*
X12364Y-16108D01*
X12364Y-15931D01*
X12296Y-15766D01*
X12170Y-15641D01*
X12006Y-15572D01*
X11828Y-15572D01*
X11703Y-15624D01*
X11703Y-15430D01*
X11828Y-15482D01*
X12005Y-15482D01*
X12170Y-15414D01*
X12295Y-15288D01*
X12364Y-15124D01*
X12364Y-14946D01*
X12296Y-14782D01*
X12277Y-14763D01*
X12295Y-14745D01*
X12364Y-14581D01*
X12364Y-14403D01*
X12296Y-14239D01*
X12170Y-14113D01*
X12006Y-14045D01*
X11828Y-14045D01*
X11703Y-14097D01*
X11703Y-11887D01*
X11828Y-11938D01*
X12005Y-11939D01*
X12170Y-11871D01*
X12295Y-11745D01*
X12364Y-11581D01*
X12364Y-11403D01*
X12296Y-11239D01*
X12270Y-11213D01*
X12295Y-11188D01*
X12364Y-11024D01*
X12364Y-10846D01*
X12296Y-10682D01*
X12170Y-10556D01*
X12006Y-10488D01*
X11828Y-10488D01*
X11703Y-10540D01*
X11703Y-10346D01*
X11828Y-10397D01*
X12005Y-10398D01*
X12170Y-10330D01*
X12295Y-10204D01*
X12364Y-10040D01*
X12364Y-9862D01*
X12296Y-9698D01*
X12170Y-9572D01*
X12006Y-9504D01*
X11828Y-9504D01*
X11703Y-9556D01*
X11703Y-8586D01*
X11703Y-8586D01*
X11703Y-8586D01*
X11699Y-8568D01*
X11681Y-8475D01*
X11618Y-8381D01*
X11618Y-8381D01*
X11541Y-8304D01*
X11541Y-8179D01*
X11473Y-8014D01*
X11347Y-7889D01*
X11183Y-7820D01*
X11005Y-7820D01*
X10841Y-7888D01*
X10715Y-8014D01*
X10647Y-8178D01*
X10647Y-8356D01*
X10715Y-8520D01*
X10841Y-8646D01*
X11005Y-8714D01*
X11123Y-8714D01*
X11123Y-9552D01*
X11006Y-9504D01*
X10828Y-9504D01*
X10703Y-9556D01*
X10703Y-8586D01*
X10703Y-8586D01*
X10703Y-8586D01*
X10699Y-8568D01*
X10681Y-8475D01*
X10618Y-8381D01*
X10618Y-8381D01*
X10541Y-8304D01*
X10541Y-8179D01*
X10473Y-8014D01*
X10347Y-7889D01*
X10183Y-7820D01*
X10005Y-7820D01*
X9841Y-7888D01*
X9715Y-8014D01*
X9647Y-8178D01*
X9647Y-8356D01*
X9715Y-8520D01*
X9841Y-8646D01*
X10005Y-8714D01*
X10123Y-8714D01*
X10123Y-9552D01*
X10006Y-9504D01*
X9828Y-9504D01*
X9664Y-9572D01*
X9541Y-9695D01*
X9541Y-8179D01*
X9473Y-8014D01*
X9347Y-7889D01*
X9183Y-7820D01*
X9005Y-7820D01*
X8841Y-7888D01*
X8715Y-8014D01*
X8647Y-8178D01*
X8647Y-8356D01*
X8715Y-8520D01*
X8841Y-8646D01*
X9005Y-8714D01*
X9182Y-8714D01*
X9347Y-8646D01*
X9473Y-8521D01*
X9541Y-8356D01*
X9541Y-8179D01*
X9541Y-9695D01*
X9538Y-9697D01*
X9470Y-9861D01*
X9470Y-9933D01*
X9200Y-10202D01*
X9129Y-10309D01*
X9104Y-10435D01*
X9104Y-11085D01*
X9006Y-11045D01*
X8828Y-11045D01*
X8703Y-11097D01*
X8703Y-8586D01*
X8703Y-8586D01*
X8703Y-8586D01*
X8699Y-8568D01*
X8681Y-8475D01*
X8618Y-8381D01*
X8618Y-8381D01*
X8541Y-8304D01*
X8541Y-8179D01*
X8473Y-8014D01*
X8347Y-7889D01*
X8183Y-7820D01*
X8005Y-7820D01*
X7841Y-7888D01*
X7715Y-8014D01*
X7647Y-8178D01*
X7647Y-8356D01*
X7715Y-8520D01*
X7841Y-8646D01*
X8005Y-8714D01*
X8123Y-8714D01*
X8123Y-11093D01*
X8006Y-11045D01*
X7828Y-11045D01*
X7707Y-11095D01*
X7707Y-8586D01*
X7685Y-8475D01*
X7622Y-8381D01*
X7618Y-8377D01*
X7610Y-8369D01*
X7610Y-8369D01*
X7545Y-8304D01*
X7545Y-8179D01*
X7477Y-8014D01*
X7351Y-7889D01*
X7187Y-7820D01*
X7009Y-7820D01*
X6845Y-7888D01*
X6719Y-8014D01*
X6651Y-8178D01*
X6651Y-8356D01*
X6719Y-8520D01*
X6844Y-8646D01*
X7009Y-8714D01*
X7127Y-8714D01*
X7127Y-11045D01*
X7064Y-11045D01*
X6670Y-11045D01*
X6579Y-11083D01*
X6578Y-11083D01*
X6578Y-6185D01*
X43814Y-6185D01*
X43814Y-11171D01*
G54D10*
G36*
X43814Y-44996D02*
X36740Y-44996D01*
X36817Y-44919D01*
X41688Y-44919D01*
X41814Y-44894D01*
X41814Y-44894D01*
X41921Y-44823D01*
X42996Y-43748D01*
X43067Y-43641D01*
X43067Y-43641D01*
X43092Y-43515D01*
X43092Y-43314D01*
X43202Y-43360D01*
X43379Y-43360D01*
X43544Y-43292D01*
X43669Y-43166D01*
X43738Y-43002D01*
X43738Y-42824D01*
X43670Y-42660D01*
X43544Y-42534D01*
X43380Y-42466D01*
X43202Y-42466D01*
X43038Y-42534D01*
X42912Y-42659D01*
X42909Y-42666D01*
X42845Y-42639D01*
X42691Y-42639D01*
X42738Y-42526D01*
X42738Y-42348D01*
X42670Y-42184D01*
X42544Y-42058D01*
X42380Y-41990D01*
X42262Y-41990D01*
X42262Y-41855D01*
X42387Y-41907D01*
X42564Y-41907D01*
X42729Y-41839D01*
X42854Y-41714D01*
X42923Y-41549D01*
X42923Y-41372D01*
X42855Y-41207D01*
X42729Y-41082D01*
X42565Y-41013D01*
X42387Y-41013D01*
X42262Y-41065D01*
X42262Y-34387D01*
X42379Y-34387D01*
X42544Y-34319D01*
X42669Y-34194D01*
X42738Y-34030D01*
X42738Y-33852D01*
X42676Y-33702D01*
X42738Y-33553D01*
X42738Y-33376D01*
X42670Y-33211D01*
X42669Y-33210D01*
X42669Y-33210D01*
X42738Y-33045D01*
X42738Y-32868D01*
X42670Y-32703D01*
X42544Y-32578D01*
X42422Y-32527D01*
X42422Y-31050D01*
X42815Y-30657D01*
X42815Y-30657D01*
X42815Y-30657D01*
X42878Y-30563D01*
X42888Y-30510D01*
X42912Y-30567D01*
X43037Y-30693D01*
X43202Y-30761D01*
X43379Y-30761D01*
X43544Y-30694D01*
X43669Y-30568D01*
X43738Y-30404D01*
X43738Y-30226D01*
X43670Y-30062D01*
X43544Y-29936D01*
X43380Y-29868D01*
X43202Y-29868D01*
X43038Y-29935D01*
X42912Y-30061D01*
X42900Y-30091D01*
X42900Y-21089D01*
X42912Y-21118D01*
X43037Y-21244D01*
X43202Y-21312D01*
X43379Y-21313D01*
X43544Y-21245D01*
X43669Y-21119D01*
X43738Y-20955D01*
X43738Y-20777D01*
X43670Y-20613D01*
X43544Y-20487D01*
X43380Y-20419D01*
X43202Y-20419D01*
X43072Y-20473D01*
X43090Y-20445D01*
X43112Y-20334D01*
X43112Y-18126D01*
X43202Y-18163D01*
X43379Y-18163D01*
X43544Y-18095D01*
X43669Y-17969D01*
X43738Y-17805D01*
X43738Y-17628D01*
X43670Y-17463D01*
X43544Y-17337D01*
X43380Y-17269D01*
X43202Y-17269D01*
X43112Y-17306D01*
X43112Y-14848D01*
X43165Y-14900D01*
X43257Y-14938D01*
X43356Y-14939D01*
X43750Y-14939D01*
X43814Y-14912D01*
X43814Y-38167D01*
X43738Y-38090D01*
X43738Y-33376D01*
X43670Y-33211D01*
X43544Y-33085D01*
X43380Y-33017D01*
X43202Y-33017D01*
X43038Y-33085D01*
X42912Y-33211D01*
X42844Y-33375D01*
X42844Y-33553D01*
X42912Y-33717D01*
X43037Y-33843D01*
X43202Y-33911D01*
X43379Y-33911D01*
X43544Y-33843D01*
X43669Y-33718D01*
X43738Y-33553D01*
X43738Y-33376D01*
X43738Y-38090D01*
X43729Y-38082D01*
X43565Y-38013D01*
X43387Y-38013D01*
X43223Y-38081D01*
X43097Y-38207D01*
X43029Y-38371D01*
X43029Y-38549D01*
X43097Y-38713D01*
X43222Y-38839D01*
X43387Y-38907D01*
X43564Y-38907D01*
X43729Y-38839D01*
X43814Y-38754D01*
X43814Y-41051D01*
X43723Y-41013D01*
X43623Y-41013D01*
X43230Y-41013D01*
X43138Y-41051D01*
X43067Y-41121D01*
X43029Y-41213D01*
X43029Y-41313D01*
X43029Y-41706D01*
X43067Y-41798D01*
X43137Y-41869D01*
X43229Y-41907D01*
X43329Y-41907D01*
X43722Y-41907D01*
X43814Y-41869D01*
X43814Y-41869D01*
X43814Y-44996D01*
X43814Y-44996D01*
G37*
G54D19*
X43814Y-44996D02*
X36740Y-44996D01*
X36817Y-44919D01*
X41688Y-44919D01*
X41814Y-44894D01*
X41814Y-44894D01*
X41921Y-44823D01*
X42996Y-43748D01*
X43067Y-43641D01*
X43067Y-43641D01*
X43092Y-43515D01*
X43092Y-43314D01*
X43202Y-43360D01*
X43379Y-43360D01*
X43544Y-43292D01*
X43669Y-43166D01*
X43738Y-43002D01*
X43738Y-42824D01*
X43670Y-42660D01*
X43544Y-42534D01*
X43380Y-42466D01*
X43202Y-42466D01*
X43038Y-42534D01*
X42912Y-42659D01*
X42909Y-42666D01*
X42845Y-42639D01*
X42691Y-42639D01*
X42738Y-42526D01*
X42738Y-42348D01*
X42670Y-42184D01*
X42544Y-42058D01*
X42380Y-41990D01*
X42262Y-41990D01*
X42262Y-41855D01*
X42387Y-41907D01*
X42564Y-41907D01*
X42729Y-41839D01*
X42854Y-41714D01*
X42923Y-41549D01*
X42923Y-41372D01*
X42855Y-41207D01*
X42729Y-41082D01*
X42565Y-41013D01*
X42387Y-41013D01*
X42262Y-41065D01*
X42262Y-34387D01*
X42379Y-34387D01*
X42544Y-34319D01*
X42669Y-34194D01*
X42738Y-34030D01*
X42738Y-33852D01*
X42676Y-33702D01*
X42738Y-33553D01*
X42738Y-33376D01*
X42670Y-33211D01*
X42669Y-33210D01*
X42669Y-33210D01*
X42738Y-33045D01*
X42738Y-32868D01*
X42670Y-32703D01*
X42544Y-32578D01*
X42422Y-32527D01*
X42422Y-31050D01*
X42815Y-30657D01*
X42815Y-30657D01*
X42815Y-30657D01*
X42878Y-30563D01*
X42888Y-30510D01*
X42912Y-30567D01*
X43037Y-30693D01*
X43202Y-30761D01*
X43379Y-30761D01*
X43544Y-30694D01*
X43669Y-30568D01*
X43738Y-30404D01*
X43738Y-30226D01*
X43670Y-30062D01*
X43544Y-29936D01*
X43380Y-29868D01*
X43202Y-29868D01*
X43038Y-29935D01*
X42912Y-30061D01*
X42900Y-30091D01*
X42900Y-21089D01*
X42912Y-21118D01*
X43037Y-21244D01*
X43202Y-21312D01*
X43379Y-21313D01*
X43544Y-21245D01*
X43669Y-21119D01*
X43738Y-20955D01*
X43738Y-20777D01*
X43670Y-20613D01*
X43544Y-20487D01*
X43380Y-20419D01*
X43202Y-20419D01*
X43072Y-20473D01*
X43090Y-20445D01*
X43112Y-20334D01*
X43112Y-18126D01*
X43202Y-18163D01*
X43379Y-18163D01*
X43544Y-18095D01*
X43669Y-17969D01*
X43738Y-17805D01*
X43738Y-17628D01*
X43670Y-17463D01*
X43544Y-17337D01*
X43380Y-17269D01*
X43202Y-17269D01*
X43112Y-17306D01*
X43112Y-14848D01*
X43165Y-14900D01*
X43257Y-14938D01*
X43356Y-14939D01*
X43750Y-14939D01*
X43814Y-14912D01*
X43814Y-38167D01*
X43738Y-38090D01*
X43738Y-33376D01*
X43670Y-33211D01*
X43544Y-33085D01*
X43380Y-33017D01*
X43202Y-33017D01*
X43038Y-33085D01*
X42912Y-33211D01*
X42844Y-33375D01*
X42844Y-33553D01*
X42912Y-33717D01*
X43037Y-33843D01*
X43202Y-33911D01*
X43379Y-33911D01*
X43544Y-33843D01*
X43669Y-33718D01*
X43738Y-33553D01*
X43738Y-33376D01*
X43738Y-38090D01*
X43729Y-38082D01*
X43565Y-38013D01*
X43387Y-38013D01*
X43223Y-38081D01*
X43097Y-38207D01*
X43029Y-38371D01*
X43029Y-38549D01*
X43097Y-38713D01*
X43222Y-38839D01*
X43387Y-38907D01*
X43564Y-38907D01*
X43729Y-38839D01*
X43814Y-38754D01*
X43814Y-41051D01*
X43723Y-41013D01*
X43623Y-41013D01*
X43230Y-41013D01*
X43138Y-41051D01*
X43067Y-41121D01*
X43029Y-41213D01*
X43029Y-41313D01*
X43029Y-41706D01*
X43067Y-41798D01*
X43137Y-41869D01*
X43229Y-41907D01*
X43329Y-41907D01*
X43722Y-41907D01*
X43814Y-41869D01*
X43814Y-41869D01*
X43814Y-44996D01*
M02*
