M48
;DRILL file {Pcbnew (2013-07-07 BZR 4022)-stable} date 2/5/2014 11:07:51 AM
;FORMAT={-:-/ absolute / inch / decimal}
FMAT,2
INCH,TZ
T1C0.016
T2C0.024
T3C0.032
%
G90
G05
M72
T1
X0.6957Y-3.563
X0.7461Y-3.1961
X0.8413Y-3.2469
X0.8626Y-3.2043
X0.8728Y-3.6319
X0.9043Y-2.9744
X0.9102Y-2.1512
X0.911Y-3.1563
X0.9138Y-2.3303
X0.989Y-3.1984
X1.1685Y-3.1268
X1.1764Y-3.2768
X1.1882Y-3.598
X1.2484Y-3.128
X1.2594Y-3.5449
X1.2961Y-2.7839
X1.3138Y-3.6657
X1.3327Y-3.1559
X1.3413Y-4.4024
X1.3705Y-1.5957
X1.3969Y-2.7831
X1.4413Y-3.1563
X1.4598Y-3.9098
X1.4693Y-2.6201
X1.4693Y-3.1268
X1.4697Y-1.5957
X1.4866Y-3.265
X1.4878Y-3.8791
X1.502Y-2.5969
X1.5091Y-3.1283
X1.5461Y-2.2047
X1.5496Y-2.6303
X1.5496Y-2.7689
X1.5791Y-4.1878
X1.6575Y-2.8126
X1.7154Y-3.9295
X1.7256Y-4.198
X1.7283Y-3.4917
X1.7295Y-4.4343
X1.7622Y-4.3437
X1.7634Y-3.2201
X1.7937Y-3.4386
X1.7941Y-4.4343
X1.8024Y-4.011
X1.8035Y-3.2354
X1.8063Y-2.9783
X1.824Y-1.1031
X1.8406Y-3.2201
X1.8579Y-4.4366
X1.8917Y-3.6303
X2.0193Y-0.772
X2.0587Y-3.8878
X2.1189Y-0.772
X2.1327Y-3.6311
X2.1516Y-3.9768
X2.2094Y-3.1122
X2.2193Y-0.772
X2.2587Y-3.1878
X2.3291Y-1.9303
X2.3413Y-1.635
X2.3571Y-1.9752
X2.4354Y-1.6165
X2.439Y-1.6563
X2.4402Y-1.5276
X2.4476Y-3.598
X2.4547Y-1.5819
X2.4547Y-1.7122
X2.5106Y-1.6209
X2.5173Y-3.5429
X2.5181Y-1.528
X2.5272Y-1.6575
X2.5331Y-1.5878
X2.5972Y-1.7146
X2.6291Y-1.9752
X2.6374Y-1.715
X2.6445Y-1.4579
X2.6677Y-1.4902
X2.6961Y-1.5181
X2.7012Y-3.1563
X2.7291Y-1.9303
X2.7291Y-3.1283
X2.7358Y-1.4622
X2.7476Y-3.8787
X2.7634Y-2.7717
X2.7717Y-1.5941
X2.7972Y-2.0264
X2.8063Y-2.7705
X2.8094Y-2.1319
X2.839Y-4.1878
X2.8705Y-3.9646
X2.9091Y-3.0772
X2.9189Y-4.45
X2.9689Y-2.8307
X2.9705Y-2.2047
X2.9874Y-3.4921
X3.0142Y-3.1122
X3.0299Y-4.3433
X3.0457Y-2.976
X3.0697Y-3.0949
X3.1472Y-3.6173
X3.2154Y-3.563
X3.313Y-3.5461
X3.3925Y-3.6315
X3.411Y-4.4504
X3.4291Y-2.2047
X3.4638Y-0.939
X3.5161Y-3.1882
X3.6311Y-2.5799
X3.6634Y-3.6665
X3.7079Y-3.598
X3.7291Y-2.2047
X3.7669Y-2.6268
X3.7791Y-3.5449
X3.8291Y-2.3047
X3.9516Y-3.1878
X3.9913Y-3.1882
X4.0075Y-3.8791
X4.0988Y-4.1878
X4.1732Y-4.4039
X4.2476Y-3.4917
X4.2764Y-4.3047
T2
X0.6917Y-1.1492
X0.6917Y-1.4492
X0.6917Y-3.4917
X0.6917Y-3.7917
X0.7094Y-4.2437
X0.7094Y-4.3421
X0.7098Y-0.8268
X0.7098Y-1.7717
X0.7098Y-2.0866
X0.7098Y-3.0315
X0.7098Y-3.2957
X0.7098Y-3.3465
X0.7098Y-3.3941
X0.7098Y-4.2913
X0.7917Y-1.1492
X0.7917Y-1.4492
X0.7917Y-3.4917
X0.7917Y-3.7917
X0.8094Y-0.8268
X0.8094Y-1.7717
X0.8094Y-2.0866
X0.8094Y-3.0315
X0.8094Y-3.2957
X0.8094Y-3.3465
X0.8094Y-3.3941
X0.8094Y-4.2437
X0.8094Y-4.2913
X0.8094Y-4.3421
X0.8917Y-1.1492
X0.8917Y-1.4492
X0.8917Y-3.4917
X0.8917Y-3.7917
X0.9094Y-0.8268
X0.9094Y-1.7717
X0.9094Y-2.0866
X0.9094Y-3.0315
X0.9094Y-3.3465
X0.9094Y-4.2913
X0.928Y-3.8461
X0.928Y-4.1461
X0.9917Y-0.9951
X0.9917Y-1.0935
X0.9917Y-1.1492
X0.9917Y-1.4492
X0.9917Y-1.5035
X0.9917Y-1.602
X0.9917Y-3.4917
X0.9917Y-3.7917
X1.0094Y-0.8268
X1.0094Y-1.7717
X1.0094Y-2.0866
X1.0094Y-3.0315
X1.0094Y-3.2957
X1.0094Y-3.3465
X1.0094Y-3.3941
X1.0094Y-4.2437
X1.0094Y-4.2913
X1.0094Y-4.3421
X1.028Y-3.8461
X1.028Y-4.1461
X1.0917Y-0.9951
X1.0917Y-1.0935
X1.0917Y-1.1492
X1.0917Y-1.4492
X1.0917Y-1.5035
X1.0917Y-1.602
X1.0917Y-3.4917
X1.0917Y-3.7917
X1.1094Y-0.8268
X1.1094Y-1.7717
X1.1094Y-2.0866
X1.1094Y-2.2551
X1.1094Y-2.3535
X1.1094Y-2.4091
X1.1094Y-2.7091
X1.1094Y-3.0315
X1.1094Y-3.2957
X1.1094Y-3.3465
X1.1094Y-3.3941
X1.1094Y-4.2437
X1.1094Y-4.2913
X1.1094Y-4.3421
X1.128Y-3.8461
X1.128Y-4.1461
X1.1917Y-0.9951
X1.1917Y-1.0935
X1.1917Y-1.1492
X1.1917Y-1.4492
X1.1917Y-1.5035
X1.1917Y-1.602
X1.1917Y-3.4917
X1.1917Y-3.7917
X1.2094Y-0.8268
X1.2094Y-1.7717
X1.2094Y-2.0866
X1.2094Y-2.2551
X1.2094Y-2.3535
X1.2094Y-2.4091
X1.2094Y-2.7091
X1.2094Y-3.0315
X1.2094Y-3.3465
X1.2094Y-4.2913
X1.228Y-3.8461
X1.228Y-4.1461
X1.2917Y-0.9951
X1.2917Y-1.0935
X1.2917Y-1.1492
X1.2917Y-1.4492
X1.2917Y-1.5035
X1.2917Y-1.602
X1.2917Y-3.4917
X1.2917Y-3.7917
X1.3094Y-0.8268
X1.3094Y-1.7717
X1.3094Y-2.0866
X1.3094Y-2.2551
X1.3094Y-2.3535
X1.3094Y-2.4091
X1.3094Y-2.7091
X1.3094Y-3.0315
X1.3094Y-3.2957
X1.3094Y-3.3465
X1.3094Y-3.3941
X1.3094Y-4.2437
X1.3094Y-4.2913
X1.3094Y-4.3421
X1.328Y-3.8461
X1.328Y-4.1461
X1.3917Y-1.1492
X1.3917Y-1.4492
X1.3917Y-3.4917
X1.3917Y-3.7917
X1.4094Y-0.8268
X1.4094Y-1.7717
X1.4094Y-2.0866
X1.4094Y-2.2551
X1.4094Y-2.3535
X1.4094Y-2.4091
X1.4094Y-2.7091
X1.4094Y-3.0315
X1.4094Y-3.2957
X1.4094Y-3.3465
X1.4094Y-3.3941
X1.4094Y-4.2437
X1.4094Y-4.2913
X1.4094Y-4.3421
X1.428Y-3.8461
X1.428Y-4.1461
X1.4917Y-1.1492
X1.4917Y-1.4492
X1.4917Y-3.4917
X1.4917Y-3.7917
X1.5094Y-0.8268
X1.5094Y-1.7717
X1.5094Y-2.0866
X1.5094Y-2.2551
X1.5094Y-2.3535
X1.5094Y-2.4091
X1.5094Y-2.7091
X1.5094Y-3.0315
X1.5094Y-3.3465
X1.5094Y-4.2913
X1.528Y-3.8461
X1.528Y-4.1461
X1.5917Y-1.1492
X1.5917Y-1.4492
X1.5917Y-3.4917
X1.5917Y-3.7917
X1.6094Y-0.8268
X1.6094Y-1.7717
X1.6094Y-2.0866
X1.6094Y-2.2551
X1.6094Y-2.3535
X1.6094Y-2.4091
X1.6094Y-2.7091
X1.6094Y-3.0315
X1.6094Y-3.2957
X1.6094Y-3.3465
X1.6094Y-3.3941
X1.6094Y-4.2437
X1.6094Y-4.2913
X1.6094Y-4.3421
X1.628Y-3.8461
X1.628Y-4.1461
X1.7005Y-1.1028
X1.7094Y-0.8268
X1.7094Y-1.7717
X1.7094Y-2.0866
X1.7094Y-2.2551
X1.7094Y-2.3535
X1.7094Y-2.4091
X1.7094Y-2.7091
X1.7094Y-3.0315
X1.7094Y-3.2957
X1.7094Y-3.3465
X1.7094Y-3.3941
X1.7094Y-4.2437
X1.7094Y-4.2913
X1.7094Y-4.3421
X1.728Y-3.8461
X1.728Y-4.1461
X1.7712Y-1.1735
X1.8094Y-0.8268
X1.8094Y-1.7717
X1.8094Y-2.0866
X1.8094Y-2.2551
X1.8094Y-2.3535
X1.8094Y-2.4091
X1.8094Y-2.7091
X1.8094Y-3.0315
X1.8094Y-3.3465
X1.8094Y-4.2913
X1.828Y-3.8461
X1.828Y-4.1461
X1.8419Y-1.2442
X1.9094Y-2.4091
X1.9094Y-2.7091
X1.9126Y-0.8906
X1.9126Y-1.3149
X1.9516Y-3.4917
X1.9516Y-3.7917
X1.9693Y-4.2437
X1.9693Y-4.3421
X1.9697Y-0.8268
X1.9697Y-1.7717
X1.9697Y-2.0866
X1.9697Y-3.0315
X1.9697Y-3.2957
X1.9697Y-3.3465
X1.9697Y-3.3941
X1.9697Y-4.2913
X1.9833Y-0.9613
X1.9833Y-1.3856
X2.0516Y-3.4917
X2.0516Y-3.7917
X2.054Y-1.032
X2.054Y-1.4563
X2.0693Y-0.8268
X2.0693Y-1.7717
X2.0693Y-2.0866
X2.0693Y-2.4091
X2.0693Y-2.7091
X2.0693Y-3.0315
X2.0693Y-3.2957
X2.0693Y-3.3465
X2.0693Y-3.3941
X2.0693Y-4.2437
X2.0693Y-4.2913
X2.0693Y-4.3421
X2.1247Y-1.1028
X2.1247Y-1.527
X2.1516Y-3.4917
X2.1516Y-3.7917
X2.1693Y-0.8268
X2.1693Y-1.7717
X2.1693Y-2.0866
X2.1693Y-2.4091
X2.1693Y-2.7091
X2.1693Y-3.0315
X2.1693Y-3.3465
X2.1693Y-4.2913
X2.1878Y-3.8461
X2.1878Y-4.1461
X2.1954Y-1.1735
X2.1954Y-1.5977
X2.2516Y-3.4917
X2.2516Y-3.7917
X2.2661Y-1.2442
X2.2661Y-1.6684
X2.2693Y-0.8268
X2.2693Y-1.7717
X2.2693Y-2.0866
X2.2693Y-2.4091
X2.2693Y-2.7091
X2.2693Y-3.0315
X2.2693Y-3.2957
X2.2693Y-3.3465
X2.2693Y-3.3941
X2.2693Y-4.2437
X2.2693Y-4.2913
X2.2693Y-4.3421
X2.2878Y-3.8461
X2.2878Y-4.1461
X2.3369Y-1.3149
X2.3516Y-3.4917
X2.3516Y-3.7917
X2.3693Y-0.8268
X2.3693Y-1.7717
X2.3693Y-2.0866
X2.3693Y-2.4091
X2.3693Y-2.7091
X2.3693Y-3.0315
X2.3693Y-3.2957
X2.3693Y-3.3465
X2.3693Y-3.3941
X2.3693Y-4.2437
X2.3693Y-4.2913
X2.3693Y-4.3421
X2.3878Y-3.8461
X2.3878Y-4.1461
X2.4076Y-1.3856
X2.4516Y-3.4917
X2.4516Y-3.7917
X2.4693Y-0.8268
X2.4693Y-1.7717
X2.4693Y-2.0866
X2.4693Y-2.4091
X2.4693Y-2.7091
X2.4693Y-3.0315
X2.4693Y-3.3465
X2.4693Y-4.2913
X2.4783Y-1.4563
X2.4878Y-3.8461
X2.4878Y-4.1461
X2.5516Y-3.4917
X2.5516Y-3.7917
X2.5693Y-0.8268
X2.5693Y-1.7717
X2.5693Y-2.0866
X2.5693Y-2.4091
X2.5693Y-2.7091
X2.5693Y-3.0315
X2.5693Y-3.2957
X2.5693Y-3.3465
X2.5693Y-3.3941
X2.5693Y-4.2437
X2.5693Y-4.2913
X2.5693Y-4.3421
X2.5878Y-3.8461
X2.5878Y-4.1461
X2.5928Y-1.4603
X2.6516Y-3.4917
X2.6516Y-3.7917
X2.6635Y-1.3896
X2.6693Y-0.8268
X2.6693Y-1.7717
X2.6693Y-2.0866
X2.6693Y-2.4091
X2.6693Y-2.7091
X2.6693Y-3.0315
X2.6693Y-3.2957
X2.6693Y-3.3465
X2.6693Y-3.3941
X2.6693Y-4.2437
X2.6693Y-4.2913
X2.6693Y-4.3421
X2.6878Y-3.8461
X2.6878Y-4.1461
X2.7342Y-1.3189
X2.7516Y-3.4917
X2.7516Y-3.7917
X2.7693Y-0.8268
X2.7693Y-1.7717
X2.7693Y-2.0866
X2.7693Y-2.4091
X2.7693Y-2.7091
X2.7693Y-3.0315
X2.7693Y-3.3465
X2.7693Y-4.2913
X2.7878Y-3.8461
X2.7878Y-4.1461
X2.805Y-1.2482
X2.805Y-1.6725
X2.8516Y-3.4917
X2.8516Y-3.7917
X2.8693Y-0.8268
X2.8693Y-1.7717
X2.8693Y-2.0866
X2.8693Y-2.4091
X2.8693Y-2.7091
X2.8693Y-3.0315
X2.8693Y-3.2957
X2.8693Y-3.3465
X2.8693Y-3.3941
X2.8693Y-4.2437
X2.8693Y-4.2913
X2.8693Y-4.3421
X2.8757Y-1.1775
X2.8757Y-1.6017
X2.8878Y-3.8461
X2.8878Y-4.1461
X2.9464Y-1.1068
X2.9464Y-1.531
X2.9693Y-0.8268
X2.9693Y-1.7717
X2.9693Y-2.0866
X2.9693Y-2.4091
X2.9693Y-2.7091
X2.9693Y-3.0315
X2.9693Y-3.2957
X2.9693Y-3.3465
X2.9693Y-3.3941
X2.9693Y-4.2437
X2.9693Y-4.2913
X2.9693Y-4.3421
X2.9878Y-3.8461
X2.9878Y-4.1461
X3.0171Y-1.0361
X3.0171Y-1.4603
X3.0693Y-0.8268
X3.0693Y-1.7717
X3.0693Y-2.0866
X3.0693Y-3.0315
X3.0693Y-3.3465
X3.0693Y-4.2913
X3.0878Y-3.8461
X3.0878Y-4.1461
X3.0878Y-0.9653
X3.0878Y-1.3896
X3.1585Y-0.8946
X3.1585Y-1.3189
X3.2114Y-3.4917
X3.2114Y-3.7917
X3.2291Y-4.2437
X3.2291Y-4.3421
X3.2292Y-1.2482
X3.2295Y-0.8268
X3.2295Y-1.7717
X3.2295Y-2.0866
X3.2295Y-2.4085
X3.2295Y-2.7085
X3.2295Y-3.0315
X3.2295Y-3.2957
X3.2295Y-3.3465
X3.2295Y-3.3941
X3.2295Y-4.2913
X3.2999Y-1.1775
X3.3114Y-3.4917
X3.3114Y-3.7917
X3.3291Y-0.8268
X3.3291Y-1.7717
X3.3291Y-2.0866
X3.3291Y-2.4085
X3.3291Y-2.7085
X3.3291Y-3.0315
X3.3291Y-3.2957
X3.3291Y-3.3465
X3.3291Y-3.3941
X3.3291Y-4.2437
X3.3291Y-4.2913
X3.3291Y-4.3421
X3.3706Y-1.1068
X3.4114Y-3.4917
X3.4114Y-3.7917
X3.4291Y-0.8268
X3.4291Y-1.7717
X3.4291Y-2.0866
X3.4291Y-2.4085
X3.4291Y-2.7085
X3.4291Y-3.0315
X3.4291Y-3.3465
X3.4291Y-4.2913
X3.4476Y-3.8461
X3.4476Y-4.1461
X3.4504Y-1.1492
X3.4504Y-1.4492
X3.5114Y-3.4917
X3.5114Y-3.7917
X3.5291Y-0.8268
X3.5291Y-1.7717
X3.5291Y-2.0866
X3.5291Y-2.4085
X3.5291Y-2.7085
X3.5291Y-3.0315
X3.5291Y-3.2957
X3.5291Y-3.3465
X3.5291Y-3.3941
X3.5291Y-4.2437
X3.5291Y-4.2913
X3.5291Y-4.3421
X3.5476Y-3.8461
X3.5476Y-4.1461
X3.5504Y-1.1492
X3.5504Y-1.4492
X3.6114Y-3.4917
X3.6114Y-3.7917
X3.6291Y-0.8268
X3.6291Y-1.7717
X3.6291Y-2.0866
X3.6291Y-2.4085
X3.6291Y-2.7085
X3.6291Y-3.0315
X3.6291Y-3.2957
X3.6291Y-3.3465
X3.6291Y-3.3941
X3.6291Y-4.2437
X3.6291Y-4.2913
X3.6291Y-4.3421
X3.6476Y-3.8461
X3.6476Y-4.1461
X3.6504Y-1.1492
X3.6504Y-1.4492
X3.7114Y-3.4917
X3.7114Y-3.7917
X3.7291Y-0.8268
X3.7291Y-1.7717
X3.7291Y-2.0866
X3.7291Y-2.4085
X3.7291Y-2.7085
X3.7291Y-3.0315
X3.7291Y-3.3465
X3.7291Y-4.2913
X3.7476Y-3.8461
X3.7476Y-4.1461
X3.7504Y-0.9951
X3.7504Y-1.0935
X3.7504Y-1.1492
X3.7504Y-1.4492
X3.7504Y-1.5035
X3.7504Y-1.602
X3.8114Y-3.4917
X3.8114Y-3.7917
X3.8291Y-0.8268
X3.8291Y-1.7717
X3.8291Y-2.0866
X3.8291Y-2.4085
X3.8291Y-2.7085
X3.8291Y-3.0315
X3.8291Y-3.2957
X3.8291Y-3.3465
X3.8291Y-3.3941
X3.8291Y-4.2437
X3.8291Y-4.2913
X3.8291Y-4.3421
X3.8476Y-3.8461
X3.8476Y-4.1461
X3.8504Y-0.9951
X3.8504Y-1.0935
X3.8504Y-1.1492
X3.8504Y-1.4492
X3.8504Y-1.5035
X3.8504Y-1.602
X3.9114Y-3.4917
X3.9114Y-3.7917
X3.9291Y-0.8268
X3.9291Y-1.7717
X3.9291Y-2.0866
X3.9291Y-3.0315
X3.9291Y-3.2957
X3.9291Y-3.3465
X3.9291Y-3.3941
X3.9291Y-4.2437
X3.9291Y-4.2913
X3.9291Y-4.3421
X3.9476Y-3.8461
X3.9476Y-4.1461
X3.9504Y-0.9951
X3.9504Y-1.0935
X3.9504Y-1.1492
X3.9504Y-1.4492
X3.9504Y-1.5035
X3.9504Y-1.602
X4.0114Y-3.4917
X4.0114Y-3.7917
X4.0291Y-0.8268
X4.0291Y-1.7717
X4.0291Y-2.0866
X4.0291Y-3.0315
X4.0291Y-3.3465
X4.0291Y-4.2913
X4.0476Y-3.8461
X4.0476Y-4.1461
X4.0504Y-0.9951
X4.0504Y-1.0935
X4.0504Y-1.1492
X4.0504Y-1.4492
X4.0504Y-1.5035
X4.0504Y-1.602
X4.1114Y-3.4917
X4.1114Y-3.7917
X4.1291Y-0.8268
X4.1291Y-1.7717
X4.1291Y-2.0866
X4.1291Y-3.0315
X4.1291Y-3.2957
X4.1291Y-3.3465
X4.1291Y-3.3941
X4.1291Y-4.2437
X4.1291Y-4.2913
X4.1291Y-4.3421
X4.1476Y-3.8461
X4.1476Y-4.1461
X4.1504Y-1.1492
X4.1504Y-1.4492
X4.2291Y-0.8268
X4.2291Y-1.7717
X4.2291Y-2.0866
X4.2291Y-3.0315
X4.2291Y-3.2957
X4.2291Y-3.3465
X4.2291Y-3.3941
X4.2291Y-4.2437
X4.2291Y-4.2913
X4.2291Y-4.3421
X4.2476Y-3.8461
X4.2476Y-4.1461
X4.2504Y-1.1492
X4.2504Y-1.4492
X4.3291Y-0.8268
X4.3291Y-1.7717
X4.3291Y-2.0866
X4.3291Y-3.0315
X4.3291Y-3.3465
X4.3291Y-4.2913
X4.3476Y-3.8461
X4.3476Y-4.1461
X4.3504Y-1.1492
X4.3504Y-1.4492
T3
X0.9843Y-2.2047
X0.9843Y-2.3047
X0.9843Y-2.4091
X0.9843Y-2.5091
X0.9843Y-2.6091
X0.9843Y-2.7091
T0
M30
